<svg width="24" height="25" viewBox="0 0 24 25" fill="none" xmlns="http://www.w3.org/2000/svg">
<path d="M16.3125 11.75H12.75V8.1875C12.75 8.08437 12.6656 8 12.5625 8H11.4375C11.3344 8 11.25 8.08437 11.25 8.1875V11.75H7.6875C7.58437 11.75 7.5 11.8344 7.5 11.9375V13.0625C7.5 13.1656 7.58437 13.25 7.6875 13.25H11.25V16.8125C11.25 16.9156 11.3344 17 11.4375 17H12.5625C12.6656 17 12.75 16.9156 12.75 16.8125V13.25H16.3125C16.4156 13.25 16.5 13.1656 16.5 13.0625V11.9375C16.5 11.8344 16.4156 11.75 16.3125 11.75Z" fill="white"/>
<path d="M12 2C6.20156 2 1.5 6.70156 1.5 12.5C1.5 18.2984 6.20156 23 12 23C17.7984 23 22.5 18.2984 22.5 12.5C22.5 6.70156 17.7984 2 12 2ZM12 21.2188C7.18594 21.2188 3.28125 17.3141 3.28125 12.5C3.28125 7.68594 7.18594 3.78125 12 3.78125C16.8141 3.78125 20.7188 7.68594 20.7188 12.5C20.7188 17.3141 16.8141 21.2188 12 21.2188Z" fill="white"/>
</svg>
