<svg width="24" height="25" viewBox="0 0 24 25" fill="none" xmlns="http://www.w3.org/2000/svg">
<path d="M16.3125 11.5757H12.75V8.01318C12.75 7.91006 12.6656 7.82568 12.5625 7.82568H11.4375C11.3344 7.82568 11.25 7.91006 11.25 8.01318V11.5757H7.6875C7.58437 11.5757 7.5 11.6601 7.5 11.7632V12.8882C7.5 12.9913 7.58437 13.0757 7.6875 13.0757H11.25V16.6382C11.25 16.7413 11.3344 16.8257 11.4375 16.8257H12.5625C12.6656 16.8257 12.75 16.7413 12.75 16.6382V13.0757H16.3125C16.4156 13.0757 16.5 12.9913 16.5 12.8882V11.7632C16.5 11.6601 16.4156 11.5757 16.3125 11.5757Z" fill="#18191F"/>
<path d="M12 1.82568C6.20156 1.82568 1.5 6.52725 1.5 12.3257C1.5 18.1241 6.20156 22.8257 12 22.8257C17.7984 22.8257 22.5 18.1241 22.5 12.3257C22.5 6.52725 17.7984 1.82568 12 1.82568ZM12 21.0444C7.18594 21.0444 3.28125 17.1397 3.28125 12.3257C3.28125 7.51162 7.18594 3.60693 12 3.60693C16.8141 3.60693 20.7188 7.51162 20.7188 12.3257C20.7188 17.1397 16.8141 21.0444 12 21.0444Z" fill="#18191F"/>
</svg>
