<svg width="26" height="35" viewBox="0 0 26 35" fill="none" xmlns="http://www.w3.org/2000/svg">
<path d="M20.6186 16.4155C20.778 16.2505 20.8662 16.0294 20.8642 15.8C20.8622 15.5706 20.7702 15.3511 20.608 15.1889C20.4457 15.0267 20.2263 14.9346 19.9968 14.9327C19.7674 14.9307 19.5464 15.0189 19.3814 15.1782L13 21.5596L10.1186 18.6782C9.95359 18.5189 9.73256 18.4307 9.50314 18.4326C9.27372 18.4346 9.05426 18.5267 8.89202 18.6889C8.72979 18.8511 8.63777 19.0706 8.63578 19.3C8.63378 19.5294 8.72198 19.7505 8.88136 19.9155L13 24.0341L20.6186 16.4155Z" fill="#18191F"/>
<path fillRule="evenodd" clipRule="evenodd" d="M25.25 9.67188V28.0469C25.25 28.7431 24.9734 29.4107 24.4812 29.903C23.9889 30.3953 23.3212 30.6719 22.625 30.6719H6.875C6.17881 30.6719 5.51113 30.3953 5.01884 29.903C4.52656 29.4107 4.25 28.7431 4.25 28.0469V3.54688C4.25 2.85068 4.52656 2.183 5.01884 1.69072C5.51113 1.19844 6.17881 0.921875 6.875 0.921875H16.5L25.25 9.67188ZM16.5 10.5469C16.2679 10.5469 16.0454 10.4547 15.8813 10.2906C15.7172 10.1265 15.625 9.90394 15.625 9.67188V2.67188H6.875C6.64294 2.67188 6.42038 2.76406 6.25628 2.92816C6.09219 3.09225 6 3.31481 6 3.54688V28.0469C6 28.2789 6.09219 28.5015 6.25628 28.6656C6.42038 28.8297 6.64294 28.9219 6.875 28.9219H22.625C22.8571 28.9219 23.0796 28.8297 23.2437 28.6656C23.4078 28.5015 23.5 28.2789 23.5 28.0469V10.5469H16.5ZM17.375 4.27138L21.9005 8.79688H17.375V4.27138Z" fill="#18191F"/>
<path d="M2.5 6.17188V29.7969C2.5 30.4931 2.77656 31.1607 3.26884 31.653C3.76113 32.1453 4.42881 32.4219 5.125 32.4219H21.75V34.1719H5.125C3.96468 34.1719 2.85188 33.7109 2.03141 32.8905C1.21094 32.07 0.75 30.9572 0.75 29.7969V6.17188H2.5Z" fill="#18191F"/>
</svg>
