<svg width="80" height="80" viewBox="0 0 80 80" fill="none" xmlns="http://www.w3.org/2000/svg">
<path d="M36.0722 62.8573C37.6678 62.8553 39.214 62.2857 40.4499 61.2448C41.6858 60.2038 42.5358 58.7552 42.8566 57.1431H29.2852C29.6065 58.7553 30.4571 60.204 31.6934 61.245C32.9297 62.2859 34.4762 62.8553 36.0722 62.8573Z" fill="#FFE466"/>
<path d="M50.4087 44.5798C50.3602 44.5798 50.3123 44.5882 50.2639 44.5882C47.481 44.5929 44.7509 43.8293 42.3743 42.3815C39.9977 40.9337 38.0669 38.8578 36.7948 36.3827C35.5226 33.9076 34.9584 31.1293 35.1643 28.354C35.3703 25.5787 36.3384 22.9141 37.962 20.6539V19.0354C37.962 18.5335 37.7626 18.0522 37.4077 17.6973C37.0529 17.3424 36.5716 17.1431 36.0697 17.1431C35.5678 17.1431 35.0865 17.3424 34.7317 17.6973C34.3768 18.0522 34.1774 18.5335 34.1774 19.0354V21.0796C31.0275 21.5358 28.1469 23.11 26.0618 25.5147C23.9767 27.9194 22.8263 30.994 22.8208 34.1768V39.4545C22.8214 41.3058 22.4172 43.1348 21.6364 44.8133C20.8556 46.4918 19.7172 47.9792 18.3009 49.1713C17.7866 49.6116 17.4195 50.199 17.2491 50.8543C17.0788 51.5096 17.1133 52.2014 17.3481 52.8365C17.5829 53.4716 18.0067 54.0194 18.5624 54.4063C19.1181 54.7931 19.7789 55.0004 20.456 55.0002H51.6863C52.3653 55.0005 53.028 54.792 53.5846 54.4031C54.1412 54.0142 54.5648 53.4636 54.7981 52.8259C55.0314 52.1882 55.063 51.4942 54.8888 50.8379C54.7146 50.1817 54.3428 49.5948 53.8239 49.1568C52.352 47.9113 51.1839 46.3461 50.4088 44.5805L50.4087 44.5798Z" fill="#FFD200"/>
<ellipse cx="51.1429" cy="28.5" rx="12.1429" ry="12.5" fill="#FFE466"/>
<path d="M49.68 34V32.32H51.584V34H49.68ZM49.68 31.48V23.92H51.584V31.48H49.68Z" fill="white"/>
</svg>
