<svg width="24" height="42" viewBox="0 0 24 42" fill="none" xmlns="http://www.w3.org/2000/svg">
<path d="M9.86084 41.378V36.23H14.4588V41.378H9.86084ZM9.86084 6.112V0.941999H14.4588V6.112H9.86084ZM12.3908 37.66C10.1908 37.66 8.22551 37.264 6.49484 36.472C4.76418 35.68 3.34151 34.558 2.22684 33.106C1.12684 31.6393 0.408177 29.9087 0.0708439 27.914L4.62484 27.188C5.06484 29.0653 6.00351 30.5613 7.44084 31.676C8.87818 32.776 10.6015 33.326 12.6108 33.326C14.6055 33.326 16.2262 32.8493 17.4728 31.896C18.7342 30.9427 19.3648 29.7253 19.3648 28.244C19.3648 27.188 19.0422 26.33 18.3968 25.67C17.7662 25.01 16.7322 24.4527 15.2948 23.998L7.85884 21.71C3.45884 20.346 1.25884 17.706 1.25884 13.79C1.25884 11.942 1.69884 10.336 2.57884 8.972C3.47351 7.608 4.72751 6.552 6.34084 5.804C7.95418 5.056 9.83884 4.682 11.9948 4.682C14.0628 4.71133 15.8962 5.09266 17.4948 5.826C19.1082 6.55933 20.4428 7.61533 21.4988 8.994C22.5695 10.3727 23.3102 12.03 23.7208 13.966L19.0348 14.802C18.8295 13.6727 18.3968 12.6753 17.7368 11.81C17.0915 10.9447 16.2702 10.27 15.2728 9.786C14.2902 9.302 13.1828 9.05266 11.9508 9.038C10.7922 9.00867 9.75084 9.192 8.82684 9.588C7.91751 9.96933 7.19151 10.512 6.64884 11.216C6.12084 11.9053 5.85684 12.69 5.85684 13.57C5.85684 14.538 6.23084 15.3593 6.97884 16.034C7.72684 16.7087 8.90751 17.288 10.5208 17.772L16.3508 19.466C19.0202 20.258 20.9488 21.3213 22.1368 22.656C23.3248 23.9907 23.9188 25.7653 23.9188 27.98C23.9188 29.916 23.4348 31.61 22.4668 33.062C21.5135 34.4993 20.1715 35.6287 18.4408 36.45C16.7102 37.2567 14.6935 37.66 12.3908 37.66Z" fill="white"/>
</svg>
