<svg width="49" height="49" viewBox="0 0 49 49" fill="none" xmlns="http://www.w3.org/2000/svg">
<path d="M28.0391 16.5H9.3724C9.01877 16.5 8.67964 16.3595 8.42959 16.1095C8.17954 15.8594 8.03906 15.5203 8.03906 15.1667V9.83333C8.03906 9.47971 8.17954 9.14057 8.42959 8.89052C8.67964 8.64048 9.01877 8.5 9.3724 8.5H28.0391C28.3927 8.5 28.7318 8.64048 28.9819 8.89052C29.2319 9.14057 29.3724 9.47971 29.3724 9.83333V15.1667C29.3724 15.5203 29.2319 15.8594 28.9819 16.1095C28.7318 16.3595 28.3927 16.5 28.0391 16.5ZM10.7057 13.8333H26.7057V11.0867H10.7057V13.8333Z" fill="white"/>
<path d="M28.0391 19.2734H9.3724C9.01877 19.2734 8.67964 19.4139 8.42959 19.664C8.17954 19.914 8.03906 20.2531 8.03906 20.6068V25.8334C8.03906 26.1871 8.17954 26.5262 8.42959 26.7762C8.67964 27.0263 9.01877 27.1668 9.3724 27.1668H24.5191L29.3724 22.2334V20.6068C29.3724 20.2531 29.2319 19.914 28.9819 19.664C28.7318 19.4139 28.3927 19.2734 28.0391 19.2734ZM26.7057 24.5001H10.7057V21.8334H26.7057V24.5001Z" fill="white"/>
<path d="M14.7856 42.5127V42.4327L15.2122 40.5793H5.37223V5.83268H32.0389V19.4993L34.7056 16.9793V4.49935C34.7056 4.14573 34.5651 3.80659 34.315 3.55654C34.065 3.30649 33.7259 3.16602 33.3722 3.16602H4.0389C3.68528 3.16602 3.34614 3.30649 3.09609 3.55654C2.84604 3.80659 2.70557 4.14573 2.70557 4.49935V41.8327C2.70557 42.1863 2.84604 42.5254 3.09609 42.7755C3.34614 43.0255 3.68528 43.166 4.0389 43.166H14.7056C14.7166 42.9466 14.7433 42.7283 14.7856 42.5127Z" fill="white"/>
<path d="M29.3725 26.0605L28.3325 27.1139C28.5905 27.0607 28.827 26.9323 29.0121 26.7448C29.1972 26.5573 29.3226 26.3192 29.3725 26.0605Z" fill="white"/>
<path d="M8.03906 36.4207C8.03906 36.7743 8.17954 37.1134 8.42959 37.3635C8.67964 37.6135 9.01877 37.754 9.3724 37.754H15.8257L16.2257 36.0207L16.3991 35.2873V35.2207H10.7057V32.5007H19.1591L21.8257 29.834H9.3724C9.01877 29.834 8.67964 29.9745 8.42959 30.2245C8.17954 30.4746 8.03906 30.8137 8.03906 31.1673V36.4207Z" fill="white"/>
<path d="M44.6924 22.7257L40.199 18.2324C39.9996 18.0324 39.7627 17.8738 39.5019 17.7655C39.2411 17.6573 38.9614 17.6016 38.679 17.6016C38.3966 17.6016 38.117 17.6573 37.8562 17.7655C37.5954 17.8738 37.3584 18.0324 37.159 18.2324L18.879 36.6191L17.3724 43.0324C17.316 43.3091 17.3147 43.5942 17.3686 43.8713C17.4226 44.1485 17.5307 44.4123 17.6867 44.6476C17.8428 44.883 18.0438 45.0852 18.2781 45.2427C18.5124 45.4003 18.7755 45.51 19.0524 45.5657C19.1898 45.5795 19.3283 45.5795 19.4657 45.5657C19.6291 45.5923 19.7957 45.5923 19.959 45.5657L26.4257 44.139L44.6924 25.8324C44.8919 25.6341 45.0503 25.3983 45.1584 25.1386C45.2664 24.8789 45.3221 24.6004 45.3221 24.3191C45.3221 24.0377 45.2664 23.7592 45.1584 23.4995C45.0503 23.2398 44.8919 23.004 44.6924 22.8057V22.7257ZM25.0657 41.7124L20.1857 42.7924L21.3724 37.9524L35.079 24.0991L38.839 27.8591L25.0657 41.7124ZM40.3457 26.3524L36.5857 22.5924L38.7057 20.4991L42.4924 24.2857L40.3457 26.3524Z" fill="white"/>
</svg>
