<svg width="96" height="31" viewBox="0 0 96 31" fill="none" xmlns="http://www.w3.org/2000/svg">
<path d="M86.5517 12.2223C86.7253 11.846 86.5226 11.2961 86.6962 10.9199C86.9276 10.0226 87.709 10.1093 88.3169 10.5722C88.3169 10.5722 88.4616 10.4564 88.3458 10.3117C90.6616 12.0189 91.241 15.1157 92.1677 17.4599C93.4128 20.4987 94.3974 23.5085 95.4978 26.6631C96.0771 28.5732 94.341 31.1494 92.0832 30.1079C87.5389 28.2854 83.1103 26.6076 78.3923 25.1613C77.7556 24.9589 77.4082 24.5248 77.2055 23.9749C76.945 23.946 76.8292 23.8013 76.8292 23.8013C76.3371 23.483 76.3371 23.483 76.1344 22.9332C76.0186 22.7885 76.0186 22.7885 76.0475 22.528C75.8159 22.2386 75.8448 21.9781 76.0183 21.6018C75.642 21.4282 75.6709 21.1677 75.9603 20.9361C75.9892 20.6756 76.1628 20.2994 76.4522 20.0678C76.5969 19.952 76.7416 19.8362 76.8863 19.7204C77.1756 19.4888 77.4361 19.5177 77.6966 19.5465C78.0729 19.7201 78.4781 19.6332 78.7097 19.9226C78.7097 19.9226 78.7097 19.9226 78.8255 20.0673C78.9702 19.9515 79.1149 19.8357 79.3754 19.8646C79.6359 19.8935 79.8675 20.1829 80.128 20.2118C80.128 20.2118 80.128 20.2118 80.2438 20.3565C81.0541 20.1826 81.8356 20.2693 82.6171 20.356C79.1144 17.4624 75.3224 14.8004 71.2121 12.6305C64.1204 8.81136 56.0738 6.46853 47.8539 5.68865C31.6746 4.15778 13.8758 10.0945 1.83773 21.153C1.11427 21.732 0.303681 20.7191 0.91134 19.9954C13.4411 6.88191 30.3134 -0.212323 48.5187 0.884012C61.7457 1.69188 75.8998 7.21724 85.6554 16.7376C85.5682 15.1457 85.8863 13.467 86.5517 12.2223Z" fill="#18194F"/>
</svg>
