<svg width="45" height="42" viewBox="0 0 45 42" fill="none" xmlns="http://www.w3.org/2000/svg">
<path d="M28.1996 10.6663H32.6163H28.1996ZM28.1996 19.4997H32.6163H28.1996ZM21.5746 28.333H10.5329H21.5746ZM41.4496 19.4997V6.24967C41.4496 5.0783 40.9843 3.9549 40.156 3.12662C39.3277 2.29833 38.2043 1.83301 37.0329 1.83301H6.11625C4.94488 1.83301 3.82148 2.29833 2.9932 3.12662C2.16491 3.9549 1.69958 5.0783 1.69958 6.24967V32.7497C1.69958 33.921 2.16491 35.0444 2.9932 35.8727C3.82148 36.701 4.94488 37.1663 6.11625 37.1663H21.5746L41.4496 19.4997ZM10.5329 10.6663V19.4997H19.3663V10.6663H10.5329Z" stroke="white" strokeWidth="3" stroke-linecap="round" stroke-linejoin="round"/>
<path d="M39.2787 36.2589L43.1035 40.0837M39.2787 36.2589C39.7914 35.7462 40.1981 35.1375 40.4756 34.4676C40.7531 33.7977 40.8959 33.0797 40.8959 32.3546C40.8959 31.6295 40.7531 30.9115 40.4756 30.2416C40.1981 29.5717 39.7914 28.963 39.2787 28.4502C38.766 27.9375 38.1573 27.5308 37.4874 27.2533C36.8174 26.9758 36.0994 26.833 35.3743 26.833C34.6492 26.833 33.9312 26.9758 33.2613 27.2533C32.5914 27.5308 31.9827 27.9375 31.47 28.4502C30.4345 29.4857 29.8528 30.8902 29.8528 32.3546C29.8528 33.819 30.4345 35.2234 31.47 36.2589C32.5055 37.2944 33.9099 37.8761 35.3743 37.8761C36.8388 37.8761 38.2432 37.2944 39.2787 36.2589Z" stroke="white" strokeWidth="3" stroke-linecap="round" stroke-linejoin="round"/>
</svg>
