<svg width="47" height="41" viewBox="0 0 47 41" fill="none" xmlns="http://www.w3.org/2000/svg">
<path d="M24.1794 0.641633C23.9401 0.641396 23.7037 0.693106 23.4863 0.793191C23.269 0.893276 23.076 1.03935 22.9206 1.22132L22.755 1.34057C17.7697 -0.123555 12.1153 1.00932 8.17008 4.74251C4.66877 8.05169 3.33052 12.6296 4.15202 16.9126L4.10233 16.959L1.87964 19.0624C1.42678 19.4803 1.06537 19.9874 0.818173 20.5518C0.570978 21.1162 0.443359 21.7257 0.443359 22.3418C0.443359 22.958 0.570978 23.5675 0.818173 24.1319C1.06537 24.6963 1.42678 25.2034 1.87964 25.6212C3.01252 26.6978 4.56939 27.135 6.04345 26.9329C6.25545 27.7048 6.68277 28.4368 7.32208 29.043C8.18664 29.8612 9.29633 30.3084 10.4292 30.3879C10.512 31.4578 10.9857 32.5079 11.8536 33.3261C12.7148 34.1443 13.8245 34.5914 14.9574 34.6709C15.0402 35.7409 15.5139 36.7909 16.3818 37.6091C17.2457 38.4076 18.3584 38.884 19.5324 38.9582C20.7065 39.0324 21.8703 38.6999 22.8279 38.0166L23.921 39.0501C25.8423 40.8719 28.966 40.8719 30.8905 39.0501C31.7518 38.2352 32.2288 37.1918 32.3149 36.1251C33.4411 36.0423 34.5409 35.5951 35.4021 34.7803C36.2634 33.9654 36.7404 32.9219 36.8265 31.8553C37.9362 31.7626 39.0194 31.3154 39.874 30.5138C40.5398 29.8811 40.9771 29.1093 41.1758 28.2977C42.6333 28.4733 44.1538 28.0327 45.2701 26.9793C45.7229 26.5615 46.0844 26.0544 46.3316 25.49C46.5787 24.9256 46.7064 24.3161 46.7064 23.6999C46.7064 23.0838 46.5787 22.4743 46.3316 21.9099C46.0844 21.3455 45.7229 20.8384 45.2701 20.4206L43.3025 18.5589L43.6768 17.1677C44.5449 13.9445 44.1056 10.5089 42.4545 7.60782C40.0198 3.29494 35.3061 0.65157 30.2313 0.65157H26.8559C26.7036 0.644553 26.5512 0.64124 26.3988 0.641633H24.1761H24.1794ZM38.6616 18.7179L40.2715 20.3079C40.3719 20.4057 40.4844 20.4903 40.6061 20.5597L42.8619 22.6929C43.0006 22.8208 43.1113 22.9759 43.1871 23.1487C43.2628 23.3214 43.3019 23.508 43.3019 23.6966C43.3019 23.8853 43.2628 24.0718 43.1871 24.2446C43.1113 24.4173 43.0006 24.5725 42.8619 24.7003C42.5731 24.9666 42.1947 25.1145 41.8019 25.1145C41.4091 25.1145 41.0307 24.9666 40.7419 24.7003L36.9656 21.1328C36.6382 20.8303 36.2089 20.6624 35.7632 20.6624C35.3175 20.6624 34.8882 20.8303 34.5608 21.1328L34.521 21.1659C33.8585 21.7953 33.8585 22.8155 34.521 23.4449L37.4658 26.2274C37.6046 26.3555 37.7154 26.5109 37.7912 26.684C37.8669 26.857 37.9061 27.0438 37.9061 27.2327C37.9061 27.4216 37.8669 27.6085 37.7912 27.7815C37.7154 27.9545 37.6046 28.11 37.4658 28.2381C37.2029 28.4814 36.8645 28.6273 36.5071 28.6514C36.1497 28.6755 35.7947 28.5764 35.5015 28.3706C35.1685 28.1346 34.7643 28.0206 34.3571 28.0478C33.9498 28.0749 33.5644 28.2416 33.2656 28.5196C32.977 28.7883 32.8019 29.157 32.7761 29.5504C32.7502 29.9438 32.8755 30.3322 33.1265 30.6363C33.3469 30.9059 33.4559 31.2495 33.4313 31.5968C33.4066 31.9441 33.2502 32.2688 32.994 32.5046C32.7274 32.7512 32.3835 32.8976 32.021 32.9188C31.6585 32.9399 31.2998 32.8345 31.0065 32.6205C30.6749 32.3781 30.2695 32.2581 29.8593 32.2811C29.4492 32.304 29.0597 32.4685 28.7573 32.7464C28.4649 33.0145 28.2868 33.3848 28.2596 33.7806C28.2325 34.1764 28.3585 34.5675 28.6115 34.873C29.0753 35.4361 29.0322 36.2543 28.4823 36.7744C28.1888 37.0444 27.8046 37.1943 27.4058 37.1943C27.007 37.1943 26.6227 37.0444 26.3292 36.7744L25.2626 35.7674L25.5408 35.5057C25.9937 35.0879 26.3551 34.5808 26.6023 34.0164C26.8495 33.452 26.9771 32.8425 26.9771 32.2263C26.9771 31.6102 26.8495 31.0007 26.6023 30.4363C26.3551 29.8719 25.9937 29.3648 25.5408 28.9469C24.6923 28.152 23.594 27.6766 22.4337 27.6021C22.3421 26.4793 21.8341 25.4313 21.0093 24.6639C20.1622 23.8685 19.0651 23.3919 17.9055 23.3157C17.8139 22.1929 17.3059 21.1449 16.4811 20.3775C15.9284 19.8628 15.2678 19.4779 14.5475 19.251C13.8272 19.0241 13.0652 18.9608 12.3173 19.0658C12.0925 18.2595 11.6501 17.5306 11.0387 16.959C10.5505 16.5022 9.97641 16.1469 9.34977 15.9137C8.72312 15.6806 8.05641 15.5742 7.38833 15.6009C7.21024 14.0207 7.40582 12.4207 7.95932 10.93C8.51282 9.4392 9.40876 8.09929 10.575 7.01819C11.7158 5.95286 13.0624 5.13208 14.5321 4.60629C16.0018 4.08051 17.5635 3.86083 19.1212 3.96076L15.494 6.57763C14.9374 6.97281 14.4679 7.47816 14.1147 8.06233C13.7615 8.6465 13.5321 9.29702 13.4408 9.97352C13.3495 10.65 13.3982 11.3381 13.5839 11.995C13.7695 12.6519 14.0882 13.2636 14.5201 13.7923C15.3914 14.8595 16.6356 15.5558 18.0009 15.7403C19.3662 15.9248 20.7506 15.5837 21.8739 14.786L26.3358 11.5729H31.1058L38.6616 18.7179ZM17.4318 9.26076L24.7955 3.95413H26.4021C26.5402 3.95274 26.6783 3.95606 26.8161 3.96407H30.228C34.1765 3.96407 37.754 6.01782 39.5693 9.23757C40.7386 11.3013 41.0864 13.6763 40.5696 15.9487L33.2391 8.73407C32.9295 8.43051 32.5133 8.26044 32.0797 8.26038H25.7959C25.4488 8.26026 25.1105 8.36918 24.8286 8.57176L19.9394 12.0996C19.5039 12.4022 18.9708 12.5306 18.4453 12.4595C17.9197 12.3883 17.44 12.1228 17.1006 11.7153C16.9505 11.5371 16.8394 11.3295 16.7744 11.1058C16.7094 10.882 16.6919 10.6472 16.7231 10.4163C16.7543 10.1854 16.8335 9.96363 16.9555 9.76519C17.0776 9.56674 17.2398 9.39604 17.4318 9.26407V9.26076ZM21.016 31.216C21.3055 30.9506 21.6844 30.8039 22.0772 30.8051C22.4701 30.8064 22.848 30.9554 23.136 31.2226C23.2747 31.3504 23.3854 31.5056 23.4611 31.6784C23.5369 31.8511 23.576 32.0377 23.576 32.2263C23.576 32.4149 23.5369 32.6015 23.4611 32.7743C23.3854 32.947 23.2747 33.1022 23.136 33.23L20.91 35.3334C20.6212 35.5998 20.2428 35.7476 19.85 35.7476C19.4571 35.7476 19.0787 35.5998 18.79 35.3334C18.6512 35.2056 18.5405 35.0505 18.4648 34.8777C18.389 34.705 18.3499 34.5184 18.3499 34.3298C18.3499 34.1411 18.389 33.9546 18.4648 33.7818C18.5405 33.6091 18.6512 33.4539 18.79 33.3261L21.016 31.2193V31.216ZM18.6111 28.9403L16.3818 31.0504C16.0928 31.3176 15.7137 31.4661 15.3201 31.4661C14.9265 31.4661 14.5474 31.3176 14.2585 31.0504C14.1228 30.9252 14.014 30.7738 13.9385 30.6054C13.8631 30.4369 13.8226 30.2549 13.8195 30.0703C13.8164 29.8858 13.8507 29.7025 13.9205 29.5316C13.9903 29.3608 14.094 29.2058 14.2253 29.0761L14.2585 29.043L16.4811 26.9396L16.5143 26.9064C16.8053 26.653 17.1798 26.5162 17.5657 26.5223C17.9516 26.5284 18.3216 26.6771 18.6045 26.9396C18.7425 27.0669 18.8529 27.2213 18.9285 27.3932C19.0042 27.565 19.0436 27.7507 19.0442 27.9385C19.0448 28.1263 19.0067 28.3122 18.9321 28.4846C18.8576 28.657 18.7483 28.8121 18.6111 28.9403ZM14.073 24.6639L11.8536 26.764L11.8171 26.7971C11.5263 27.0496 11.1525 27.1859 10.7674 27.1798C10.3823 27.1736 10.013 27.0256 9.73027 26.764C9.59155 26.6362 9.48083 26.481 9.4051 26.3083C9.32936 26.1355 9.29026 25.9489 9.29026 25.7603C9.29026 25.5717 9.32936 25.3851 9.4051 25.2124C9.48083 25.0396 9.59155 24.8844 9.73027 24.7566L11.9496 22.6565C12.2388 22.3883 12.6186 22.2393 13.013 22.2393C13.4073 22.2393 13.7871 22.3883 14.0763 22.6565C14.2119 22.7817 14.3208 22.9331 14.3962 23.1015C14.4717 23.27 14.5122 23.452 14.5153 23.6365C14.5184 23.8211 14.484 24.0044 14.4142 24.1752C14.3445 24.3461 14.2408 24.5011 14.1094 24.6308L14.0763 24.6639H14.073ZM8.63383 21.2421L6.41114 23.3455C6.12238 23.6118 5.74396 23.7597 5.35114 23.7597C4.95832 23.7597 4.5799 23.6118 4.29114 23.3455C4.15242 23.2177 4.0417 23.0625 3.96597 22.8898C3.89024 22.717 3.85114 22.5304 3.85114 22.3418C3.85114 22.1532 3.89024 21.9666 3.96597 21.7939C4.0417 21.6211 4.15242 21.4659 4.29114 21.3381L6.51052 19.2347C6.79946 18.9674 7.17858 18.819 7.57217 18.819C7.96577 18.819 8.34488 18.9674 8.63383 19.2347C8.77255 19.3625 8.88327 19.5177 8.959 19.6904C9.03473 19.8632 9.07383 20.0498 9.07383 20.2384C9.07383 20.427 9.03473 20.6136 8.959 20.7863C8.88327 20.9591 8.77255 21.1143 8.63383 21.2421Z" fill="white"/>
</svg>
