<svg width="35" height="42" viewBox="0 0 35 42" fill="none" xmlns="http://www.w3.org/2000/svg">
<path fillRule="evenodd" clipRule="evenodd" d="M8.05035 32.0913C9.26511 32.0913 10.25 33.0757 10.25 34.2822C10.25 35.4956 9.26168 36.4766 8.05035 36.4766C6.83216 36.4766 5.84732 35.4922 5.84732 34.2822C5.85075 33.0723 6.83559 32.0913 8.05035 32.0913ZM32.9666 41.9966H1.96969V42C1.43438 42 0.940237 41.7778 0.579927 41.4224V41.4189H0.576496L0.573064 41.4155C0.219617 41.0601 0 40.5713 0 40.0381V6.91797C0 6.37793 0.223049 5.88574 0.579927 5.53027C0.936806 5.1748 1.43095 4.95264 1.97313 4.95264H7.09296V3.98877C7.09296 3.62988 7.24051 3.30176 7.48072 3.0625L7.48415 3.05908L7.48758 3.05566C7.72779 2.81982 8.05722 2.67285 8.41753 2.67285H11.4407V1.45947C11.4407 1.05957 11.6054 0.697266 11.8696 0.430664L11.8731 0.427246C12.1373 0.164062 12.501 0 12.9025 0H22.1299C22.5314 0 22.8951 0.164062 23.1628 0.430664L23.1662 0.427246C23.4304 0.69043 23.5952 1.05615 23.5952 1.45947V2.67627H26.3198C26.6801 2.67627 27.0095 2.82324 27.2497 3.0625L27.2532 3.06592L27.2566 3.06934L27.26 3.07275C27.4968 3.31201 27.6444 3.64014 27.6444 3.99902V4.96289H32.7642C33.3029 4.96289 33.7971 5.18506 34.1539 5.54053L34.1574 5.53711C34.5143 5.89258 34.7373 6.38477 34.7373 6.9248V41.9966H32.9666V6.91797C32.9666 6.86328 32.9426 6.81543 32.9083 6.77783L32.9117 6.77441H32.9083C32.874 6.74023 32.8225 6.71973 32.7676 6.71973H27.6478V8.48682C27.6478 8.8457 27.5002 9.17383 27.26 9.41309H27.2566L27.2532 9.4165L27.2497 9.41992C27.0095 9.65576 26.6801 9.80273 26.3198 9.80273H8.41409C8.05035 9.80273 7.7175 9.65576 7.48072 9.4165C7.45327 9.38916 7.42582 9.3584 7.40523 9.32764C7.21306 9.09863 7.09296 8.80127 7.09296 8.4834V6.71631H1.96969C1.91479 6.71631 1.86675 6.74023 1.829 6.77441C1.79125 6.81201 1.77067 6.85986 1.77067 6.91455V40.0312C1.77067 40.0859 1.79125 40.1372 1.829 40.1714L1.83243 40.1748C1.86675 40.209 1.91822 40.2329 1.97313 40.2329V40.2363L32.9632 40.2397V41.9966H32.9666ZM22.9672 4.42969C22.8642 4.42969 22.7647 4.4126 22.6755 4.37842C22.1917 4.37842 21.797 3.98535 21.797 3.50342V1.77051H13.2388V3.50342C13.2388 3.95801 12.8922 4.33057 12.4427 4.375C12.3466 4.40918 12.2437 4.42969 12.1407 4.42969H8.92196V8.00488H25.8188V4.42969H22.9672ZM16.2277 27.1558H9.0352V30.29C9.0352 30.8301 8.59597 31.2676 8.05378 31.2676C7.5116 31.2676 7.07237 30.8301 7.07237 30.29V26.4722C7.07237 26.4209 7.0758 26.373 7.08266 26.3252C7.0758 26.2773 7.07237 26.2295 7.07237 26.1782C7.07237 25.6382 7.5116 25.2007 8.05378 25.2007H16.1728L16.1419 22.5688C15.9463 22.5107 15.7507 22.4458 15.5585 22.3672C15.3664 22.2852 15.1811 22.1997 15.0026 22.0972L14.3918 22.7671C14.2786 22.8833 14.1379 22.9414 13.9766 22.9482C13.8153 22.9551 13.6712 22.9038 13.5511 22.7978L12.6555 21.9604C12.5354 21.8442 12.4667 21.7075 12.4599 21.5469C12.453 21.3828 12.5079 21.2461 12.6211 21.1333L13.2903 20.4121C13.1873 20.2344 13.0913 20.0498 13.0158 19.8618C12.9368 19.6738 12.8682 19.4756 12.8099 19.2739L11.9142 19.3081C11.7495 19.3149 11.6088 19.2603 11.4853 19.1475C11.3652 19.0312 11.3034 18.8945 11.2966 18.7407L11.2485 17.5171C11.2417 17.353 11.2931 17.2129 11.403 17.0898C11.5162 16.9702 11.65 16.9087 11.8182 16.9019L12.7962 16.8643C12.8545 16.6626 12.9197 16.4678 12.9986 16.2764C13.0775 16.085 13.1668 15.9004 13.2697 15.7227L12.6074 15.1143C12.4873 15.0015 12.4187 14.8647 12.4118 14.7007C12.405 14.54 12.4599 14.3965 12.5731 14.2734L13.3967 13.3813C13.5133 13.2617 13.6472 13.1934 13.8119 13.1865C13.9766 13.1797 14.1139 13.2378 14.2271 13.3472L14.9649 14.0137C15.133 13.9146 15.3115 13.8188 15.5036 13.7368C15.6924 13.6582 15.8914 13.5898 16.0938 13.5317L16.0595 12.6396C16.0527 12.4756 16.1076 12.3354 16.2208 12.2124C16.3375 12.0928 16.4747 12.0312 16.6292 12.0244L17.8576 11.98C18.0224 11.9731 18.1631 12.0244 18.2866 12.1338C18.4067 12.2466 18.4685 12.3799 18.4753 12.5474L18.5131 13.5215C18.7087 13.5796 18.9043 13.6445 19.0964 13.7231C19.2886 13.7983 19.4739 13.8906 19.6523 13.9932L20.2631 13.3369C20.3764 13.2173 20.5171 13.1489 20.6784 13.1421C20.8396 13.1353 20.9838 13.1899 21.1073 13.3027L21.121 13.313L22.0167 14.1333C22.1368 14.2495 22.2054 14.3828 22.2122 14.5469C22.2191 14.7109 22.1608 14.8477 22.051 14.9604L21.3818 15.6953C21.4813 15.8696 21.5774 16.0474 21.6598 16.2422C21.7387 16.437 21.8073 16.6284 21.8657 16.8232L22.7613 16.7891C22.926 16.7822 23.0667 16.8369 23.1902 16.9497C23.3103 17.0659 23.3721 17.2026 23.379 17.3564L23.427 18.5801C23.4339 18.7441 23.3824 18.8843 23.2726 19.0073C23.1593 19.127 23.0255 19.1885 22.8574 19.1953L21.8794 19.2329C21.8211 19.4277 21.7559 19.6226 21.6769 19.814C21.5946 20.0054 21.5088 20.1899 21.4058 20.3677L22.0784 20.9761C22.1951 21.0889 22.2534 21.229 22.2603 21.3896C22.2672 21.5503 22.2157 21.6904 22.1093 21.8135L21.2686 22.709C21.1622 22.8286 21.0249 22.8936 20.8602 22.9038C20.6955 22.9106 20.5548 22.856 20.4382 22.7432L19.7141 22.0767C19.5357 22.1792 19.3504 22.2749 19.1582 22.3501C18.9695 22.4287 18.7704 22.4971 18.568 22.5552L18.5989 25.1973H26.7007C27.2429 25.1973 27.6821 25.6348 27.6821 26.1748C27.6821 26.2261 27.6787 26.2739 27.6718 26.3218C27.6787 26.3696 27.6821 26.4175 27.6821 26.4688V30.2866C27.6821 30.8267 27.2429 31.2642 26.7007 31.2642C26.1585 31.2642 25.7193 30.8267 25.7193 30.2866V27.1558H18.5851V29.9756C18.5851 30.625 18.0567 31.1514 17.4047 31.1514C16.7527 31.1514 16.2242 30.625 16.2242 29.9756V27.1558H16.2277ZM17.2297 15.6406C17.5625 15.627 17.8748 15.6748 18.1768 15.791C18.4753 15.9072 18.7361 16.0645 18.966 16.2729C19.1891 16.4814 19.3709 16.731 19.5116 17.0181C19.6523 17.312 19.7244 17.6162 19.7381 17.9478C19.7518 18.2793 19.7004 18.5903 19.5871 18.8911C19.4705 19.1885 19.3092 19.4482 19.1033 19.6772C18.894 19.8994 18.6435 20.0806 18.3552 20.2207C18.067 20.3574 17.7547 20.4326 17.4218 20.4463C17.089 20.46 16.7767 20.4087 16.4747 20.2959C16.1762 20.1797 15.9154 20.019 15.6855 19.814C15.4624 19.6055 15.2806 19.356 15.1399 19.0688C15.0026 18.7817 14.9271 18.4707 14.9134 18.1392C14.8997 17.8076 14.9511 17.4966 15.0644 17.1958C15.1811 16.8984 15.3423 16.6387 15.5482 16.4097C15.7576 16.1875 16.0081 16.0063 16.2963 15.8662C16.5914 15.7261 16.9003 15.6543 17.2297 15.6406ZM26.687 32.0913C27.9051 32.0913 28.89 33.0757 28.89 34.2822C28.89 35.4956 27.9017 36.4766 26.687 36.4766C25.4722 36.4766 24.4873 35.4922 24.4873 34.2822C24.4839 33.0723 25.4722 32.0913 26.687 32.0913ZM17.3292 32.0913C18.5474 32.0913 19.5322 33.0757 19.5322 34.2822C19.5322 35.4956 18.544 36.4766 17.3292 36.4766C16.111 36.4766 15.1262 35.4922 15.1262 34.2822C15.1296 33.0723 16.1144 32.0913 17.3292 32.0913Z" fill="#060640"/>
</svg>
