<svg width="40" height="42" viewBox="0 0 40 42" fill="none" xmlns="http://www.w3.org/2000/svg">
<path d="M9.3499 21.6433C9.55258 21.6434 9.7526 21.5979 9.9347 21.5101C10.1168 21.4224 10.2762 21.2947 10.4006 21.1369L16.2579 13.6995L20.2692 18.3456C20.5246 18.6368 20.8118 18.7654 21.288 18.8073C21.6737 18.8047 22.0461 18.6368 22.2988 18.3377L31.6088 7.40068C31.7212 7.26884 31.806 7.11643 31.8586 6.95217C31.9111 6.78792 31.9303 6.61505 31.915 6.44348C31.8996 6.27191 31.8501 6.10501 31.7693 5.95234C31.6885 5.79967 31.5779 5.66423 31.4439 5.55379C31.3102 5.44297 31.1556 5.35924 30.9891 5.30743C30.8226 5.25561 30.6473 5.23671 30.4733 5.25182C30.2994 5.26693 30.1301 5.31575 29.9753 5.39548C29.8205 5.47521 29.6832 5.58428 29.5712 5.71644L21.272 15.4651L17.2235 10.7692C16.9602 10.4701 16.476 10.3311 16.1808 10.3101C15.9831 10.3143 15.7888 10.362 15.6122 10.4496C15.4355 10.5372 15.2808 10.6625 15.1593 10.8164L8.2992 19.5262C8.14627 19.72 8.05162 19.9524 8.02602 20.1967C8.00042 20.4411 8.0449 20.6876 8.1544 20.9082C8.2639 21.1288 8.43401 21.3147 8.64537 21.4447C8.85672 21.5746 9.10083 21.6434 9.3499 21.6433ZM38.5407 0H1.35926C0.60914 0 0 0.587647 0 1.31171C0 2.03578 0.60914 2.62343 1.35926 2.62343H2.66V26.2343C2.66 26.93 2.94025 27.5973 3.4391 28.0893C3.93794 28.5813 4.61452 28.8577 5.32 28.8577H18.62V32.9529L11.0762 39.6924C10.9412 39.8066 10.8308 39.9463 10.7515 40.1033C10.6721 40.2603 10.6256 40.4314 10.6145 40.6065C10.6034 40.7816 10.628 40.957 10.6869 41.1226C10.7458 41.2881 10.8377 41.4403 10.9573 41.5701C11.0768 41.7 11.2216 41.8049 11.383 41.8786C11.5444 41.9523 11.7191 41.9933 11.8969 41.9992C12.0746 42.0052 12.2518 41.9759 12.4179 41.9131C12.5839 41.8503 12.7356 41.7554 12.8638 41.6338L18.62 36.4919V40.6631C18.62 41.011 18.7601 41.3446 19.0095 41.5906C19.259 41.8366 19.5973 41.9748 19.95 41.9748C20.3027 41.9748 20.641 41.8366 20.8905 41.5906C21.1399 41.3446 21.28 41.011 21.28 40.6631V36.4919L27.0362 41.6338C27.1653 41.7499 27.3163 41.8398 27.4807 41.8982C27.6451 41.9567 27.8195 41.9825 27.994 41.9742C28.1685 41.9659 28.3397 41.9237 28.4976 41.8499C28.6555 41.7762 28.7971 41.6724 28.9142 41.5446C29.1511 41.2871 29.2747 40.9473 29.2577 40.6C29.2407 40.2527 29.0847 39.9263 28.8238 39.6924L21.28 32.9529V28.8577H34.58C35.2855 28.8577 35.9621 28.5813 36.4609 28.0893C36.9598 27.5973 37.24 26.93 37.24 26.2343V2.62343H38.5407C39.2909 2.62343 39.9 2.03578 39.9 1.31171C39.9 0.587647 39.2909 0 38.5407 0ZM34.58 26.2343H5.32V2.62343H34.58V26.2343Z" fill="#060640"/>
</svg>
