<svg width="39" height="42" viewBox="0 0 39 42" fill="none" xmlns="http://www.w3.org/2000/svg">
<path d="M19.6136 41.3561C19.501 41.3558 19.3904 41.3264 19.2924 41.2709C14.5117 38.5824 5.94407 32.521 2.26846 22.1653C-0.519703 14.3003 0.729532 7.3895 2.26846 2.97326C2.30213 2.87694 2.35782 2.78981 2.4311 2.7188C2.50437 2.6478 2.59322 2.59489 2.69055 2.56428C13.7135 -0.854759 25.5136 -0.854759 36.5366 2.56428C36.6339 2.59489 36.7227 2.6478 36.796 2.7188C36.8693 2.78981 36.925 2.87694 36.9586 2.97326C38.4976 7.3895 39.7455 14.3029 36.9586 22.1653C35.9234 25.0541 34.468 27.7745 32.6394 30.2388C32.589 30.3098 32.525 30.3701 32.4511 30.4161C32.3772 30.4621 32.2949 30.493 32.2089 30.5068C32.1229 30.5206 32.0351 30.5172 31.9505 30.4967C31.8658 30.4762 31.7861 30.439 31.716 30.3874C31.646 30.3357 31.5868 30.2707 31.5422 30.1959C31.4975 30.1212 31.4682 30.0383 31.4559 29.9521C31.4436 29.8659 31.4487 29.7781 31.4707 29.6939C31.4927 29.6097 31.5313 29.5307 31.5842 29.4615C33.3362 27.1006 34.731 24.4947 35.7238 21.7275C38.3206 14.4051 37.247 7.94267 35.8287 3.71651C25.2574 0.508937 13.9723 0.508937 3.40103 3.71651C1.98139 7.94267 0.910427 14.4051 3.5059 21.7275C6.95735 31.4592 14.9417 37.265 19.6149 39.9483C23.4858 37.7198 26.991 34.8831 29.77 31.7122C29.8853 31.5844 30.0463 31.5071 30.2182 31.4971C30.3901 31.487 30.559 31.545 30.6885 31.6584C30.818 31.7719 30.8976 31.9318 30.9102 32.1035C30.9228 32.2752 30.8673 32.4449 30.7557 32.5761C27.8037 35.9449 24.0612 38.952 19.936 41.2722C19.8376 41.3275 19.7265 41.3564 19.6136 41.3561Z" fill="#060640"/>
<path d="M19.6141 35.252C19.5017 35.252 19.3911 35.2232 19.293 35.1681C15.7537 33.1809 9.42888 28.703 6.70888 21.0398C4.64299 15.217 5.56845 10.0969 6.70888 6.82764C6.74255 6.73132 6.79823 6.64418 6.87151 6.57318C6.94479 6.50218 7.03364 6.44926 7.13097 6.41865C11.1285 5.17099 15.2914 4.53373 19.4791 4.52841H19.6102C23.8454 4.51939 28.0571 5.15681 32.0999 6.41865C32.1975 6.44909 32.2866 6.50192 32.3601 6.57293C32.4337 6.64395 32.4895 6.73117 32.5233 6.82764C33.6625 10.0969 34.5866 15.217 32.5233 21.0398C31.8449 22.9383 30.9194 24.7392 29.7706 26.3959C29.722 26.4674 29.6597 26.5286 29.5873 26.5759C29.515 26.6232 29.434 26.6557 29.349 26.6716C29.264 26.6875 29.1767 26.6864 29.0922 26.6684C29.0076 26.6504 28.9275 26.6159 28.8563 26.5668C28.7852 26.5177 28.7244 26.455 28.6776 26.3823C28.6308 26.3096 28.5988 26.2284 28.5835 26.1433C28.5682 26.0582 28.5699 25.971 28.5885 25.8865C28.6071 25.8021 28.6421 25.7222 28.6917 25.6514C29.7759 24.0897 30.6495 22.392 31.2898 20.602C32.7853 16.393 32.8223 11.8034 31.3947 7.57089C23.7165 5.26179 15.5288 5.26179 7.85062 7.57089C6.42397 11.8036 6.46091 16.3928 7.95549 20.602C10.4461 27.6373 16.2007 31.8608 19.622 33.8415C22.2428 32.333 24.6171 30.4321 26.6626 28.2049C26.7204 28.1411 26.7902 28.0893 26.8681 28.0526C26.9459 28.0158 27.0302 27.9947 27.1162 27.9905C27.2022 27.9863 27.2882 27.9991 27.3693 28.0281C27.4503 28.0571 27.5249 28.1018 27.5887 28.1597C27.6524 28.2175 27.7042 28.2873 27.741 28.3652C27.7778 28.443 27.7989 28.5274 27.8031 28.6133C27.8073 28.6993 27.7945 28.7853 27.7655 28.8664C27.7364 28.9474 27.6917 29.022 27.6339 29.0858C25.4097 31.5096 22.8136 33.5637 19.9432 35.1707C19.8425 35.2262 19.729 35.2542 19.6141 35.252Z" fill="#060640"/>
<path d="M19.6466 23.2022C19.4728 23.2022 19.3061 23.1332 19.1832 23.0103C19.0603 22.8874 18.9912 22.7206 18.9912 22.5468V13.0314C18.9912 12.8576 19.0603 12.6909 19.1832 12.5679C19.3061 12.445 19.4728 12.376 19.6466 12.376C19.8205 12.376 19.9872 12.445 20.1101 12.5679C20.233 12.6909 20.3021 12.8576 20.3021 13.0314V22.5468C20.3021 22.6329 20.2851 22.7181 20.2522 22.7976C20.2192 22.8772 20.1709 22.9494 20.1101 23.0103C20.0492 23.0711 19.977 23.1194 19.8975 23.1523C19.8179 23.1853 19.7327 23.2022 19.6466 23.2022Z" fill="#060640"/>
<path d="M24.6624 18.3841H14.4562C14.2824 18.3841 14.1157 18.315 13.9927 18.1921C13.8698 18.0692 13.8008 17.9025 13.8008 17.7287C13.8008 17.5548 13.8698 17.3881 13.9927 17.2652C14.1157 17.1423 14.2824 17.0732 14.4562 17.0732H24.6624C24.8363 17.0732 25.003 17.1423 25.1259 17.2652C25.2488 17.3881 25.3179 17.5548 25.3179 17.7287C25.3179 17.9025 25.2488 18.0692 25.1259 18.1921C25.003 18.315 24.8363 18.3841 24.6624 18.3841Z" fill="#060640"/>
</svg>
