<svg width="42" height="42" viewBox="0 0 42 42" fill="none" xmlns="http://www.w3.org/2000/svg">
<path d="M36.3533 14.814C36.9273 14.814 37.392 15.2787 37.392 15.8528C37.392 16.4268 36.9273 16.8915 36.3533 16.8915H26.1233C25.5493 16.8915 25.0846 16.4268 25.0846 15.8528V5.46222C25.0846 4.88819 25.5493 4.42351 26.1233 4.42351C26.6973 4.42351 27.162 4.88819 27.162 5.46222V6.5146V13.2423L30.4148 9.80499L39.3806 0.323329C39.7735 -0.090106 40.4295 -0.110607 40.843 0.282327C41.2564 0.675261 41.2769 1.33129 40.884 1.74472L31.8738 11.2742L28.5253 14.814H35.3761H36.3533ZM14.8171 5.62623C14.8171 5.0522 15.2818 4.58751 15.8558 4.58751C16.4298 4.58751 16.8945 5.0522 16.8945 5.62623V15.8528C16.8945 16.4268 16.4298 16.8915 15.8558 16.8915H5.46526C4.89123 16.8915 4.42655 16.4268 4.42655 15.8528C4.42655 15.2787 4.89123 14.814 5.46526 14.814H6.52789H13.2453L9.82511 11.5817L0.326367 2.60234C-0.0904849 2.20941 -0.110986 1.55338 0.281948 1.13653C0.671465 0.716262 1.33091 0.699178 1.74776 1.09211L11.3114 10.133L14.8171 13.4473V6.69911V5.62623ZM5.62926 27.1795C5.05524 27.1795 4.59055 26.7148 4.59055 26.1408C4.59055 25.5668 5.05524 25.1021 5.62926 25.1021H15.8592C16.4332 25.1021 16.8979 25.5668 16.8979 26.1408V36.5313C16.8979 37.1053 16.4332 37.57 15.8592 37.57C15.2852 37.57 14.8205 37.1053 14.8205 36.5313V35.4687V28.7512L11.5882 32.1715L2.60538 41.6736C2.21245 42.0905 1.55642 42.111 1.13957 41.718C0.722717 41.3251 0.702216 40.6691 1.09515 40.2522L10.136 30.6886L13.4504 27.1829H6.70215H5.62926V27.1795ZM27.1655 36.3673C27.1655 36.9413 26.7008 37.406 26.1267 37.406C25.5527 37.406 25.088 36.9413 25.088 36.3673V26.1408C25.088 25.5668 25.5527 25.1021 26.1267 25.1021H36.5173C37.0913 25.1021 37.556 25.5668 37.556 26.1408C37.556 26.7148 37.0913 27.1795 36.5173 27.1795H35.4649H28.7338L32.1745 30.4323L41.6562 39.3946C42.073 39.7876 42.0935 40.4436 41.7006 40.8604C41.3077 41.2773 40.6516 41.2978 40.2348 40.9049L30.7019 31.8913L27.1655 28.5496V35.3901V36.3673Z" fill="#060640"/>
</svg>
