<svg width="220" height="127" viewBox="0 0 220 127" fill="none" xmlns="http://www.w3.org/2000/svg">
<rect y="8" width="212" height="119" rx="5" fill="#F7F7F7"/>
<rect x="0.25" y="8.25" width="211.5" height="118.5" rx="4.75" stroke="black" stroke-opacity="0.2" strokeWidth="0.5"/>
<rect x="8" width="212" height="119" rx="5" fill="white"/>
<rect x="8.25" y="0.25" width="211.5" height="118.5" rx="4.75" stroke="black" stroke-opacity="0.1" strokeWidth="0.5"/>
<path d="M69.424 66.24C68.544 66.24 67.8107 66.0107 67.224 65.552C66.6427 65.0933 66.2347 64.4747 66 63.696L67.904 63.24C67.9627 63.5653 68.1333 63.8453 68.416 64.08C68.6987 64.3147 69.0107 64.432 69.352 64.432C69.576 64.432 69.8133 64.3733 70.064 64.256C70.3147 64.1333 70.5013 63.9387 70.624 63.672C70.6987 63.5013 70.7413 63.2987 70.752 63.064C70.768 62.824 70.776 62.5467 70.776 62.232V54.48H72.728V62.232C72.728 62.5893 72.7253 62.904 72.72 63.176C72.72 63.4427 72.6933 63.696 72.64 63.936C72.592 64.1707 72.4933 64.4133 72.344 64.664C72.0293 65.208 71.6187 65.608 71.112 65.864C70.6053 66.1147 70.0427 66.24 69.424 66.24ZM80.0076 66.24C78.8556 66.24 77.869 65.9893 77.0476 65.488C76.2263 64.9813 75.5943 64.2773 75.1516 63.376C74.7143 62.4747 74.4956 61.4293 74.4956 60.24C74.4956 59.0507 74.7143 58.0053 75.1516 57.104C75.5943 56.2027 76.2263 55.5013 77.0476 55C77.869 54.4933 78.8556 54.24 80.0076 54.24C81.1596 54.24 82.1463 54.4933 82.9676 55C83.7943 55.5013 84.4263 56.2027 84.8636 57.104C85.3063 58.0053 85.5276 59.0507 85.5276 60.24C85.5276 61.4293 85.3063 62.4747 84.8636 63.376C84.4263 64.2773 83.7943 64.9813 82.9676 65.488C82.1463 65.9893 81.1596 66.24 80.0076 66.24ZM80.0076 64.424C80.781 64.4293 81.4236 64.2587 81.9356 63.912C82.453 63.5653 82.8396 63.0773 83.0956 62.448C83.357 61.8187 83.4876 61.0827 83.4876 60.24C83.4876 59.3973 83.357 58.6667 83.0956 58.048C82.8396 57.424 82.453 56.9387 81.9356 56.592C81.4236 56.2453 80.781 56.0667 80.0076 56.056C79.2343 56.0507 78.5916 56.2213 78.0796 56.568C77.5676 56.9147 77.181 57.4027 76.9196 58.032C76.6636 58.6613 76.5356 59.3973 76.5356 60.24C76.5356 61.0827 76.6636 61.816 76.9196 62.44C77.1756 63.0587 77.5596 63.5413 78.0716 63.888C78.589 64.2347 79.2343 64.4133 80.0076 64.424ZM87.12 66V54.48H89.048V59.328H94.504V54.48H96.424V66H94.504V61.136H89.048V66H87.12ZM98.6669 66V54.48H100.619L105.963 62.6V54.48H107.915V66H105.963L100.619 57.88V66H98.6669ZM117.618 66.24C116.776 66.24 116.016 66.0933 115.338 65.8C114.666 65.5067 114.112 65.088 113.674 64.544C113.242 63.9947 112.968 63.344 112.85 62.592L114.85 62.288C115.021 62.9707 115.37 63.4987 115.898 63.872C116.432 64.2453 117.045 64.432 117.738 64.432C118.149 64.432 118.536 64.368 118.898 64.24C119.261 64.112 119.554 63.9253 119.778 63.68C120.008 63.4347 120.122 63.1333 120.122 62.776C120.122 62.616 120.096 62.4693 120.042 62.336C119.989 62.1973 119.909 62.0747 119.802 61.968C119.701 61.8613 119.568 61.7653 119.402 61.68C119.242 61.5893 119.056 61.512 118.842 61.448L115.866 60.568C115.61 60.4933 115.333 60.3947 115.034 60.272C114.741 60.144 114.461 59.9707 114.194 59.752C113.933 59.528 113.717 59.2453 113.546 58.904C113.381 58.5573 113.298 58.1307 113.298 57.624C113.298 56.8827 113.485 56.2613 113.858 55.76C114.237 55.2533 114.744 54.8747 115.378 54.624C116.018 54.3733 116.728 54.2507 117.506 54.256C118.296 54.2613 119 54.3973 119.618 54.664C120.237 54.9253 120.754 55.3067 121.17 55.808C121.586 56.3093 121.88 56.9147 122.05 57.624L119.978 57.984C119.893 57.5787 119.728 57.2347 119.482 56.952C119.242 56.664 118.946 56.4453 118.594 56.296C118.248 56.1467 117.877 56.0667 117.482 56.056C117.098 56.0507 116.741 56.1093 116.41 56.232C116.085 56.3493 115.821 56.52 115.618 56.744C115.421 56.968 115.322 57.2293 115.322 57.528C115.322 57.8107 115.408 58.0427 115.578 58.224C115.749 58.4 115.96 58.5413 116.21 58.648C116.466 58.7493 116.725 58.8347 116.986 58.904L119.05 59.48C119.333 59.5547 119.65 59.656 120.002 59.784C120.354 59.912 120.693 60.0907 121.018 60.32C121.344 60.5493 121.61 60.8507 121.818 61.224C122.032 61.5973 122.138 62.072 122.138 62.648C122.138 63.2453 122.013 63.7707 121.762 64.224C121.517 64.672 121.184 65.0453 120.762 65.344C120.341 65.6427 119.858 65.8667 119.314 66.016C118.776 66.1653 118.21 66.24 117.618 66.24ZM123.87 66V54.48H125.606L129.59 62.64L133.574 54.48H135.31V66H133.51V58.616L129.974 66H129.206L125.678 58.616V66H123.87ZM137.718 66V54.48H139.646V66H137.718ZM144.81 66V56.288H141.082V54.48H150.466V56.288H146.738V66H144.81ZM151.745 66V54.48H153.673V59.328H159.129V54.48H161.049V66H159.129V61.136H153.673V66H151.745Z" fill="#18191F"/>
<path d="M105.509 77.09C105.079 77.09 104.714 76.995 104.414 76.805C104.114 76.615 103.885 76.351 103.727 76.013C103.571 75.675 103.493 75.284 103.493 74.84C103.493 74.396 103.571 74.005 103.727 73.667C103.885 73.329 104.114 73.065 104.414 72.875C104.714 72.685 105.079 72.59 105.509 72.59C105.941 72.59 106.307 72.685 106.607 72.875C106.907 73.065 107.135 73.329 107.291 73.667C107.447 74.005 107.525 74.396 107.525 74.84C107.525 75.284 107.447 75.675 107.291 76.013C107.135 76.351 106.907 76.615 106.607 76.805C106.307 76.995 105.941 77.09 105.509 77.09ZM105.509 76.58C105.831 76.582 106.099 76.51 106.312 76.364C106.529 76.216 106.69 76.011 106.796 75.749C106.904 75.487 106.958 75.184 106.958 74.84C106.958 74.494 106.904 74.191 106.796 73.931C106.69 73.671 106.529 73.468 106.312 73.322C106.099 73.176 105.831 73.102 105.509 73.1C105.187 73.098 104.919 73.17 104.705 73.316C104.493 73.462 104.333 73.666 104.225 73.928C104.117 74.19 104.062 74.494 104.06 74.84C104.058 75.184 104.111 75.486 104.219 75.746C104.327 76.006 104.488 76.21 104.702 76.358C104.918 76.504 105.187 76.578 105.509 76.58ZM108.866 77L107.615 72.68H108.173L109.133 76.097L110.09 72.683L110.651 72.68L111.611 76.097L112.568 72.68H113.129L111.878 77H111.344L110.372 73.613L109.4 77H108.866ZM113.641 77V72.68H114.181L116.434 76.055V72.68H116.974V77H116.434L114.181 73.622V77H113.641ZM117.813 77V72.68H120.543V73.187H118.347V74.54H120.183V75.047H118.347V76.493H120.543V77H117.813ZM121.264 77V72.68H122.971C123.013 72.68 123.063 72.682 123.121 72.686C123.179 72.688 123.235 72.694 123.289 72.704C123.523 72.74 123.719 72.82 123.877 72.944C124.037 73.068 124.157 73.225 124.237 73.415C124.317 73.603 124.357 73.812 124.357 74.042C124.357 74.376 124.27 74.666 124.096 74.912C123.922 75.156 123.667 75.309 123.331 75.371L123.127 75.404H121.798V77H121.264ZM123.835 77L122.983 75.242L123.511 75.08L124.447 77H123.835ZM121.798 74.897H122.953C122.991 74.897 123.034 74.895 123.082 74.891C123.132 74.887 123.179 74.88 123.223 74.87C123.361 74.838 123.473 74.78 123.559 74.696C123.647 74.61 123.711 74.51 123.751 74.396C123.791 74.28 123.811 74.162 123.811 74.042C123.811 73.922 123.791 73.805 123.751 73.691C123.711 73.575 123.647 73.474 123.559 73.388C123.473 73.302 123.361 73.244 123.223 73.214C123.179 73.202 123.132 73.195 123.082 73.193C123.034 73.189 122.991 73.187 122.953 73.187H121.798V74.897Z" fill="#18191F"/>
<path d="M27.8018 100.724C27.8018 100.294 27.4507 99.9434 27.0216 99.9434H20.7802C20.3511 99.9434 20 100.294 20 100.724V105.405C20 105.834 20.3511 106.185 20.7802 106.185H27.0216C27.4507 106.185 27.8018 105.834 27.8018 105.405V100.724ZM27.0216 100.724L23.9009 102.67L20.7802 100.724H27.0216ZM27.0216 105.405H20.7802V101.504L23.9009 103.454L27.0216 101.504V105.405Z" fill="#18194F"/>
<path d="M30.7852 106.099V105.757H30.9321C31.0492 105.757 31.1423 105.727 31.2113 105.666C31.282 105.606 31.3173 105.506 31.3173 105.365V102.343H31.6687V105.454C31.6687 105.67 31.6166 105.832 31.5123 105.938C31.4095 106.045 31.2515 106.099 31.038 106.099H30.7852ZM31.3173 101.85V101.453H31.6687V101.85H31.3173ZM33.349 105.013C33.0441 105.013 32.7929 104.947 32.5955 104.816C32.3997 104.684 32.2793 104.501 32.2344 104.267L32.5955 104.207C32.634 104.354 32.7215 104.472 32.8579 104.561C32.9959 104.647 33.166 104.691 33.3683 104.691C33.5657 104.691 33.7213 104.65 33.8353 104.568C33.9492 104.484 34.0062 104.371 34.0062 104.228C34.0062 104.148 33.9878 104.083 33.9509 104.033C33.9155 103.982 33.8425 103.935 33.7318 103.891C33.621 103.848 33.4557 103.797 33.2359 103.737C32.9999 103.673 32.8154 103.609 32.6822 103.545C32.5489 103.48 32.4542 103.407 32.3981 103.323C32.3419 103.238 32.3138 103.135 32.3138 103.013C32.3138 102.865 32.3555 102.736 32.439 102.625C32.5225 102.513 32.638 102.426 32.7857 102.365C32.9333 102.302 33.1051 102.271 33.3009 102.271C33.4967 102.271 33.6716 102.303 33.8257 102.367C33.9813 102.43 34.1065 102.518 34.2012 102.632C34.2959 102.746 34.3521 102.879 34.3697 103.029L34.0086 103.094C33.9846 102.942 33.9083 102.822 33.7799 102.733C33.6531 102.643 33.4918 102.597 33.296 102.594C33.1115 102.589 32.9614 102.624 32.8459 102.7C32.7303 102.773 32.6725 102.872 32.6725 102.996C32.6725 103.065 32.6934 103.124 32.7351 103.174C32.7768 103.222 32.8523 103.268 32.9614 103.311C33.0722 103.354 33.2294 103.402 33.4333 103.453C33.6724 103.514 33.8602 103.578 33.9966 103.646C34.133 103.713 34.2301 103.793 34.2879 103.884C34.3457 103.976 34.3746 104.089 34.3746 104.224C34.3746 104.469 34.2831 104.662 34.1001 104.804C33.9188 104.943 33.6684 105.013 33.349 105.013ZM38.0092 104.943L38.0116 103.237C38.0116 103.036 37.9555 102.879 37.8431 102.765C37.7324 102.649 37.5911 102.591 37.4194 102.591C37.3215 102.591 37.226 102.614 37.1329 102.659C37.0398 102.704 36.9628 102.776 36.9018 102.875C36.8424 102.975 36.8127 103.105 36.8127 103.265L36.6033 103.205C36.5985 103.019 36.6346 102.856 36.7116 102.717C36.7903 102.577 36.8978 102.469 37.0342 102.392C37.1722 102.313 37.3279 102.274 37.5013 102.274C37.7629 102.274 37.9723 102.355 38.1296 102.517C38.2869 102.677 38.3655 102.895 38.3655 103.169L38.3631 104.943H38.0092ZM34.9061 104.943V102.343H35.2238V102.984H35.2624V104.943H34.9061ZM36.4613 104.943L36.4637 103.261C36.4637 103.054 36.4083 102.891 36.2975 102.772C36.1884 102.652 36.044 102.591 35.8642 102.591C35.6845 102.591 35.5392 102.653 35.4285 102.777C35.3177 102.899 35.2624 103.062 35.2624 103.265L35.0505 103.15C35.0505 102.983 35.0898 102.834 35.1685 102.702C35.2471 102.569 35.3546 102.465 35.4911 102.389C35.6275 102.312 35.7824 102.274 35.9557 102.274C36.121 102.274 36.2679 102.309 36.3963 102.379C36.5263 102.45 36.6282 102.553 36.702 102.688C36.7758 102.822 36.8127 102.986 36.8127 103.179L36.8103 104.943H36.4613ZM39.0379 101.85V101.453H39.3918V101.85H39.0379ZM39.0379 104.943V102.343H39.3918V104.943H39.0379ZM41.5291 104.943C41.3831 104.974 41.2386 104.986 41.0958 104.979C40.9545 104.973 40.8278 104.943 40.7154 104.888C40.6047 104.833 40.5204 104.748 40.4626 104.633C40.4161 104.537 40.3904 104.439 40.3856 104.342C40.3824 104.242 40.3808 104.129 40.3808 104.002V101.621H40.7323V103.988C40.7323 104.097 40.7331 104.188 40.7347 104.262C40.7379 104.334 40.7547 104.398 40.7852 104.455C40.843 104.562 40.9345 104.626 41.0597 104.647C41.1865 104.668 41.3429 104.663 41.5291 104.633V104.943ZM39.8247 102.647V102.343H41.5291V102.647H39.8247ZM43.9191 104.943V103.617C43.9191 103.472 43.9055 103.34 43.8782 103.22C43.8509 103.098 43.8068 102.992 43.7458 102.902C43.6864 102.81 43.6086 102.74 43.5123 102.69C43.4176 102.64 43.302 102.615 43.1656 102.615C43.0404 102.615 42.9297 102.637 42.8334 102.68C42.7387 102.724 42.6585 102.786 42.5927 102.868C42.5285 102.948 42.4795 103.046 42.4458 103.162C42.4121 103.277 42.3952 103.409 42.3952 103.557L42.1449 103.501C42.1449 103.235 42.1914 103.011 42.2845 102.83C42.3776 102.648 42.506 102.511 42.6697 102.418C42.8334 102.325 43.0212 102.278 43.233 102.278C43.3887 102.278 43.5243 102.302 43.6399 102.351C43.757 102.399 43.8557 102.464 43.936 102.546C44.0178 102.627 44.0836 102.721 44.1334 102.827C44.1832 102.932 44.2193 103.043 44.2417 103.162C44.2642 103.279 44.2754 103.396 44.2754 103.513V104.943H43.9191ZM42.039 104.943V101.477H42.3591V103.434H42.3952V104.943H42.039ZM46.7466 105.449C46.4898 105.449 46.2523 105.404 46.034 105.314C45.8158 105.226 45.6256 105.102 45.4635 104.943C45.3014 104.783 45.1746 104.594 45.0831 104.378C44.9932 104.161 44.9483 103.925 44.9483 103.67C44.9483 103.399 44.9924 103.151 45.0807 102.928C45.169 102.704 45.2934 102.51 45.4539 102.348C45.616 102.184 45.8077 102.058 46.0292 101.97C46.2507 101.882 46.4939 101.838 46.7587 101.838C47.062 101.838 47.3268 101.887 47.5531 101.985C47.781 102.081 47.9688 102.213 48.1165 102.379C48.2641 102.545 48.3716 102.731 48.439 102.938C48.5081 103.145 48.5369 103.359 48.5257 103.581C48.5097 103.884 48.4374 104.113 48.309 104.267C48.1823 104.421 48.0049 104.498 47.777 104.498C47.6294 104.498 47.501 104.463 47.3918 104.394C47.2827 104.325 47.2097 104.228 47.1727 104.103L47.2883 104.115C47.2321 104.229 47.1479 104.312 47.0355 104.363C46.9248 104.415 46.8092 104.44 46.6889 104.44C46.5428 104.44 46.4144 104.409 46.3037 104.346C46.1945 104.282 46.1087 104.194 46.0461 104.082C45.9851 103.969 45.9546 103.839 45.9546 103.692C45.9546 103.537 45.9867 103.404 46.0509 103.292C46.1151 103.18 46.2034 103.093 46.3157 103.032C46.4281 102.971 46.5548 102.94 46.6961 102.94C46.8004 102.94 46.9079 102.962 47.0187 103.005C47.131 103.049 47.2169 103.119 47.2763 103.217L47.1824 103.323V103.008H47.4376L47.4352 103.79C47.4352 103.909 47.4624 104.006 47.517 104.082C47.5732 104.155 47.6655 104.192 47.7939 104.192C47.8805 104.192 47.9527 104.168 48.0105 104.12C48.0699 104.072 48.1157 104.004 48.1477 103.918C48.1798 103.83 48.1983 103.726 48.2031 103.607C48.2127 103.363 48.1815 103.15 48.1092 102.967C48.037 102.784 47.9343 102.631 47.8011 102.509C47.6679 102.386 47.513 102.294 47.3365 102.233C47.1615 102.172 46.9745 102.141 46.7755 102.141C46.5348 102.141 46.3205 102.181 46.1327 102.262C45.9466 102.342 45.7885 102.452 45.6585 102.594C45.5301 102.735 45.433 102.898 45.3672 103.082C45.3014 103.265 45.2701 103.46 45.2733 103.667C45.2749 103.881 45.3134 104.078 45.3889 104.26C45.4659 104.439 45.5718 104.596 45.7066 104.729C45.8415 104.861 45.9987 104.963 46.1785 105.035C46.3582 105.109 46.5532 105.146 46.7635 105.146C46.8999 105.146 47.0363 105.128 47.1727 105.093C47.3108 105.057 47.4336 105.008 47.5411 104.946L47.6542 105.215C47.5146 105.294 47.3677 105.353 47.2137 105.391C47.0596 105.43 46.9039 105.449 46.7466 105.449ZM46.7081 104.132C46.8333 104.132 46.9352 104.096 47.0139 104.024C47.0941 103.952 47.1342 103.84 47.1342 103.689C47.1342 103.541 47.0957 103.43 47.0187 103.354C46.9432 103.279 46.8421 103.241 46.7153 103.241C46.5709 103.241 46.4602 103.281 46.3831 103.359C46.3077 103.438 46.27 103.548 46.27 103.689C46.27 103.832 46.3093 103.942 46.3879 104.019C46.4666 104.094 46.5733 104.132 46.7081 104.132ZM50.4171 105.016C50.1779 105.016 49.9757 104.955 49.8104 104.835C49.6451 104.713 49.5199 104.549 49.4348 104.342C49.3498 104.133 49.3073 103.899 49.3073 103.641C49.3073 103.378 49.3498 103.143 49.4348 102.938C49.5215 102.731 49.6483 102.568 49.8152 102.449C49.9821 102.331 50.1876 102.271 50.4315 102.271C50.669 102.271 50.8729 102.331 51.043 102.452C51.2131 102.572 51.3431 102.736 51.433 102.943C51.5245 103.15 51.5702 103.383 51.5702 103.641C51.5702 103.901 51.5245 104.134 51.433 104.342C51.3415 104.549 51.2099 104.713 51.0382 104.835C50.8665 104.955 50.6594 105.016 50.4171 105.016ZM49.2471 106.099V102.343H49.5648V104.301H49.6034V106.099H49.2471ZM50.381 104.686C50.5623 104.686 50.7132 104.64 50.8336 104.549C50.9539 104.457 51.0438 104.333 51.1032 104.175C51.1642 104.017 51.1947 103.838 51.1947 103.641C51.1947 103.445 51.165 103.269 51.1056 103.111C51.0462 102.954 50.9555 102.83 50.8336 102.738C50.7132 102.647 50.5599 102.601 50.3737 102.601C50.1924 102.601 50.0415 102.645 49.9211 102.733C49.8024 102.822 49.7133 102.944 49.6539 103.102C49.5945 103.257 49.5648 103.437 49.5648 103.641C49.5648 103.842 49.5945 104.021 49.6539 104.18C49.7133 104.337 49.8032 104.461 49.9236 104.551C50.0439 104.641 50.1964 104.686 50.381 104.686ZM52.8428 105.016C52.647 105.016 52.4825 104.98 52.3492 104.91C52.2176 104.839 52.1189 104.745 52.0531 104.628C51.9873 104.511 51.9544 104.383 51.9544 104.245C51.9544 104.104 51.9825 103.984 52.0387 103.884C52.0965 103.783 52.1743 103.7 52.2722 103.636C52.3717 103.572 52.4865 103.523 52.6165 103.489C52.7481 103.457 52.8933 103.429 53.0522 103.405C53.2127 103.379 53.3692 103.358 53.5216 103.34C53.6757 103.321 53.8105 103.302 53.9261 103.285L53.8009 103.362C53.8057 103.105 53.756 102.915 53.6516 102.791C53.5473 102.668 53.366 102.606 53.1076 102.606C52.9294 102.606 52.7786 102.646 52.655 102.726C52.533 102.806 52.4471 102.933 52.3974 103.107L52.0531 103.005C52.1125 102.773 52.2321 102.592 52.4118 102.464C52.5916 102.335 52.8251 102.271 53.1124 102.271C53.3499 102.271 53.5513 102.316 53.7166 102.406C53.8836 102.494 54.0015 102.623 54.0705 102.791C54.1026 102.867 54.1235 102.951 54.1331 103.044C54.1428 103.137 54.1476 103.232 54.1476 103.328V104.943H53.8322V104.291L53.9237 104.329C53.8354 104.553 53.6982 104.723 53.512 104.84C53.3258 104.957 53.1028 105.016 52.8428 105.016ZM52.8837 104.71C53.049 104.71 53.1934 104.68 53.317 104.621C53.4406 104.561 53.5401 104.48 53.6155 104.378C53.691 104.273 53.7399 104.156 53.7624 104.026C53.7816 103.943 53.7921 103.851 53.7937 103.752C53.7953 103.651 53.7961 103.575 53.7961 103.525L53.9309 103.595C53.8105 103.611 53.6797 103.627 53.5385 103.643C53.3989 103.659 53.2608 103.678 53.1244 103.699C52.9896 103.72 52.8676 103.744 52.7585 103.773C52.6847 103.794 52.6133 103.824 52.5442 103.862C52.4752 103.899 52.4183 103.949 52.3733 104.012C52.33 104.074 52.3083 104.152 52.3083 104.245C52.3083 104.321 52.3268 104.394 52.3637 104.464C52.4022 104.535 52.4632 104.593 52.5466 104.64C52.6317 104.687 52.7441 104.71 52.8837 104.71ZM54.8224 101.85V101.453H55.1763V101.85H54.8224ZM54.8224 104.943V102.343H55.1763V104.943H54.8224ZM57.7758 104.943V103.617C57.7758 103.472 57.7622 103.34 57.7349 103.22C57.7076 103.098 57.6635 102.992 57.6025 102.902C57.5431 102.81 57.4653 102.74 57.369 102.69C57.2743 102.64 57.1587 102.615 57.0223 102.615C56.8971 102.615 56.7864 102.637 56.6901 102.68C56.5954 102.724 56.5152 102.786 56.4494 102.868C56.3852 102.948 56.3362 103.046 56.3025 103.162C56.2688 103.277 56.2519 103.409 56.2519 103.557L56.0016 103.501C56.0016 103.235 56.0481 103.011 56.1412 102.83C56.2343 102.648 56.3627 102.511 56.5264 102.418C56.6901 102.325 56.8779 102.278 57.0897 102.278C57.2454 102.278 57.381 102.302 57.4966 102.351C57.6137 102.399 57.7124 102.464 57.7927 102.546C57.8745 102.627 57.9403 102.721 57.9901 102.827C58.0399 102.932 58.076 103.043 58.0984 103.162C58.1209 103.279 58.1321 103.396 58.1321 103.513V104.943H57.7758ZM55.8957 104.943V102.343H56.2158V102.984H56.2519V104.943H55.8957ZM60.1724 104.943C60.0264 104.974 59.8819 104.986 59.7391 104.979C59.5978 104.973 59.4711 104.943 59.3587 104.888C59.248 104.833 59.1637 104.748 59.1059 104.633C59.0594 104.537 59.0337 104.439 59.0289 104.342C59.0257 104.242 59.0241 104.129 59.0241 104.002V101.621H59.3756V103.988C59.3756 104.097 59.3764 104.188 59.378 104.262C59.3812 104.334 59.398 104.398 59.4285 104.455C59.4863 104.562 59.5778 104.626 59.703 104.647C59.8298 104.668 59.9862 104.663 60.1724 104.633V104.943ZM58.468 102.647V102.343H60.1724V102.647H58.468ZM61.2384 104.943L60.4439 102.341L60.7978 102.343L61.4141 104.363L62.0328 102.343H62.3554L62.9741 104.363L63.5952 102.343H63.9467L63.1523 104.943H62.8441L62.1941 102.873L61.5465 104.943H61.2384ZM65.3721 105.016C65.1137 105.016 64.893 104.957 64.7101 104.84C64.5271 104.723 64.3867 104.561 64.2888 104.354C64.1909 104.147 64.1419 103.909 64.1419 103.641C64.1419 103.368 64.1917 103.129 64.2912 102.924C64.3907 102.718 64.5319 102.558 64.7149 102.444C64.8995 102.329 65.1185 102.271 65.3721 102.271C65.6321 102.271 65.8536 102.33 66.0366 102.447C66.2211 102.562 66.3616 102.724 66.4579 102.931C66.5558 103.136 66.6047 103.373 66.6047 103.641C66.6047 103.914 66.5558 104.154 66.4579 104.361C66.36 104.566 66.2187 104.727 66.0341 104.842C65.8496 104.958 65.6289 105.016 65.3721 105.016ZM65.3721 104.676C65.661 104.676 65.8761 104.581 66.0173 104.39C66.1585 104.197 66.2291 103.947 66.2291 103.641C66.2291 103.326 66.1577 103.076 66.0149 102.89C65.8737 102.704 65.6594 102.611 65.3721 102.611C65.1779 102.611 65.0174 102.655 64.8906 102.743C64.7654 102.83 64.6716 102.951 64.609 103.107C64.548 103.261 64.5175 103.439 64.5175 103.641C64.5175 103.954 64.5897 104.205 64.7341 104.394C64.8786 104.582 65.0912 104.676 65.3721 104.676ZM67.1358 104.943V102.343H67.4535V102.969L67.3909 102.887C67.4198 102.81 67.4576 102.74 67.5041 102.676C67.5506 102.61 67.6012 102.556 67.6558 102.514C67.7232 102.455 67.8018 102.41 67.8917 102.379C67.9816 102.347 68.0722 102.329 68.1637 102.324C68.2552 102.318 68.3387 102.324 68.4141 102.343V102.676C68.3194 102.652 68.2159 102.646 68.1035 102.659C67.9912 102.672 67.8877 102.717 67.793 102.794C67.7063 102.861 67.6413 102.942 67.598 103.037C67.5547 103.13 67.5258 103.229 67.5113 103.335C67.4969 103.44 67.4897 103.543 67.4897 103.646V104.943H67.1358ZM68.8684 104.943L68.8708 101.477H69.2271V103.595L70.3875 102.343H70.8593L69.6412 103.643L71.0182 104.943H70.503L69.2271 103.692V104.943H68.8684ZM72.1826 105.013C71.8776 105.013 71.6264 104.947 71.429 104.816C71.2332 104.684 71.1129 104.501 71.0679 104.267L71.429 104.207C71.4676 104.354 71.555 104.472 71.6914 104.561C71.8295 104.647 71.9996 104.691 72.2018 104.691C72.3992 104.691 72.5549 104.65 72.6689 104.568C72.7828 104.484 72.8398 104.371 72.8398 104.228C72.8398 104.148 72.8213 104.083 72.7844 104.033C72.7491 103.982 72.6761 103.935 72.5653 103.891C72.4546 103.848 72.2893 103.797 72.0694 103.737C71.8335 103.673 71.6489 103.609 71.5157 103.545C71.3825 103.48 71.2878 103.407 71.2316 103.323C71.1755 103.238 71.1474 103.135 71.1474 103.013C71.1474 102.865 71.1891 102.736 71.2726 102.625C71.356 102.513 71.4716 102.426 71.6192 102.365C71.7669 102.302 71.9386 102.271 72.1344 102.271C72.3302 102.271 72.5051 102.303 72.6592 102.367C72.8149 102.43 72.9401 102.518 73.0348 102.632C73.1295 102.746 73.1856 102.879 73.2033 103.029L72.8422 103.094C72.8181 102.942 72.7419 102.822 72.6135 102.733C72.4867 102.643 72.3254 102.597 72.1296 102.594C71.945 102.589 71.795 102.624 71.6794 102.7C71.5639 102.773 71.5061 102.872 71.5061 102.996C71.5061 103.065 71.5269 103.124 71.5687 103.174C71.6104 103.222 71.6858 103.268 71.795 103.311C71.9057 103.354 72.063 103.402 72.2668 103.453C72.5059 103.514 72.6937 103.578 72.8301 103.646C72.9666 103.713 73.0637 103.793 73.1214 103.884C73.1792 103.976 73.2081 104.089 73.2081 104.224C73.2081 104.469 73.1166 104.662 72.9337 104.804C72.7523 104.943 72.5019 105.013 72.1826 105.013ZM73.8094 104.943V104.532H74.2211V104.943H73.8094ZM76.0431 105.016C75.7815 105.016 75.56 104.957 75.3786 104.84C75.1973 104.723 75.0592 104.561 74.9645 104.356C74.8715 104.149 74.8233 103.911 74.8201 103.643C74.8233 103.371 74.8731 103.131 74.9694 102.926C75.0657 102.719 75.2045 102.558 75.3858 102.444C75.5672 102.329 75.7871 102.271 76.0455 102.271C76.3087 102.271 76.5374 102.335 76.7316 102.464C76.9274 102.592 77.0614 102.768 77.1336 102.991L76.7869 103.102C76.726 102.946 76.6289 102.826 76.4957 102.741C76.364 102.654 76.2132 102.611 76.0431 102.611C75.8521 102.611 75.694 102.655 75.5688 102.743C75.4436 102.83 75.3505 102.951 75.2895 103.107C75.2286 103.262 75.1973 103.441 75.1957 103.643C75.1989 103.955 75.2711 104.205 75.4123 104.394C75.5536 104.582 75.7638 104.676 76.0431 104.676C76.2196 104.676 76.3697 104.636 76.4932 104.556C76.6184 104.474 76.7131 104.355 76.7773 104.199L77.1336 104.305C77.0373 104.537 76.8961 104.713 76.7099 104.835C76.5237 104.955 76.3015 105.016 76.0431 105.016ZM78.6458 105.016C78.3874 105.016 78.1667 104.957 77.9837 104.84C77.8008 104.723 77.6603 104.561 77.5624 104.354C77.4645 104.147 77.4156 103.909 77.4156 103.641C77.4156 103.368 77.4653 103.129 77.5648 102.924C77.6643 102.718 77.8056 102.558 77.9885 102.444C78.1731 102.329 78.3922 102.271 78.6458 102.271C78.9058 102.271 79.1272 102.33 79.3102 102.447C79.4948 102.562 79.6352 102.724 79.7315 102.931C79.8294 103.136 79.8784 103.373 79.8784 103.641C79.8784 103.914 79.8294 104.154 79.7315 104.361C79.6336 104.566 79.4924 104.727 79.3078 104.842C79.1232 104.958 78.9026 105.016 78.6458 105.016ZM78.6458 104.676C78.9347 104.676 79.1497 104.581 79.291 104.39C79.4322 104.197 79.5028 103.947 79.5028 103.641C79.5028 103.326 79.4314 103.076 79.2885 102.89C79.1473 102.704 78.9331 102.611 78.6458 102.611C78.4516 102.611 78.2911 102.655 78.1643 102.743C78.0391 102.83 77.9452 102.951 77.8826 103.107C77.8216 103.261 77.7911 103.439 77.7911 103.641C77.7911 103.954 77.8634 104.205 78.0078 104.394C78.1522 104.582 78.3649 104.676 78.6458 104.676ZM83.5102 104.943L83.5126 103.237C83.5126 103.036 83.4564 102.879 83.344 102.765C83.2333 102.649 83.0921 102.591 82.9203 102.591C82.8224 102.591 82.7269 102.614 82.6339 102.659C82.5408 102.704 82.4637 102.776 82.4028 102.875C82.3434 102.975 82.3137 103.105 82.3137 103.265L82.1042 103.205C82.0994 103.019 82.1355 102.856 82.2126 102.717C82.2912 102.577 82.3987 102.469 82.5352 102.392C82.6732 102.313 82.8289 102.274 83.0022 102.274C83.2638 102.274 83.4732 102.355 83.6305 102.517C83.7878 102.677 83.8665 102.895 83.8665 103.169L83.864 104.943H83.5102ZM80.407 104.943V102.343H80.7248V102.984H80.7633V104.943H80.407ZM81.9622 104.943L81.9646 103.261C81.9646 103.054 81.9092 102.891 81.7985 102.772C81.6894 102.652 81.5449 102.591 81.3652 102.591C81.1854 102.591 81.0402 102.653 80.9294 102.777C80.8187 102.899 80.7633 103.062 80.7633 103.265L80.5515 103.15C80.5515 102.983 80.5908 102.834 80.6694 102.702C80.7481 102.569 80.8556 102.465 80.992 102.389C81.1284 102.312 81.2833 102.274 81.4566 102.274C81.6219 102.274 81.7688 102.309 81.8972 102.379C82.0272 102.45 82.1291 102.553 82.2029 102.688C82.2768 102.822 82.3137 102.986 82.3137 103.179L82.3113 104.943H81.9622Z" fill="#18191F"/>
</svg>
