<svg width="37" height="37" viewBox="0 0 37 37" fill="none" xmlns="http://www.w3.org/2000/svg">
<path d="M21.5833 12.3327H7.1944C6.92182 12.3327 6.6604 12.2244 6.46766 12.0317C6.27491 11.8389 6.16663 11.5775 6.16663 11.3049V7.19379C6.16663 6.92121 6.27491 6.65979 6.46766 6.46704C6.6604 6.2743 6.92182 6.16602 7.1944 6.16602H21.5833C21.8559 6.16602 22.1173 6.2743 22.31 6.46704C22.5028 6.65979 22.6111 6.92121 22.6111 7.19379V11.3049C22.6111 11.5775 22.5028 11.8389 22.31 12.0317C22.1173 12.2244 21.8559 12.3327 21.5833 12.3327ZM8.22218 10.2771H20.5555V8.1599H8.22218V10.2771Z" fill="#18191F"/>
<path d="M21.5833 14.4707H7.1944C6.92182 14.4707 6.6604 14.579 6.46766 14.7717C6.27491 14.9645 6.16663 15.2259 6.16663 15.4985V19.5274C6.16663 19.8 6.27491 20.0614 6.46766 20.2541C6.6604 20.4469 6.92182 20.5551 7.1944 20.5551H18.87L22.6111 16.7524V15.4985C22.6111 15.2259 22.5028 14.9645 22.31 14.7717C22.1173 14.579 21.8559 14.4707 21.5833 14.4707ZM20.5555 18.4996H8.22218V16.444H20.5555V18.4996Z" fill="#18191F"/>
<path d="M11.3675 32.3864V32.3247L11.6963 30.8961H4.11134V4.1122H24.6669V14.6469L26.7225 12.7044V3.08442C26.7225 2.81183 26.6142 2.55042 26.4214 2.35767C26.2287 2.16492 25.9673 2.05664 25.6947 2.05664H3.08356C2.81098 2.05664 2.54956 2.16492 2.35682 2.35767C2.16407 2.55042 2.05579 2.81183 2.05579 3.08442V31.8622C2.05579 32.1348 2.16407 32.3962 2.35682 32.5889C2.54956 32.7817 2.81098 32.89 3.08356 32.89H11.3058C11.3143 32.7208 11.3349 32.5525 11.3675 32.3864Z" fill="#18191F"/>
<path d="M22.6109 19.7031L21.8092 20.5151C22.0081 20.4741 22.1904 20.3751 22.3331 20.2306C22.4757 20.0861 22.5724 19.9025 22.6109 19.7031Z" fill="#18191F"/>
<path d="M6.16663 27.6886C6.16663 27.9611 6.27491 28.2226 6.46766 28.4153C6.6604 28.608 6.92182 28.7163 7.1944 28.7163H12.1688L12.4772 27.3802L12.6108 26.8149V26.7636H8.22218V24.6669H14.7383L16.7938 22.6113H7.1944C6.92182 22.6113 6.6604 22.7196 6.46766 22.9124C6.27491 23.1051 6.16663 23.3665 6.16663 23.6391V27.6886Z" fill="#18191F"/>
<path d="M34.4203 17.1335L30.9567 13.6699C30.803 13.5157 30.6203 13.3934 30.4193 13.31C30.2182 13.2265 30.0027 13.1836 29.785 13.1836C29.5673 13.1836 29.3518 13.2265 29.1507 13.31C28.9497 13.3934 28.767 13.5157 28.6133 13.6699L14.5225 27.8429L13.3611 32.7865C13.3176 32.9998 13.3167 33.2196 13.3582 33.4332C13.3998 33.6469 13.4831 33.8502 13.6034 34.0316C13.7237 34.213 13.8786 34.3689 14.0593 34.4903C14.2399 34.6118 14.4427 34.6964 14.6561 34.7393C14.762 34.7499 14.8688 34.7499 14.9747 34.7393C15.1007 34.7598 15.2291 34.7598 15.355 34.7393L20.3397 33.6396L34.4203 19.5282C34.5741 19.3754 34.6962 19.1936 34.7795 18.9934C34.8628 18.7932 34.9057 18.5785 34.9057 18.3617C34.9057 18.1448 34.8628 17.9301 34.7795 17.7299C34.6962 17.5297 34.5741 17.348 34.4203 17.1951V17.1335ZM19.2914 31.769L15.5297 32.6015L16.4444 28.8707L27.01 18.1921L29.9083 21.0904L19.2914 31.769ZM31.0697 19.929L28.1714 17.0307L29.8056 15.4171L32.7244 18.336L31.0697 19.929Z" fill="#18191F"/>
</svg>
