<svg width="590" height="483" viewBox="0 0 590 483" fill="none" xmlns="http://www.w3.org/2000/svg">
<g clip-path="url(#clip0_1233_6173)">
<path d="M50.5536 434.618C33.8784 426.484 -5.96608 415.006 0.979936 365.775C3.21598 349.981 23.5545 325.959 38.3742 320.007C95.6075 297.051 81.9533 277.771 57.1903 236.153C37.9223 191.783 47.1995 113.526 91.0878 90.0722C119.443 74.9187 170.206 97.0916 199.988 85.021C232.125 71.9781 235.337 35.1972 266.332 19.6406C359.318 -27.0293 495.099 15.6091 499.309 120.711C507.016 312.323 657.711 239.188 552.808 437.227L50.5536 434.618Z" fill="#E3E9FF"/>
<path d="M362.696 56.8491C356.82 56.8491 352.062 52.0825 352.062 46.2487C352.062 40.3913 356.844 35.6484 362.696 35.6484C368.571 35.6484 373.329 40.415 373.329 46.2487C373.329 52.0825 368.547 56.8491 362.696 56.8491ZM362.696 37.8302C358.033 37.8302 354.251 41.6007 354.251 46.2487C354.251 50.8968 358.033 54.6673 362.696 54.6673C367.358 54.6673 371.14 50.8968 371.14 46.2487C371.14 41.6007 367.334 37.8302 362.696 37.8302Z" fill="#F7F9FF"/>
<path d="M463.491 286.736C457.615 286.736 452.858 281.969 452.858 276.135C452.858 270.278 457.639 265.535 463.491 265.535C469.367 265.535 474.124 270.302 474.124 276.135C474.124 281.969 469.343 286.736 463.491 286.736ZM463.491 267.717C458.829 267.717 455.046 271.487 455.046 276.135C455.046 280.783 458.829 284.554 463.491 284.554C468.153 284.554 471.936 280.783 471.936 276.135C471.936 271.487 468.13 267.717 463.491 267.717Z" fill="#F7F9FF"/>
<path d="M572.979 439.836H50.5532C49.1021 439.836 47.9365 438.674 47.9365 437.228C47.9365 435.781 49.1021 434.619 50.5532 434.619H572.979C574.43 434.619 575.596 435.781 575.596 437.228C575.596 438.674 574.406 439.836 572.979 439.836Z" fill="#2C2858"/>
<path d="M85.2357 331.533C79.3601 331.533 74.6025 326.766 74.6025 320.932C74.6025 315.075 79.3839 310.332 85.2357 310.332C91.1112 310.332 95.8688 315.099 95.8688 320.932C95.8688 326.766 91.0874 331.533 85.2357 331.533ZM85.2357 312.49C80.5733 312.49 76.791 316.261 76.791 320.909C76.791 325.557 80.5733 329.327 85.2357 329.327C89.8981 329.327 93.6803 325.557 93.6803 320.909C93.6803 316.261 89.8743 312.49 85.2357 312.49Z" fill="#F7F9FF"/>
<path d="M115.571 345.122C115.664 341.6 112.875 338.67 109.342 338.577C105.809 338.485 102.87 341.265 102.777 344.787C102.684 348.309 105.473 351.239 109.006 351.332C112.539 351.424 115.478 348.644 115.571 345.122Z" fill="#F7F9FF"/>
<path d="M346.306 25.6643C346.306 29.174 343.452 32.0435 339.907 32.0435C336.387 32.0435 333.508 29.1978 333.508 25.6643C333.508 22.1546 336.363 19.2852 339.907 19.2852C343.452 19.2852 346.306 22.1546 346.306 25.6643Z" fill="#F7F9FF"/>
<path d="M554.14 294.348C554.14 297.858 551.285 300.727 547.741 300.727C544.196 300.727 541.342 297.881 541.342 294.348C541.342 290.838 544.196 287.969 547.741 287.969C551.285 287.969 554.14 290.814 554.14 294.348Z" fill="#F7F9FF"/>
</g>
<path d="M209.975 108.011C208.17 109.976 206.898 112.372 206.282 114.968C204.947 113.165 202.998 111.912 200.802 111.447C198.607 110.982 196.317 111.337 194.365 112.444C194 108.135 192.097 104.101 189.003 101.08C185.909 98.0587 181.832 96.2514 177.515 95.9884C173.199 95.7254 168.932 97.0243 165.494 99.6477C162.057 102.271 159.678 106.044 158.792 110.276C156.68 108.194 153.856 106.991 150.89 106.91C147.925 106.828 145.04 107.876 142.816 109.839" stroke="#263238" stroke-miterlimit="10"/>
<path d="M259.053 89.0209C253.061 88.0822 246.938 89.4696 241.936 92.8991C236.935 96.3285 233.433 101.54 232.15 107.467C229.71 105.064 226.541 103.539 223.14 103.134C219.739 102.729 216.3 103.465 213.364 105.229" stroke="#263238" stroke-miterlimit="10"/>
<path d="M272.406 95.9526C270.743 94.2231 268.827 92.7555 266.724 91.5996" stroke="#263238" stroke-miterlimit="10"/>
<path d="M263.852 119.063H307.756C307.196 118.135 306.446 117.336 305.555 116.718C304.665 116.1 303.654 115.676 302.589 115.476C301.524 115.276 300.428 115.302 299.374 115.555C298.32 115.807 297.331 116.279 296.472 116.94C295.891 115.257 294.947 113.722 293.707 112.445C292.467 111.167 290.962 110.178 289.297 109.547C287.632 108.917 285.849 108.66 284.073 108.795C282.298 108.93 280.575 109.454 279.024 110.33C278.643 106.023 277.085 101.903 274.52 98.4219" stroke="#263238" stroke-miterlimit="10"/>
<path d="M141.005 111.928C139.617 113.902 138.873 116.258 138.874 118.671C138.874 118.823 138.874 118.966 138.874 119.108H255.208" stroke="#263238" stroke-miterlimit="10"/>
<path d="M296.749 126.877C295.359 125.69 293.685 124.885 291.89 124.54C290.095 124.194 288.242 124.321 286.511 124.907C284.78 125.494 283.231 126.519 282.016 127.884C280.8 129.249 279.96 130.906 279.578 132.693C278.709 131.837 277.627 131.228 276.445 130.929C275.263 130.629 274.022 130.65 272.85 130.989C271.679 131.327 270.618 131.972 269.778 132.856C268.938 133.741 268.349 134.833 268.071 136.02C267.691 135.507 267.196 135.091 266.626 134.804C266.056 134.518 265.426 134.369 264.788 134.37C264.083 134.372 263.389 134.553 262.772 134.896C262.573 133.007 261.711 131.25 260.339 129.937C258.966 128.624 257.173 127.84 255.277 127.725C253.381 127.609 251.506 128.17 249.984 129.306C248.462 130.443 247.393 132.082 246.966 133.933C246.233 133.213 245.303 132.725 244.294 132.531C243.284 132.337 242.24 132.445 241.292 132.842C240.344 133.24 239.534 133.908 238.965 134.764C238.395 135.62 238.091 136.625 238.091 137.653C238.086 137.715 238.086 137.778 238.091 137.84H313.197C312.943 137.431 312.607 137.08 312.208 136.81C311.81 136.54 311.359 136.357 310.885 136.273C310.411 136.189 309.925 136.205 309.458 136.322C308.991 136.438 308.554 136.651 308.175 136.948C307.815 135.882 307.128 134.957 306.212 134.303C305.297 133.65 304.198 133.302 303.073 133.309C302.136 133.307 301.215 133.547 300.397 134.004C300.327 133.216 300.169 132.438 299.924 131.685" stroke="#263238" stroke-miterlimit="10"/>
<path d="M434.143 262.676C432.788 264.137 431.838 265.926 431.387 267.867C430.746 267.005 429.912 266.305 428.951 265.823C427.991 265.341 426.931 265.091 425.857 265.093C424.671 265.09 423.505 265.397 422.476 265.985C422.179 262.783 420.747 259.793 418.438 257.555C416.129 255.317 413.095 253.979 409.885 253.783C406.676 253.587 403.502 254.545 400.937 256.486C398.373 258.426 396.587 261.219 395.903 264.362C394.324 262.807 392.215 261.909 390.001 261.848C387.786 261.787 385.631 262.567 383.968 264.031" stroke="#263238" stroke-miterlimit="10"/>
<path d="M470.822 248.484C469.91 248.344 468.989 248.273 468.066 248.27C464.008 248.27 460.073 249.662 456.916 252.211C453.759 254.761 451.571 258.316 450.716 262.283C448.892 260.485 446.521 259.346 443.978 259.044C441.434 258.742 438.862 259.295 436.667 260.615" stroke="#263238" stroke-miterlimit="10"/>
<path d="M480.804 253.666C479.55 252.37 478.107 251.272 476.522 250.41" stroke="#263238" stroke-miterlimit="10"/>
<path d="M474.408 270.935H507.207C506.787 270.243 506.227 269.647 505.562 269.186C504.897 268.726 504.142 268.41 503.347 268.26C502.551 268.11 501.734 268.13 500.946 268.317C500.159 268.504 499.42 268.855 498.778 269.347C498.338 268.094 497.629 266.952 496.7 266.002C495.771 265.053 494.644 264.319 493.4 263.853C492.157 263.387 490.825 263.199 489.501 263.304C488.177 263.409 486.892 263.803 485.737 264.459C485.452 261.233 484.286 258.147 482.365 255.539" stroke="#263238" stroke-miterlimit="10"/>
<path d="M382.595 265.574C381.56 267.051 381.005 268.811 381.007 270.614C381.007 270.721 381.007 270.828 381.007 270.935H467.932" stroke="#263238" stroke-miterlimit="10"/>
<path d="M498.992 276.779C497.569 275.559 495.755 274.891 493.881 274.897C492.073 274.897 490.321 275.517 488.915 276.653C487.509 277.79 486.536 279.373 486.156 281.141C485.507 280.502 484.699 280.048 483.817 279.825C482.934 279.602 482.007 279.618 481.133 279.871C480.258 280.125 479.467 280.606 478.84 281.267C478.213 281.927 477.774 282.743 477.566 283.629C477.28 283.246 476.908 282.936 476.481 282.722C476.054 282.508 475.582 282.398 475.104 282.398C474.579 282.397 474.063 282.532 473.606 282.791C473.481 281.361 472.846 280.024 471.818 279.023C470.79 278.023 469.436 277.424 468.004 277.338C466.572 277.251 465.156 277.682 464.015 278.552C462.873 279.422 462.083 280.673 461.787 282.077C461.241 281.536 460.547 281.168 459.792 281.021C459.037 280.874 458.256 280.954 457.547 281.251C456.837 281.548 456.232 282.048 455.807 282.689C455.382 283.33 455.157 284.082 455.159 284.851C455.155 284.899 455.155 284.946 455.159 284.994H511.275C511.09 284.684 510.842 284.417 510.547 284.211C510.251 284.004 509.915 283.863 509.561 283.796C509.206 283.73 508.842 283.739 508.491 283.824C508.141 283.909 507.813 284.068 507.528 284.289C507.244 283.505 506.725 282.827 506.042 282.348C505.359 281.87 504.545 281.613 503.711 281.613C503.016 281.614 502.334 281.795 501.73 282.14C501.677 281.548 501.557 280.965 501.374 280.4" stroke="#263238" stroke-miterlimit="10"/>
<path d="M299.987 176.643H178.247V356.398H299.987V176.643Z" fill="#263238" stroke="#263238" stroke-linecap="round" stroke-linejoin="round"/>
<path d="M292.155 185.357H186.078V347.88H292.155V185.357Z" fill="white" stroke="#263238" stroke-linecap="round" stroke-linejoin="round"/>
<path d="M218.226 171.086H260.007C261.576 171.086 263.08 171.709 264.189 172.818C265.298 173.927 265.921 175.431 265.921 177V189.586H212.312V177.044C212.306 176.264 212.455 175.49 212.749 174.768C213.044 174.045 213.479 173.388 214.028 172.834C214.578 172.28 215.232 171.84 215.953 171.54C216.673 171.24 217.446 171.086 218.226 171.086Z" fill="#7D7D7D" stroke="#263238" stroke-linecap="round" stroke-linejoin="round"/>
<path d="M235.504 163.522H242.64C243.483 163.512 244.32 163.671 245.101 163.988C245.882 164.305 246.592 164.775 247.19 165.369C247.788 165.964 248.261 166.671 248.583 167.451C248.904 168.23 249.067 169.066 249.062 169.909V171.068H229.18V169.909C229.175 169.074 229.335 168.246 229.65 167.473C229.966 166.7 230.43 165.997 231.018 165.404C231.605 164.811 232.304 164.339 233.074 164.016C233.843 163.693 234.669 163.525 235.504 163.522Z" fill="#7D7D7D" stroke="#263238" stroke-linecap="round" stroke-linejoin="round"/>
<path d="M265.913 228.254C275.391 228.254 283.075 220.57 283.075 211.092C283.075 201.613 275.391 193.93 265.913 193.93C256.434 193.93 248.75 201.613 248.75 211.092C248.75 220.57 256.434 228.254 265.913 228.254Z" fill="#263238" stroke="#263238" stroke-linecap="round" stroke-linejoin="round"/>
<path d="M277.776 206.803H270.453V199.488H261.872V206.803H254.557V215.384H261.872V222.707H270.453V215.384H277.776V206.803Z" fill="white" stroke="#263238" stroke-linecap="round" stroke-linejoin="round"/>
<path d="M195.248 210.592H236.637" stroke="#263238" stroke-linecap="round" stroke-linejoin="round"/>
<path d="M195.248 219.174H236.637" stroke="#263238" stroke-linecap="round" stroke-linejoin="round"/>
<path d="M195.248 247.441H282.566" stroke="#263238" stroke-linecap="round" stroke-linejoin="round"/>
<path d="M205.854 255.514H195.756V266.111H205.854V255.514Z" stroke="#263238" stroke-linecap="round" stroke-linejoin="round"/>
<path d="M252.791 255.514H242.693V266.111H252.791V255.514Z" stroke="#263238" stroke-linecap="round" stroke-linejoin="round"/>
<path d="M209.886 266.111H234.621" stroke="#263238" stroke-linecap="round" stroke-linejoin="round"/>
<path d="M256.823 266.111H281.558" stroke="#263238" stroke-linecap="round" stroke-linejoin="round"/>
<path d="M205.854 276.209H195.756V286.806H205.854V276.209Z" stroke="#263238" stroke-linecap="round" stroke-linejoin="round"/>
<path d="M252.791 276.209H242.693V286.806H252.791V276.209Z" stroke="#263238" stroke-linecap="round" stroke-linejoin="round"/>
<path d="M209.886 286.805H234.621" stroke="#263238" stroke-linecap="round" stroke-linejoin="round"/>
<path d="M256.823 286.805H281.558" stroke="#263238" stroke-linecap="round" stroke-linejoin="round"/>
<path d="M205.854 296.902H195.756V307.499H205.854V296.902Z" stroke="#263238" stroke-linecap="round" stroke-linejoin="round"/>
<path d="M252.791 296.902H242.693V307.499H252.791V296.902Z" stroke="#263238" stroke-linecap="round" stroke-linejoin="round"/>
<path d="M209.886 307.5H234.621" stroke="#263238" stroke-linecap="round" stroke-linejoin="round"/>
<path d="M256.823 307.5H281.558" stroke="#263238" stroke-linecap="round" stroke-linejoin="round"/>
<path d="M205.854 317.598H195.756V328.195H205.854V317.598Z" stroke="#263238" stroke-linecap="round" stroke-linejoin="round"/>
<path d="M252.791 317.598H242.693V328.195H252.791V317.598Z" stroke="#263238" stroke-linecap="round" stroke-linejoin="round"/>
<path d="M209.886 328.193H234.621" stroke="#263238" stroke-linecap="round" stroke-linejoin="round"/>
<path d="M256.823 328.193H281.558" stroke="#263238" stroke-linecap="round" stroke-linejoin="round"/>
<path d="M409.301 126.852H316.096V301.915H409.301V126.852Z" fill="#060640" stroke="#263238" stroke-linecap="round" stroke-linejoin="round"/>
<path d="M399.748 147.769C397.371 147.769 395.09 146.825 393.409 145.144C391.728 143.462 390.784 141.182 390.784 138.805H334.026C334.026 141.182 333.081 143.462 331.4 145.144C329.719 146.825 327.439 147.769 325.061 147.769V280.41C327.439 280.41 329.719 281.354 331.4 283.035C333.081 284.717 334.026 286.997 334.026 289.374C334.026 289.579 334.026 289.776 334.026 289.972H390.855C390.855 289.776 390.855 289.579 390.855 289.374C390.855 286.997 391.799 284.717 393.481 283.035C395.162 281.354 397.442 280.41 399.82 280.41C400.025 280.41 400.221 280.41 400.417 280.41V147.734C400.15 147.751 399.953 147.769 399.748 147.769ZM362.703 241.572C357.326 241.572 352.07 239.977 347.599 236.99C343.127 234.003 339.643 229.756 337.585 224.788C335.527 219.82 334.989 214.354 336.038 209.08C337.087 203.806 339.676 198.961 343.479 195.159C347.281 191.357 352.125 188.767 357.399 187.718C362.673 186.669 368.14 187.207 373.108 189.265C378.076 191.323 382.322 194.808 385.31 199.279C388.297 203.75 389.892 209.007 389.892 214.384C389.892 221.595 387.027 228.51 381.928 233.609C376.83 238.708 369.914 241.572 362.703 241.572Z" fill="white" stroke="#263238" stroke-linecap="round" stroke-linejoin="round"/>
<path d="M434.94 143.151L342.85 128.779L315.856 301.75L407.947 316.121L434.94 143.151Z" fill="#060640" stroke="#263238" stroke-linecap="round" stroke-linejoin="round"/>
<path d="M422.262 162.354C421.098 162.177 419.98 161.771 418.974 161.16C417.968 160.549 417.092 159.745 416.398 158.793C415.704 157.842 415.205 156.763 414.93 155.618C414.655 154.473 414.609 153.285 414.796 152.123L358.716 143.363C358.347 145.711 357.062 147.817 355.142 149.219C353.222 150.62 350.825 151.203 348.476 150.838L328.004 281.891C330.35 282.258 332.454 283.54 333.856 285.456C335.257 287.373 335.841 289.767 335.479 292.113C335.479 292.309 335.399 292.506 335.354 292.693L391.497 301.461C391.497 301.265 391.497 301.069 391.559 300.873C391.735 299.707 392.141 298.588 392.752 297.579C393.363 296.571 394.168 295.694 395.12 294.999C396.073 294.304 397.153 293.805 398.3 293.53C399.446 293.255 400.636 293.21 401.8 293.398C401.996 293.398 402.192 293.478 402.388 293.514L422.904 162.39C422.663 162.399 422.458 162.39 422.262 162.354ZM371.186 249.297C365.873 248.467 360.926 246.08 356.97 242.438C353.013 238.796 350.226 234.063 348.96 228.837C347.693 223.611 348.005 218.127 349.856 213.078C351.706 208.029 355.013 203.643 359.356 200.473C363.7 197.303 368.886 195.492 374.259 195.27C379.631 195.048 384.949 196.423 389.54 199.223C394.131 202.023 397.788 206.122 400.05 211C402.311 215.879 403.076 221.319 402.246 226.631C401.696 230.16 400.456 233.545 398.597 236.594C396.738 239.642 394.297 242.295 391.412 244.4C388.528 246.505 385.257 248.021 381.786 248.861C378.316 249.701 374.714 249.85 371.186 249.297Z" fill="white" stroke="#263238" stroke-linecap="round" stroke-linejoin="round"/>
<path d="M466.686 173.041L380.038 138.699L315.536 301.447L402.184 335.788L466.686 173.041Z" fill="#060640" stroke="#263238" stroke-linecap="round" stroke-linejoin="round"/>
<path d="M450.075 188.989C447.874 188.113 446.11 186.401 445.168 184.229C444.225 182.056 444.18 179.599 445.044 177.393L392.273 156.467C391.844 157.56 391.203 158.558 390.387 159.403C389.572 160.248 388.597 160.923 387.52 161.391C386.443 161.858 385.283 162.108 384.109 162.127C382.935 162.145 381.768 161.931 380.677 161.498L331.795 284.808C332.889 285.237 333.886 285.878 334.731 286.693C335.576 287.509 336.252 288.483 336.719 289.561C337.187 290.638 337.437 291.797 337.455 292.972C337.474 294.146 337.26 295.312 336.826 296.404C336.746 296.591 336.666 296.769 336.577 296.948L389.401 317.892C389.463 317.705 389.517 317.508 389.588 317.321C390.468 315.113 392.187 313.344 394.37 312.403C396.552 311.461 399.019 311.424 401.229 312.299C401.416 312.371 401.594 312.46 401.773 312.54L450.672 189.176C450.464 189.123 450.265 189.06 450.075 188.989ZM381.069 262.543C376.07 260.563 371.77 257.144 368.714 252.719C365.657 248.294 363.982 243.062 363.899 237.685C363.816 232.308 365.33 227.027 368.249 222.511C371.167 217.994 375.36 214.444 380.296 212.31C385.233 210.177 390.691 209.555 395.981 210.523C401.27 211.492 406.154 214.007 410.014 217.752C413.874 221.496 416.537 226.301 417.666 231.559C418.795 236.817 418.34 242.291 416.357 247.29C413.697 253.99 408.487 259.36 401.87 262.22C395.253 265.08 387.772 265.196 381.069 262.543Z" fill="white" stroke="#263238" stroke-linecap="round" stroke-linejoin="round"/>
<path d="M492.639 212.392L416.675 158.387L315.239 301.068L391.203 355.074L492.639 212.392Z" fill="#060640" stroke="#263238" stroke-linecap="round" stroke-linejoin="round"/>
<path d="M472.723 223.901C471.761 223.223 470.943 222.36 470.316 221.364C469.689 220.367 469.265 219.257 469.07 218.096C468.874 216.935 468.91 215.747 469.176 214.6C469.441 213.453 469.931 212.37 470.618 211.413L424.35 178.525C422.973 180.46 420.884 181.769 418.543 182.165C416.202 182.562 413.799 182.013 411.862 180.639L334.998 288.732C335.96 289.411 336.778 290.273 337.405 291.27C338.032 292.266 338.456 293.377 338.651 294.538C338.847 295.698 338.811 296.887 338.545 298.034C338.28 299.18 337.789 300.263 337.103 301.22C336.987 301.389 336.862 301.532 336.737 301.693L383.041 334.616C383.148 334.447 383.246 334.277 383.371 334.108C384.05 333.146 384.912 332.328 385.909 331.701C386.905 331.074 388.016 330.65 389.177 330.455C390.338 330.259 391.526 330.295 392.673 330.561C393.82 330.827 394.903 331.317 395.859 332.003C396.02 332.119 396.171 332.244 396.323 332.369L473.222 224.214C473.062 224.124 472.895 224.02 472.723 223.901ZM388.179 278.893C383.796 275.778 380.436 271.432 378.522 266.407C376.609 261.381 376.229 255.901 377.43 250.659C378.632 245.418 381.36 240.65 385.271 236.96C389.182 233.269 394.1 230.821 399.402 229.925C404.705 229.029 410.154 229.726 415.06 231.927C419.966 234.128 424.11 237.735 426.966 242.291C429.823 246.847 431.264 252.148 431.108 257.523C430.952 262.898 429.205 268.106 426.089 272.489C421.911 278.365 415.57 282.341 408.46 283.542C401.351 284.743 394.056 283.071 388.179 278.893Z" fill="white" stroke="#263238" stroke-linecap="round" stroke-linejoin="round"/>
<path d="M337.924 312.049C369.935 312.049 395.886 286.099 395.886 254.087C395.886 222.076 369.935 196.125 337.924 196.125C305.912 196.125 279.961 222.076 279.961 254.087C279.961 286.099 305.912 312.049 337.924 312.049Z" fill="white" stroke="#263238" stroke-linecap="round" stroke-linejoin="round"/>
<path d="M291.673 219.717H297.908" stroke="#263238" stroke-linecap="round" stroke-linejoin="round"/>
<path d="M294.599 215.926H300.433" stroke="#263238" stroke-linecap="round" stroke-linejoin="round"/>
<path d="M297.382 212.982H303.171" stroke="#263238" stroke-linecap="round" stroke-linejoin="round"/>
<path d="M300.968 209.861H306.07" stroke="#263238" stroke-linecap="round" stroke-linejoin="round"/>
<path d="M287.874 225.4H293.698" stroke="#263238" stroke-linecap="round" stroke-linejoin="round"/>
<path d="M283.637 234.445H289.488" stroke="#263238" stroke-linecap="round" stroke-linejoin="round"/>
<path d="M280.729 245.389H286.964" stroke="#263238" stroke-linecap="round" stroke-linejoin="round"/>
<path d="M280.309 257.602H286.544" stroke="#263238" stroke-linecap="round" stroke-linejoin="round"/>
<path d="M343.401 312.049C375.412 312.049 401.363 286.099 401.363 254.087C401.363 222.076 375.412 196.125 343.401 196.125C311.389 196.125 285.438 222.076 285.438 254.087C285.438 286.099 311.389 312.049 343.401 312.049Z" fill="white" stroke="#263238" stroke-linecap="round" stroke-linejoin="round"/>
<path d="M388.385 264.46C394.116 239.618 378.623 214.835 353.782 209.104C328.94 203.374 304.156 218.866 298.426 243.708C292.695 268.549 308.188 293.333 333.03 299.064C357.871 304.794 382.655 289.302 388.385 264.46Z" fill="white" stroke="#263238" stroke-linecap="round" stroke-linejoin="round"/>
<path d="M343.436 207.925H342.544C354.67 208.094 366.241 213.029 374.757 221.663C383.272 230.297 388.046 241.937 388.046 254.064C388.046 266.19 383.272 277.83 374.757 286.464C366.241 295.098 354.67 300.034 342.544 300.202H343.436C349.551 300.287 355.623 299.156 361.297 296.875C366.972 294.593 372.136 291.207 376.491 286.913C380.845 282.618 384.303 277.501 386.663 271.859C389.023 266.217 390.239 260.162 390.239 254.046C390.239 247.93 389.023 241.875 386.663 236.233C384.303 230.59 380.845 225.473 376.491 221.179C372.136 216.884 366.972 213.498 361.297 211.217C355.623 208.935 349.551 207.804 343.436 207.889V207.925Z" fill="white" stroke="#263238" stroke-linecap="round" stroke-linejoin="round"/>
<path d="M345.559 282.871C345.424 282.899 345.303 282.971 345.214 283.076C345.125 283.181 345.074 283.313 345.069 283.451L345.149 287.188C345.18 287.38 345.164 287.577 345.104 287.762C345.044 287.947 344.941 288.115 344.804 288.252C344.666 288.39 344.498 288.493 344.313 288.553C344.128 288.613 343.932 288.628 343.74 288.597H338.842C338.65 288.628 338.454 288.613 338.269 288.553C338.084 288.493 337.916 288.39 337.778 288.252C337.641 288.115 337.538 287.947 337.478 287.762C337.418 287.577 337.402 287.38 337.433 287.188L337.594 283.37C337.591 283.23 337.54 283.096 337.449 282.99C337.358 282.884 337.232 282.813 337.094 282.79C327.639 281.631 322.153 275.904 322.153 267.939V264.371C322.132 264.18 322.154 263.986 322.217 263.805C322.281 263.623 322.385 263.459 322.522 263.323C322.658 263.188 322.823 263.085 323.005 263.022C323.187 262.959 323.38 262.939 323.571 262.961H332.197C333.089 262.961 333.615 263.381 333.615 264.041V265.2C333.615 269.437 336.354 273.085 341.991 273.085C347.343 273.085 349.546 269.848 349.546 266.529C349.546 260.642 338.753 259.723 330.814 254.576C325.668 251.428 322.1 247.36 322.1 240.304C322.1 231.59 327.496 225.444 337.041 224.034C337.178 224.01 337.302 223.939 337.393 223.833C337.484 223.728 337.536 223.594 337.54 223.455L337.371 218.995C337.34 218.802 337.356 218.605 337.416 218.42C337.476 218.235 337.579 218.067 337.716 217.928C337.853 217.79 338.021 217.686 338.206 217.625C338.391 217.564 338.587 217.547 338.78 217.576H343.517C343.708 217.555 343.901 217.577 344.083 217.641C344.264 217.704 344.429 217.808 344.564 217.945C344.7 218.081 344.803 218.246 344.865 218.428C344.928 218.61 344.949 218.804 344.926 218.995L344.846 223.392C344.848 223.532 344.899 223.667 344.99 223.772C345.082 223.878 345.207 223.949 345.345 223.972C355.3 225.051 360.946 231.108 360.946 239.662V242.401C360.969 242.591 360.949 242.785 360.886 242.966C360.823 243.148 360.72 243.312 360.584 243.448C360.449 243.584 360.284 243.687 360.102 243.75C359.921 243.812 359.727 243.833 359.537 243.81H350.822C349.93 243.81 349.404 243.48 349.404 242.98V242.16C349.404 237.762 346.915 233.775 341.108 233.775C336.461 233.775 333.642 236.183 333.642 239.912C333.642 245.309 341.188 246.156 348.993 249.546C357.539 253.363 361.276 258.671 361.276 265.976C361.276 275.075 355.692 281.542 345.559 282.871Z" fill="white" stroke="#263238" stroke-linecap="round" stroke-linejoin="round"/>
<path d="M347.334 282.871C347.198 282.898 347.076 282.97 346.985 283.075C346.895 283.18 346.842 283.312 346.835 283.451L346.915 287.188C346.945 287.38 346.93 287.577 346.87 287.762C346.81 287.947 346.707 288.115 346.57 288.252C346.432 288.39 346.264 288.493 346.079 288.553C345.894 288.613 345.698 288.628 345.506 288.597H340.608C340.416 288.628 340.22 288.613 340.035 288.553C339.85 288.493 339.682 288.39 339.544 288.252C339.407 288.115 339.304 287.947 339.244 287.762C339.184 287.577 339.168 287.38 339.199 287.188L339.369 283.37C339.365 283.231 339.313 283.097 339.222 282.992C339.131 282.886 339.006 282.815 338.869 282.79C329.405 281.631 323.928 275.904 323.928 267.939V264.371C323.905 264.18 323.926 263.987 323.988 263.805C324.051 263.624 324.154 263.459 324.29 263.323C324.426 263.187 324.59 263.084 324.772 263.022C324.953 262.959 325.147 262.938 325.337 262.961H333.972C334.864 262.961 335.381 263.381 335.381 264.041V265.2C335.381 269.437 338.12 273.085 343.766 273.085C349.073 273.085 351.321 269.848 351.321 266.529C351.321 260.642 340.528 259.723 332.589 254.576C327.443 251.428 323.875 247.36 323.875 240.304C323.875 231.59 329.227 225.444 338.807 224.034C338.945 224.011 339.07 223.941 339.161 223.835C339.253 223.729 339.304 223.594 339.306 223.455L339.146 218.995C339.115 218.802 339.131 218.605 339.191 218.42C339.251 218.235 339.354 218.067 339.491 217.928C339.628 217.79 339.796 217.686 339.981 217.625C340.166 217.564 340.362 217.547 340.555 217.576H345.22C345.412 217.553 345.606 217.574 345.788 217.637C345.97 217.7 346.136 217.804 346.272 217.941C346.407 218.078 346.51 218.244 346.572 218.426C346.634 218.609 346.654 218.803 346.629 218.995L346.549 223.392C346.553 223.531 346.605 223.665 346.696 223.771C346.787 223.876 346.911 223.947 347.049 223.972C357.003 225.051 362.65 231.108 362.65 239.662V242.401C362.673 242.591 362.652 242.785 362.589 242.966C362.527 243.148 362.424 243.312 362.288 243.448C362.152 243.584 361.987 243.687 361.806 243.75C361.624 243.812 361.431 243.833 361.24 243.81H352.526C351.634 243.81 351.116 243.48 351.116 242.98V242.16C351.116 237.762 348.627 233.775 342.812 233.775C338.164 233.775 335.346 236.183 335.346 239.912C335.346 245.309 342.901 246.156 350.697 249.546C359.251 253.363 362.989 258.671 362.989 265.976C363.06 275.075 357.458 281.542 347.334 282.871Z" fill="#263238"/>
<path d="M198.111 434.591H143.244V375.015L169.023 348.344L198.111 375.015V434.591Z" fill="#999999" stroke="#263238" stroke-linecap="round" stroke-linejoin="round"/>
<path d="M378.055 434.592H246.574V307.223L322.456 275.539L378.055 307.223V434.592Z" fill="#999999" stroke="#263238" stroke-linecap="round" stroke-linejoin="round"/>
<path d="M264.119 363.785H195.676V434.672H264.119V363.785Z" fill="white" stroke="#263238" stroke-linecap="round" stroke-linejoin="round"/>
<path d="M343.124 375.016H305.526V434.673H343.124V375.016Z" fill="#C2C2C2" stroke="#263238" stroke-linecap="round" stroke-linejoin="round"/>
<path d="M331.198 383.436H313.946V434.672H331.198V383.436Z" fill="white" stroke="#263238" stroke-linecap="round" stroke-linejoin="round"/>
<path d="M328.477 383.436H316.667V434.672H328.477V383.436Z" fill="#263238" stroke="#263238" stroke-linecap="round" stroke-linejoin="round"/>
<path d="M328.477 429.23H296.151V432.522H328.477V429.23Z" fill="white" stroke="#263238" stroke-linecap="round" stroke-linejoin="round"/>
<path d="M331.198 383.436H313.946V387.646H331.198V383.436Z" fill="white" stroke="#263238" stroke-linecap="round" stroke-linejoin="round"/>
<path d="M185.15 383.436H157.48V434.672H185.15V383.436Z" fill="white" stroke="#263238" stroke-linecap="round" stroke-linejoin="round"/>
<path d="M180.78 383.436H161.833V434.672H180.78V383.436Z" fill="#263238" stroke="#263238" stroke-linecap="round" stroke-linejoin="round"/>
<path d="M185.15 383.436H157.48V387.646H185.15V383.436Z" fill="white" stroke="#263238" stroke-linecap="round" stroke-linejoin="round"/>
<path d="M283.297 373.811H261.31V413.612H283.297V373.811Z" fill="#C2C2C2" stroke="#263238" stroke-linecap="round" stroke-linejoin="round"/>
<path d="M447.292 434.592H352.784V307.223L399.48 275.539L447.292 307.223V434.592Z" fill="white" stroke="#263238" stroke-linecap="round" stroke-linejoin="round"/>
<path d="M448.478 307.641L399.391 275.797L352.392 307.918V311.022L399.73 278.901L448.478 310.745V307.641Z" fill="white" stroke="#263238" stroke-linecap="round" stroke-linejoin="round"/>
<path d="M387.412 283.728L347.298 347.872L352.784 348.576L394.539 280.133L447.292 357.96L450.101 357.844L397.473 276.904L387.412 283.728Z" fill="#263238" stroke="#263238" stroke-linecap="round" stroke-linejoin="round"/>
<path d="M352.784 307.223H240.954L285.162 275.539L399.391 276.181L352.784 307.223Z" fill="#263238" stroke="#263238" stroke-linecap="round" stroke-linejoin="round"/>
<path d="M422.342 362.18H369.322V434.592H422.342V362.18Z" fill="#BABABA" stroke="#263238" stroke-linecap="round" stroke-linejoin="round"/>
<path d="M426.552 362.18H373.532V434.592H426.552V362.18Z" fill="white" stroke="#263238" stroke-linecap="round" stroke-linejoin="round"/>
<path d="M418.498 373.168H381.578V411.31H418.498V373.168Z" fill="white" stroke="#263238" strokeWidth="2" stroke-linecap="round" stroke-linejoin="round"/>
<path d="M407.803 373.168H392.282V411.31H407.803V373.168Z" fill="white" stroke="#263238" strokeWidth="2" stroke-linecap="round" stroke-linejoin="round"/>
<path d="M428.158 358.941H363.506V365.408H428.158V358.941Z" fill="#BABABA" stroke="#263238" stroke-linecap="round" stroke-linejoin="round"/>
<path d="M432.368 358.941H367.716V365.408H432.368V358.941Z" fill="white" stroke="#263238" stroke-linecap="round" stroke-linejoin="round"/>
<path d="M332.901 373.811H329.619V408.723H332.901V373.811Z" fill="white" stroke="#263238" stroke-linecap="round" stroke-linejoin="round"/>
<path d="M342.044 373.811H338.762V408.723H342.044V373.811Z" fill="white" stroke="#263238" stroke-linecap="round" stroke-linejoin="round"/>
<path d="M333.909 408.242H328.477V412.158H333.909V408.242Z" fill="white" stroke="#263238" stroke-linecap="round" stroke-linejoin="round"/>
<path d="M343.115 408.242H337.683V412.158H343.115V408.242Z" fill="white" stroke="#263238" stroke-linecap="round" stroke-linejoin="round"/>
<path d="M333.909 377.299H328.477V379.502H333.909V377.299Z" fill="white" stroke="#263238" stroke-linecap="round" stroke-linejoin="round"/>
<path d="M343.115 377.299H337.683V379.502H343.115V377.299Z" fill="white" stroke="#263238" stroke-linecap="round" stroke-linejoin="round"/>
<path d="M345.077 411.828H325.872V434.592H345.077V411.828Z" fill="white" stroke="#263238" stroke-linecap="round" stroke-linejoin="round"/>
<path d="M286.58 373.811H283.297V408.723H286.58V373.811Z" fill="white" stroke="#263238" stroke-linecap="round" stroke-linejoin="round"/>
<path d="M295.722 373.811H292.44V408.723H295.722V373.811Z" fill="white" stroke="#263238" stroke-linecap="round" stroke-linejoin="round"/>
<path d="M287.588 408.242H282.155V412.158H287.588V408.242Z" fill="white" stroke="#263238" stroke-linecap="round" stroke-linejoin="round"/>
<path d="M296.793 408.242H291.361V412.158H296.793V408.242Z" fill="white" stroke="#263238" stroke-linecap="round" stroke-linejoin="round"/>
<path d="M287.588 377.299H282.155V379.502H287.588V377.299Z" fill="white" stroke="#263238" stroke-linecap="round" stroke-linejoin="round"/>
<path d="M296.793 377.299H291.361V379.502H296.793V377.299Z" fill="white" stroke="#263238" stroke-linecap="round" stroke-linejoin="round"/>
<path d="M298.764 411.828H279.56V434.592H298.764V411.828Z" fill="white" stroke="#263238" stroke-linecap="round" stroke-linejoin="round"/>
<path d="M280.033 411.828H256.618V434.592H280.033V411.828Z" fill="#999999" stroke="#263238" stroke-linecap="round" stroke-linejoin="round"/>
<path d="M345.086 377.049H272.673L284.956 370.582H345.086V377.049Z" fill="white" stroke="#263238" stroke-linecap="round" stroke-linejoin="round"/>
<path d="M381.935 382.865H418.141" stroke="#263238" stroke-linecap="round" stroke-linejoin="round"/>
<path d="M381.935 391.918H418.141" stroke="#263238" stroke-linecap="round" stroke-linejoin="round"/>
<path d="M381.935 400.973H418.141" stroke="#263238" stroke-linecap="round" stroke-linejoin="round"/>
<path d="M165.821 347.113L139.578 375.577H141.772L167.542 348.344L165.821 347.113Z" fill="#263238" stroke="#263238" stroke-linecap="round" stroke-linejoin="round"/>
<path d="M193.571 374.31H265.52L319.423 347.113H165.821L193.571 374.31Z" fill="#263238" stroke="#263238" stroke-linecap="round" stroke-linejoin="round"/>
<path d="M356.878 347.113H315.213L240.954 374.31H278.151L356.878 347.113Z" fill="#263238" stroke="#263238" stroke-linecap="round" stroke-linejoin="round"/>
<path d="M450.101 350.137L401.157 275.04C400.965 274.738 400.699 274.491 400.384 274.321C400.069 274.151 399.716 274.065 399.358 274.071C399.001 274.076 398.65 274.173 398.341 274.352C398.031 274.531 397.772 274.786 397.589 275.093L353.551 347.827L268.33 375.247V379.644L355.549 351.627C356.04 351.483 356.462 351.166 356.736 350.735L399.454 280.16L450.101 357.871V350.137Z" fill="white" stroke="#263238" stroke-linecap="round" stroke-linejoin="round"/>
<path d="M339.698 311.959H324.829V336.525H339.698V311.959Z" stroke="#263238" strokeWidth="2" stroke-linecap="round" stroke-linejoin="round"/>
<path d="M332.259 312.611V335.884" stroke="#263238" stroke-linecap="round" stroke-linejoin="round"/>
<path d="M339.368 324.242H325.15" stroke="#263238" stroke-linecap="round" stroke-linejoin="round"/>
<path d="M235.058 383.783H220.188V408.349H235.058V383.783Z" stroke="#263238" strokeWidth="2" stroke-linecap="round" stroke-linejoin="round"/>
<path d="M227.619 384.426V407.707" stroke="#263238" stroke-linecap="round" stroke-linejoin="round"/>
<path d="M234.737 396.066H220.509" stroke="#263238" stroke-linecap="round" stroke-linejoin="round"/>
<path d="M406.304 311.496H391.434V336.062H406.304V311.496Z" stroke="#263238" strokeWidth="2" stroke-linecap="round" stroke-linejoin="round"/>
<path d="M398.865 312.139V335.42" stroke="#263238" stroke-linecap="round" stroke-linejoin="round"/>
<path d="M405.974 323.779H391.755" stroke="#263238" stroke-linecap="round" stroke-linejoin="round"/>
<path d="M307.907 311.959H293.038V336.525H307.907V311.959Z" stroke="#263238" strokeWidth="2" stroke-linecap="round" stroke-linejoin="round"/>
<path d="M300.468 312.611V335.884" stroke="#263238" stroke-linecap="round" stroke-linejoin="round"/>
<path d="M307.586 324.242H293.359" stroke="#263238" stroke-linecap="round" stroke-linejoin="round"/>
<path d="M276.117 311.959H261.247V336.525H276.117V311.959Z" stroke="#263238" strokeWidth="2" stroke-linecap="round" stroke-linejoin="round"/>
<path d="M268.686 312.611V335.884" stroke="#263238" stroke-linecap="round" stroke-linejoin="round"/>
<path d="M275.795 324.242H261.568" stroke="#263238" stroke-linecap="round" stroke-linejoin="round"/>
<path d="M210.073 364.49H201.652L191.832 354.66H200.252L210.073 364.49Z" fill="#6E6E6E"/>
<path d="M236.039 364.49H227.619L217.798 354.66H226.218L236.039 364.49Z" fill="#6E6E6E"/>
<path d="M165.848 391.15H162.797V400.98H165.848V391.15Z" fill="#B5B5B5" stroke="#263238" stroke-linecap="round" stroke-linejoin="round"/>
<path d="M169.237 391.15H166.187V400.98H169.237V391.15Z" fill="#B5B5B5" stroke="#263238" stroke-linecap="round" stroke-linejoin="round"/>
<path d="M172.636 391.15H169.576V400.98H172.636V391.15Z" fill="#B5B5B5" stroke="#263238" stroke-linecap="round" stroke-linejoin="round"/>
<path d="M176.034 391.15H172.975V400.98H176.034V391.15Z" fill="#B5B5B5" stroke="#263238" stroke-linecap="round" stroke-linejoin="round"/>
<path d="M179.415 391.15H176.364V400.98H179.415V391.15Z" fill="#B5B5B5" stroke="#263238" stroke-linecap="round" stroke-linejoin="round"/>
<path d="M268.329 374.693H192.866V379.644H268.329V374.693Z" fill="white" stroke="#263238" stroke-linecap="round" stroke-linejoin="round"/>
<path d="M268.329 374.693H240.008V379.644H268.329V374.693Z" fill="#BABABA" stroke="#263238" stroke-linecap="round" stroke-linejoin="round"/>
<path d="M192.866 374.694L165.821 347.113L139.578 375.577H143.244L165.919 351.404L192.866 379.645V374.694Z" fill="#BABABA" stroke="#263238" stroke-linecap="round" stroke-linejoin="round"/>
<path d="M328.477 431.594H296.151V434.671H328.477V431.594Z" fill="white" stroke="#263238" stroke-linecap="round" stroke-linejoin="round"/>
<path d="M352.392 307.918H240.526V311.013H352.392V307.918Z" fill="#BABABA" stroke="#263238" stroke-linecap="round" stroke-linejoin="round"/>
<path d="M228.198 403.961H224.487C223.325 403.961 222.382 404.903 222.382 406.066V406.806C222.382 407.969 223.325 408.912 224.487 408.912H228.198C229.361 408.912 230.303 407.969 230.303 406.806V406.066C230.303 404.903 229.361 403.961 228.198 403.961Z" fill="#263238" stroke="#263238" stroke-linecap="round" stroke-linejoin="round"/>
<path d="M249.714 391.74H282.147L298.658 403.961L327.05 408.911V423.772H199.931L190.36 419.481V413.862L229.983 405.611L246.886 392.695C247.699 392.076 248.692 391.741 249.714 391.74Z" fill="#060640" stroke="#263238" stroke-linecap="round" stroke-linejoin="round"/>
<path d="M255.404 405.611H229.652L246.556 392.695C247.369 392.076 248.362 391.741 249.383 391.74H273.566L255.404 405.611Z" fill="white" stroke="#263238" stroke-linecap="round" stroke-linejoin="round"/>
<path d="M245.99 431.858C249.727 428.12 249.727 422.06 245.99 418.322C242.252 414.584 236.192 414.584 232.454 418.322C228.716 422.06 228.716 428.12 232.454 431.858C236.192 435.595 242.252 435.595 245.99 431.858Z" fill="white" stroke="#263238" stroke-linecap="round" stroke-linejoin="round"/>
<path d="M245.853 433.918C250.742 431.908 253.076 426.315 251.066 421.427C249.055 416.538 243.463 414.204 238.574 416.214C233.685 418.224 231.351 423.817 233.361 428.706C235.371 433.595 240.964 435.928 245.853 433.918Z" fill="#263238" stroke="#263238" stroke-linecap="round" stroke-linejoin="round"/>
<path d="M247.144 425.091C247.144 426.07 246.854 427.028 246.31 427.842C245.766 428.656 244.993 429.29 244.088 429.665C243.184 430.04 242.188 430.138 241.228 429.947C240.268 429.756 239.386 429.284 238.693 428.592C238.001 427.9 237.529 427.017 237.338 426.057C237.147 425.097 237.245 424.101 237.62 423.197C237.995 422.292 238.629 421.519 239.443 420.975C240.257 420.431 241.215 420.141 242.194 420.141C242.844 420.139 243.489 420.267 244.09 420.515C244.691 420.763 245.237 421.128 245.697 421.588C246.157 422.048 246.522 422.594 246.77 423.195C247.018 423.797 247.146 424.441 247.144 425.091Z" fill="white" stroke="#263238" stroke-linecap="round" stroke-linejoin="round"/>
<path d="M217.432 415.52C216.933 415.521 216.435 415.563 215.942 415.645C215.453 415.562 214.958 415.52 214.462 415.52C213.18 415.481 211.903 415.7 210.707 416.163C209.511 416.627 208.42 417.326 207.499 418.219C206.579 419.112 205.847 420.181 205.347 421.362C204.847 422.543 204.589 423.813 204.589 425.096C204.589 426.378 204.847 427.648 205.347 428.829C205.847 430.011 206.579 431.079 207.499 431.972C208.42 432.865 209.511 433.565 210.707 434.028C211.903 434.492 213.18 434.71 214.462 434.671C214.958 434.668 215.453 434.623 215.942 434.538C216.435 434.623 216.933 434.667 217.432 434.671C219.921 434.595 222.283 433.553 224.017 431.766C225.75 429.978 226.72 427.586 226.72 425.096C226.72 422.606 225.75 420.213 224.017 418.426C222.283 416.638 219.921 415.596 217.432 415.52Z" fill="#263238" stroke="#263238" stroke-linecap="round" stroke-linejoin="round"/>
<path d="M290.406 415.521C289.907 415.522 289.409 415.564 288.917 415.646C288.424 415.564 287.926 415.522 287.427 415.521C284.938 415.597 282.576 416.64 280.843 418.427C279.109 420.215 278.139 422.607 278.139 425.097C278.139 427.587 279.109 429.98 280.843 431.767C282.576 433.555 284.938 434.597 287.427 434.673C287.926 434.669 288.425 434.624 288.917 434.539C289.409 434.624 289.907 434.669 290.406 434.673C292.895 434.597 295.257 433.555 296.991 431.767C298.724 429.98 299.694 427.587 299.694 425.097C299.694 422.607 298.724 420.215 296.991 418.427C295.257 416.64 292.895 415.597 290.406 415.521Z" fill="#263238" stroke="#263238" stroke-linecap="round" stroke-linejoin="round"/>
<path d="M319.864 427.338C321.085 422.195 317.905 417.036 312.762 415.815C307.619 414.595 302.46 417.775 301.239 422.918C300.019 428.061 303.199 433.22 308.342 434.44C313.485 435.661 318.644 432.481 319.864 427.338Z" fill="white" stroke="#263238" stroke-linecap="round" stroke-linejoin="round"/>
<path d="M317.18 433.914C322.069 431.904 324.403 426.312 322.393 421.423C320.383 416.534 314.79 414.2 309.901 416.21C305.012 418.22 302.678 423.813 304.688 428.702C306.698 433.591 312.291 435.924 317.18 433.914Z" fill="#263238" stroke="#263238" stroke-linecap="round" stroke-linejoin="round"/>
<path d="M318.46 425.091C318.462 426.073 318.172 427.033 317.628 427.85C317.084 428.667 316.309 429.304 315.403 429.68C314.496 430.057 313.498 430.156 312.535 429.965C311.572 429.774 310.688 429.301 309.994 428.607C309.299 427.913 308.827 427.028 308.636 426.066C308.445 425.103 308.544 424.105 308.92 423.198C309.297 422.291 309.934 421.517 310.751 420.973C311.568 420.428 312.528 420.139 313.509 420.141C314.16 420.141 314.803 420.269 315.404 420.517C316.005 420.766 316.55 421.131 317.01 421.591C317.47 422.05 317.834 422.596 318.083 423.197C318.332 423.797 318.46 424.441 318.46 425.091Z" fill="white" stroke="#263238" stroke-linecap="round" stroke-linejoin="round"/>
<path d="M324.079 403.961L309.468 393.141C308.237 392.229 306.745 391.738 305.214 391.74H273.565L255.404 405.611L215.782 413.862V419.481L225.353 423.772H231.784C231.683 423.282 231.633 422.783 231.633 422.282V421.952C231.644 420.067 232.401 418.264 233.738 416.935C235.075 415.607 236.884 414.861 238.769 414.861H246.038C247.923 414.861 249.732 415.607 251.069 416.935C252.406 418.264 253.163 420.067 253.174 421.952V422.282C253.174 422.8 253.112 423.29 253.014 427.402H302.939C302.841 423.29 302.787 422.8 302.787 422.282V421.952C302.799 420.075 303.55 418.278 304.877 416.951C306.205 415.623 308.002 414.873 309.879 414.861H317.149C319.033 414.861 320.842 415.607 322.179 416.935C323.516 418.264 324.273 420.067 324.285 421.952V422.282C324.282 422.783 324.228 423.282 324.124 423.772H334.685V412.747C334.685 411.601 334.359 410.479 333.744 409.513C333.13 408.546 332.253 407.774 331.215 407.288L324.079 403.961Z" fill="#060640" stroke="#263238" stroke-linecap="round" stroke-linejoin="round"/>
<path d="M289.077 394.059H274.333L259.195 405.61H289.077V394.059Z" fill="white" stroke="#263238" stroke-linecap="round" stroke-linejoin="round"/>
<path d="M291.557 394.059H303.563C305.13 394.057 306.653 394.571 307.899 395.521L321.136 405.61H291.557V394.059Z" fill="white" stroke="#263238" stroke-linecap="round" stroke-linejoin="round"/>
<path d="M215.782 413.861H190.36V419.472H215.782V413.861Z" fill="white" stroke="#263238" stroke-linecap="round" stroke-linejoin="round"/>
<path d="M336.621 420.471H328.37V425.091H336.621V420.471Z" fill="#263238" stroke="#263238" stroke-linecap="round" stroke-linejoin="round"/>
<path d="M224.702 419.48H189.37V425.091H224.702V419.48Z" fill="#263238" stroke="#263238" stroke-linecap="round" stroke-linejoin="round"/>
<path d="M265.841 403.961H262.13C260.967 403.961 260.025 404.903 260.025 406.066V406.806C260.025 407.969 260.967 408.912 262.13 408.912H265.841C267.003 408.912 267.946 407.969 267.946 406.806V406.066C267.946 404.903 267.003 403.961 265.841 403.961Z" fill="#263238" stroke="#263238" stroke-linecap="round" stroke-linejoin="round"/>
<path d="M214.452 414.201H208.512V418.822H214.452V414.201Z" fill="white" stroke="#263238" stroke-linecap="round" stroke-linejoin="round"/>
<path d="M197.291 414.201H191.35V418.822H197.291V414.201Z" fill="white" stroke="#263238" stroke-linecap="round" stroke-linejoin="round"/>
<path d="M197.291 415.852H208.182" stroke="#263238" stroke-linecap="round" stroke-linejoin="round"/>
<path d="M197.291 417.537H208.182" stroke="#263238" stroke-linecap="round" stroke-linejoin="round"/>
<path d="M256.965 421.783H300.281" stroke="#263238" strokeWidth="2" stroke-linecap="round" stroke-linejoin="round"/>
<path d="M290.076 392.855V424.878H256.18V421.069C256.18 418.81 255.52 416.599 254.28 414.709L253.237 413.122L259.115 407.859" stroke="#263238" stroke-linecap="round" stroke-linejoin="round"/>
<path d="M321.475 406.289V413.559H308.648C306.948 413.561 305.318 414.238 304.116 415.441L303.385 416.172C302.185 417.375 301.511 419.005 301.512 420.704V424.539H291.932" stroke="#263238" stroke-linecap="round" stroke-linejoin="round"/>
<path d="M289.024 409.098H285.001V411.399H289.024V409.098Z" fill="#263238" stroke="#263238" stroke-linecap="round" stroke-linejoin="round"/>
<path d="M320.244 409.098H316.221V411.399H320.244V409.098Z" fill="#263238" stroke="#263238" stroke-linecap="round" stroke-linejoin="round"/>
<path d="M455.632 434.493C455.632 434.493 447.943 426.804 450.101 420.952C452.26 415.1 458.129 423.726 458.129 423.726C458.129 423.726 458.745 410.186 463.053 410.186C467.362 410.186 466.443 421.567 466.443 421.567C466.443 421.567 468.896 418.49 471.67 420.337C474.444 422.183 471.973 431.718 471.973 431.718C471.973 431.718 473.82 423.414 477.825 423.414C481.83 423.414 478.128 434.18 478.128 434.18" fill="#060640"/>
<path d="M453.794 434.18C453.794 434.18 448.87 427.418 450.405 426.152C451.939 424.885 454.098 428.614 454.098 428.614C454.098 428.614 452.563 419.694 457.478 419.381C462.393 419.069 460.556 430.148 460.556 430.148C460.556 430.148 463.018 423.378 465.479 425.224C467.941 427.071 467.023 432.61 467.023 432.61C467.023 432.61 467.326 427.998 470.403 427.998C473.481 427.998 475.327 431.682 475.327 431.682C475.327 431.682 478.092 427.071 480.251 428.614C482.41 430.157 480.251 434.456 480.251 434.456" stroke="#263238" stroke-linecap="round" stroke-linejoin="round"/>
<path d="M358.172 434.492C358.172 434.492 352.722 429.042 354.247 424.903C355.772 420.764 359.911 426.866 359.911 426.866C359.911 426.866 360.348 417.268 363.399 417.268C366.45 417.268 365.798 425.34 365.798 425.34C365.798 425.34 367.582 423.155 369.509 424.448C371.436 425.742 369.723 432.476 369.723 432.476C369.723 432.476 371.034 426.589 373.862 426.589C376.69 426.589 374.085 434.216 374.085 434.216" fill="#060640"/>
<path d="M356.86 434.27C356.86 434.27 353.373 429.48 354.47 428.606C355.567 427.732 357.083 430.39 357.083 430.39C357.083 430.39 355.995 424.066 359.483 423.852C362.971 423.638 361.659 431.479 361.659 431.479C361.659 431.479 363.399 426.68 365.147 427.991C366.895 429.302 366.235 433.218 366.235 433.218C366.235 433.218 366.458 429.953 368.635 429.953C370.811 429.953 372.123 432.567 372.123 432.567C372.123 432.567 374.085 429.293 375.61 430.39C377.136 431.487 375.61 434.529 375.61 434.529" stroke="#263238" stroke-linecap="round" stroke-linejoin="round"/>
<path d="M122.853 434.492C122.853 434.492 117.145 428.784 118.741 424.44C120.338 420.096 124.682 426.491 124.682 426.491C124.682 426.491 125.146 416.447 128.339 416.447C131.533 416.447 130.855 424.894 130.855 424.894C130.855 424.894 132.639 422.611 134.735 424.002C136.831 425.394 134.967 432.45 134.967 432.45C134.967 432.45 136.332 426.286 139.302 426.286C142.272 426.286 139.534 434.314 139.534 434.314" fill="#060640"/>
<path d="M121.489 434.26C121.489 434.26 117.832 429.238 118.973 428.32C120.115 427.401 121.712 430.148 121.712 430.148C121.712 430.148 120.57 423.53 124.227 423.298C127.884 423.066 126.511 431.326 126.511 431.326C126.511 431.326 128.295 426.304 130.168 427.669C132.041 429.033 131.31 433.154 131.31 433.154C131.31 433.154 131.542 429.729 133.825 429.729C136.109 429.729 137.482 432.468 137.482 432.468C137.482 432.468 139.534 429.042 141.131 430.184C142.727 431.326 141.131 434.528 141.131 434.528" stroke="#263238" stroke-linecap="round" stroke-linejoin="round"/>
<path d="M116.868 434.672H483.48" stroke="#263238" stroke-linecap="round" stroke-linejoin="round"/>
<defs>
<clipPath id="clip0_1233_6173">
<rect width="589.626" height="439" fill="white" transform="translate(0.170898 0.835938)"/>
</clipPath>
</defs>
</svg>
