<svg width="19" height="14" viewBox="0 0 19 14" fill="none" xmlns="http://www.w3.org/2000/svg">
<path d="M0.35 10.1383C0.35 8.97161 0.833333 7.52161 1.8 5.78828C2.76667 4.02161 4.08333 2.33828 5.75 0.73828C6.28333 0.73828 6.63333 0.98828 6.8 1.48828C5.06667 3.98828 4.2 5.98828 4.2 7.48828C5.3 8.38828 6.18333 9.57161 6.85 11.0383C5.61667 12.4383 4.33333 13.3883 3 13.8883C2.4 13.3883 1.83333 12.7716 1.3 12.0383C0.8 11.2716 0.483333 10.6383 0.35 10.1383ZM11.9223 10.1383C11.9223 8.97161 12.4056 7.52161 13.3723 5.78828C14.3389 4.02161 15.6556 2.33828 17.3223 0.73828C17.8556 0.73828 18.2056 0.98828 18.3723 1.48828C16.6389 3.98828 15.7723 5.98828 15.7723 7.48828C16.8723 8.38828 17.7556 9.57161 18.4223 11.0383C17.1889 12.4383 15.9056 13.3883 14.5723 13.8883C13.9723 13.3883 13.4056 12.7716 12.8723 12.0383C12.3723 11.2716 12.0556 10.6383 11.9223 10.1383Z" fill="black"/>
</svg>
