<svg width="19" height="15" viewBox="0 0 19 15" fill="none" xmlns="http://www.w3.org/2000/svg">
<path d="M7.2 4.63828C7.2 5.80495 6.71667 7.25495 5.75 8.98828C4.78333 10.7549 3.46667 12.4383 1.8 14.0383C1.26667 14.0383 0.916667 13.7883 0.75 13.2883C2.48333 10.7883 3.35 8.78828 3.35 7.28828C2.28333 6.42161 1.38333 5.23828 0.65 3.73828C1.95 2.33828 3.25 1.38828 4.55 0.888281C5.15 1.38828 5.7 2.02161 6.2 2.78828C6.73333 3.52161 7.06667 4.13828 7.2 4.63828ZM18.9676 4.63828C18.9676 5.80495 18.4842 7.25495 17.5176 8.98828C16.5509 10.7549 15.2342 12.4383 13.5676 14.0383C13.0342 14.0383 12.6842 13.7883 12.5176 13.2883C14.2509 10.7883 15.1176 8.78828 15.1176 7.28828C14.0509 6.42161 13.1509 5.23828 12.4176 3.73828C13.7176 2.33828 15.0176 1.38828 16.3176 0.888281C16.9176 1.38828 17.4676 2.02161 17.9676 2.78828C18.5009 3.52161 18.8342 4.13828 18.9676 4.63828Z" fill="black"/>
</svg>
