<svg width="590" height="441" viewBox="0 0 590 441" fill="none" xmlns="http://www.w3.org/2000/svg">
<g clip-path="url(#clip0_296_3677)">
<path d="M50.5535 435.035C33.8783 426.893 -5.96611 415.404 0.979905 366.126C3.21595 350.317 23.5545 326.271 38.3742 320.313C95.6075 297.336 81.9533 278.038 57.1903 236.379C37.9222 191.967 47.1995 113.635 91.0878 90.1587C119.443 74.9907 170.206 97.1849 199.988 85.1027C232.125 72.0473 235.337 35.2311 266.332 19.6596C359.318 -27.055 495.099 15.6242 499.309 120.827C507.016 312.623 657.711 239.417 552.808 437.646L50.5535 435.035Z" fill="#E3E9FF"/>
<path d="M187.832 387.679C187.832 370.446 173.845 356.488 156.575 356.488C142.85 356.488 131.218 365.295 127.007 377.567C125.223 376.475 123.106 375.858 120.846 375.858C114.305 375.858 109 381.151 109 387.679C109 388.676 109.119 389.649 109.357 390.598C108.144 390.409 106.883 390.314 105.622 390.314C91.7776 390.314 80.526 401.518 80.526 415.356C80.526 429.171 91.397 439.117 105.265 439.117C111.093 439.117 164.116 436.791 164.116 436.791C164.116 436.791 187.832 401.066 187.832 387.679Z" fill="#3F964F"/>
<path d="M564.083 431.83C564.083 432.969 563.988 434.061 563.774 435.129H400.495L410.795 382.552C403.159 377.709 398.211 369.995 398.211 361.283C398.211 346.637 412.222 334.745 429.516 334.745C446.809 334.745 460.82 346.614 460.82 361.283C460.82 363.277 460.559 365.224 460.059 367.099C461.296 366.98 462.557 366.909 463.841 366.909C478.185 366.909 490.365 374.742 494.765 385.637C496.645 384.664 498.833 384.118 501.188 384.118C508.039 384.118 513.582 388.818 513.582 394.634C513.582 395.536 513.439 396.39 513.201 397.221C514.485 397.055 515.794 396.984 517.102 396.984C529.543 396.984 539.962 404.342 542.65 414.193C543.744 413.979 544.886 413.861 546.052 413.861C556.019 413.837 564.083 421.884 564.083 431.83Z" fill="#3F964F"/>
<path d="M362.696 56.9026C356.82 56.9026 352.063 52.1314 352.063 46.2921C352.063 40.4291 356.844 35.6816 362.696 35.6816C368.572 35.6816 373.329 40.4528 373.329 46.2921C373.329 52.1314 368.548 56.9026 362.696 56.9026ZM362.696 37.8655C358.034 37.8655 354.251 41.6396 354.251 46.2921C354.251 50.9446 358.034 54.7188 362.696 54.7188C367.358 54.7188 371.141 50.9446 371.141 46.2921C371.141 41.6396 367.335 37.8655 362.696 37.8655Z" fill="#F7F9FF"/>
<path d="M463.491 287.01C457.616 287.01 452.858 282.239 452.858 276.4C452.858 270.536 457.64 265.789 463.491 265.789C469.367 265.789 474.124 270.56 474.124 276.4C474.124 282.239 469.343 287.01 463.491 287.01ZM463.491 267.973C458.829 267.973 455.047 271.747 455.047 276.4C455.047 281.052 458.829 284.826 463.491 284.826C468.154 284.826 471.936 281.052 471.936 276.4C471.936 271.747 468.13 267.973 463.491 267.973Z" fill="#F7F9FF"/>
<path d="M572.979 440.256H50.5535C49.1024 440.256 47.9368 439.093 47.9368 437.645C47.9368 436.197 49.1024 435.034 50.5535 435.034H572.979C574.43 435.034 575.596 436.197 575.596 437.645C575.596 439.093 574.407 440.256 572.979 440.256Z" fill="#2C2858"/>
<path d="M85.236 331.85C79.3604 331.85 74.6029 327.079 74.6029 321.239C74.6029 315.376 79.3842 310.629 85.236 310.629C91.1116 310.629 95.8691 315.4 95.8691 321.239C95.8691 327.079 91.0878 331.85 85.236 331.85ZM85.236 312.789C80.5736 312.789 76.7913 316.563 76.7913 321.216C76.7913 325.868 80.5736 329.642 85.236 329.642C89.8984 329.642 93.6806 325.868 93.6806 321.216C93.6806 316.563 89.8746 312.789 85.236 312.789Z" fill="#F7F9FF"/>
<path d="M115.571 345.452C115.664 341.927 112.876 338.994 109.343 338.901C105.81 338.808 102.87 341.591 102.777 345.117C102.684 348.642 105.473 351.575 109.006 351.668C112.539 351.761 115.478 348.978 115.571 345.452Z" fill="#F7F9FF"/>
<path d="M346.306 25.689C346.306 29.2021 343.452 32.0743 339.907 32.0743C336.387 32.0743 333.508 29.2258 333.508 25.689C333.508 22.1759 336.363 19.3037 339.907 19.3037C343.452 19.3037 346.306 22.1759 346.306 25.689Z" fill="#F7F9FF"/>
<path d="M554.14 294.629C554.14 298.142 551.285 301.015 547.741 301.015C544.196 301.015 541.342 298.166 541.342 294.629C541.342 291.116 544.196 288.244 547.741 288.244C551.285 288.244 554.14 291.093 554.14 294.629Z" fill="#F7F9FF"/>
<path d="M403.754 435.129H144.039C139.948 435.129 136.641 431.83 136.641 427.747V77.8627C136.641 73.7799 139.948 70.4805 144.039 70.4805H403.73C407.821 70.4805 411.128 73.7799 411.128 77.8627V427.747C411.152 431.83 407.845 435.129 403.754 435.129Z" fill="#8EA5ED"/>
<path d="M181.559 91.676L110.799 119.096L136.813 185.943L207.573 158.524L181.559 91.676Z" fill="#F5A3B7"/>
<path d="M156.29 101.386V178.223L160.691 176.87V99.6768L156.29 101.386Z" fill="#F291A9"/>
<path d="M396.522 419.345H208.314L164.425 387.917V80.2842H396.522V419.345Z" fill="#5F7FCF"/>
<path d="M393.002 416.567H204.793L160.905 385.4V80.3076H393.002V416.567Z" fill="white"/>
<path d="M204.793 416.71L160.928 385.4L190.045 379.514L204.793 416.71Z" fill="#CDD8FA"/>
<path d="M160.928 385.4L208.314 419.344C208.314 419.344 172.513 408.781 160.928 385.4Z" fill="#5F7FCF"/>
<path d="M345.212 71.9046V88.7817C345.212 90.5382 343.785 91.9387 342.048 91.9387H212.881C211.121 91.9387 209.717 90.5145 209.717 88.7817V71.9046C209.717 64.6648 215.593 58.8018 222.848 58.8018H332.129C335.507 58.8018 338.599 60.0836 340.906 62.1724C343.547 64.5936 345.212 68.0592 345.212 71.9046Z" fill="#F37A50"/>
<path d="M305.32 63.3589H249.585C249.585 61.816 249.704 60.2968 249.966 58.8251C252.131 45.6273 263.62 35.5391 277.465 35.5391C291.309 35.5391 302.799 45.6036 304.963 58.8251C305.201 60.2968 305.32 61.816 305.32 63.3589Z" fill="#F37A50"/>
<path d="M340.883 62.1961L209.693 85.6246V71.9046C209.693 64.6648 215.569 58.8017 222.824 58.8017H249.966C252.131 45.6039 263.62 35.5156 277.465 35.5156C291.309 35.5156 302.799 45.5801 304.963 58.8017H332.105C335.483 58.8254 338.551 60.1072 340.883 62.1961Z" fill="#DE623C"/>
<path d="M285.79 50.517C285.79 55.0982 282.056 58.825 277.465 58.825C272.874 58.825 269.139 55.0982 269.139 50.517C269.139 45.9357 272.874 42.209 277.465 42.209C282.056 42.209 285.79 45.9357 285.79 50.517Z" fill="#E3E9FF"/>
<path d="M216.045 178.151H176.724C175.487 178.151 174.464 177.154 174.464 175.896V136.683C174.464 135.448 175.463 134.428 176.724 134.428H216.021C217.258 134.428 218.281 135.425 218.281 136.683V175.896C218.281 177.131 217.282 178.151 216.045 178.151ZM178.983 173.641H213.785V138.938H178.983V173.641Z" fill="#8EA5ED"/>
<path d="M192.4 175.422L171.348 151.068L178.817 144.635L192.471 160.42L220.303 128.85L227.701 135.354L192.4 175.422Z" fill="#FE2E89"/>
<path d="M327.276 137.395H236.621V145.465H327.276V137.395Z" fill="#CDD8FA"/>
<path d="M382.297 137.395H333.461V145.465H382.297V137.395Z" fill="#CDD8FA"/>
<path d="M288.645 153.417H236.621V161.488H288.645V153.417Z" fill="#CDD8FA"/>
<path d="M350.659 169.439H236.621V177.51H350.659V169.439Z" fill="#CDD8FA"/>
<path d="M382.273 153.417H294.473V161.488H382.273V153.417Z" fill="#CDD8FA"/>
<path d="M216.045 267.569H176.724C175.487 267.569 174.464 266.572 174.464 265.314V226.101C174.464 224.866 175.463 223.846 176.724 223.846H216.021C217.258 223.846 218.281 224.843 218.281 226.101V265.314C218.281 266.572 217.282 267.569 216.045 267.569ZM178.983 263.083H213.785V228.356H178.983V263.083Z" fill="#8EA5ED"/>
<path d="M192.4 264.84L171.348 240.485L178.817 234.053L192.471 249.838L220.303 218.268L227.701 224.772L192.4 264.84Z" fill="#FE2E89"/>
<path d="M364.004 225.674H236.621V233.744H364.004V225.674Z" fill="#CDD8FA"/>
<path d="M317.071 241.696H236.621V249.767H317.071V241.696Z" fill="#CDD8FA"/>
<path d="M268.283 257.719H236.621V265.789H268.283V257.719Z" fill="#CDD8FA"/>
<path d="M381.631 257.719H273.445V265.789H381.631V257.719Z" fill="#CDD8FA"/>
<path d="M381.631 241.696H323.613V249.767H381.631V241.696Z" fill="#CDD8FA"/>
<path d="M216.045 356.608H176.724C175.487 356.608 174.464 355.611 174.464 354.352V315.139C174.464 313.904 175.463 312.884 176.724 312.884H216.021C217.258 312.884 218.281 313.881 218.281 315.139V354.352C218.281 355.587 217.282 356.608 216.045 356.608ZM178.983 352.097H213.785V317.37H178.983V352.097Z" fill="#8EA5ED"/>
<path d="M192.4 353.878L171.348 329.524L178.817 323.091L192.471 338.876L220.303 307.306L227.701 313.81L192.4 353.878Z" fill="#FE2E89"/>
<path d="M275.704 314.355H236.621V322.426H275.704V314.355Z" fill="#CDD8FA"/>
<path d="M381.25 314.355H280.034V322.426H381.25V314.355Z" fill="#CDD8FA"/>
<path d="M342.31 330.378H236.621V338.449H342.31V330.378Z" fill="#CDD8FA"/>
<path d="M303.821 346.424H236.621V354.494H303.821V346.424Z" fill="#CDD8FA"/>
<path d="M360.46 346.424H308.317V354.494H360.46V346.424Z" fill="#CDD8FA"/>
<path d="M381.631 330.378H348.352V338.449H381.631V330.378Z" fill="#CDD8FA"/>
</g>
<defs>
<clipPath id="clip0_296_3677">
<rect width="589.626" height="439.421" fill="white" transform="translate(0.171082 0.835938)"/>
</clipPath>
</defs>
</svg>
