<svg width="100" height="101" viewBox="0 0 100 101" fill="none" xmlns="http://www.w3.org/2000/svg">
<path d="M50 0.799805C22.3849 0.799805 0 23.1847 0 50.7998C0 78.4149 22.3849 100.8 50 100.8C77.6151 100.8 100 78.4149 100 50.7998C100 23.1847 77.6151 0.799805 50 0.799805ZM77.8016 34.4268C57.1131 54.4466 46.7659 75.6569 46.6647 75.8712C46.6166 75.9704 46.4988 76.1882 46.4461 76.2836C46.0206 77.0547 45.4812 77.5833 44.6922 78.0979C44.6767 78.108 44.6565 78.1034 44.6395 78.1134C43.7962 78.6498 43.0119 78.9745 42.0081 79.0055C41.9554 79.0071 41.7221 79.0055 41.6679 79.0055C41.6679 79.0055 41.6663 79.004 41.664 79.004L41.6594 79.0055C40.8533 79.0055 40.0333 78.8296 39.2568 78.4583C39.2165 78.439 39.194 78.4018 39.1545 78.3816C39.0041 78.3057 38.6856 78.1468 38.5422 78.0569C37.9493 77.6818 37.7842 77.5515 37.3858 77.0098C37.3184 76.9191 37.0789 76.5913 37.0154 76.4951C36.9619 76.4076 31.5614 68.2626 23.0652 62.8334C20.4818 61.1834 19.7255 57.7553 21.3756 55.1674C23.0256 52.5795 26.449 51.8471 29.0416 53.4778C33.9337 56.602 37.8873 60.3494 40.8053 63.5426C45.8214 55.0605 55.4321 40.6319 70.0871 26.4573C72.2843 24.3089 75.8 24.3772 77.9289 26.5844C80.068 28.7824 80.0099 32.2981 77.8026 34.4271L77.8016 34.4268Z" fill="#FE2E89"/>
</svg>
