<svg width="100" height="100" viewBox="0 0 100 100" fill="none" xmlns="http://www.w3.org/2000/svg">
<path d="M50 0C22.3849 0 0 22.3849 0 50C0 77.6151 22.3849 100 50 100C77.6151 100 100 77.6151 100 50C100 22.3849 77.6151 0 50 0ZM77.8016 33.627C57.1131 53.6468 46.7659 74.8571 46.6647 75.0714C46.6166 75.1706 46.4988 75.3884 46.4461 75.4838C46.0206 76.2549 45.4812 76.7835 44.6922 77.2981C44.6767 77.3082 44.6565 77.3036 44.6395 77.3136C43.7962 77.85 43.0119 78.1747 42.0081 78.2057C41.9554 78.2073 41.7221 78.2057 41.6679 78.2057C41.6679 78.2057 41.6663 78.2042 41.664 78.2042L41.6594 78.2057C40.8533 78.2057 40.0333 78.0298 39.2568 77.6585C39.2165 77.6392 39.194 77.602 39.1545 77.5818C39.0041 77.5059 38.6856 77.347 38.5422 77.2571C37.9493 76.882 37.7842 76.7517 37.3858 76.21C37.3184 76.1193 37.0789 75.7915 37.0154 75.6953C36.9619 75.6078 31.5614 67.4628 23.0652 62.0336C20.4818 60.3836 19.7255 56.9555 21.3756 54.3676C23.0256 51.7797 26.449 51.0473 29.0416 52.678C33.9337 55.8022 37.8873 59.5496 40.8053 62.7428C45.8214 54.2607 55.4321 39.8321 70.0871 25.6575C72.2843 23.5091 75.8 23.5774 77.9289 25.7846C80.068 27.9826 80.0099 31.4983 77.8026 33.6273L77.8016 33.627Z" fill="#FE2E89"/>
</svg>
