<svg width="27" height="29" viewBox="0 0 27 29" fill="none" xmlns="http://www.w3.org/2000/svg">
<path d="M9.8056 18.4019V24.7835H1.88274V5.08858C1.88274 3.41811 3.25279 2.04824 4.92351 2.04824H17.528C16.6901 2.95356 16.1779 4.13793 16.1779 5.46544V17.5991H10.6084C10.1653 17.5991 9.8056 17.9588 9.8056 18.4019ZM17.8548 21.6446L17.8548 21.6446C18.0378 21.4615 18.1099 21.2489 18.0965 21.0441C18.0833 20.8418 17.9875 20.6547 17.8485 20.5156C17.7094 20.3766 17.5223 20.2807 17.3201 20.2675C17.1153 20.2541 16.9027 20.3262 16.7198 20.5091L12.7152 24.5137L12.7151 24.5137C12.5322 24.6968 12.4602 24.9094 12.4736 25.1142C12.4868 25.3165 12.5826 25.5036 12.7217 25.6427C12.8607 25.7817 13.0479 25.8775 13.2502 25.8906C13.455 25.9039 13.6676 25.8318 13.8507 25.6488L17.8548 21.6446ZM1.07954 26.3888H9.80517V27.7546C9.80517 28.1982 10.1649 28.5575 10.608 28.5575H19.9612C20.4047 28.5575 20.764 28.198 20.764 27.7546V18.4015C20.764 17.9584 20.4045 17.5986 19.9612 17.5986H17.7825V15.7249H25.4204C25.8635 15.7249 26.2233 15.3654 26.2233 14.9221V5.46468C26.2233 2.70069 23.9645 0.441992 21.2001 0.441992H4.92292C2.36597 0.441992 0.276709 2.5308 0.276709 5.08799V25.586C0.276709 26.0296 0.636448 26.3888 1.07954 26.3888ZM16.585 24.4634C16.3261 24.4634 16.1248 24.5627 15.9894 24.717C15.8557 24.8694 15.7911 25.0695 15.7911 25.2661C15.7911 25.4628 15.8557 25.6629 15.9894 25.8152C16.1248 25.9695 16.3261 26.0689 16.585 26.0689H17.1661C17.4249 26.0689 17.6262 25.9695 17.7616 25.8152C17.8953 25.6629 17.9599 25.4628 17.9599 25.2661C17.9599 25.0695 17.8953 24.8694 17.7616 24.717C17.6262 24.5627 17.4249 24.4634 17.1661 24.4634H16.585ZM13.985 21.6943C14.2439 21.6943 14.4451 21.5949 14.5805 21.4406C14.7142 21.2883 14.7788 21.0882 14.7788 20.8915C14.7788 20.6949 14.7142 20.4948 14.5805 20.3424C14.4451 20.1881 14.2439 20.0888 13.985 20.0888H13.4039C13.145 20.0888 12.9438 20.1881 12.8084 20.3424C12.6747 20.4948 12.6101 20.6949 12.6101 20.8915C12.6101 21.0882 12.6747 21.2883 12.8084 21.4406C12.9438 21.5949 13.145 21.6943 13.4039 21.6943H13.985ZM11.4106 19.2047H19.1586V26.9527H11.4106V19.2047ZM4.16939 3.73935C3.91048 3.73935 3.70918 3.83869 3.57374 3.99295C3.44 4.14528 3.37539 4.34535 3.37539 4.54199C3.37539 4.73862 3.44 4.9387 3.57374 5.09103C3.70918 5.24529 3.91048 5.34463 4.16939 5.34463H13.8906C14.1495 5.34463 14.3509 5.24529 14.4863 5.09103C14.62 4.9387 14.6846 4.73862 14.6846 4.54199C14.6846 4.34535 14.62 4.14528 14.4863 3.99295C14.3509 3.83869 14.1495 3.73935 13.8906 3.73935H4.16939ZM4.16939 7.19931C3.91048 7.19931 3.70918 7.29865 3.57374 7.45291C3.44 7.60524 3.37539 7.80532 3.37539 8.00195C3.37539 8.19859 3.44 8.39867 3.57374 8.551C3.70918 8.70526 3.91048 8.80459 4.16939 8.80459H13.8906C14.1495 8.80459 14.3509 8.70526 14.4863 8.551C14.62 8.39867 14.6846 8.19859 14.6846 8.00195C14.6846 7.80532 14.62 7.60524 14.4863 7.45291C14.3509 7.29865 14.1495 7.19931 13.8906 7.19931H4.16939ZM4.16939 10.6594C3.91048 10.6594 3.70917 10.7588 3.57374 10.9131C3.44 11.0654 3.37539 11.2655 3.37539 11.4622C3.37539 11.6588 3.44 11.859 3.57374 12.0113C3.70917 12.1656 3.91048 12.2649 4.16939 12.2649H13.8906C14.1496 12.2649 14.3509 12.1656 14.4863 12.0113C14.62 11.859 14.6846 11.6588 14.6846 11.4622C14.6846 11.2655 14.62 11.0654 14.4863 10.9131C14.3509 10.7588 14.1496 10.6594 13.8906 10.6594H4.16939ZM4.16939 14.1194C3.91048 14.1194 3.70917 14.2188 3.57374 14.373C3.44 14.5254 3.37539 14.7255 3.37539 14.9222C3.37539 15.1188 3.44 15.3189 3.57374 15.4713C3.70917 15.6255 3.91048 15.7249 4.16939 15.7249H13.8906C14.1496 15.7249 14.3509 15.6255 14.4863 15.4713C14.62 15.3189 14.6846 15.1188 14.6846 14.9222C14.6846 14.7255 14.62 14.5254 14.4863 14.373C14.3509 14.2188 14.1496 14.1194 13.8906 14.1194H4.16939ZM17.7833 5.46501C17.7833 3.58755 19.3232 2.04782 21.2007 2.04782C23.0784 2.04782 24.6181 3.58712 24.6181 5.46501V14.1198H17.7833V5.46501Z" fill="#18191F" stroke="#18191F" strokeWidth="0.2"/>
</svg>
