<svg width="590" height="441" viewBox="0 0 590 441" fill="none" xmlns="http://www.w3.org/2000/svg">
<g clip-path="url(#clip0_358_5211)">
<path d="M50.5536 434.988C33.8784 426.846 -5.96608 415.357 0.979936 366.079C3.21598 350.27 23.5545 326.225 38.3742 320.267C95.6075 297.289 81.9533 277.991 57.1903 236.332C37.9223 191.92 47.1995 113.588 91.0878 90.1118C119.443 74.9438 170.206 97.138 199.988 85.0558C232.125 72.0004 235.337 35.1842 266.332 19.6127C359.318 -27.1019 495.099 15.5774 499.309 120.78C507.016 312.576 657.711 239.371 552.808 437.599L50.5536 434.988Z" fill="#E3E9FF"/>
<path d="M187.832 387.632C187.832 370.399 173.845 356.441 156.575 356.441C142.85 356.441 131.218 365.248 127.007 377.52C125.223 376.428 123.106 375.811 120.846 375.811C114.304 375.811 109 381.104 109 387.632C109 388.629 109.119 389.602 109.357 390.552C108.143 390.362 106.883 390.267 105.622 390.267C91.7775 390.267 80.5259 401.471 80.5259 415.309C80.5259 429.124 91.3969 439.07 105.265 439.07C111.093 439.07 164.116 436.744 164.116 436.744C164.116 436.744 187.832 401.02 187.832 387.632Z" fill="#3F964F"/>
<path d="M564.083 431.783C564.083 432.922 563.988 434.014 563.774 435.082H400.495L410.795 382.505C403.159 377.662 398.211 369.948 398.211 361.236C398.211 346.591 412.222 334.698 429.516 334.698C446.809 334.698 460.82 346.567 460.82 361.236C460.82 363.23 460.559 365.177 460.059 367.052C461.296 366.933 462.557 366.862 463.841 366.862C478.185 366.862 490.365 374.695 494.765 385.591C496.645 384.617 498.833 384.071 501.188 384.071C508.039 384.071 513.581 388.771 513.581 394.587C513.581 395.489 513.439 396.343 513.201 397.174C514.485 397.008 515.794 396.937 517.102 396.937C529.543 396.937 539.962 404.295 542.65 414.146C543.744 413.933 544.886 413.814 546.052 413.814C556.019 413.79 564.083 421.837 564.083 431.783Z" fill="#3F964F"/>
<path d="M362.696 56.8557C356.82 56.8557 352.062 52.0846 352.062 46.2452C352.062 40.3822 356.844 35.6348 362.696 35.6348C368.571 35.6348 373.329 40.4059 373.329 46.2452C373.329 52.0846 368.547 56.8557 362.696 56.8557ZM362.696 37.8186C358.033 37.8186 354.251 41.5928 354.251 46.2452C354.251 50.8977 358.033 54.6719 362.696 54.6719C367.358 54.6719 371.14 50.8977 371.14 46.2452C371.14 41.5928 367.334 37.8186 362.696 37.8186Z" fill="#F7F9FF"/>
<path d="M463.491 286.963C457.615 286.963 452.858 282.192 452.858 276.353C452.858 270.49 457.639 265.742 463.491 265.742C469.367 265.742 474.124 270.513 474.124 276.353C474.124 282.192 469.343 286.963 463.491 286.963ZM463.491 267.926C458.829 267.926 455.046 271.7 455.046 276.353C455.046 281.005 458.829 284.779 463.491 284.779C468.153 284.779 471.936 281.005 471.936 276.353C471.936 271.7 468.13 267.926 463.491 267.926Z" fill="#F7F9FF"/>
<path d="M572.979 440.209H50.5532C49.1021 440.209 47.9365 439.046 47.9365 437.598C47.9365 436.15 49.1021 434.987 50.5532 434.987H572.979C574.43 434.987 575.596 436.15 575.596 437.598C575.596 439.046 574.406 440.209 572.979 440.209Z" fill="#2C2858"/>
<path d="M85.2357 331.803C79.3601 331.803 74.6025 327.032 74.6025 321.193C74.6025 315.329 79.3839 310.582 85.2357 310.582C91.1112 310.582 95.8688 315.353 95.8688 321.193C95.8688 327.032 91.0874 331.803 85.2357 331.803ZM85.2357 312.742C80.5733 312.742 76.791 316.516 76.791 321.169C76.791 325.821 80.5733 329.595 85.2357 329.595C89.8981 329.595 93.6803 325.821 93.6803 321.169C93.6803 316.516 89.8743 312.742 85.2357 312.742Z" fill="#F7F9FF"/>
<path d="M115.571 345.405C115.664 341.88 112.875 338.947 109.342 338.854C105.809 338.762 102.87 341.544 102.777 345.07C102.684 348.595 105.473 351.528 109.006 351.621C112.539 351.714 115.478 348.931 115.571 345.405Z" fill="#F7F9FF"/>
<path d="M346.306 25.6421C346.306 29.1552 343.452 32.0274 339.907 32.0274C336.387 32.0274 333.508 29.1789 333.508 25.6421C333.508 22.129 336.363 19.2568 339.907 19.2568C343.452 19.2568 346.306 22.129 346.306 25.6421Z" fill="#F7F9FF"/>
<path d="M554.14 294.583C554.14 298.096 551.285 300.968 547.741 300.968C544.196 300.968 541.342 298.119 541.342 294.583C541.342 291.069 544.196 288.197 547.741 288.197C551.285 288.197 554.14 291.046 554.14 294.583Z" fill="#F7F9FF"/>
<path d="M403.753 435.083H144.039C139.948 435.083 136.641 431.783 136.641 427.7V77.8158C136.641 73.733 139.948 70.4336 144.039 70.4336H403.73C407.821 70.4336 411.128 73.733 411.128 77.8158V427.7C411.151 431.783 407.845 435.083 403.753 435.083Z" fill="#8EA5ED"/>
<path d="M181.558 91.6291L110.798 119.049L136.813 185.897L207.573 158.477L181.558 91.6291Z" fill="#F5A3B7"/>
<path d="M156.29 101.339V178.176L160.69 176.823V99.6299L156.29 101.339Z" fill="#F291A9"/>
<path d="M396.522 419.298H208.314L164.425 387.87V80.2373H396.522V419.298Z" fill="#5F7FCF"/>
<path d="M393.002 416.52H204.793L160.905 385.353V80.2607H393.002V416.52Z" fill="white"/>
<path d="M204.793 416.663L160.929 385.354L190.045 379.467L204.793 416.663Z" fill="#CDD8FA"/>
<path d="M160.929 385.354L208.314 419.297C208.314 419.297 172.513 408.734 160.929 385.354Z" fill="#5F7FCF"/>
<path d="M345.212 71.8578V88.7348C345.212 90.4914 343.785 91.8918 342.048 91.8918H212.881C211.121 91.8918 209.717 90.4676 209.717 88.7348V71.8578C209.717 64.6179 215.593 58.7549 222.848 58.7549H332.129C335.507 58.7549 338.599 60.0367 340.907 62.1255C343.547 64.5467 345.212 68.0123 345.212 71.8578Z" fill="#F37A50"/>
<path d="M305.32 63.312H249.585C249.585 61.7691 249.704 60.25 249.966 58.7783C252.131 45.5805 263.62 35.4922 277.465 35.4922C291.309 35.4922 302.799 45.5567 304.963 58.7783C305.201 60.25 305.32 61.7691 305.32 63.312Z" fill="#F37A50"/>
<path d="M340.883 62.1492L209.693 85.5777V71.8577C209.693 64.6179 215.569 58.7548 222.824 58.7548H249.966C252.131 45.557 263.62 35.4688 277.465 35.4688C291.309 35.4688 302.799 45.5333 304.963 58.7548H332.105C335.483 58.7786 338.551 60.0604 340.883 62.1492Z" fill="#DE623C"/>
<path d="M285.79 50.4701C285.79 55.0514 282.055 58.7781 277.464 58.7781C272.873 58.7781 269.139 55.0514 269.139 50.4701C269.139 45.8888 272.873 42.1621 277.464 42.1621C282.055 42.1621 285.79 45.8888 285.79 50.4701Z" fill="#E3E9FF"/>
<path d="M216.044 178.105H176.723C175.486 178.105 174.463 177.108 174.463 175.85V136.636C174.463 135.402 175.462 134.381 176.723 134.381H216.021C217.258 134.381 218.28 135.378 218.28 136.636V175.85C218.28 177.084 217.281 178.105 216.044 178.105ZM178.983 173.595H213.785V138.891H178.983V173.595Z" fill="#8EA5ED"/>
<path d="M192.399 175.375L171.347 151.021L178.817 144.588L192.471 160.373L220.302 128.803L227.7 135.307L192.399 175.375Z" fill="#FE2E89"/>
<path d="M327.276 137.348H236.621V145.418H327.276V137.348Z" fill="#CDD8FA"/>
<path d="M382.297 137.348H333.46V145.418H382.297V137.348Z" fill="#CDD8FA"/>
<path d="M288.644 153.37H236.621V161.441H288.644V153.37Z" fill="#CDD8FA"/>
<path d="M350.659 169.393H236.621V177.463H350.659V169.393Z" fill="#CDD8FA"/>
<path d="M382.273 153.37H294.472V161.441H382.273V153.37Z" fill="#CDD8FA"/>
<path d="M216.044 267.523H176.723C175.486 267.523 174.463 266.526 174.463 265.267V226.054C174.463 224.82 175.462 223.799 176.723 223.799H216.021C217.258 223.799 218.28 224.796 218.28 226.054V265.267C218.28 266.526 217.281 267.523 216.044 267.523ZM178.983 263.036H213.785V228.309H178.983V263.036Z" fill="#8EA5ED"/>
<path d="M192.399 264.793L171.347 240.439L178.817 234.006L192.471 249.791L220.302 218.221L227.7 224.725L192.399 264.793Z" fill="#FE2E89"/>
<path d="M364.004 225.627H236.621V233.698H364.004V225.627Z" fill="#CDD8FA"/>
<path d="M317.071 241.649H236.621V249.72H317.071V241.649Z" fill="#CDD8FA"/>
<path d="M268.282 257.672H236.621V265.742H268.282V257.672Z" fill="#CDD8FA"/>
<path d="M381.63 257.672H273.444V265.742H381.63V257.672Z" fill="#CDD8FA"/>
<path d="M381.631 241.649H323.612V249.72H381.631V241.649Z" fill="#CDD8FA"/>
<path d="M216.044 356.561H176.723C175.486 356.561 174.463 355.564 174.463 354.306V315.092C174.463 313.858 175.462 312.837 176.723 312.837H216.021C217.258 312.837 218.28 313.834 218.28 315.092V354.306C218.28 355.54 217.281 356.561 216.044 356.561ZM178.983 352.051H213.785V317.323H178.983V352.051Z" fill="#8EA5ED"/>
<path d="M192.399 353.831L171.347 329.477L178.817 323.044L192.471 338.829L220.302 307.259L227.7 313.763L192.399 353.831Z" fill="#FE2E89"/>
<path d="M275.704 314.309H236.621V322.379H275.704V314.309Z" fill="#CDD8FA"/>
<path d="M381.25 314.309H280.033V322.379H381.25V314.309Z" fill="#CDD8FA"/>
<path d="M342.31 330.331H236.621V338.402H342.31V330.331Z" fill="#CDD8FA"/>
<path d="M303.821 346.377H236.621V354.448H303.821V346.377Z" fill="#CDD8FA"/>
<path d="M360.46 346.377H308.317V354.448H360.46V346.377Z" fill="#CDD8FA"/>
<path d="M381.631 330.331H348.352V338.402H381.631V330.331Z" fill="#CDD8FA"/>
</g>
<defs>
<clipPath id="clip0_358_5211">
<rect width="589.626" height="439.421" fill="white" transform="translate(0.170898 0.789062)"/>
</clipPath>
</defs>
</svg>
