<svg width="41" height="41" viewBox="0 0 41 41" fill="none" xmlns="http://www.w3.org/2000/svg">
<path d="M34.166 10.2507H14.1785L28.2893 4.54482L27.1277 1.70898L5.53435 10.5069C4.28727 10.9852 3.41602 12.2494 3.41602 13.6673V34.1673C3.41602 36.0465 4.93643 37.584 6.83268 37.584H34.166C36.0623 37.584 37.5827 36.0465 37.5827 34.1673V13.6673C37.5827 11.7711 36.0623 10.2507 34.166 10.2507ZM34.166 13.6673V18.7923H30.7493V15.3757H27.3327V18.7923H6.83268V13.6673H34.166ZM6.83268 34.1673V22.209H34.166V34.1673H6.83268Z" fill="white"/>
<path d="M13.6673 32.4245C16.026 32.4245 17.9382 30.5124 17.9382 28.1536C17.9382 25.7949 16.026 23.8828 13.6673 23.8828C11.3086 23.8828 9.39648 25.7949 9.39648 28.1536C9.39648 30.5124 11.3086 32.4245 13.6673 32.4245Z" fill="white"/>
</svg>
