<svg width="885" height="383" viewBox="0 0 885 383" fill="none" xmlns="http://www.w3.org/2000/svg">
<rect x="524" y="84" width="162" height="18" rx="9" fill="#18194F" fill-opacity="0.1"/>
<rect x="491" y="102" width="162" height="18" rx="9" fill="#18194F" fill-opacity="0.1"/>
<rect x="211" width="184" height="18" rx="9" fill="#18194F" fill-opacity="0.1"/>
<rect x="174" y="18" width="184" height="18" rx="9" fill="#18194F" fill-opacity="0.1"/>
<rect x="511" y="120" width="203" height="18" rx="9" fill="#18194F" fill-opacity="0.1"/>
<rect x="431" y="259" width="162" height="18" rx="9" fill="#18194F" fill-opacity="0.1"/>
<rect x="451" y="277" width="203" height="18" rx="9" fill="#18194F" fill-opacity="0.1"/>
<rect width="153.011" height="18" rx="9" transform="matrix(-1 0 0 1 259.621 113)" fill="#18194F" fill-opacity="0.1"/>
<rect width="153.011" height="18" rx="9" transform="matrix(-1 0 0 1 290.39 131)" fill="#18194F" fill-opacity="0.1"/>
<rect width="191.263" height="18" rx="9" transform="matrix(-1 0 0 1 271.263 149)" fill="#18194F" fill-opacity="0.1"/>
<rect x="317" y="203" width="153.011" height="18" rx="9" transform="rotate(-180 317 203)" fill="#18194F" fill-opacity="0.1"/>
<rect x="297.874" y="185" width="191.263" height="18" rx="9" transform="rotate(-180 297.874 185)" fill="#18194F" fill-opacity="0.1"/>
<rect width="153" height="18" rx="9" transform="matrix(-1 0 0 1 621 138)" fill="#18194F" fill-opacity="0.1"/>
<rect x="687" y="192" width="122" height="18" rx="9" transform="rotate(-180 687 192)" fill="#18194F" fill-opacity="0.1"/>
<rect x="642" y="174" width="153" height="18" rx="9" transform="rotate(-180 642 174)" fill="#18194F" fill-opacity="0.1"/>
<ellipse rx="2" ry="2.5" transform="matrix(-1 0 0 1 10 66.5)" fill="#18194F" fill-opacity="0.1"/>
<circle r="5" transform="matrix(-1 0 0 1 5 52)" fill="#18194F" fill-opacity="0.1"/>
<ellipse rx="3.5" ry="4" transform="matrix(-1 0 0 1 28.5 58)" fill="#18194F" fill-opacity="0.1"/>
<ellipse rx="2" ry="2.5" transform="matrix(-1 0 0 1 712 324.5)" fill="#18194F" fill-opacity="0.1"/>
<circle r="5" transform="matrix(-1 0 0 1 707 310)" fill="#18194F" fill-opacity="0.1"/>
<ellipse rx="3.5" ry="4" transform="matrix(-1 0 0 1 730.5 316)" fill="#18194F" fill-opacity="0.1"/>
<ellipse rx="6" ry="7.5" transform="matrix(-1 0 0 1 111 375.5)" fill="#18194F" fill-opacity="0.1"/>
<circle r="14" transform="matrix(-1 0 0 1 97 335)" fill="#18194F" fill-opacity="0.1"/>
<ellipse rx="9.5" ry="11" transform="matrix(-1 0 0 1 163.5 351)" fill="#18194F" fill-opacity="0.1"/>
<ellipse rx="3" ry="4" transform="matrix(-1 0 0 1 851 49)" fill="#18194F" fill-opacity="0.1"/>
<ellipse rx="8" ry="7.5" transform="matrix(-1 0 0 1 843 26.5)" fill="#18194F" fill-opacity="0.1"/>
<ellipse rx="5.5" ry="6" transform="matrix(-1 0 0 1 879.5 36)" fill="#18194F" fill-opacity="0.1"/>
<rect x="147" y="36" width="442" height="93" rx="2" fill="white"/>
<rect x="147.5" y="36.5" width="441" height="92" rx="1.5" stroke="black" stroke-opacity="0.1"/>
<circle cx="193.5" cy="82.5" r="24.5" fill="#F7F7F7"/>
<path d="M194 74.5003C195.558 74.5003 196.833 75.7753 196.833 77.3337C196.833 78.892 195.558 80.167 194 80.167C192.442 80.167 191.167 78.892 191.167 77.3337C191.167 75.7753 192.442 74.5003 194 74.5003ZM194 87.2503C197.825 87.2503 202.217 89.0778 202.5 90.0837V91.5003H185.5V90.0978C185.783 89.0778 190.175 87.2503 194 87.2503ZM194 71.667C190.869 71.667 188.333 74.2028 188.333 77.3337C188.333 80.4645 190.869 83.0003 194 83.0003C197.131 83.0003 199.667 80.4645 199.667 77.3337C199.667 74.2028 197.131 71.667 194 71.667ZM194 84.417C190.217 84.417 182.667 86.3153 182.667 90.0837V94.3337H205.333V90.0837C205.333 86.3153 197.782 84.417 194 84.417Z" fill="#18194F"/>
<path d="M239.064 77.24C237.912 77.24 236.917 76.9893 236.08 76.488C235.248 75.9867 234.605 75.2853 234.152 74.384C233.704 73.4827 233.48 72.4347 233.48 71.24C233.48 70.0453 233.704 68.9973 234.152 68.096C234.605 67.1947 235.248 66.4933 236.08 65.992C236.917 65.4907 237.912 65.24 239.064 65.24C240.216 65.24 241.208 65.4907 242.04 65.992C242.877 66.4933 243.52 67.1947 243.968 68.096C244.421 68.9973 244.648 70.0453 244.648 71.24C244.648 72.4347 244.421 73.4827 243.968 74.384C243.52 75.2853 242.877 75.9867 242.04 76.488C241.208 76.9893 240.216 77.24 239.064 77.24ZM239.064 75.192C239.795 75.2027 240.403 75.0453 240.888 74.72C241.373 74.3947 241.736 73.9333 241.976 73.336C242.221 72.7387 242.344 72.04 242.344 71.24C242.344 70.44 242.221 69.7467 241.976 69.16C241.736 68.5733 241.373 68.1173 240.888 67.792C240.403 67.4667 239.795 67.2987 239.064 67.288C238.333 67.2773 237.725 67.4347 237.24 67.76C236.755 68.0853 236.389 68.5467 236.144 69.144C235.904 69.7413 235.784 70.44 235.784 71.24C235.784 72.04 235.904 72.7333 236.144 73.32C236.389 73.9067 236.755 74.3627 237.24 74.688C237.725 75.0133 238.333 75.1813 239.064 75.192ZM246.405 77V65.48H248.581V74.968H253.541V77H246.405ZM254.901 77V65.48H258.629C258.72 65.48 258.907 65.4827 259.189 65.488C259.472 65.4933 259.744 65.512 260.005 65.544C260.933 65.656 261.72 65.9787 262.365 66.512C263.011 67.0453 263.501 67.7227 263.837 68.544C264.173 69.3653 264.341 70.264 264.341 71.24C264.341 72.216 264.173 73.1147 263.837 73.936C263.501 74.7573 263.011 75.4347 262.365 75.968C261.72 76.5013 260.933 76.824 260.005 76.936C259.744 76.968 259.472 76.9867 259.189 76.992C258.907 76.9973 258.72 77 258.629 77H254.901ZM257.109 74.952H258.629C258.773 74.952 258.968 74.9493 259.213 74.944C259.459 74.9333 259.68 74.9093 259.877 74.872C260.379 74.7707 260.787 74.536 261.101 74.168C261.421 73.8 261.656 73.3573 261.805 72.84C261.96 72.3227 262.037 71.7893 262.037 71.24C262.037 70.664 261.957 70.1173 261.797 69.6C261.643 69.0827 261.405 68.6453 261.085 68.288C260.765 67.9307 260.363 67.704 259.877 67.608C259.68 67.5653 259.459 67.5413 259.213 67.536C258.968 67.5307 258.773 67.528 258.629 67.528H257.109V74.952ZM269.464 77V65.48H276.984V67.512H271.64V69.976H276.024V72.008H271.64V74.968H276.984V77H269.464ZM278.901 77V65.48H280.853L284.661 73.128L288.469 65.48H290.421V77H288.389V70.12L285.045 77H284.277L280.933 70.12V77H278.901ZM291.867 77L295.387 65.48H298.635L302.155 77H299.915L296.779 66.84H297.195L294.107 77H291.867ZM293.979 74.6V72.568H300.059V74.6H293.979ZM303.749 77V65.48H305.925V77H303.749ZM308.483 77V65.48H310.659V74.968H315.619V77H308.483Z" fill="#84879E"/>
<path d="M232.84 104.84V103.704H233.328C233.717 103.704 234.027 103.603 234.256 103.4C234.491 103.203 234.608 102.869 234.608 102.4V92.36H235.776V102.696C235.776 103.416 235.603 103.952 235.256 104.304C234.915 104.661 234.389 104.84 233.68 104.84H232.84ZM234.608 90.72V89.4H235.776V90.72H234.608ZM241.744 101.24C240.885 101.24 240.152 101.045 239.544 100.656C238.936 100.267 238.469 99.728 238.144 99.04C237.818 98.352 237.656 97.5627 237.656 96.672C237.656 95.7653 237.821 94.9707 238.152 94.288C238.482 93.6053 238.952 93.0747 239.56 92.696C240.173 92.312 240.901 92.12 241.744 92.12C242.608 92.12 243.344 92.3147 243.952 92.704C244.565 93.088 245.032 93.624 245.352 94.312C245.677 94.9947 245.84 95.7813 245.84 96.672C245.84 97.5787 245.677 98.376 245.352 99.064C245.026 99.7467 244.557 100.28 243.944 100.664C243.33 101.048 242.597 101.24 241.744 101.24ZM241.744 100.112C242.704 100.112 243.418 99.7947 243.888 99.16C244.357 98.52 244.592 97.6907 244.592 96.672C244.592 95.6267 244.354 94.7947 243.88 94.176C243.41 93.5573 242.698 93.248 241.744 93.248C241.098 93.248 240.565 93.3947 240.144 93.688C239.728 93.976 239.416 94.3787 239.208 94.896C239.005 95.408 238.904 96 238.904 96.672C238.904 97.712 239.144 98.5467 239.624 99.176C240.104 99.8 240.81 100.112 241.744 100.112ZM253.844 101V96.592C253.844 96.112 253.799 95.672 253.708 95.272C253.618 94.8667 253.471 94.5147 253.268 94.216C253.071 93.912 252.812 93.6773 252.492 93.512C252.178 93.3467 251.794 93.264 251.34 93.264C250.924 93.264 250.556 93.336 250.236 93.48C249.922 93.624 249.655 93.832 249.436 94.104C249.223 94.3707 249.06 94.696 248.948 95.08C248.836 95.464 248.78 95.9013 248.78 96.392L247.948 96.208C247.948 95.3227 248.103 94.5787 248.412 93.976C248.722 93.3733 249.148 92.9173 249.692 92.608C250.236 92.2987 250.86 92.144 251.564 92.144C252.082 92.144 252.532 92.224 252.916 92.384C253.306 92.544 253.634 92.76 253.9 93.032C254.172 93.304 254.391 93.616 254.556 93.968C254.722 94.3147 254.842 94.6853 254.916 95.08C254.991 95.4693 255.028 95.8587 255.028 96.248V101H253.844ZM247.596 101V89.48H248.66V95.984H248.78V101H247.596ZM263.344 101V96.592C263.344 96.112 263.299 95.672 263.208 95.272C263.118 94.8667 262.971 94.5147 262.768 94.216C262.571 93.912 262.312 93.6773 261.992 93.512C261.678 93.3467 261.294 93.264 260.84 93.264C260.424 93.264 260.056 93.336 259.736 93.48C259.422 93.624 259.155 93.832 258.936 94.104C258.723 94.3707 258.56 94.696 258.448 95.08C258.336 95.464 258.28 95.9013 258.28 96.392L257.448 96.208C257.448 95.3227 257.603 94.5787 257.912 93.976C258.222 93.3733 258.648 92.9173 259.192 92.608C259.736 92.2987 260.36 92.144 261.064 92.144C261.582 92.144 262.032 92.224 262.416 92.384C262.806 92.544 263.134 92.76 263.4 93.032C263.672 93.304 263.891 93.616 264.056 93.968C264.222 94.3147 264.342 94.6853 264.416 95.08C264.491 95.4693 264.528 95.8587 264.528 96.248V101H263.344ZM257.096 101V92.36H258.16V94.488H258.28V101H257.096ZM269.828 101.232C268.815 101.232 267.98 101.013 267.324 100.576C266.674 100.139 266.274 99.5307 266.124 98.752L267.324 98.552C267.452 99.0427 267.743 99.4347 268.196 99.728C268.655 100.016 269.22 100.16 269.892 100.16C270.548 100.16 271.066 100.024 271.444 99.752C271.823 99.4747 272.012 99.0987 272.012 98.624C272.012 98.3573 271.951 98.1413 271.828 97.976C271.711 97.8053 271.468 97.648 271.1 97.504C270.732 97.36 270.183 97.1893 269.452 96.992C268.668 96.7787 268.055 96.5653 267.612 96.352C267.17 96.1387 266.855 95.8933 266.668 95.616C266.482 95.3333 266.388 94.9893 266.388 94.584C266.388 94.0933 266.527 93.664 266.804 93.296C267.082 92.9227 267.466 92.6347 267.956 92.432C268.447 92.224 269.018 92.12 269.668 92.12C270.319 92.12 270.9 92.2267 271.412 92.44C271.93 92.648 272.346 92.9413 272.66 93.32C272.975 93.6987 273.162 94.1387 273.22 94.64L272.02 94.856C271.94 94.3493 271.687 93.9493 271.26 93.656C270.839 93.3573 270.303 93.2027 269.652 93.192C269.039 93.176 268.54 93.2933 268.156 93.544C267.772 93.7893 267.58 94.1173 267.58 94.528C267.58 94.7573 267.65 94.9547 267.788 95.12C267.927 95.28 268.178 95.432 268.54 95.576C268.908 95.72 269.431 95.8773 270.108 96.048C270.903 96.2507 271.527 96.464 271.98 96.688C272.434 96.912 272.756 97.176 272.948 97.48C273.14 97.784 273.236 98.16 273.236 98.608C273.236 99.424 272.932 100.067 272.324 100.536C271.722 101 270.89 101.232 269.828 101.232ZM285.315 101L285.323 95.328C285.323 94.6613 285.136 94.1387 284.763 93.76C284.395 93.376 283.925 93.184 283.355 93.184C283.029 93.184 282.712 93.2587 282.403 93.408C282.093 93.5573 281.837 93.7973 281.635 94.128C281.437 94.4587 281.339 94.8907 281.339 95.424L280.643 95.224C280.627 94.6053 280.747 94.064 281.003 93.6C281.264 93.136 281.621 92.776 282.075 92.52C282.533 92.2587 283.051 92.128 283.627 92.128C284.496 92.128 285.192 92.3973 285.715 92.936C286.237 93.4693 286.499 94.192 286.499 95.104L286.491 101H285.315ZM275.003 101V92.36H276.059V94.488H276.187V101H275.003ZM280.171 101L280.179 95.408C280.179 94.72 279.995 94.1787 279.627 93.784C279.264 93.384 278.784 93.184 278.187 93.184C277.589 93.184 277.107 93.3893 276.739 93.8C276.371 94.2053 276.187 94.7467 276.187 95.424L275.483 95.04C275.483 94.4853 275.613 93.9893 275.875 93.552C276.136 93.1093 276.493 92.7627 276.947 92.512C277.4 92.256 277.915 92.128 278.491 92.128C279.04 92.128 279.528 92.2453 279.955 92.48C280.387 92.7147 280.725 93.056 280.971 93.504C281.216 93.952 281.339 94.496 281.339 95.136L281.331 101H280.171ZM288.733 90.72V89.4H289.909V90.72H288.733ZM288.733 101V92.36H289.909V101H288.733ZM297.012 101C296.526 101.101 296.046 101.141 295.572 101.12C295.102 101.099 294.681 100.997 294.308 100.816C293.94 100.635 293.66 100.352 293.468 99.968C293.313 99.648 293.228 99.3253 293.212 99C293.201 98.6693 293.196 98.2933 293.196 97.872V89.96H294.364V97.824C294.364 98.1867 294.366 98.4907 294.372 98.736C294.382 98.976 294.438 99.1893 294.54 99.376C294.732 99.7333 295.036 99.9467 295.452 100.016C295.873 100.085 296.393 100.069 297.012 99.968V101ZM291.348 93.368V92.36H297.012V93.368H291.348ZM304.954 101V96.592C304.954 96.112 304.908 95.672 304.818 95.272C304.727 94.8667 304.58 94.5147 304.378 94.216C304.18 93.912 303.922 93.6773 303.602 93.512C303.287 93.3467 302.903 93.264 302.45 93.264C302.034 93.264 301.666 93.336 301.346 93.48C301.031 93.624 300.764 93.832 300.546 94.104C300.332 94.3707 300.17 94.696 300.058 95.08C299.946 95.464 299.89 95.9013 299.89 96.392L299.058 96.208C299.058 95.3227 299.212 94.5787 299.522 93.976C299.831 93.3733 300.258 92.9173 300.802 92.608C301.346 92.2987 301.97 92.144 302.674 92.144C303.191 92.144 303.642 92.224 304.026 92.384C304.415 92.544 304.743 92.76 305.01 93.032C305.282 93.304 305.5 93.616 305.666 93.968C305.831 94.3147 305.951 94.6853 306.026 95.08C306.1 95.4693 306.138 95.8587 306.138 96.248V101H304.954ZM298.706 101V89.48H299.77V95.984H299.89V101H298.706ZM311.974 101.24C311.264 101.24 310.624 101.075 310.054 100.744C309.488 100.413 309.04 99.9653 308.71 99.4C308.379 98.8293 308.214 98.1893 308.214 97.48V93C308.214 92.2907 308.379 91.6533 308.71 91.088C309.04 90.5173 309.488 90.0667 310.054 89.736C310.624 89.4053 311.264 89.24 311.974 89.24C312.683 89.24 313.32 89.4053 313.886 89.736C314.456 90.0667 314.907 90.5173 315.238 91.088C315.568 91.6533 315.734 92.2907 315.734 93V97.48C315.734 98.1893 315.568 98.8293 315.238 99.4C314.907 99.9653 314.456 100.413 313.886 100.744C313.32 101.075 312.683 101.24 311.974 101.24ZM311.974 100.104C312.448 100.104 312.88 99.9893 313.27 99.76C313.659 99.5253 313.968 99.2133 314.198 98.824C314.427 98.4347 314.542 98.0053 314.542 97.536V92.944C314.542 92.4693 314.427 92.0373 314.198 91.648C313.968 91.2587 313.659 90.9493 313.27 90.72C312.88 90.4853 312.448 90.368 311.974 90.368C311.499 90.368 311.067 90.4853 310.678 90.72C310.288 90.9493 309.979 91.2587 309.75 91.648C309.52 92.0373 309.406 92.4693 309.406 92.944V97.536C309.406 98.0053 309.52 98.4347 309.75 98.824C309.979 99.2133 310.288 99.5253 310.678 99.76C311.067 99.9893 311.499 100.104 311.974 100.104ZM319.987 101V90.792L317.819 92.096V90.776L319.987 89.48H321.179V101H319.987ZM323.894 100.992L323.902 99.92L329.11 95.216C329.558 94.8107 329.854 94.4267 329.998 94.064C330.147 93.696 330.222 93.312 330.222 92.912C330.222 92.4373 330.11 92.008 329.886 91.624C329.662 91.24 329.36 90.936 328.982 90.712C328.603 90.4827 328.179 90.368 327.71 90.368C327.219 90.368 326.782 90.4853 326.398 90.72C326.014 90.9547 325.71 91.264 325.486 91.648C325.267 92.032 325.16 92.4507 325.166 92.904H323.966C323.966 92.2053 324.131 91.5787 324.462 91.024C324.792 90.4693 325.24 90.0347 325.806 89.72C326.371 89.4 327.011 89.24 327.726 89.24C328.424 89.24 329.051 89.4053 329.606 89.736C330.166 90.0613 330.606 90.504 330.926 91.064C331.251 91.6187 331.414 92.2373 331.414 92.92C331.414 93.4 331.355 93.824 331.238 94.192C331.126 94.5547 330.947 94.8933 330.702 95.208C330.462 95.5173 330.155 95.8373 329.782 96.168L325.158 100.344L324.974 99.864H331.414V100.992H323.894ZM339.475 102.68C338.621 102.68 337.832 102.531 337.107 102.232C336.381 101.939 335.749 101.528 335.211 101C334.672 100.467 334.251 99.84 333.947 99.12C333.648 98.4 333.499 97.616 333.499 96.768C333.499 95.8667 333.645 95.0453 333.939 94.304C334.232 93.5573 334.645 92.9147 335.179 92.376C335.717 91.832 336.355 91.4133 337.091 91.12C337.827 90.8267 338.635 90.68 339.515 90.68C340.523 90.68 341.403 90.8427 342.155 91.168C342.912 91.488 343.536 91.9253 344.027 92.48C344.517 93.0293 344.875 93.648 345.099 94.336C345.328 95.024 345.424 95.736 345.387 96.472C345.333 97.48 345.093 98.24 344.667 98.752C344.245 99.264 343.656 99.52 342.899 99.52C342.408 99.52 341.981 99.4053 341.619 99.176C341.256 98.9467 341.013 98.624 340.891 98.208L341.275 98.248C341.088 98.6267 340.808 98.9013 340.435 99.072C340.067 99.2427 339.683 99.328 339.283 99.328C338.797 99.328 338.371 99.224 338.003 99.016C337.64 98.8027 337.355 98.5093 337.147 98.136C336.944 97.7627 336.843 97.3307 336.843 96.84C336.843 96.328 336.949 95.8853 337.163 95.512C337.376 95.1387 337.669 94.8507 338.043 94.648C338.416 94.4453 338.837 94.344 339.307 94.344C339.653 94.344 340.011 94.416 340.379 94.56C340.752 94.704 341.037 94.9387 341.235 95.264L340.923 95.616V94.568H341.771L341.763 97.168C341.763 97.5627 341.853 97.8853 342.035 98.136C342.221 98.3813 342.528 98.504 342.955 98.504C343.243 98.504 343.483 98.424 343.675 98.264C343.872 98.104 344.024 97.88 344.131 97.592C344.237 97.2987 344.299 96.9547 344.315 96.56C344.347 95.7493 344.243 95.04 344.003 94.432C343.763 93.824 343.421 93.3173 342.979 92.912C342.536 92.5013 342.021 92.1947 341.435 91.992C340.853 91.7893 340.232 91.688 339.571 91.688C338.771 91.688 338.059 91.8213 337.435 92.088C336.816 92.3547 336.291 92.7227 335.859 93.192C335.432 93.6613 335.109 94.2027 334.891 94.816C334.672 95.424 334.568 96.072 334.579 96.76C334.584 97.4693 334.712 98.1253 334.963 98.728C335.219 99.3253 335.571 99.8453 336.019 100.288C336.467 100.725 336.989 101.064 337.587 101.304C338.184 101.549 338.832 101.672 339.531 101.672C339.984 101.672 340.437 101.613 340.891 101.496C341.349 101.379 341.757 101.216 342.115 101.008L342.491 101.904C342.027 102.165 341.539 102.36 341.027 102.488C340.515 102.616 339.997 102.68 339.475 102.68ZM339.347 98.304C339.763 98.304 340.101 98.184 340.363 97.944C340.629 97.704 340.763 97.3333 340.763 96.832C340.763 96.3413 340.635 95.9707 340.379 95.72C340.128 95.4693 339.792 95.344 339.371 95.344C338.891 95.344 338.523 95.4747 338.267 95.736C338.016 95.9973 337.891 96.3627 337.891 96.832C337.891 97.3067 338.021 97.672 338.283 97.928C338.544 98.1787 338.899 98.304 339.347 98.304ZM349.024 104.84L350.696 100.304L350.72 101.648L346.936 92.36H348.184L351.288 100.128H350.776L353.64 92.36H354.84L350.2 104.84H349.024ZM358.389 101.24C357.738 101.24 357.192 101.123 356.749 100.888C356.312 100.653 355.984 100.341 355.765 99.952C355.546 99.5627 355.437 99.1387 355.437 98.68C355.437 98.2107 355.53 97.8107 355.717 97.48C355.909 97.144 356.168 96.8693 356.493 96.656C356.824 96.4427 357.205 96.28 357.637 96.168C358.074 96.0613 358.557 95.968 359.085 95.888C359.618 95.8027 360.138 95.7307 360.645 95.672C361.157 95.608 361.605 95.5467 361.989 95.488L361.573 95.744C361.589 94.8907 361.424 94.2587 361.077 93.848C360.73 93.4373 360.128 93.232 359.269 93.232C358.677 93.232 358.176 93.3653 357.765 93.632C357.36 93.8987 357.074 94.32 356.909 94.896L355.765 94.56C355.962 93.7867 356.36 93.1867 356.957 92.76C357.554 92.3333 358.33 92.12 359.285 92.12C360.074 92.12 360.744 92.2693 361.293 92.568C361.848 92.8613 362.24 93.288 362.469 93.848C362.576 94.0987 362.645 94.3787 362.677 94.688C362.709 94.9973 362.725 95.312 362.725 95.632V101H361.677V98.832L361.981 98.96C361.688 99.7013 361.232 100.267 360.613 100.656C359.994 101.045 359.253 101.24 358.389 101.24ZM358.525 100.224C359.074 100.224 359.554 100.125 359.965 99.928C360.376 99.7307 360.706 99.4613 360.957 99.12C361.208 98.7733 361.37 98.384 361.445 97.952C361.509 97.6747 361.544 97.3707 361.549 97.04C361.554 96.704 361.557 96.4533 361.557 96.288L362.005 96.52C361.605 96.5733 361.17 96.6267 360.701 96.68C360.237 96.7333 359.778 96.7947 359.325 96.864C358.877 96.9333 358.472 97.016 358.109 97.112C357.864 97.1813 357.626 97.28 357.397 97.408C357.168 97.5307 356.978 97.696 356.829 97.904C356.685 98.112 356.613 98.3707 356.613 98.68C356.613 98.9307 356.674 99.1733 356.797 99.408C356.925 99.6427 357.128 99.8373 357.405 99.992C357.688 100.147 358.061 100.224 358.525 100.224ZM371.048 101V96.592C371.048 96.112 371.002 95.672 370.912 95.272C370.821 94.8667 370.674 94.5147 370.472 94.216C370.274 93.912 370.016 93.6773 369.696 93.512C369.381 93.3467 368.997 93.264 368.544 93.264C368.128 93.264 367.76 93.336 367.44 93.48C367.125 93.624 366.858 93.832 366.64 94.104C366.426 94.3707 366.264 94.696 366.152 95.08C366.04 95.464 365.984 95.9013 365.984 96.392L365.152 96.208C365.152 95.3227 365.306 94.5787 365.616 93.976C365.925 93.3733 366.352 92.9173 366.896 92.608C367.44 92.2987 368.064 92.144 368.768 92.144C369.285 92.144 369.736 92.224 370.12 92.384C370.509 92.544 370.837 92.76 371.104 93.032C371.376 93.304 371.594 93.616 371.76 93.968C371.925 94.3147 372.045 94.6853 372.12 95.08C372.194 95.4693 372.232 95.8587 372.232 96.248V101H371.048ZM364.8 101V89.48H365.864V95.984H365.984V101H364.8ZM377.916 101.24C377.057 101.24 376.324 101.045 375.716 100.656C375.108 100.267 374.641 99.728 374.316 99.04C373.99 98.352 373.828 97.5627 373.828 96.672C373.828 95.7653 373.993 94.9707 374.324 94.288C374.654 93.6053 375.124 93.0747 375.732 92.696C376.345 92.312 377.073 92.12 377.916 92.12C378.78 92.12 379.516 92.3147 380.124 92.704C380.737 93.088 381.204 93.624 381.524 94.312C381.849 94.9947 382.012 95.7813 382.012 96.672C382.012 97.5787 381.849 98.376 381.524 99.064C381.198 99.7467 380.729 100.28 380.116 100.664C379.502 101.048 378.769 101.24 377.916 101.24ZM377.916 100.112C378.876 100.112 379.59 99.7947 380.06 99.16C380.529 98.52 380.764 97.6907 380.764 96.672C380.764 95.6267 380.526 94.7947 380.052 94.176C379.582 93.5573 378.87 93.248 377.916 93.248C377.27 93.248 376.737 93.3947 376.316 93.688C375.9 93.976 375.588 94.3787 375.38 94.896C375.177 95.408 375.076 96 375.076 96.672C375.076 97.712 375.316 98.5467 375.796 99.176C376.276 99.8 376.982 100.112 377.916 100.112ZM387.384 101.24C386.526 101.24 385.792 101.045 385.184 100.656C384.576 100.267 384.11 99.728 383.784 99.04C383.459 98.352 383.296 97.5627 383.296 96.672C383.296 95.7653 383.462 94.9707 383.792 94.288C384.123 93.6053 384.592 93.0747 385.2 92.696C385.814 92.312 386.542 92.12 387.384 92.12C388.248 92.12 388.984 92.3147 389.592 92.704C390.206 93.088 390.672 93.624 390.992 94.312C391.318 94.9947 391.48 95.7813 391.48 96.672C391.48 97.5787 391.318 98.376 390.992 99.064C390.667 99.7467 390.198 100.28 389.584 100.664C388.971 101.048 388.238 101.24 387.384 101.24ZM387.384 100.112C388.344 100.112 389.059 99.7947 389.528 99.16C389.998 98.52 390.232 97.6907 390.232 96.672C390.232 95.6267 389.995 94.7947 389.52 94.176C389.051 93.5573 388.339 93.248 387.384 93.248C386.739 93.248 386.206 93.3947 385.784 93.688C385.368 93.976 385.056 94.3787 384.848 94.896C384.646 95.408 384.544 96 384.544 96.672C384.544 97.712 384.784 98.5467 385.264 99.176C385.744 99.8 386.451 100.112 387.384 100.112ZM393.157 101V99.632H394.525V101H393.157ZM400.579 101.24C399.71 101.24 398.974 101.045 398.371 100.656C397.768 100.267 397.31 99.7307 396.995 99.048C396.686 98.36 396.526 97.5707 396.515 96.68C396.526 95.7733 396.691 94.9787 397.011 94.296C397.331 93.608 397.792 93.0747 398.395 92.696C398.998 92.312 399.728 92.12 400.587 92.12C401.462 92.12 402.222 92.3333 402.867 92.76C403.518 93.1867 403.963 93.7707 404.203 94.512L403.051 94.88C402.848 94.3627 402.526 93.9627 402.083 93.68C401.646 93.392 401.144 93.248 400.579 93.248C399.944 93.248 399.419 93.3947 399.003 93.688C398.587 93.976 398.278 94.3787 398.075 94.896C397.872 95.4133 397.768 96.008 397.763 96.68C397.774 97.7147 398.014 98.5467 398.483 99.176C398.952 99.8 399.651 100.112 400.579 100.112C401.166 100.112 401.664 99.9787 402.075 99.712C402.491 99.44 402.806 99.0453 403.019 98.528L404.203 98.88C403.883 99.648 403.414 100.235 402.795 100.64C402.176 101.04 401.438 101.24 400.579 101.24ZM409.228 101.24C408.369 101.24 407.636 101.045 407.028 100.656C406.42 100.267 405.953 99.728 405.628 99.04C405.303 98.352 405.14 97.5627 405.14 96.672C405.14 95.7653 405.305 94.9707 405.636 94.288C405.967 93.6053 406.436 93.0747 407.044 92.696C407.657 92.312 408.385 92.12 409.228 92.12C410.092 92.12 410.828 92.3147 411.436 92.704C412.049 93.088 412.516 93.624 412.836 94.312C413.161 94.9947 413.324 95.7813 413.324 96.672C413.324 97.5787 413.161 98.376 412.836 99.064C412.511 99.7467 412.041 100.28 411.428 100.664C410.815 101.048 410.081 101.24 409.228 101.24ZM409.228 100.112C410.188 100.112 410.903 99.7947 411.372 99.16C411.841 98.52 412.076 97.6907 412.076 96.672C412.076 95.6267 411.839 94.7947 411.364 94.176C410.895 93.5573 410.183 93.248 409.228 93.248C408.583 93.248 408.049 93.3947 407.628 93.688C407.212 93.976 406.9 94.3787 406.692 94.896C406.489 95.408 406.388 96 406.388 96.672C406.388 97.712 406.628 98.5467 407.108 99.176C407.588 99.8 408.295 100.112 409.228 100.112ZM425.393 101L425.401 95.328C425.401 94.6613 425.214 94.1387 424.841 93.76C424.473 93.376 424.003 93.184 423.433 93.184C423.107 93.184 422.79 93.2587 422.481 93.408C422.171 93.5573 421.915 93.7973 421.713 94.128C421.515 94.4587 421.417 94.8907 421.417 95.424L420.721 95.224C420.705 94.6053 420.825 94.064 421.081 93.6C421.342 93.136 421.699 92.776 422.153 92.52C422.611 92.2587 423.129 92.128 423.705 92.128C424.574 92.128 425.27 92.3973 425.793 92.936C426.315 93.4693 426.577 94.192 426.577 95.104L426.569 101H425.393ZM415.081 101V92.36H416.137V94.488H416.265V101H415.081ZM420.249 101L420.257 95.408C420.257 94.72 420.073 94.1787 419.705 93.784C419.342 93.384 418.862 93.184 418.265 93.184C417.667 93.184 417.185 93.3893 416.817 93.8C416.449 94.2053 416.265 94.7467 416.265 95.424L415.561 95.04C415.561 94.4853 415.691 93.9893 415.953 93.552C416.214 93.1093 416.571 92.7627 417.025 92.512C417.478 92.256 417.993 92.128 418.569 92.128C419.118 92.128 419.606 92.2453 420.033 92.48C420.465 92.7147 420.803 93.056 421.049 93.504C421.294 93.952 421.417 94.496 421.417 95.136L421.409 101H420.249Z" fill="#18194F"/>
<rect x="316" y="169" width="442" height="93" rx="2" fill="#18194F"/>
<rect x="316.5" y="169.5" width="441" height="92" rx="1.5" stroke="black" stroke-opacity="0.1"/>
<circle cx="362.5" cy="215.5" r="24.5" fill="#F7F7F7"/>
<circle r="1" transform="matrix(1 0 0 -1 366 230)" fill="#18194F" fill-opacity="0.5"/>
<circle r="2" transform="matrix(1 0 0 -1 368 236)" fill="#18194F" fill-opacity="0.5"/>
<circle r="1.5" transform="matrix(1 0 0 -1 358.5 233.5)" fill="#18194F" fill-opacity="0.5"/>
<path d="M375.5 208.5C375.5 207.125 374.375 206 373 206H353C351.625 206 350.5 207.125 350.5 208.5V223.5C350.5 224.875 351.625 226 353 226H373C374.375 226 375.5 224.875 375.5 223.5V208.5ZM373 208.5L363 214.737L353 208.5H373ZM373 223.5H353V211L363 217.25L373 211V223.5Z" fill="#18194F"/>
<circle cx="360" cy="203" r="1" fill="#18194F" fill-opacity="0.5"/>
<path d="M405.936 210V205.312L402 198.48H404.544L407.04 202.816L409.536 198.48H412.08L408.144 205.312V210H405.936ZM417.502 210.24C416.35 210.24 415.355 209.989 414.518 209.488C413.686 208.987 413.043 208.285 412.59 207.384C412.142 206.483 411.918 205.435 411.918 204.24C411.918 203.045 412.142 201.997 412.59 201.096C413.043 200.195 413.686 199.493 414.518 198.992C415.355 198.491 416.35 198.24 417.502 198.24C418.654 198.24 419.646 198.491 420.477 198.992C421.315 199.493 421.958 200.195 422.406 201.096C422.859 201.997 423.086 203.045 423.086 204.24C423.086 205.435 422.859 206.483 422.406 207.384C421.958 208.285 421.315 208.987 420.477 209.488C419.646 209.989 418.654 210.24 417.502 210.24ZM417.502 208.192C418.232 208.203 418.84 208.045 419.326 207.72C419.811 207.395 420.174 206.933 420.414 206.336C420.659 205.739 420.782 205.04 420.782 204.24C420.782 203.44 420.659 202.747 420.414 202.16C420.174 201.573 419.811 201.117 419.326 200.792C418.84 200.467 418.232 200.299 417.502 200.288C416.771 200.277 416.163 200.435 415.678 200.76C415.192 201.085 414.827 201.547 414.582 202.144C414.342 202.741 414.222 203.44 414.222 204.24C414.222 205.04 414.342 205.733 414.582 206.32C414.827 206.907 415.192 207.363 415.678 207.688C416.163 208.013 416.771 208.181 417.502 208.192ZM429.371 210.24C428.443 210.24 427.627 210.053 426.923 209.68C426.219 209.301 425.669 208.771 425.275 208.088C424.88 207.405 424.683 206.603 424.683 205.68V198.496L426.891 198.48V205.664C426.891 206.043 426.955 206.387 427.083 206.696C427.211 207.005 427.387 207.272 427.611 207.496C427.84 207.72 428.104 207.893 428.403 208.016C428.707 208.133 429.029 208.192 429.371 208.192C429.723 208.192 430.048 208.131 430.347 208.008C430.651 207.885 430.915 207.712 431.139 207.488C431.363 207.264 431.536 206.997 431.659 206.688C431.787 206.379 431.851 206.037 431.851 205.664V198.48H434.059V205.68C434.059 206.603 433.861 207.405 433.467 208.088C433.072 208.771 432.523 209.301 431.819 209.68C431.115 210.053 430.299 210.24 429.371 210.24ZM436.292 210V198.48H441.156C441.268 198.48 441.417 198.485 441.604 198.496C441.796 198.501 441.967 198.517 442.116 198.544C442.804 198.651 443.367 198.877 443.804 199.224C444.247 199.571 444.572 200.008 444.78 200.536C444.988 201.059 445.092 201.643 445.092 202.288C445.092 203.253 444.852 204.08 444.372 204.768C443.892 205.451 443.14 205.872 442.116 206.032L441.156 206.096H438.468V210H436.292ZM442.788 210L440.516 205.312L442.756 204.88L445.252 210H442.788ZM438.468 204.064H441.06C441.172 204.064 441.295 204.059 441.428 204.048C441.561 204.037 441.684 204.016 441.796 203.984C442.089 203.904 442.316 203.771 442.476 203.584C442.636 203.392 442.745 203.181 442.804 202.952C442.868 202.717 442.9 202.496 442.9 202.288C442.9 202.08 442.868 201.861 442.804 201.632C442.745 201.397 442.636 201.187 442.476 201C442.316 200.808 442.089 200.672 441.796 200.592C441.684 200.56 441.561 200.539 441.428 200.528C441.295 200.517 441.172 200.512 441.06 200.512H438.468V204.064ZM450.214 210V198.48H452.422L457.43 206.16V198.48H459.638V210H457.43L452.422 202.32V210H450.214ZM461.87 210V198.48H469.39V200.512H464.046V202.976H468.43V205.008H464.046V207.968H469.39V210H461.87ZM473.724 210L470.348 198.48H472.636L474.796 206.4L476.956 198.496L479.244 198.48L481.404 206.4L483.564 198.48H485.852L482.476 210H480.332L478.1 202.224L475.868 210H473.724ZM490.339 210V198.48H497.859V200.512H492.515V202.976H496.899V205.008H492.515V207.968H497.859V210H490.339ZM499.776 210V198.48H501.728L505.536 206.128L509.344 198.48H511.296V210H509.264V203.12L505.92 210H505.152L501.808 203.12V210H499.776ZM512.742 210L516.262 198.48H519.51L523.03 210H520.79L517.654 199.84H518.07L514.982 210H512.742ZM514.854 207.6V205.568H520.934V207.6H514.854ZM524.624 210V198.48H526.8V210H524.624ZM529.358 210V198.48H531.534V207.968H536.494V210H529.358Z" fill="white"/>
<path d="M401.84 237.84V236.704H402.328C402.717 236.704 403.027 236.603 403.256 236.4C403.491 236.203 403.608 235.869 403.608 235.4V225.36H404.776V235.696C404.776 236.416 404.603 236.952 404.256 237.304C403.915 237.661 403.389 237.84 402.68 237.84H401.84ZM403.608 223.72V222.4H404.776V223.72H403.608ZM410.36 234.232C409.346 234.232 408.512 234.013 407.856 233.576C407.205 233.139 406.805 232.531 406.656 231.752L407.856 231.552C407.984 232.043 408.274 232.435 408.728 232.728C409.186 233.016 409.752 233.16 410.424 233.16C411.08 233.16 411.597 233.024 411.976 232.752C412.354 232.475 412.544 232.099 412.544 231.624C412.544 231.357 412.482 231.141 412.36 230.976C412.242 230.805 412 230.648 411.632 230.504C411.264 230.36 410.714 230.189 409.984 229.992C409.2 229.779 408.586 229.565 408.144 229.352C407.701 229.139 407.386 228.893 407.2 228.616C407.013 228.333 406.92 227.989 406.92 227.584C406.92 227.093 407.058 226.664 407.336 226.296C407.613 225.923 407.997 225.635 408.488 225.432C408.978 225.224 409.549 225.12 410.2 225.12C410.85 225.12 411.432 225.227 411.944 225.44C412.461 225.648 412.877 225.941 413.192 226.32C413.506 226.699 413.693 227.139 413.752 227.64L412.552 227.856C412.472 227.349 412.218 226.949 411.792 226.656C411.37 226.357 410.834 226.203 410.184 226.192C409.57 226.176 409.072 226.293 408.688 226.544C408.304 226.789 408.112 227.117 408.112 227.528C408.112 227.757 408.181 227.955 408.32 228.12C408.458 228.28 408.709 228.432 409.072 228.576C409.44 228.72 409.962 228.877 410.64 229.048C411.434 229.251 412.058 229.464 412.512 229.688C412.965 229.912 413.288 230.176 413.48 230.48C413.672 230.784 413.768 231.16 413.768 231.608C413.768 232.424 413.464 233.067 412.856 233.536C412.253 234 411.421 234.232 410.36 234.232ZM425.846 234L425.854 228.328C425.854 227.661 425.667 227.139 425.294 226.76C424.926 226.376 424.457 226.184 423.886 226.184C423.561 226.184 423.243 226.259 422.934 226.408C422.625 226.557 422.369 226.797 422.166 227.128C421.969 227.459 421.87 227.891 421.87 228.424L421.174 228.224C421.158 227.605 421.278 227.064 421.534 226.6C421.795 226.136 422.153 225.776 422.606 225.52C423.065 225.259 423.582 225.128 424.158 225.128C425.027 225.128 425.723 225.397 426.246 225.936C426.769 226.469 427.03 227.192 427.03 228.104L427.022 234H425.846ZM415.534 234V225.36H416.59V227.488H416.718V234H415.534ZM420.702 234L420.71 228.408C420.71 227.72 420.526 227.179 420.158 226.784C419.795 226.384 419.315 226.184 418.718 226.184C418.121 226.184 417.638 226.389 417.27 226.8C416.902 227.205 416.718 227.747 416.718 228.424L416.014 228.04C416.014 227.485 416.145 226.989 416.406 226.552C416.667 226.109 417.025 225.763 417.478 225.512C417.931 225.256 418.446 225.128 419.022 225.128C419.571 225.128 420.059 225.245 420.486 225.48C420.918 225.715 421.257 226.056 421.502 226.504C421.747 226.952 421.87 227.496 421.87 228.136L421.862 234H420.702ZM429.264 223.72V222.4H430.44V223.72H429.264ZM429.264 234V225.36H430.44V234H429.264ZM437.543 234C437.057 234.101 436.577 234.141 436.103 234.12C435.633 234.099 435.212 233.997 434.839 233.816C434.471 233.635 434.191 233.352 433.999 232.968C433.844 232.648 433.759 232.325 433.743 232C433.732 231.669 433.727 231.293 433.727 230.872V222.96H434.895V230.824C434.895 231.187 434.897 231.491 434.903 231.736C434.913 231.976 434.969 232.189 435.071 232.376C435.263 232.733 435.567 232.947 435.983 233.016C436.404 233.085 436.924 233.069 437.543 232.968V234ZM431.879 226.368V225.36H437.543V226.368H431.879ZM445.485 234V229.592C445.485 229.112 445.44 228.672 445.349 228.272C445.258 227.867 445.112 227.515 444.909 227.216C444.712 226.912 444.453 226.677 444.133 226.512C443.818 226.347 443.434 226.264 442.981 226.264C442.565 226.264 442.197 226.336 441.877 226.48C441.562 226.624 441.296 226.832 441.077 227.104C440.864 227.371 440.701 227.696 440.589 228.08C440.477 228.464 440.421 228.901 440.421 229.392L439.589 229.208C439.589 228.323 439.744 227.579 440.053 226.976C440.362 226.373 440.789 225.917 441.333 225.608C441.877 225.299 442.501 225.144 443.205 225.144C443.722 225.144 444.173 225.224 444.557 225.384C444.946 225.544 445.274 225.76 445.541 226.032C445.813 226.304 446.032 226.616 446.197 226.968C446.362 227.315 446.482 227.685 446.557 228.08C446.632 228.469 446.669 228.859 446.669 229.248V234H445.485ZM439.237 234V222.48H440.301V228.984H440.421V234H439.237ZM454.881 235.68C454.028 235.68 453.238 235.531 452.513 235.232C451.788 234.939 451.156 234.528 450.617 234C450.078 233.467 449.657 232.84 449.353 232.12C449.054 231.4 448.905 230.616 448.905 229.768C448.905 228.867 449.052 228.045 449.345 227.304C449.638 226.557 450.052 225.915 450.585 225.376C451.124 224.832 451.761 224.413 452.497 224.12C453.233 223.827 454.041 223.68 454.921 223.68C455.929 223.68 456.809 223.843 457.561 224.168C458.318 224.488 458.942 224.925 459.433 225.48C459.924 226.029 460.281 226.648 460.505 227.336C460.734 228.024 460.83 228.736 460.793 229.472C460.74 230.48 460.5 231.24 460.073 231.752C459.652 232.264 459.062 232.52 458.305 232.52C457.814 232.52 457.388 232.405 457.025 232.176C456.662 231.947 456.42 231.624 456.297 231.208L456.681 231.248C456.494 231.627 456.214 231.901 455.841 232.072C455.473 232.243 455.089 232.328 454.689 232.328C454.204 232.328 453.777 232.224 453.409 232.016C453.046 231.803 452.761 231.509 452.553 231.136C452.35 230.763 452.249 230.331 452.249 229.84C452.249 229.328 452.356 228.885 452.569 228.512C452.782 228.139 453.076 227.851 453.449 227.648C453.822 227.445 454.244 227.344 454.713 227.344C455.06 227.344 455.417 227.416 455.785 227.56C456.158 227.704 456.444 227.939 456.641 228.264L456.329 228.616V227.568H457.177L457.169 230.168C457.169 230.563 457.26 230.885 457.441 231.136C457.628 231.381 457.934 231.504 458.361 231.504C458.649 231.504 458.889 231.424 459.081 231.264C459.278 231.104 459.43 230.88 459.537 230.592C459.644 230.299 459.705 229.955 459.721 229.56C459.753 228.749 459.649 228.04 459.409 227.432C459.169 226.824 458.828 226.317 458.385 225.912C457.942 225.501 457.428 225.195 456.841 224.992C456.26 224.789 455.638 224.688 454.977 224.688C454.177 224.688 453.465 224.821 452.841 225.088C452.222 225.355 451.697 225.723 451.265 226.192C450.838 226.661 450.516 227.203 450.297 227.816C450.078 228.424 449.974 229.072 449.985 229.76C449.99 230.469 450.118 231.125 450.369 231.728C450.625 232.325 450.977 232.845 451.425 233.288C451.873 233.725 452.396 234.064 452.993 234.304C453.59 234.549 454.238 234.672 454.937 234.672C455.39 234.672 455.844 234.613 456.297 234.496C456.756 234.379 457.164 234.216 457.521 234.008L457.897 234.904C457.433 235.165 456.945 235.36 456.433 235.488C455.921 235.616 455.404 235.68 454.881 235.68ZM454.753 231.304C455.169 231.304 455.508 231.184 455.769 230.944C456.036 230.704 456.169 230.333 456.169 229.832C456.169 229.341 456.041 228.971 455.785 228.72C455.534 228.469 455.198 228.344 454.777 228.344C454.297 228.344 453.929 228.475 453.673 228.736C453.422 228.997 453.297 229.363 453.297 229.832C453.297 230.307 453.428 230.672 453.689 230.928C453.95 231.179 454.305 231.304 454.753 231.304ZM467.078 234.24C466.283 234.24 465.611 234.04 465.062 233.64C464.513 233.235 464.097 232.688 463.814 232C463.531 231.307 463.39 230.531 463.39 229.672C463.39 228.797 463.531 228.019 463.814 227.336C464.102 226.648 464.523 226.107 465.078 225.712C465.633 225.317 466.315 225.12 467.126 225.12C467.915 225.12 468.593 225.32 469.158 225.72C469.723 226.12 470.155 226.664 470.454 227.352C470.758 228.04 470.91 228.813 470.91 229.672C470.91 230.536 470.758 231.312 470.454 232C470.15 232.688 469.713 233.235 469.142 233.64C468.571 234.04 467.883 234.24 467.078 234.24ZM463.19 237.84V225.36H464.246V231.864H464.374V237.84H463.19ZM466.958 233.144C467.561 233.144 468.062 232.992 468.462 232.688C468.862 232.384 469.161 231.971 469.358 231.448C469.561 230.92 469.662 230.328 469.662 229.672C469.662 229.021 469.563 228.435 469.366 227.912C469.169 227.389 468.867 226.976 468.462 226.672C468.062 226.368 467.553 226.216 466.934 226.216C466.331 226.216 465.83 226.363 465.43 226.656C465.035 226.949 464.739 227.357 464.542 227.88C464.345 228.397 464.246 228.995 464.246 229.672C464.246 230.339 464.345 230.936 464.542 231.464C464.739 231.987 465.038 232.397 465.438 232.696C465.838 232.995 466.345 233.144 466.958 233.144ZM475.139 234.24C474.488 234.24 473.942 234.123 473.499 233.888C473.062 233.653 472.734 233.341 472.515 232.952C472.296 232.563 472.187 232.139 472.187 231.68C472.187 231.211 472.28 230.811 472.467 230.48C472.659 230.144 472.918 229.869 473.243 229.656C473.574 229.443 473.955 229.28 474.387 229.168C474.824 229.061 475.307 228.968 475.835 228.888C476.368 228.803 476.888 228.731 477.395 228.672C477.907 228.608 478.355 228.547 478.739 228.488L478.323 228.744C478.339 227.891 478.174 227.259 477.827 226.848C477.48 226.437 476.878 226.232 476.019 226.232C475.427 226.232 474.926 226.365 474.515 226.632C474.11 226.899 473.824 227.32 473.659 227.896L472.515 227.56C472.712 226.787 473.11 226.187 473.707 225.76C474.304 225.333 475.08 225.12 476.035 225.12C476.824 225.12 477.494 225.269 478.043 225.568C478.598 225.861 478.99 226.288 479.219 226.848C479.326 227.099 479.395 227.379 479.427 227.688C479.459 227.997 479.475 228.312 479.475 228.632V234H478.427V231.832L478.731 231.96C478.438 232.701 477.982 233.267 477.363 233.656C476.744 234.045 476.003 234.24 475.139 234.24ZM475.275 233.224C475.824 233.224 476.304 233.125 476.715 232.928C477.126 232.731 477.456 232.461 477.707 232.12C477.958 231.773 478.12 231.384 478.195 230.952C478.259 230.675 478.294 230.371 478.299 230.04C478.304 229.704 478.307 229.453 478.307 229.288L478.755 229.52C478.355 229.573 477.92 229.627 477.451 229.68C476.987 229.733 476.528 229.795 476.075 229.864C475.627 229.933 475.222 230.016 474.859 230.112C474.614 230.181 474.376 230.28 474.147 230.408C473.918 230.531 473.728 230.696 473.579 230.904C473.435 231.112 473.363 231.371 473.363 231.68C473.363 231.931 473.424 232.173 473.547 232.408C473.675 232.643 473.878 232.837 474.155 232.992C474.438 233.147 474.811 233.224 475.275 233.224ZM481.718 223.72V222.4H482.894V223.72H481.718ZM481.718 234V225.36H482.894V234H481.718ZM491.532 234V229.592C491.532 229.112 491.487 228.672 491.396 228.272C491.305 227.867 491.159 227.515 490.956 227.216C490.759 226.912 490.5 226.677 490.18 226.512C489.865 226.347 489.481 226.264 489.028 226.264C488.612 226.264 488.244 226.336 487.924 226.48C487.609 226.624 487.343 226.832 487.124 227.104C486.911 227.371 486.748 227.696 486.636 228.08C486.524 228.464 486.468 228.901 486.468 229.392L485.636 229.208C485.636 228.323 485.791 227.579 486.1 226.976C486.409 226.373 486.836 225.917 487.38 225.608C487.924 225.299 488.548 225.144 489.252 225.144C489.769 225.144 490.22 225.224 490.604 225.384C490.993 225.544 491.321 225.76 491.588 226.032C491.86 226.304 492.079 226.616 492.244 226.968C492.409 227.315 492.529 227.685 492.604 228.08C492.679 228.469 492.716 228.859 492.716 229.248V234H491.532ZM485.284 234V225.36H486.348V227.488H486.468V234H485.284ZM499.496 234C499.011 234.101 498.531 234.141 498.056 234.12C497.587 234.099 497.165 233.997 496.792 233.816C496.424 233.635 496.144 233.352 495.952 232.968C495.797 232.648 495.712 232.325 495.696 232C495.685 231.669 495.68 231.293 495.68 230.872V222.96H496.848V230.824C496.848 231.187 496.851 231.491 496.856 231.736C496.867 231.976 496.923 232.189 497.024 232.376C497.216 232.733 497.52 232.947 497.936 233.016C498.357 233.085 498.877 233.069 499.496 232.968V234ZM493.832 226.368V225.36H499.496V226.368H493.832ZM503.038 234L500.398 225.352L501.574 225.36L503.622 232.072L505.678 225.36H506.75L508.806 232.072L510.87 225.36H512.038L509.398 234H508.374L506.214 227.12L504.062 234H503.038ZM516.775 234.24C515.916 234.24 515.183 234.045 514.575 233.656C513.967 233.267 513.5 232.728 513.175 232.04C512.85 231.352 512.687 230.563 512.687 229.672C512.687 228.765 512.852 227.971 513.183 227.288C513.514 226.605 513.983 226.075 514.591 225.696C515.204 225.312 515.932 225.12 516.775 225.12C517.639 225.12 518.375 225.315 518.983 225.704C519.596 226.088 520.063 226.624 520.383 227.312C520.708 227.995 520.871 228.781 520.871 229.672C520.871 230.579 520.708 231.376 520.383 232.064C520.058 232.747 519.588 233.28 518.975 233.664C518.362 234.048 517.628 234.24 516.775 234.24ZM516.775 233.112C517.735 233.112 518.45 232.795 518.919 232.16C519.388 231.52 519.623 230.691 519.623 229.672C519.623 228.627 519.386 227.795 518.911 227.176C518.442 226.557 517.73 226.248 516.775 226.248C516.13 226.248 515.596 226.395 515.175 226.688C514.759 226.976 514.447 227.379 514.239 227.896C514.036 228.408 513.935 229 513.935 229.672C513.935 230.712 514.175 231.547 514.655 232.176C515.135 232.8 515.842 233.112 516.775 233.112ZM522.636 234V225.36H523.692V227.44L523.484 227.168C523.58 226.912 523.705 226.677 523.86 226.464C524.014 226.245 524.182 226.067 524.364 225.928C524.588 225.731 524.849 225.581 525.148 225.48C525.446 225.373 525.748 225.312 526.052 225.296C526.356 225.275 526.633 225.296 526.884 225.36V226.464C526.569 226.384 526.225 226.365 525.852 226.408C525.478 226.451 525.134 226.6 524.82 226.856C524.532 227.08 524.316 227.349 524.172 227.664C524.028 227.973 523.932 228.304 523.884 228.656C523.836 229.003 523.812 229.347 523.812 229.688V234H522.636ZM528.393 234L528.401 222.48H529.585V229.52L533.441 225.36H535.009L530.961 229.68L535.537 234H533.825L529.585 229.84V234H528.393ZM539.407 234.232C538.393 234.232 537.559 234.013 536.903 233.576C536.252 233.139 535.852 232.531 535.703 231.752L536.903 231.552C537.031 232.043 537.321 232.435 537.775 232.728C538.233 233.016 538.799 233.16 539.47 233.16C540.127 233.16 540.644 233.024 541.023 232.752C541.401 232.475 541.591 232.099 541.591 231.624C541.591 231.357 541.529 231.141 541.407 230.976C541.289 230.805 541.047 230.648 540.679 230.504C540.311 230.36 539.761 230.189 539.031 229.992C538.247 229.779 537.633 229.565 537.191 229.352C536.748 229.139 536.433 228.893 536.247 228.616C536.06 228.333 535.967 227.989 535.967 227.584C535.967 227.093 536.105 226.664 536.383 226.296C536.66 225.923 537.044 225.635 537.535 225.432C538.025 225.224 538.596 225.12 539.247 225.12C539.897 225.12 540.479 225.227 540.991 225.44C541.508 225.648 541.924 225.941 542.239 226.32C542.553 226.699 542.74 227.139 542.799 227.64L541.599 227.856C541.519 227.349 541.265 226.949 540.839 226.656C540.417 226.357 539.881 226.203 539.231 226.192C538.617 226.176 538.119 226.293 537.735 226.544C537.351 226.789 537.159 227.117 537.159 227.528C537.159 227.757 537.228 227.955 537.367 228.12C537.505 228.28 537.756 228.432 538.119 228.576C538.487 228.72 539.009 228.877 539.687 229.048C540.481 229.251 541.105 229.464 541.559 229.688C542.012 229.912 542.335 230.176 542.527 230.48C542.719 230.784 542.815 231.16 542.815 231.608C542.815 232.424 542.511 233.067 541.903 233.536C541.3 234 540.468 234.232 539.407 234.232ZM544.813 234V232.632H546.181V234H544.813ZM552.235 234.24C551.366 234.24 550.63 234.045 550.027 233.656C549.425 233.267 548.966 232.731 548.651 232.048C548.342 231.36 548.182 230.571 548.171 229.68C548.182 228.773 548.347 227.979 548.667 227.296C548.987 226.608 549.449 226.075 550.051 225.696C550.654 225.312 551.385 225.12 552.243 225.12C553.118 225.12 553.878 225.333 554.523 225.76C555.174 226.187 555.619 226.771 555.859 227.512L554.707 227.88C554.505 227.363 554.182 226.963 553.739 226.68C553.302 226.392 552.801 226.248 552.235 226.248C551.601 226.248 551.075 226.395 550.659 226.688C550.243 226.976 549.934 227.379 549.731 227.896C549.529 228.413 549.425 229.008 549.419 229.68C549.43 230.715 549.67 231.547 550.139 232.176C550.609 232.8 551.307 233.112 552.235 233.112C552.822 233.112 553.321 232.979 553.731 232.712C554.147 232.44 554.462 232.045 554.675 231.528L555.859 231.88C555.539 232.648 555.07 233.235 554.451 233.64C553.833 234.04 553.094 234.24 552.235 234.24ZM560.884 234.24C560.026 234.24 559.292 234.045 558.684 233.656C558.076 233.267 557.61 232.728 557.284 232.04C556.959 231.352 556.796 230.563 556.796 229.672C556.796 228.765 556.962 227.971 557.292 227.288C557.623 226.605 558.092 226.075 558.7 225.696C559.314 225.312 560.042 225.12 560.884 225.12C561.748 225.12 562.484 225.315 563.092 225.704C563.706 226.088 564.172 226.624 564.492 227.312C564.818 227.995 564.98 228.781 564.98 229.672C564.98 230.579 564.818 231.376 564.492 232.064C564.167 232.747 563.698 233.28 563.084 233.664C562.471 234.048 561.738 234.24 560.884 234.24ZM560.884 233.112C561.844 233.112 562.559 232.795 563.028 232.16C563.498 231.52 563.732 230.691 563.732 229.672C563.732 228.627 563.495 227.795 563.02 227.176C562.551 226.557 561.839 226.248 560.884 226.248C560.239 226.248 559.706 226.395 559.284 226.688C558.868 226.976 558.556 227.379 558.348 227.896C558.146 228.408 558.044 229 558.044 229.672C558.044 230.712 558.284 231.547 558.764 232.176C559.244 232.8 559.951 233.112 560.884 233.112ZM577.049 234L577.057 228.328C577.057 227.661 576.87 227.139 576.497 226.76C576.129 226.376 575.66 226.184 575.089 226.184C574.764 226.184 574.446 226.259 574.137 226.408C573.828 226.557 573.572 226.797 573.369 227.128C573.172 227.459 573.073 227.891 573.073 228.424L572.377 228.224C572.361 227.605 572.481 227.064 572.737 226.6C572.998 226.136 573.356 225.776 573.809 225.52C574.268 225.259 574.785 225.128 575.361 225.128C576.23 225.128 576.926 225.397 577.449 225.936C577.972 226.469 578.233 227.192 578.233 228.104L578.225 234H577.049ZM566.737 234V225.36H567.793V227.488H567.921V234H566.737ZM571.905 234L571.913 228.408C571.913 227.72 571.729 227.179 571.361 226.784C570.998 226.384 570.518 226.184 569.921 226.184C569.324 226.184 568.841 226.389 568.473 226.8C568.105 227.205 567.921 227.747 567.921 228.424L567.217 228.04C567.217 227.485 567.348 226.989 567.609 226.552C567.87 226.109 568.228 225.763 568.681 225.512C569.134 225.256 569.649 225.128 570.225 225.128C570.774 225.128 571.262 225.245 571.689 225.48C572.121 225.715 572.46 226.056 572.705 226.504C572.95 226.952 573.073 227.496 573.073 228.136L573.065 234H571.905Z" fill="white"/>
<g clip-path="url(#clip0_317_3262)">
<path d="M262.997 219.445C262.812 219.815 262.256 220.001 262.071 220.371C261.515 221.113 262.071 221.669 262.812 221.854C262.812 221.854 262.812 222.039 262.627 222.039C265.407 222.78 268.187 221.298 270.596 220.557C273.746 219.63 276.711 218.518 279.862 217.406C281.715 216.665 282.642 213.7 280.418 212.588C276.156 210.178 272.078 207.769 268.001 204.989C267.445 204.619 266.889 204.619 266.333 204.804C266.148 204.619 265.963 204.619 265.963 204.619C265.407 204.433 265.407 204.433 264.851 204.619C264.665 204.619 264.665 204.619 264.48 204.804C264.109 204.804 263.924 204.989 263.739 205.36C263.368 205.175 263.183 205.36 263.183 205.731C262.997 205.916 262.812 206.287 262.812 206.657C262.812 206.843 262.812 207.028 262.812 207.213C262.812 207.584 262.997 207.769 263.183 207.954C263.553 208.14 263.739 208.51 264.109 208.51C264.109 208.51 264.109 208.51 264.295 208.51C264.295 208.696 264.295 208.881 264.48 209.066C264.665 209.252 265.036 209.252 265.221 209.437C265.221 209.437 265.221 209.437 265.407 209.437C265.777 210.178 266.333 210.734 266.889 211.29C262.441 210.364 257.994 209.066 253.731 207.213C246.318 204.063 239.461 199.244 233.716 193.314C222.411 181.638 215.925 164.033 217.037 147.724C217.037 146.797 215.74 146.797 215.554 147.724C213.145 165.7 218.149 183.306 230.38 196.835C239.276 206.657 252.434 214.256 265.963 215.923C264.665 216.85 263.553 218.147 262.997 219.445Z" fill="#18194F"/>
</g>
<defs>
<clipPath id="clip0_317_3262">
<rect width="75.2418" height="66.7169" fill="white" transform="translate(215 222.242) rotate(-90)"/>
</clipPath>
</defs>
</svg>
