<svg width="18" height="19" viewBox="0 0 18 19" fill="none" xmlns="http://www.w3.org/2000/svg">
<path d="M9 0.686523C4.16797 0.686523 0.25 4.58644 0.25 9.3962C0.25 14.206 4.16797 18.1059 9 18.1059C13.832 18.1059 17.75 14.206 17.75 9.3962C17.75 4.58644 13.832 0.686523 9 0.686523ZM9 16.6283C4.98828 16.6283 1.73438 13.3894 1.73438 9.3962C1.73438 5.40297 4.98828 2.16406 9 2.16406C13.0117 2.16406 16.2656 5.40297 16.2656 9.3962C16.2656 13.3894 13.0117 16.6283 9 16.6283ZM9.93164 8.94516L9.43555 8.83046V6.2195C10.1777 6.3206 10.6367 6.7833 10.7148 7.35098C10.7246 7.42875 10.791 7.48513 10.8691 7.48513H11.7461C11.8379 7.48513 11.9102 7.40542 11.9023 7.31404C11.7832 6.10285 10.7813 5.3252 9.44336 5.19106V4.55533C9.44336 4.46979 9.37305 4.3998 9.28711 4.3998H8.73828C8.65234 4.3998 8.58203 4.46979 8.58203 4.55533V5.19689C7.19922 5.33104 6.11719 6.09119 6.11719 7.5104C6.11719 8.82463 7.08984 9.45841 8.11133 9.70143L8.59375 9.82391V12.5982C7.73047 12.4835 7.24609 12.0247 7.14648 11.4064C7.13477 11.3325 7.06836 11.2781 6.99219 11.2781H6.08984C5.99805 11.2781 5.92578 11.3559 5.93359 11.4473C6.02148 12.5165 6.83594 13.5002 8.57422 13.6266V14.2371C8.57422 14.3226 8.64453 14.3926 8.73047 14.3926H9.28516C9.37109 14.3926 9.44141 14.3226 9.44141 14.2351L9.4375 13.6188C10.9668 13.4847 12.0605 12.6701 12.0605 11.2081C12.0586 9.8589 11.1973 9.25622 9.93164 8.94516V8.94516ZM8.5918 8.63022C8.48242 8.59911 8.39063 8.56995 8.29883 8.53301C7.63867 8.29583 7.33203 7.91283 7.33203 7.41903C7.33203 6.71331 7.86914 6.31088 8.5918 6.2195V8.63022ZM9.43555 12.604V10.0047C9.49609 10.0222 9.55078 10.0358 9.60742 10.0475C10.5312 10.3274 10.8418 10.7163 10.8418 11.3131C10.8418 12.0733 10.2676 12.5301 9.43555 12.604Z" fill="black"/>
</svg>
