<svg width="212" height="119" viewBox="0 0 212 119" fill="none" xmlns="http://www.w3.org/2000/svg">
<path d="M211.295 119H0.704602C0.316834 119 0 118.715 0 118.367V0.632798C0 0.284547 0.316834 0 0.704602 0H211.295C211.683 0 212 0.284547 212 0.632798V118.367C212 118.715 211.688 119 211.295 119Z" fill="white"/>
<path d="M211.295 118.75H0.704602C0.428958 118.75 0.25 118.553 0.25 118.367V0.632798C0.25 0.447213 0.428955 0.25 0.704602 0.25H211.295C211.571 0.25 211.75 0.44721 211.75 0.632798V118.367C211.75 118.554 211.575 118.75 211.295 118.75Z" stroke="black" stroke-opacity="0.1" strokeWidth="0.5"/>
<path d="M212 13H0V0.804402C0 0.361711 0.316834 0 0.704602 0H211.295C211.683 0 212 0.361711 212 0.804402V13Z" fill="#18194F"/>
<path d="M6.96959 8.37075C7.94026 8.37075 8.72715 7.5858 8.72715 6.6175C8.72715 5.64921 7.94026 4.86426 6.96959 4.86426C5.99892 4.86426 5.21204 5.64921 5.21204 6.6175C5.21204 7.5858 5.99892 8.37075 6.96959 8.37075Z" fill="#E53935"/>
<path d="M13.2285 8.37075C14.1992 8.37075 14.9861 7.5858 14.9861 6.6175C14.9861 5.64921 14.1992 4.86426 13.2285 4.86426C12.2578 4.86426 11.4709 5.64921 11.4709 6.6175C11.4709 7.5858 12.2578 8.37075 13.2285 8.37075Z" fill="#FFA000"/>
<path d="M19.4874 8.37075C20.4581 8.37075 21.245 7.5858 21.245 6.6175C21.245 5.64921 20.4581 4.86426 19.4874 4.86426C18.5167 4.86426 17.7299 5.64921 17.7299 6.6175C17.7299 7.5858 18.5167 8.37075 19.4874 8.37075Z" fill="#9CCC65"/>
<path d="M73.1838 11.6458L72.0433 4.99559C71.8835 4.07775 71.0901 3.40723 70.1535 3.40723H30.4294C29.4983 3.40723 28.6994 4.07775 28.5396 4.99559L27.3991 11.6458C27.2394 12.5637 26.446 13.2342 25.5094 13.2342H0V26.4688H212V13L75.0735 13.2342C74.1369 13.2342 73.3435 12.5637 73.1838 11.6458Z" fill="#E8E8E8"/>
<path d="M33.5258 10.3603V6.80432H34.0271L35.1676 8.60154C35.4321 9.01924 35.6359 9.39298 35.8067 9.75572L35.8177 9.75022C35.7737 9.27756 35.7626 8.84337 35.7626 8.28826V6.79883H36.1979V10.3548H35.7351L34.6056 8.55208C34.3577 8.15636 34.1208 7.74965 33.939 7.36492L33.9224 7.37042C33.95 7.8211 33.961 8.2443 33.961 8.83787V10.3548H33.5258V10.3603Z" fill="#BDBDBD"/>
<path d="M37.2447 9.17287C37.2557 9.79942 37.6579 10.0577 38.1207 10.0577C38.4513 10.0577 38.6552 9.99728 38.8315 9.92583L38.9086 10.2556C38.7433 10.327 38.4623 10.415 38.0601 10.415C37.2723 10.415 36.804 9.89835 36.804 9.1289C36.804 8.35945 37.2557 7.75488 38.005 7.75488C38.8425 7.75488 39.0629 8.48586 39.0629 8.95852C39.0629 9.05196 39.0519 9.1289 39.0464 9.17287H37.2447ZM38.6111 8.83761C38.6166 8.54082 38.4899 8.08465 37.9665 8.08465C37.4982 8.08465 37.2888 8.51884 37.2502 8.83761H38.6111Z" fill="#BDBDBD"/>
<path d="M39.8232 7.81018L40.1593 9.10726C40.2309 9.39305 40.3025 9.65686 40.3521 9.92068H40.3687C40.4293 9.66236 40.5119 9.38756 40.5945 9.11275L41.0133 7.81018H41.4045L41.8011 9.08527C41.8948 9.39305 41.9719 9.66236 42.027 9.92068H42.0436C42.0876 9.66236 42.1538 9.39305 42.2419 9.09077L42.6055 7.81018H43.0628L42.2364 10.3604H41.8122L41.421 9.14023C41.3328 8.85444 41.2557 8.60162 41.1951 8.29933H41.1841C41.1235 8.60711 41.0408 8.87093 40.9527 9.14023L40.5395 10.3549H40.1152L39.3439 7.80469H39.8232V7.81018Z" fill="#BDBDBD"/>
<path d="M45.1235 7.19979H44.0381V6.80957H46.6772V7.19979H45.5863V10.3655H45.1235V7.19979Z" fill="#BDBDBD"/>
<path d="M48.1372 10.3597L48.0986 10.0354H48.0821C47.9388 10.2332 47.6633 10.4146 47.2997 10.4146C46.7818 10.4146 46.5173 10.0519 46.5173 9.68364C46.5173 9.06808 47.0683 8.72732 48.0545 8.73282V8.67786C48.0545 8.46901 47.9939 8.08978 47.4705 8.08978C47.2336 8.08978 46.9856 8.16123 46.8038 8.28214L46.6992 7.97436C46.9085 7.83696 47.2171 7.74902 47.5421 7.74902C48.3245 7.74902 48.5173 8.28214 48.5173 8.79328V9.74959C48.5173 9.96944 48.5283 10.1893 48.5614 10.3597H48.1372ZM48.071 9.06258C47.5642 9.05159 46.9856 9.13953 46.9856 9.63967C46.9856 9.94196 47.184 10.0849 47.4264 10.0849C47.757 10.0849 47.9719 9.876 48.0435 9.65616C48.06 9.6067 48.071 9.55723 48.071 9.50777V9.06258Z" fill="#BDBDBD"/>
<path d="M49.2501 10.36C49.2611 10.1841 49.2722 9.92582 49.2722 9.70049V6.61719H49.7295V8.22204H49.7405C49.9058 7.93625 50.1978 7.75487 50.611 7.75487C51.2446 7.75487 51.6964 8.2825 51.6909 9.05744C51.6909 9.96979 51.1124 10.426 50.5449 10.426C50.1757 10.426 49.8782 10.2831 49.6909 9.94781H49.6744L49.6523 10.371H49.2501V10.36ZM49.7295 9.33774C49.7295 9.3982 49.7405 9.45316 49.7515 9.50812C49.8396 9.83239 50.1096 10.0522 50.4512 10.0522C50.9361 10.0522 51.2281 9.65652 51.2281 9.07393C51.2281 8.5628 50.9636 8.12311 50.4677 8.12311C50.1482 8.12311 49.8562 8.33746 49.757 8.6947C49.746 8.74966 49.7295 8.81012 49.7295 8.88707V9.33774Z" fill="#BDBDBD"/>
<path d="M207.014 18.076H202.143C202.006 18.076 201.89 17.966 201.89 17.8231C201.89 17.6857 202 17.5703 202.143 17.5703H207.014C207.152 17.5703 207.267 17.6802 207.267 17.8231C207.267 17.9605 207.152 18.076 207.014 18.076Z" fill="#757575"/>
<path d="M207.014 20.0984H202.143C202.006 20.0984 201.89 19.9885 201.89 19.8456C201.89 19.7027 202 19.5928 202.143 19.5928H207.014C207.152 19.5928 207.267 19.7027 207.267 19.8456C207.267 19.9885 207.152 20.0984 207.014 20.0984Z" fill="#757575"/>
<path d="M207.014 22.1267H202.143C202.006 22.1267 201.89 22.0168 201.89 21.8739C201.89 21.7365 202 21.6211 202.143 21.6211H207.014C207.152 21.6211 207.267 21.731 207.267 21.8739C207.267 22.0168 207.152 22.1267 207.014 22.1267Z" fill="#757575"/>
<path d="M12.9254 22.1487C12.8538 22.1487 12.7877 22.1212 12.7326 22.0662C12.6279 21.9618 12.6279 21.7859 12.7326 21.6815L14.2973 20.1206L12.7326 18.5597C12.6279 18.4553 12.6279 18.2794 12.7326 18.175C12.8372 18.0706 13.0136 18.0706 13.1182 18.175L15.0686 20.1206L13.1182 22.0662C13.0631 22.1212 12.997 22.1487 12.9254 22.1487Z" fill="#BDBDBD"/>
<path d="M14.6829 20.3953H10.3414C10.1926 20.3953 10.0659 20.2744 10.0659 20.1205C10.0659 19.9721 10.1871 19.8457 10.3414 19.8457H14.6829C14.8317 19.8457 14.9584 19.9666 14.9584 20.1205C14.9529 20.2744 14.8317 20.3953 14.6829 20.3953Z" fill="#BDBDBD"/>
<path d="M5.35526 22.1487C5.28364 22.1487 5.21752 22.1212 5.16243 22.0662L3.21204 20.1206L5.16243 18.175C5.26711 18.0706 5.44342 18.0706 5.5481 18.175C5.65278 18.2794 5.65278 18.4553 5.5481 18.5597L3.98338 20.1206L5.5481 21.6815C5.65278 21.7859 5.65278 21.9618 5.5481 22.0662C5.49851 22.1212 5.42689 22.1487 5.35526 22.1487Z" fill="#BDBDBD"/>
<path d="M7.93928 20.3953H3.60324C3.45448 20.3953 3.32776 20.2744 3.32776 20.1205C3.32776 19.9721 3.44897 19.8457 3.60324 19.8457H7.94479C8.09354 19.8457 8.22027 19.9666 8.22027 20.1205C8.21476 20.2744 8.09354 20.3953 7.93928 20.3953Z" fill="#BDBDBD"/>
<path d="M70.3959 6.58916C70.3408 6.58916 70.2857 6.56718 70.2416 6.52321L68.732 5.01729C68.6494 4.92935 68.6494 4.79195 68.732 4.70951C68.8147 4.62157 68.9579 4.62157 69.0406 4.70951L70.5502 6.21543C70.6328 6.30337 70.6328 6.44077 70.5502 6.52321C70.5061 6.56718 70.451 6.58916 70.3959 6.58916Z" fill="#BDBDBD"/>
<path d="M68.9194 6.58916C68.8643 6.58916 68.8092 6.56718 68.7651 6.52321C68.6769 6.43527 68.6769 6.29787 68.7651 6.21543L70.2747 4.70951C70.3629 4.62157 70.5006 4.62157 70.5833 4.70951C70.6714 4.79744 70.6714 4.93485 70.5833 5.01729L69.0736 6.52321C69.0296 6.56718 68.9745 6.58916 68.9194 6.58916Z" fill="#BDBDBD"/>
<path d="M20.5507 22.3965C19.2946 22.3965 18.2698 21.3742 18.2698 20.1211C18.2698 18.868 19.2946 17.8457 20.5507 17.8457C21.8069 17.8457 22.8317 18.868 22.8317 20.1211C22.8317 20.2695 22.7105 20.3959 22.5562 20.3959C22.4075 20.3959 22.2808 20.275 22.2808 20.1211C22.2808 19.1703 21.5039 18.3898 20.5452 18.3898C19.5921 18.3898 18.8097 19.1648 18.8097 20.1211C18.8097 21.0774 19.5866 21.8468 20.5452 21.8468C20.7491 21.8468 20.9474 21.8139 21.1348 21.7424C21.278 21.693 21.4323 21.7644 21.4874 21.9073C21.537 22.0502 21.4653 22.2041 21.3221 22.259C21.0797 22.3525 20.8152 22.3965 20.5507 22.3965Z" fill="#BDBDBD"/>
<path d="M22.5562 20.0713H23.2669L22.9088 20.5714L22.5562 21.0716L22.2036 20.5714L21.851 20.0713H22.5562Z" fill="#BDBDBD"/>
<path d="M197.302 24H27.6984C27.314 24 27 23.6462 27 23.2132V16.7868C27 16.3538 27.314 16 27.6984 16H197.302C197.686 16 198 16.3538 198 16.7868V23.2132C198 23.6515 197.686 24 197.302 24Z" fill="white"/>
<path d="M194.796 22.1762L193.27 21.3792L191.744 22.1762L192.036 20.4834L190.802 19.2852L192.504 19.0379L193.265 17.499L194.025 19.0379L195.728 19.2852L194.493 20.4834L194.796 22.1762ZM193.27 20.9066L194.24 21.4177L194.053 20.3405L194.835 19.5765L193.75 19.4172L193.265 18.4389L192.78 19.4172L191.695 19.5765L192.477 20.3405L192.29 21.4177L193.27 20.9066Z" fill="#BDBDBD"/>
<path d="M76.5281 9.78833C76.4069 9.78833 76.3077 9.6894 76.3077 9.56849V7.01281C76.3077 6.8919 76.4069 6.79297 76.5281 6.79297C76.6493 6.79297 76.7485 6.8919 76.7485 7.01281V9.56849C76.7485 9.6894 76.6493 9.78833 76.5281 9.78833Z" fill="#BDBDBD"/>
<path d="M77.8393 8.54027H75.2774C75.1562 8.54027 75.057 8.44134 75.057 8.32043C75.057 8.19952 75.1562 8.10059 75.2774 8.10059H77.8393C77.9606 8.10059 78.0597 8.19952 78.0597 8.32043C78.0597 8.44134 77.9606 8.54027 77.8393 8.54027Z" fill="#BDBDBD"/>
<path d="M150.398 96.0108H62.3388C59.3967 96.0108 57 93.62 57 90.6851C57 87.7502 59.3967 85.3594 62.3388 85.3594H150.398C153.341 85.3594 155.737 87.7502 155.737 90.6851C155.737 93.62 153.341 96.0108 150.398 96.0108ZM62.3388 85.953C59.7217 85.953 57.595 88.0744 57.595 90.6851C57.595 93.2957 59.7217 95.4172 62.3388 95.4172H150.398C153.015 95.4172 155.142 93.2957 155.142 90.6851C155.142 88.0744 153.015 85.953 150.398 85.953H62.3388Z" fill="#DBDBDB"/>
<path d="M147.859 91.8833C146.817 91.8833 145.974 91.0369 145.974 90.0037C145.974 88.9649 146.823 88.124 147.859 88.124C148.894 88.124 149.743 88.9704 149.743 90.0037C149.748 91.0369 148.9 91.8833 147.859 91.8833ZM147.859 88.7121C147.148 88.7121 146.564 89.2892 146.564 90.0037C146.564 90.7127 147.142 91.2953 147.859 91.2953C148.569 91.2953 149.153 90.7182 149.153 90.0037C149.153 89.2892 148.575 88.7121 147.859 88.7121Z" fill="#DBDBDB"/>
<path d="M150.79 93.2571C150.712 93.2571 150.635 93.2296 150.58 93.1692L148.757 91.35C148.641 91.2346 148.641 91.0477 148.757 90.9323C148.872 90.8168 149.06 90.8168 149.175 90.9323L150.999 92.7515C151.115 92.8669 151.115 93.0538 150.999 93.1692C150.938 93.2241 150.861 93.2571 150.79 93.2571Z" fill="#DBDBDB"/>
<path d="M80.9226 76.9064C81.6719 77.3681 82.7683 77.7528 83.9253 77.7528C85.6388 77.7528 86.6361 76.8514 86.6361 75.5489C86.6361 74.3397 85.9419 73.6472 84.1953 72.9767C82.0796 72.2292 80.7739 71.1355 80.7739 69.3108C80.7739 67.2938 82.4488 65.7988 84.9667 65.7988C86.2945 65.7988 87.2531 66.1066 87.8316 66.4309L87.3688 67.7939C86.9446 67.5631 86.0796 67.1783 84.9061 67.1783C83.1375 67.1783 82.4653 68.2336 82.4653 69.1185C82.4653 70.3276 83.2532 70.9212 85.0438 71.6137C87.2366 72.4601 88.3495 73.5153 88.3495 75.4115C88.3495 77.4065 86.8675 79.1323 83.8097 79.1323C82.559 79.1323 81.1926 78.7696 80.5039 78.3079L80.9226 76.9064Z" fill="#CCCCCC"/>
<path d="M91.6387 74.6036C91.6773 76.8844 93.1374 77.8297 94.8288 77.8297C96.0409 77.8297 96.7737 77.6209 97.4073 77.3516L97.6938 78.5607C97.0987 78.83 96.0795 79.1378 94.5974 79.1378C91.7324 79.1378 90.0189 77.2582 90.0189 74.4552C90.0189 71.6522 91.6718 69.4482 94.3825 69.4482C97.4238 69.4482 98.2282 72.1138 98.2282 73.8231C98.2282 74.1694 98.1896 74.4387 98.1676 74.6091H91.6387V74.6036ZM96.5974 73.3944C96.6139 72.3172 96.1566 70.6519 94.2503 70.6519C92.5368 70.6519 91.7875 72.2238 91.6553 73.3944H96.5974Z" fill="#CCCCCC"/>
<path d="M105.484 78.94L105.352 77.7693H105.297C104.779 78.5003 103.776 79.1488 102.449 79.1488C100.564 79.1488 99.6001 77.8243 99.6001 76.4832C99.6001 74.2408 101.6 73.0097 105.198 73.0317V72.8393C105.198 72.0699 104.988 70.6904 103.082 70.6904C102.217 70.6904 101.314 70.9597 100.658 71.3829L100.272 70.2727C101.044 69.7725 102.157 69.4482 103.33 69.4482C106.179 69.4482 106.867 71.3884 106.867 73.246V76.7195C106.867 77.5275 106.906 78.3134 107.022 78.9455H105.484V78.94ZM105.236 74.2023C103.391 74.1639 101.292 74.4881 101.292 76.2908C101.292 77.3846 102.024 77.9012 102.889 77.9012C104.101 77.9012 104.873 77.1318 105.137 76.3458C105.192 76.1754 105.231 75.9831 105.231 75.8072V74.2023H105.236Z" fill="#CCCCCC"/>
<path d="M109.6 72.5486C109.6 71.4549 109.578 70.5151 109.523 69.6522H111.005L111.06 71.4769H111.137C111.561 70.2293 112.581 69.4434 113.716 69.4434C113.908 69.4434 114.041 69.4598 114.195 69.4983V71.0922C114.024 71.0537 113.848 71.0372 113.616 71.0372C112.426 71.0372 111.578 71.9386 111.346 73.2027C111.308 73.4335 111.269 73.7028 111.269 73.9886V78.9406H109.594V72.5486H109.6Z" fill="#CCCCCC"/>
<path d="M122.333 78.5938C121.892 78.8247 120.911 79.1324 119.661 79.1324C116.851 79.1324 115.027 77.2308 115.027 74.3948C115.027 71.5369 116.988 69.4648 120.03 69.4648C121.027 69.4648 121.914 69.7122 122.377 69.943L121.991 71.2456C121.589 71.0147 120.95 70.8059 120.03 70.8059C117.892 70.8059 116.74 72.3778 116.74 74.3179C116.74 76.4669 118.123 77.7914 119.975 77.7914C120.939 77.7914 121.572 77.5441 122.052 77.3297L122.333 78.5938Z" fill="#CCCCCC"/>
<path d="M124.311 65.3154H126.002V71.1083H126.041C126.311 70.6301 126.735 70.2069 127.253 69.9211C127.754 69.6353 128.349 69.443 128.983 69.443C130.233 69.443 132.233 70.2124 132.233 73.4166V78.9402H130.542V73.609C130.542 72.1141 129.985 70.8445 128.388 70.8445C127.291 70.8445 126.426 71.6139 126.118 72.5318C126.024 72.7626 126.002 73.0099 126.002 73.3397V78.9402H124.311V65.3154Z" fill="#CCCCCC"/>
</svg>
