<svg width="212" height="119" viewBox="0 0 212 119" fill="none" xmlns="http://www.w3.org/2000/svg">
<rect width="212" height="119" rx="5" fill="#F7F7F7"/>
<rect x="0.25" y="0.25" width="211.5" height="118.5" rx="4.75" stroke="black" stroke-opacity="0.2" strokeWidth="0.5"/>
<rect x="10" y="10" width="192" height="99" rx="5" fill="white"/>
<rect x="10.25" y="10.25" width="191.5" height="98.5" rx="4.75" stroke="black" stroke-opacity="0.1" strokeWidth="0.5"/>
<circle cx="44.5" cy="59.5" r="24.5" fill="#F7F7F7"/>
<path d="M45 51.5003C46.5583 51.5003 47.8333 52.7753 47.8333 54.3337C47.8333 55.892 46.5583 57.167 45 57.167C43.4416 57.167 42.1666 55.892 42.1666 54.3337C42.1666 52.7753 43.4416 51.5003 45 51.5003ZM45 64.2503C48.825 64.2503 53.2166 66.0778 53.5 67.0837V68.5003H36.5V67.0978C36.7833 66.0778 41.175 64.2503 45 64.2503ZM45 48.667C41.8691 48.667 39.3333 51.2028 39.3333 54.3337C39.3333 57.4645 41.8691 60.0003 45 60.0003C48.1308 60.0003 50.6666 57.4645 50.6666 54.3337C50.6666 51.2028 48.1308 48.667 45 48.667ZM45 61.417C41.2175 61.417 33.6666 63.3153 33.6666 67.0837V71.3337H56.3333V67.0837C56.3333 63.3153 48.7825 61.417 45 61.417Z" fill="#18194F"/>
<path d="M79.996 53.21C79.226 53.21 78.5843 53.0093 78.071 52.608C77.5623 52.2067 77.2053 51.6653 77 50.984L78.666 50.585C78.7173 50.8697 78.8667 51.1147 79.114 51.32C79.3613 51.5253 79.6343 51.628 79.933 51.628C80.129 51.628 80.3367 51.5767 80.556 51.474C80.7753 51.3667 80.9387 51.1963 81.046 50.963C81.1113 50.8137 81.1487 50.6363 81.158 50.431C81.172 50.221 81.179 49.9783 81.179 49.703V42.92H82.887V49.703C82.887 50.0157 82.8847 50.291 82.88 50.529C82.88 50.7623 82.8567 50.984 82.81 51.194C82.768 51.3993 82.6817 51.6117 82.551 51.831C82.2757 52.307 81.9163 52.657 81.473 52.881C81.0297 53.1003 80.5373 53.21 79.996 53.21ZM89.2567 53.21C88.2487 53.21 87.3853 52.9907 86.6667 52.552C85.948 52.1087 85.395 51.4927 85.0077 50.704C84.625 49.9153 84.4337 49.0007 84.4337 47.96C84.4337 46.9193 84.625 46.0047 85.0077 45.216C85.395 44.4273 85.948 43.8137 86.6667 43.375C87.3853 42.9317 88.2487 42.71 89.2567 42.71C90.2647 42.71 91.128 42.9317 91.8467 43.375C92.57 43.8137 93.123 44.4273 93.5057 45.216C93.893 46.0047 94.0867 46.9193 94.0867 47.96C94.0867 49.0007 93.893 49.9153 93.5057 50.704C93.123 51.4927 92.57 52.1087 91.8467 52.552C91.128 52.9907 90.2647 53.21 89.2567 53.21ZM89.2567 51.621C89.9333 51.6257 90.4957 51.4763 90.9437 51.173C91.3963 50.8697 91.7347 50.4427 91.9587 49.892C92.1873 49.3413 92.3017 48.6973 92.3017 47.96C92.3017 47.2227 92.1873 46.5833 91.9587 46.042C91.7347 45.496 91.3963 45.0713 90.9437 44.768C90.4957 44.4647 89.9333 44.3083 89.2567 44.299C88.58 44.2943 88.0177 44.4437 87.5697 44.747C87.1217 45.0503 86.7833 45.4773 86.5547 46.028C86.3307 46.5787 86.2187 47.2227 86.2187 47.96C86.2187 48.6973 86.3307 49.339 86.5547 49.885C86.7787 50.4263 87.1147 50.8487 87.5627 51.152C88.0153 51.4553 88.58 51.6117 89.2567 51.621ZM95.48 53V42.92H97.167V47.162H101.941V42.92H103.621V53H101.941V48.744H97.167V53H95.48ZM105.584 53V42.92H107.292L111.968 50.025V42.92H113.676V53H111.968L107.292 45.895V53H105.584ZM122.166 53.21C121.429 53.21 120.764 53.0817 120.171 52.825C119.583 52.5683 119.098 52.202 118.715 51.726C118.337 51.2453 118.097 50.676 117.994 50.018L119.744 49.752C119.893 50.3493 120.199 50.8113 120.661 51.138C121.128 51.4647 121.664 51.628 122.271 51.628C122.63 51.628 122.969 51.572 123.286 51.46C123.603 51.348 123.86 51.1847 124.056 50.97C124.257 50.7553 124.357 50.4917 124.357 50.179C124.357 50.039 124.334 49.9107 124.287 49.794C124.24 49.6727 124.17 49.5653 124.077 49.472C123.988 49.3787 123.872 49.2947 123.727 49.22C123.587 49.1407 123.424 49.073 123.237 49.017L120.633 48.247C120.409 48.1817 120.166 48.0953 119.905 47.988C119.648 47.876 119.403 47.7243 119.17 47.533C118.941 47.337 118.752 47.0897 118.603 46.791C118.458 46.4877 118.386 46.1143 118.386 45.671C118.386 45.0223 118.549 44.4787 118.876 44.04C119.207 43.5967 119.651 43.2653 120.206 43.046C120.766 42.8267 121.387 42.7193 122.068 42.724C122.759 42.7287 123.375 42.8477 123.916 43.081C124.457 43.3097 124.91 43.6433 125.274 44.082C125.638 44.5207 125.895 45.0503 126.044 45.671L124.231 45.986C124.156 45.6313 124.012 45.3303 123.797 45.083C123.587 44.831 123.328 44.6397 123.02 44.509C122.717 44.3783 122.392 44.3083 122.047 44.299C121.711 44.2943 121.398 44.3457 121.109 44.453C120.824 44.5557 120.593 44.705 120.416 44.901C120.243 45.097 120.157 45.3257 120.157 45.587C120.157 45.8343 120.232 46.0373 120.381 46.196C120.53 46.35 120.715 46.4737 120.934 46.567C121.158 46.6557 121.384 46.7303 121.613 46.791L123.419 47.295C123.666 47.3603 123.944 47.449 124.252 47.561C124.56 47.673 124.856 47.8293 125.141 48.03C125.426 48.2307 125.659 48.4943 125.841 48.821C126.028 49.1477 126.121 49.563 126.121 50.067C126.121 50.5897 126.011 51.0493 125.792 51.446C125.577 51.838 125.286 52.1647 124.917 52.426C124.548 52.6873 124.126 52.8833 123.65 53.014C123.179 53.1447 122.684 53.21 122.166 53.21ZM127.636 53V42.92H129.155L132.641 50.06L136.127 42.92H137.646V53H136.071V46.539L132.977 53H132.305L129.218 46.539V53H127.636ZM139.753 53V42.92H141.44V53H139.753ZM145.959 53V44.502H142.697V42.92H150.908V44.502H147.646V53H145.959ZM152.027 53V42.92H153.714V47.162H158.488V42.92H160.168V53H158.488V48.744H153.714V53H152.027Z" fill="#18194F"/>
<path d="M166.828 48.86C166.686 48.86 166.557 48.827 166.441 48.761C166.327 48.695 166.235 48.606 166.165 48.494C166.097 48.38 166.063 48.252 166.063 48.11C166.063 47.968 166.097 47.84 166.165 47.726C166.235 47.612 166.327 47.523 166.441 47.459C166.557 47.393 166.686 47.36 166.828 47.36C166.96 47.36 167.082 47.393 167.194 47.459C167.306 47.523 167.395 47.612 167.461 47.726C167.529 47.84 167.563 47.968 167.563 48.11C167.563 48.252 167.529 48.38 167.461 48.494C167.395 48.606 167.306 48.695 167.194 48.761C167.082 48.827 166.96 48.86 166.828 48.86ZM173.509 50.09C173.079 50.09 172.714 49.995 172.414 49.805C172.114 49.615 171.885 49.351 171.727 49.013C171.571 48.675 171.493 48.284 171.493 47.84C171.493 47.396 171.571 47.005 171.727 46.667C171.885 46.329 172.114 46.065 172.414 45.875C172.714 45.685 173.079 45.59 173.509 45.59C173.941 45.59 174.307 45.685 174.607 45.875C174.907 46.065 175.135 46.329 175.291 46.667C175.447 47.005 175.525 47.396 175.525 47.84C175.525 48.284 175.447 48.675 175.291 49.013C175.135 49.351 174.907 49.615 174.607 49.805C174.307 49.995 173.941 50.09 173.509 50.09ZM173.509 49.58C173.831 49.582 174.099 49.51 174.312 49.364C174.529 49.216 174.69 49.011 174.796 48.749C174.904 48.487 174.958 48.184 174.958 47.84C174.958 47.494 174.904 47.191 174.796 46.931C174.69 46.671 174.529 46.468 174.312 46.322C174.099 46.176 173.831 46.102 173.509 46.1C173.187 46.098 172.919 46.17 172.705 46.316C172.493 46.462 172.333 46.666 172.225 46.928C172.117 47.19 172.062 47.494 172.06 47.84C172.058 48.184 172.111 48.486 172.219 48.746C172.327 49.006 172.488 49.21 172.702 49.358C172.918 49.504 173.187 49.578 173.509 49.58ZM176.866 50L175.615 45.68H176.173L177.133 49.097L178.09 45.683L178.651 45.68L179.611 49.097L180.568 45.68H181.129L179.878 50H179.344L178.372 46.613L177.4 50H176.866ZM181.641 50V45.68H182.181L184.434 49.055V45.68H184.974V50H184.434L182.181 46.622V50H181.641ZM185.813 50V45.68H188.543V46.187H186.347V47.54H188.183V48.047H186.347V49.493H188.543V50H185.813ZM189.264 50V45.68H190.971C191.013 45.68 191.063 45.682 191.121 45.686C191.179 45.688 191.235 45.694 191.289 45.704C191.523 45.74 191.719 45.82 191.877 45.944C192.037 46.068 192.157 46.225 192.237 46.415C192.317 46.603 192.357 46.812 192.357 47.042C192.357 47.376 192.27 47.666 192.096 47.912C191.922 48.156 191.667 48.309 191.331 48.371L191.127 48.404H189.798V50H189.264ZM191.835 50L190.983 48.242L191.511 48.08L192.447 50H191.835ZM189.798 47.897H190.953C190.991 47.897 191.034 47.895 191.082 47.891C191.132 47.887 191.179 47.88 191.223 47.87C191.361 47.838 191.473 47.78 191.559 47.696C191.647 47.61 191.711 47.51 191.751 47.396C191.791 47.28 191.811 47.162 191.811 47.042C191.811 46.922 191.791 46.805 191.751 46.691C191.711 46.575 191.647 46.474 191.559 46.388C191.473 46.302 191.361 46.244 191.223 46.214C191.179 46.202 191.132 46.195 191.082 46.193C191.034 46.189 190.991 46.187 190.953 46.187H189.798V47.897Z" fill="#18194F"/>
<path d="M78.337 80V76.5333H80.5759V77.0774H78.9172V77.932H80.287V78.4761H78.9172V79.4559H80.5759V80H78.337ZM84.2759 80V78.4207C84.2759 78.2426 84.2318 78.1038 84.1435 78.0043C84.0552 77.9031 83.9357 77.8526 83.7848 77.8526C83.6917 77.8526 83.6083 77.8743 83.5344 77.9176C83.4606 77.9593 83.402 78.0219 83.3587 78.1054C83.3154 78.1872 83.2937 78.2851 83.2937 78.3991L83.0361 78.2474C83.0345 78.0677 83.0746 77.9096 83.1565 77.7731C83.2399 77.6351 83.3523 77.5276 83.4935 77.4506C83.6348 77.3735 83.792 77.335 83.9654 77.335C84.2527 77.335 84.4725 77.4217 84.625 77.595C84.7791 77.7667 84.8561 77.993 84.8561 78.2739V80H84.2759ZM81.1487 80V77.4H81.6615V78.2065H81.7337V80H81.1487ZM82.7159 80V78.428C82.7159 78.2466 82.6718 78.1054 82.5835 78.0043C82.4952 77.9031 82.3749 77.8526 82.2224 77.8526C82.0748 77.8526 81.956 77.9031 81.8661 78.0043C81.7778 78.1054 81.7337 78.237 81.7337 78.3991L81.4737 78.2257C81.4737 78.0572 81.5154 77.9056 81.5989 77.7707C81.6823 77.6359 81.7947 77.53 81.9359 77.453C82.0788 77.3743 82.2385 77.335 82.415 77.335C82.6092 77.335 82.7713 77.3767 82.9013 77.4602C83.0329 77.542 83.1308 77.6544 83.195 77.7972C83.2608 77.9385 83.2937 78.0981 83.2937 78.2763V80H82.7159ZM86.2111 80.0722C86.0233 80.0722 85.8644 80.0369 85.7344 79.9663C85.6044 79.8941 85.5057 79.7986 85.4383 79.6798C85.3725 79.561 85.3396 79.4302 85.3396 79.2874C85.3396 79.1622 85.3604 79.0499 85.4022 78.9504C85.4439 78.8493 85.5081 78.7626 85.5948 78.6904C85.6814 78.6165 85.7938 78.5564 85.9318 78.5098C86.0361 78.4761 86.1581 78.4456 86.2977 78.4183C86.439 78.391 86.5914 78.3662 86.7551 78.3437C86.9204 78.3196 87.093 78.294 87.2727 78.2667L87.0657 78.3846C87.0673 78.2049 87.0272 78.0725 86.9453 77.9874C86.8635 77.9023 86.7254 77.8598 86.5313 77.8598C86.4141 77.8598 86.3009 77.8871 86.1918 77.9417C86.0827 77.9962 86.0064 78.0901 85.9631 78.2233L85.4335 78.0572C85.4977 77.8373 85.6196 77.6608 85.7994 77.5276C85.9808 77.3944 86.2247 77.3278 86.5313 77.3278C86.7624 77.3278 86.9654 77.3655 87.1403 77.4409C87.3169 77.5164 87.4477 77.6399 87.5327 77.8117C87.5793 77.9031 87.6074 77.997 87.617 78.0933C87.6266 78.188 87.6314 78.2915 87.6314 78.4039V80H87.1235V79.4367L87.2077 79.5281C87.0906 79.7159 86.9533 79.854 86.7961 79.9422C86.6404 80.0289 86.4454 80.0722 86.2111 80.0722ZM86.3266 79.61C86.4582 79.61 86.5706 79.5867 86.6637 79.5402C86.7567 79.4936 86.8306 79.4367 86.8851 79.3693C86.9413 79.3019 86.979 79.2385 86.9983 79.1791C87.0288 79.1052 87.0456 79.021 87.0488 78.9263C87.0537 78.83 87.0561 78.7522 87.0561 78.6928L87.2342 78.7457C87.0593 78.773 86.9092 78.7971 86.784 78.818C86.6588 78.8388 86.5513 78.8589 86.4614 78.8781C86.3716 78.8958 86.2921 78.9159 86.2231 78.9383C86.1557 78.9624 86.0987 78.9905 86.0522 79.0226C86.0056 79.0547 85.9695 79.0916 85.9438 79.1333C85.9198 79.1751 85.9077 79.224 85.9077 79.2802C85.9077 79.3444 85.9238 79.4014 85.9559 79.4511C85.988 79.4993 86.0345 79.5378 86.0955 79.5667C86.1581 79.5956 86.2351 79.61 86.3266 79.61ZM88.3063 77.0052V76.4731H88.8865V77.0052H88.3063ZM88.3063 80V77.4H88.8865V80H88.3063ZM89.6558 80V76.4611H90.236V80H89.6558ZM92.1136 79.687V79.0924H92.7082V79.687H92.1136ZM92.1184 78.3076V77.713H92.7131V78.3076H92.1184ZM94.1501 81.1556V80.8137H94.297C94.4141 80.8137 94.5072 80.7832 94.5762 80.7222C94.6469 80.6628 94.6822 80.5625 94.6822 80.4213V77.4H95.0337V80.5104C95.0337 80.727 94.9815 80.8883 94.8772 80.9943C94.7745 81.1018 94.6164 81.1556 94.4029 81.1556H94.1501ZM94.6822 76.9065V76.5093H95.0337V76.9065H94.6822ZM96.7139 80.0698C96.409 80.0698 96.1578 80.004 95.9604 79.8724C95.7646 79.7408 95.6442 79.5578 95.5993 79.3235L95.9604 79.2633C95.9989 79.411 96.0864 79.529 96.2228 79.6172C96.3608 79.7039 96.5309 79.7472 96.7332 79.7472C96.9306 79.7472 97.0863 79.7063 97.2002 79.6244C97.3142 79.541 97.3711 79.4278 97.3711 79.285C97.3711 79.2048 97.3527 79.1398 97.3158 79.09C97.2805 79.0386 97.2074 78.9913 97.0967 78.948C96.9859 78.9046 96.8206 78.8533 96.6008 78.7939C96.3648 78.7297 96.1803 78.6655 96.0471 78.6013C95.9138 78.5371 95.8192 78.4633 95.763 78.3798C95.7068 78.2948 95.6787 78.1912 95.6787 78.0693C95.6787 77.9216 95.7205 77.7924 95.8039 77.6817C95.8874 77.5693 96.0029 77.4827 96.1506 77.4217C96.2982 77.3591 96.47 77.3278 96.6658 77.3278C96.8616 77.3278 97.0365 77.3599 97.1906 77.4241C97.3463 77.4867 97.4714 77.5749 97.5661 77.6889C97.6608 77.8028 97.717 77.9352 97.7346 78.0861L97.3735 78.1511C97.3495 77.9986 97.2732 77.8783 97.1448 77.79C97.018 77.7001 96.8567 77.6536 96.6609 77.6504C96.4764 77.6456 96.3263 77.6809 96.2108 77.7563C96.0952 77.8301 96.0374 77.9288 96.0374 78.0524C96.0374 78.1214 96.0583 78.1808 96.1 78.2306C96.1417 78.2787 96.2172 78.3244 96.3263 78.3678C96.4371 78.4111 96.5943 78.4585 96.7982 78.5098C97.0373 78.5708 97.2251 78.635 97.3615 78.7024C97.4979 78.7698 97.595 78.8493 97.6528 78.9407C97.7106 79.0322 97.7395 79.1454 97.7395 79.2802C97.7395 79.5257 97.648 79.7191 97.465 79.8604C97.2837 80 97.0333 80.0698 96.7139 80.0698ZM101.374 80L101.377 78.2931C101.377 78.0925 101.32 77.9352 101.208 77.8213C101.097 77.7057 100.956 77.648 100.784 77.648C100.686 77.648 100.591 77.6704 100.498 77.7154C100.405 77.7603 100.328 77.8325 100.267 77.932C100.207 78.0315 100.178 78.1615 100.178 78.322L99.9682 78.2619C99.9634 78.0757 99.9995 77.9128 100.077 77.7731C100.155 77.6335 100.263 77.5252 100.399 77.4481C100.537 77.3695 100.693 77.3302 100.866 77.3302C101.128 77.3302 101.337 77.4112 101.494 77.5733C101.652 77.7338 101.73 77.9513 101.73 78.2257L101.728 80H101.374ZM98.271 80V77.4H98.5888V78.0404H98.6273V80H98.271ZM99.8262 80L99.8286 78.3172C99.8286 78.1102 99.7732 77.9473 99.6625 77.8285C99.5533 77.7081 99.4089 77.648 99.2291 77.648C99.0494 77.648 98.9041 77.7098 98.7934 77.8333C98.6826 77.9553 98.6273 78.1182 98.6273 78.322L98.4154 78.2065C98.4154 78.0396 98.4547 77.8903 98.5334 77.7587C98.612 77.6255 98.7196 77.5212 98.856 77.4457C98.9924 77.3687 99.1473 77.3302 99.3206 77.3302C99.4859 77.3302 99.6328 77.3655 99.7612 77.4361C99.8912 77.5067 99.9931 77.6094 100.067 77.7443C100.141 77.8791 100.178 78.0428 100.178 78.2354L100.175 80H99.8262ZM102.403 76.9065V76.5093H102.757V76.9065H102.403ZM102.403 80V77.4H102.757V80H102.403ZM104.894 80C104.748 80.0305 104.604 80.0425 104.461 80.0361C104.319 80.0297 104.193 79.9992 104.08 79.9446C103.97 79.8901 103.885 79.805 103.828 79.6894C103.781 79.5931 103.755 79.496 103.75 79.3981C103.747 79.2986 103.746 79.1855 103.746 79.0587V76.6778H104.097V79.0443C104.097 79.1534 104.098 79.2449 104.1 79.3187C104.103 79.3909 104.12 79.4551 104.15 79.5113C104.208 79.6188 104.299 79.683 104.425 79.7039C104.551 79.7248 104.708 79.7199 104.894 79.6894V80ZM103.19 77.7033V77.4H104.894V77.7033H103.19ZM107.284 80V78.6735C107.284 78.5291 107.27 78.3967 107.243 78.2763C107.216 78.1543 107.172 78.0484 107.111 77.9585C107.051 77.867 106.973 77.7964 106.877 77.7467C106.783 77.6969 106.667 77.672 106.531 77.672C106.405 77.672 106.295 77.6937 106.198 77.737C106.104 77.7804 106.023 77.843 105.958 77.9248C105.893 78.0051 105.844 78.103 105.811 78.2185C105.777 78.3341 105.76 78.4657 105.76 78.6133L105.51 78.558C105.51 78.2915 105.556 78.0677 105.649 77.8863C105.743 77.7049 105.871 77.5677 106.035 77.4746C106.198 77.3815 106.386 77.335 106.598 77.335C106.754 77.335 106.889 77.3591 107.005 77.4072C107.122 77.4554 107.221 77.5204 107.301 77.6022C107.383 77.6841 107.449 77.778 107.498 77.8839C107.548 77.9882 107.584 78.0998 107.607 78.2185C107.629 78.3357 107.64 78.4528 107.64 78.57V80H107.284ZM105.404 80V76.5333H105.724V78.4906H105.76V80H105.404ZM110.112 80.5056C109.855 80.5056 109.617 80.4606 109.399 80.3707C109.181 80.2825 108.99 80.1589 108.828 80C108.666 79.8395 108.54 79.6509 108.448 79.4343C108.358 79.2176 108.313 78.9817 108.313 78.7265C108.313 78.4552 108.357 78.2081 108.446 77.985C108.534 77.7603 108.658 77.5669 108.819 77.4048C108.981 77.2411 109.173 77.1151 109.394 77.0269C109.616 76.9386 109.859 76.8944 110.124 76.8944C110.427 76.8944 110.692 76.9434 110.918 77.0413C111.146 77.1376 111.334 77.2692 111.481 77.4361C111.629 77.6014 111.737 77.7876 111.804 77.9946C111.873 78.2017 111.902 78.4159 111.891 78.6374C111.875 78.9407 111.802 79.1694 111.674 79.3235C111.547 79.4776 111.37 79.5546 111.142 79.5546C110.994 79.5546 110.866 79.5201 110.757 79.4511C110.648 79.3821 110.575 79.285 110.538 79.1598L110.653 79.1719C110.597 79.2858 110.513 79.3685 110.4 79.4198C110.29 79.4712 110.174 79.4969 110.054 79.4969C109.908 79.4969 109.779 79.4656 109.669 79.403C109.559 79.3388 109.474 79.2505 109.411 79.1381C109.35 79.0258 109.32 78.8958 109.32 78.7481C109.32 78.5941 109.352 78.4609 109.416 78.3485C109.48 78.2362 109.568 78.1495 109.681 78.0885C109.793 78.0275 109.92 77.997 110.061 77.997C110.165 77.997 110.273 78.0187 110.384 78.062C110.496 78.1054 110.582 78.176 110.641 78.2739L110.547 78.3798V78.0644H110.802L110.8 78.8469C110.8 78.9656 110.827 79.0627 110.882 79.1381C110.938 79.212 111.03 79.2489 111.159 79.2489C111.245 79.2489 111.318 79.2248 111.375 79.1767C111.435 79.1285 111.481 79.0611 111.513 78.9744C111.545 78.8862 111.563 78.7827 111.568 78.6639C111.578 78.4199 111.546 78.2065 111.474 78.0235C111.402 77.8406 111.299 77.6881 111.166 77.5661C111.033 77.4425 110.878 77.3502 110.701 77.2893C110.526 77.2283 110.339 77.1978 110.14 77.1978C109.9 77.1978 109.685 77.2379 109.498 77.3181C109.311 77.3984 109.153 77.5091 109.023 77.6504C108.895 77.7916 108.798 77.9545 108.732 78.1391C108.666 78.322 108.635 78.517 108.638 78.7241C108.64 78.9375 108.678 79.1349 108.754 79.3163C108.831 79.496 108.937 79.6525 109.072 79.7857C109.206 79.9173 109.364 80.0193 109.543 80.0915C109.723 80.1653 109.918 80.2022 110.128 80.2022C110.265 80.2022 110.401 80.1846 110.538 80.1493C110.676 80.114 110.798 80.065 110.906 80.0024L111.019 80.272C110.88 80.3507 110.733 80.4093 110.579 80.4478C110.425 80.4863 110.269 80.5056 110.112 80.5056ZM110.073 79.1887C110.198 79.1887 110.3 79.1526 110.379 79.0804C110.459 79.0081 110.499 78.8966 110.499 78.7457C110.499 78.5981 110.461 78.4865 110.384 78.4111C110.308 78.3357 110.207 78.298 110.08 78.298C109.936 78.298 109.825 78.3373 109.748 78.4159C109.673 78.4946 109.635 78.6045 109.635 78.7457C109.635 78.8886 109.674 78.9985 109.753 79.0756C109.831 79.151 109.938 79.1887 110.073 79.1887ZM113.782 80.0722C113.543 80.0722 113.341 80.012 113.175 79.8917C113.01 79.7697 112.885 79.6052 112.8 79.3981C112.715 79.1895 112.672 78.956 112.672 78.6976C112.672 78.4344 112.715 78.2001 112.8 77.9946C112.886 77.7876 113.013 77.6247 113.18 77.5059C113.347 77.3872 113.552 77.3278 113.796 77.3278C114.034 77.3278 114.238 77.388 114.408 77.5083C114.578 77.6287 114.708 77.7924 114.798 77.9994C114.889 78.2065 114.935 78.4392 114.935 78.6976C114.935 78.9576 114.889 79.1911 114.798 79.3981C114.706 79.6052 114.575 79.7697 114.403 79.8917C114.231 80.012 114.024 80.0722 113.782 80.0722ZM112.612 81.1556V77.4H112.93V79.3572H112.968V81.1556H112.612ZM113.746 79.7424C113.927 79.7424 114.078 79.6967 114.198 79.6052C114.319 79.5137 114.409 79.3893 114.468 79.232C114.529 79.0731 114.56 78.895 114.56 78.6976C114.56 78.5018 114.53 78.3252 114.47 78.168C114.411 78.0107 114.32 77.8863 114.198 77.7948C114.078 77.7033 113.925 77.6576 113.739 77.6576C113.557 77.6576 113.406 77.7017 113.286 77.79C113.167 77.8783 113.078 78.001 113.019 78.1583C112.959 78.314 112.93 78.4938 112.93 78.6976C112.93 78.8982 112.959 79.078 113.019 79.2369C113.078 79.3941 113.168 79.5177 113.288 79.6076C113.409 79.6975 113.561 79.7424 113.746 79.7424ZM116.208 80.0722C116.012 80.0722 115.847 80.0369 115.714 79.9663C115.583 79.8957 115.484 79.8018 115.418 79.6846C115.352 79.5675 115.319 79.4399 115.319 79.3019C115.319 79.1606 115.347 79.0402 115.404 78.9407C115.461 78.8396 115.539 78.757 115.637 78.6928C115.737 78.6286 115.851 78.5796 115.981 78.5459C116.113 78.5138 116.258 78.4857 116.417 78.4617C116.578 78.436 116.734 78.4143 116.887 78.3967C117.041 78.3774 117.175 78.359 117.291 78.3413L117.166 78.4183C117.171 78.1615 117.121 77.9714 117.017 77.8478C116.912 77.7242 116.731 77.6624 116.472 77.6624C116.294 77.6624 116.143 77.7025 116.02 77.7828C115.898 77.863 115.812 77.9898 115.762 78.1631L115.418 78.062C115.477 77.8293 115.597 77.6488 115.777 77.5204C115.956 77.392 116.19 77.3278 116.477 77.3278C116.715 77.3278 116.916 77.3727 117.082 77.4626C117.248 77.5509 117.366 77.6793 117.435 77.8478C117.468 77.9232 117.488 78.0075 117.498 78.1006C117.508 78.1936 117.512 78.2883 117.512 78.3846V80H117.197V79.3476L117.289 79.3861C117.2 79.6092 117.063 79.7793 116.877 79.8965C116.691 80.0136 116.468 80.0722 116.208 80.0722ZM116.249 79.7665C116.414 79.7665 116.558 79.7368 116.682 79.6774C116.806 79.618 116.905 79.537 116.98 79.4343C117.056 79.3299 117.105 79.2128 117.127 79.0828C117.147 78.9993 117.157 78.9078 117.159 78.8083C117.16 78.7072 117.161 78.6318 117.161 78.582L117.296 78.6519C117.175 78.6679 117.045 78.684 116.903 78.7C116.764 78.716 116.626 78.7345 116.489 78.7554C116.355 78.7762 116.233 78.8011 116.123 78.83C116.05 78.8509 115.978 78.8806 115.909 78.9191C115.84 78.956 115.783 79.0057 115.738 79.0683C115.695 79.1309 115.673 79.2088 115.673 79.3019C115.673 79.3773 115.692 79.4503 115.729 79.5209C115.767 79.5915 115.828 79.6501 115.912 79.6967C115.997 79.7432 116.109 79.7665 116.249 79.7665ZM118.187 76.9065V76.5093H118.541V76.9065H118.187ZM118.187 80V77.4H118.541V80H118.187ZM121.141 80V78.6735C121.141 78.5291 121.127 78.3967 121.1 78.2763C121.073 78.1543 121.028 78.0484 120.967 77.9585C120.908 77.867 120.83 77.7964 120.734 77.7467C120.639 77.6969 120.524 77.672 120.387 77.672C120.262 77.672 120.151 77.6937 120.055 77.737C119.96 77.7804 119.88 77.843 119.814 77.9248C119.75 78.0051 119.701 78.103 119.667 78.2185C119.634 78.3341 119.617 78.4657 119.617 78.6133L119.366 78.558C119.366 78.2915 119.413 78.0677 119.506 77.8863C119.599 77.7049 119.728 77.5677 119.891 77.4746C120.055 77.3815 120.243 77.335 120.455 77.335C120.61 77.335 120.746 77.3591 120.861 77.4072C120.979 77.4554 121.077 77.5204 121.158 77.6022C121.239 77.6841 121.305 77.778 121.355 77.8839C121.405 77.9882 121.441 78.0998 121.463 78.2185C121.486 78.3357 121.497 78.4528 121.497 78.57V80H121.141ZM119.261 80V77.4H119.581V78.0404H119.617V80H119.261ZM123.537 80C123.391 80.0305 123.247 80.0425 123.104 80.0361C122.963 80.0297 122.836 79.9992 122.724 79.9446C122.613 79.8901 122.529 79.805 122.471 79.6894C122.424 79.5931 122.399 79.496 122.394 79.3981C122.391 79.2986 122.389 79.1855 122.389 79.0587V76.6778H122.74V79.0443C122.74 79.1534 122.741 79.2449 122.743 79.3187C122.746 79.3909 122.763 79.4551 122.793 79.5113C122.851 79.6188 122.943 79.683 123.068 79.7039C123.195 79.7248 123.351 79.7199 123.537 79.6894V80ZM121.833 77.7033V77.4H123.537V77.7033H121.833ZM124.603 80L123.809 77.3976L124.163 77.4L124.779 79.4198L125.398 77.4H125.72L126.339 79.4198L126.96 77.4H127.312L126.517 80H126.209L125.559 77.9296L124.911 80H124.603ZM128.737 80.0722C128.479 80.0722 128.258 80.0136 128.075 79.8965C127.892 79.7793 127.752 79.6172 127.654 79.4102C127.556 79.2031 127.507 78.9656 127.507 78.6976C127.507 78.4248 127.557 78.1856 127.656 77.9802C127.756 77.7748 127.897 77.6151 128.08 77.5011C128.264 77.3856 128.483 77.3278 128.737 77.3278C128.997 77.3278 129.218 77.3864 129.401 77.5035C129.586 77.6191 129.726 77.7804 129.823 77.9874C129.921 78.1928 129.97 78.4296 129.97 78.6976C129.97 78.9704 129.921 79.2104 129.823 79.4174C129.725 79.6228 129.584 79.7833 129.399 79.8989C129.214 80.0144 128.994 80.0722 128.737 80.0722ZM128.737 79.7328C129.026 79.7328 129.241 79.6373 129.382 79.4463C129.523 79.2537 129.594 79.0041 129.594 78.6976C129.594 78.383 129.523 78.1327 129.38 77.9465C129.239 77.7603 129.024 77.6672 128.737 77.6672C128.543 77.6672 128.382 77.7114 128.256 77.7996C128.13 77.8863 128.036 78.0075 127.974 78.1631C127.913 78.3172 127.882 78.4954 127.882 78.6976C127.882 79.0106 127.955 79.2617 128.099 79.4511C128.243 79.6389 128.456 79.7328 128.737 79.7328ZM130.501 80V77.4H130.818V78.0259L130.756 77.9441C130.785 77.867 130.822 77.7964 130.869 77.7322C130.916 77.6664 130.966 77.6127 131.021 77.5709C131.088 77.5115 131.167 77.4666 131.257 77.4361C131.346 77.404 131.437 77.3856 131.529 77.3807C131.62 77.3743 131.704 77.3807 131.779 77.4V77.7322C131.684 77.7081 131.581 77.7025 131.468 77.7154C131.356 77.7282 131.253 77.7731 131.158 77.8502C131.071 77.9176 131.006 77.9986 130.963 78.0933C130.92 78.1864 130.891 78.2859 130.876 78.3919C130.862 78.4962 130.855 78.5997 130.855 78.7024V80H130.501ZM132.233 80L132.236 76.5333H132.592V78.6519L133.752 77.4H134.224L133.006 78.7L134.383 80H133.868L132.592 78.7481V80H132.233ZM135.547 80.0698C135.243 80.0698 134.991 80.004 134.794 79.8724C134.598 79.7408 134.478 79.5578 134.433 79.3235L134.794 79.2633C134.832 79.411 134.92 79.529 135.056 79.6172C135.194 79.7039 135.364 79.7472 135.567 79.7472C135.764 79.7472 135.92 79.7063 136.034 79.6244C136.148 79.541 136.205 79.4278 136.205 79.285C136.205 79.2048 136.186 79.1398 136.149 79.09C136.114 79.0386 136.041 78.9913 135.93 78.948C135.819 78.9046 135.654 78.8533 135.434 78.7939C135.198 78.7297 135.014 78.6655 134.881 78.6013C134.747 78.5371 134.653 78.4633 134.597 78.3798C134.54 78.2948 134.512 78.1912 134.512 78.0693C134.512 77.9216 134.554 77.7924 134.637 77.6817C134.721 77.5693 134.836 77.4827 134.984 77.4217C135.132 77.3591 135.304 77.3278 135.499 77.3278C135.695 77.3278 135.87 77.3599 136.024 77.4241C136.18 77.4867 136.305 77.5749 136.4 77.6889C136.494 77.8028 136.551 77.9352 136.568 78.0861L136.207 78.1511C136.183 77.9986 136.107 77.8783 135.978 77.79C135.852 77.7001 135.69 77.6536 135.494 77.6504C135.31 77.6456 135.16 77.6809 135.044 77.7563C134.929 77.8301 134.871 77.9288 134.871 78.0524C134.871 78.1214 134.892 78.1808 134.934 78.2306C134.975 78.2787 135.051 78.3244 135.16 78.3678C135.271 78.4111 135.428 78.4585 135.632 78.5098C135.871 78.5708 136.059 78.635 136.195 78.7024C136.331 78.7698 136.429 78.8493 136.486 78.9407C136.544 79.0322 136.573 79.1454 136.573 79.2802C136.573 79.5257 136.482 79.7191 136.299 79.8604C136.117 80 135.867 80.0698 135.547 80.0698ZM137.174 80V79.5883H137.586V80H137.174ZM139.408 80.0722C139.146 80.0722 138.925 80.0136 138.744 79.8965C138.562 79.7793 138.424 79.618 138.329 79.4126C138.236 79.2056 138.188 78.968 138.185 78.7C138.188 78.4272 138.238 78.188 138.334 77.9826C138.431 77.7756 138.569 77.6151 138.751 77.5011C138.932 77.3856 139.152 77.3278 139.41 77.3278C139.674 77.3278 139.902 77.392 140.096 77.5204C140.292 77.6488 140.426 77.8245 140.499 78.0476L140.152 78.1583C140.091 78.0027 139.994 77.8823 139.861 77.7972C139.729 77.7106 139.578 77.6672 139.408 77.6672C139.217 77.6672 139.059 77.7114 138.934 77.7996C138.809 77.8863 138.715 78.0075 138.654 78.1631C138.593 78.3188 138.562 78.4978 138.561 78.7C138.564 79.0114 138.636 79.2617 138.777 79.4511C138.918 79.6389 139.129 79.7328 139.408 79.7328C139.585 79.7328 139.735 79.6927 139.858 79.6124C139.983 79.5306 140.078 79.4118 140.142 79.2561L140.499 79.362C140.402 79.5931 140.261 79.7697 140.075 79.8917C139.889 80.012 139.666 80.0722 139.408 80.0722ZM142.011 80.0722C141.752 80.0722 141.532 80.0136 141.349 79.8965C141.166 79.7793 141.025 79.6172 140.927 79.4102C140.829 79.2031 140.78 78.9656 140.78 78.6976C140.78 78.4248 140.83 78.1856 140.93 77.9802C141.029 77.7748 141.17 77.6151 141.353 77.5011C141.538 77.3856 141.757 77.3278 142.011 77.3278C142.271 77.3278 142.492 77.3864 142.675 77.5035C142.86 77.6191 143 77.7804 143.096 77.9874C143.194 78.1928 143.243 78.4296 143.243 78.6976C143.243 78.9704 143.194 79.2104 143.096 79.4174C142.999 79.6228 142.857 79.7833 142.673 79.8989C142.488 80.0144 142.267 80.0722 142.011 80.0722ZM142.011 79.7328C142.3 79.7328 142.515 79.6373 142.656 79.4463C142.797 79.2537 142.868 79.0041 142.868 78.6976C142.868 78.383 142.796 78.1327 142.653 77.9465C142.512 77.7603 142.298 77.6672 142.011 77.6672C141.816 77.6672 141.656 77.7114 141.529 77.7996C141.404 77.8863 141.31 78.0075 141.248 78.1631C141.187 78.3172 141.156 78.4954 141.156 78.6976C141.156 79.0106 141.228 79.2617 141.373 79.4511C141.517 79.6389 141.73 79.7328 142.011 79.7328ZM146.875 80L146.877 78.2931C146.877 78.0925 146.821 77.9352 146.709 77.8213C146.598 77.7057 146.457 77.648 146.285 77.648C146.187 77.648 146.092 77.6704 145.999 77.7154C145.906 77.7603 145.829 77.8325 145.768 77.932C145.708 78.0315 145.679 78.1615 145.679 78.322L145.469 78.2619C145.464 78.0757 145.5 77.9128 145.577 77.7731C145.656 77.6335 145.764 77.5252 145.9 77.4481C146.038 77.3695 146.194 77.3302 146.367 77.3302C146.629 77.3302 146.838 77.4112 146.995 77.5733C147.153 77.7338 147.231 77.9513 147.231 78.2257L147.229 80H146.875ZM143.772 80V77.4H144.09V78.0404H144.128V80H143.772ZM145.327 80L145.33 78.3172C145.33 78.1102 145.274 77.9473 145.163 77.8285C145.054 77.7081 144.91 77.648 144.73 77.648C144.55 77.648 144.405 77.7098 144.294 77.8333C144.184 77.9553 144.128 78.1182 144.128 78.322L143.916 78.2065C143.916 78.0396 143.956 77.8903 144.034 77.7587C144.113 77.6255 144.22 77.5212 144.357 77.4457C144.493 77.3687 144.648 77.3302 144.822 77.3302C144.987 77.3302 145.134 77.3655 145.262 77.4361C145.392 77.5067 145.494 77.6094 145.568 77.7443C145.642 77.8791 145.679 78.0428 145.679 78.2354L145.676 80H145.327Z" fill="#18191F"/>
<path d="M78.337 70V66.5333H79.7694C79.8031 66.5333 79.8465 66.5349 79.8994 66.5381C79.9524 66.5398 80.0014 66.5446 80.0463 66.5526C80.2469 66.5831 80.4122 66.6497 80.5422 66.7524C80.6738 66.8551 80.7709 66.9851 80.8335 67.1424C80.8977 67.2981 80.9298 67.4714 80.9298 67.6624C80.9298 67.8518 80.8977 68.0251 80.8335 68.1824C80.7693 68.3381 80.6714 68.4673 80.5398 68.57C80.4098 68.6727 80.2453 68.7393 80.0463 68.7698C80.0014 68.7762 79.9516 68.781 79.897 68.7843C79.8441 68.7875 79.8015 68.7891 79.7694 68.7891H78.9172V70H78.337ZM78.9172 68.2474H79.7454C79.7775 68.2474 79.8136 68.2458 79.8537 68.2426C79.8938 68.2394 79.9307 68.233 79.9644 68.2233C80.0607 68.1993 80.1362 68.1567 80.1907 68.0957C80.2469 68.0348 80.2862 67.9657 80.3087 67.8887C80.3328 67.8117 80.3448 67.7362 80.3448 67.6624C80.3448 67.5886 80.3328 67.5131 80.3087 67.4361C80.2862 67.3575 80.2469 67.2877 80.1907 67.2267C80.1362 67.1657 80.0607 67.1231 79.9644 67.0991C79.9307 67.0894 79.8938 67.0838 79.8537 67.0822C79.8136 67.079 79.7775 67.0774 79.7454 67.0774H78.9172V68.2474ZM83.2105 70V68.7481C83.2105 68.6663 83.2048 68.5756 83.1936 68.4761C83.1824 68.3766 83.1559 68.2811 83.1142 68.1896C83.074 68.0965 83.0131 68.0203 82.9312 67.9609C82.851 67.9015 82.7418 67.8719 82.6038 67.8719C82.53 67.8719 82.4569 67.8839 82.3847 67.908C82.3125 67.932 82.2467 67.9738 82.1873 68.0331C82.1295 68.0909 82.083 68.1712 82.0477 68.2739C82.0124 68.375 81.9947 68.505 81.9947 68.6639L81.6505 68.517C81.6505 68.2956 81.693 68.0949 81.7781 67.9152C81.8647 67.7354 81.9915 67.5926 82.1584 67.4867C82.3253 67.3791 82.5308 67.3254 82.7747 67.3254C82.9673 67.3254 83.1262 67.3575 83.2514 67.4217C83.3766 67.4859 83.4761 67.5677 83.5499 67.6672C83.6237 67.7667 83.6783 67.8727 83.7136 67.985C83.7489 68.0973 83.7714 68.2041 83.781 68.3052C83.7922 68.4047 83.7979 68.4857 83.7979 68.5483V70H83.2105ZM81.4073 70V66.5333H81.9249V68.3581H81.9947V70H81.4073ZM85.5744 70.0722C85.3144 70.0722 85.0873 70.0136 84.8931 69.8965C84.6989 69.7793 84.5481 69.618 84.4405 69.4126C84.3346 69.2056 84.2816 68.968 84.2816 68.7C84.2816 68.4272 84.3362 68.188 84.4453 67.9826C84.5545 67.7772 84.7061 67.6167 84.9003 67.5011C85.0945 67.3856 85.3192 67.3278 85.5744 67.3278C85.836 67.3278 86.0639 67.3864 86.2581 67.5035C86.4523 67.6207 86.6032 67.7828 86.7107 67.9898C86.8182 68.1952 86.872 68.432 86.872 68.7C86.872 68.9696 86.8174 69.208 86.7083 69.415C86.6008 69.6204 86.4499 69.7817 86.2557 69.8989C86.0615 70.0144 85.8344 70.0722 85.5744 70.0722ZM85.5744 69.5281C85.8055 69.5281 85.9773 69.4511 86.0896 69.297C86.2019 69.143 86.2581 68.944 86.2581 68.7C86.2581 68.448 86.2011 68.2474 86.0872 68.0981C85.9732 67.9473 85.8023 67.8719 85.5744 67.8719C85.4187 67.8719 85.2903 67.9072 85.1892 67.9778C85.0897 68.0468 85.0159 68.1439 84.9678 68.2691C84.9196 68.3927 84.8955 68.5363 84.8955 68.7C84.8955 68.952 84.9525 69.1534 85.0665 69.3043C85.182 69.4535 85.3513 69.5281 85.5744 69.5281ZM89.2008 70V68.7481C89.2008 68.6663 89.1951 68.5756 89.1839 68.4761C89.1727 68.3766 89.1462 68.2811 89.1045 68.1896C89.0643 68.0965 89.0034 68.0203 88.9215 67.9609C88.8413 67.9015 88.7321 67.8719 88.5941 67.8719C88.5203 67.8719 88.4472 67.8839 88.375 67.908C88.3028 67.932 88.237 67.9738 88.1776 68.0331C88.1198 68.0909 88.0733 68.1712 88.038 68.2739C88.0027 68.375 87.985 68.505 87.985 68.6639L87.6408 68.517C87.6408 68.2956 87.6833 68.0949 87.7684 67.9152C87.855 67.7354 87.9818 67.5926 88.1487 67.4867C88.3156 67.3791 88.5211 67.3254 88.765 67.3254C88.9576 67.3254 89.1165 67.3575 89.2417 67.4217C89.3669 67.4859 89.4664 67.5677 89.5402 67.6672C89.614 67.7667 89.6686 67.8727 89.7039 67.985C89.7392 68.0973 89.7617 68.2041 89.7713 68.3052C89.7826 68.4047 89.7882 68.4857 89.7882 68.5483V70H89.2008ZM87.3976 70V67.4H87.9152V68.2065H87.985V70H87.3976ZM91.5561 70.0722C91.2929 70.0722 91.0618 70.0152 90.8628 69.9013C90.6638 69.7873 90.5081 69.6293 90.3957 69.427C90.285 69.2248 90.2296 68.9921 90.2296 68.7289C90.2296 68.4448 90.2842 68.1985 90.3933 67.9898C90.5025 67.7796 90.6541 67.6167 90.8483 67.5011C91.0425 67.3856 91.2672 67.3278 91.5224 67.3278C91.792 67.3278 92.0207 67.3912 92.2085 67.518C92.3979 67.6431 92.5383 67.8205 92.6298 68.05C92.7213 68.2795 92.7558 68.5499 92.7333 68.8613H92.158V68.6494C92.1564 68.367 92.1066 68.1607 92.0087 68.0307C91.9108 67.9007 91.7567 67.8357 91.5465 67.8357C91.309 67.8357 91.1324 67.9096 91.0169 68.0572C90.9013 68.2033 90.8435 68.4175 90.8435 68.7C90.8435 68.9632 90.9013 69.167 91.0169 69.3115C91.1324 69.4559 91.3009 69.5281 91.5224 69.5281C91.6652 69.5281 91.788 69.4969 91.8907 69.4343C91.9951 69.3701 92.0753 69.2778 92.1315 69.1574L92.7044 69.3307C92.6049 69.5651 92.4509 69.7472 92.2422 69.8772C92.0352 70.0072 91.8065 70.0722 91.5561 70.0722ZM90.6606 68.8613V68.4231H92.4493V68.8613H90.6606ZM94.427 69.687V69.0924H95.0216V69.687H94.427ZM94.4318 68.3076V67.713H95.0264V68.3076H94.4318ZM97.9898 66.4635C98.2081 66.4635 98.4055 66.5165 98.582 66.6224C98.7602 66.7267 98.9014 66.8696 99.0057 67.0509C99.11 67.2307 99.1622 67.4329 99.1622 67.6576V68.8613C99.1622 69.0924 99.11 69.2994 99.0057 69.4824C98.9014 69.6654 98.7586 69.8098 98.5772 69.9157C98.3975 70.0201 98.1928 70.0722 97.9633 70.0722C97.7659 70.0722 97.5829 70.0289 97.4144 69.9422C97.2475 69.854 97.1095 69.7328 97.0004 69.5787L97.27 69.3548C97.3438 69.4688 97.4417 69.5602 97.5637 69.6293C97.6873 69.6983 97.8205 69.7328 97.9633 69.7328C98.127 69.7328 98.2715 69.6943 98.3966 69.6172C98.5234 69.5386 98.6229 69.4359 98.6952 69.3091C98.769 69.1807 98.8059 69.0419 98.8059 68.8926V68.1367L98.8926 68.2378C98.7931 68.3967 98.6607 68.5251 98.4954 68.623C98.3316 68.7209 98.1519 68.7698 97.9561 68.7698C97.7426 68.7698 97.5492 68.7185 97.3759 68.6157C97.2042 68.513 97.0678 68.375 96.9666 68.2017C96.8671 68.0283 96.8174 67.8349 96.8174 67.6215C96.8174 67.408 96.8704 67.2138 96.9763 67.0389C97.0822 66.8623 97.2242 66.7227 97.4024 66.62C97.5805 66.5157 97.7763 66.4635 97.9898 66.4635ZM97.9898 66.8054C97.8389 66.8054 97.7017 66.8423 97.5781 66.9161C97.4545 66.9883 97.3558 67.0862 97.282 67.2098C97.2098 67.3334 97.1737 67.4706 97.1737 67.6215C97.1737 67.7723 97.2098 67.9096 97.282 68.0331C97.3542 68.1567 97.4521 68.2554 97.5757 68.3293C97.6993 68.4015 97.8365 68.4376 97.9874 68.4376C98.1383 68.4376 98.2755 68.4015 98.3991 68.3293C98.5242 68.2554 98.6229 68.1567 98.6952 68.0331C98.769 67.9096 98.8059 67.7723 98.8059 67.6215C98.8059 67.4722 98.769 67.3358 98.6952 67.2122C98.6229 67.0886 98.525 66.9899 98.4015 66.9161C98.2779 66.8423 98.1407 66.8054 97.9898 66.8054ZM100.858 70.0722C100.678 70.0722 100.512 70.0353 100.359 69.9615C100.207 69.8877 100.077 69.7857 99.9692 69.6557C99.8617 69.5257 99.7847 69.3765 99.7381 69.208L100.078 69.1165C100.108 69.2417 100.163 69.35 100.244 69.4415C100.324 69.5314 100.418 69.6012 100.525 69.6509C100.634 69.7007 100.748 69.7256 100.867 69.7256C101.021 69.7256 101.159 69.6886 101.281 69.6148C101.405 69.5394 101.503 69.4399 101.575 69.3163C101.647 69.1927 101.683 69.0571 101.683 68.9094C101.683 68.757 101.646 68.6198 101.57 68.4978C101.495 68.3742 101.395 68.2763 101.272 68.2041C101.148 68.1319 101.013 68.0957 100.867 68.0957C100.704 68.0957 100.562 68.1319 100.444 68.2041C100.325 68.2747 100.23 68.3638 100.159 68.4713L99.8368 68.3365L99.9428 66.5333H101.794V66.8728H100.099L100.275 66.7067L100.181 68.245L100.092 68.127C100.192 68.0131 100.312 67.924 100.453 67.8598C100.594 67.7956 100.743 67.7635 100.899 67.7635C101.112 67.7635 101.305 67.8149 101.476 67.9176C101.648 68.0187 101.784 68.1559 101.886 68.3293C101.987 68.5026 102.037 68.696 102.037 68.9094C102.037 69.1213 101.983 69.3155 101.876 69.492C101.768 69.667 101.626 69.8074 101.447 69.9133C101.269 70.0193 101.073 70.0722 100.858 70.0722ZM103.786 70.0722C103.569 70.0722 103.372 70.0201 103.193 69.9157C103.017 69.8098 102.876 69.667 102.77 69.4872C102.665 69.3059 102.613 69.102 102.613 68.8757V67.6744C102.613 67.4417 102.665 67.2347 102.77 67.0533C102.874 66.8704 103.016 66.7267 103.196 66.6224C103.377 66.5165 103.583 66.4635 103.812 66.4635C104.01 66.4635 104.193 66.5069 104.361 66.5935C104.531 66.6802 104.67 66.8014 104.778 66.957L104.506 67.1809C104.432 67.0654 104.334 66.9731 104.212 66.9041C104.09 66.8351 103.957 66.8006 103.812 66.8006C103.65 66.8006 103.506 66.8399 103.379 66.9185C103.252 66.9972 103.153 67.1007 103.08 67.2291C103.008 67.3559 102.972 67.4939 102.972 67.6431V68.3991L102.883 68.298C102.984 68.1391 103.116 68.0107 103.28 67.9128C103.445 67.8149 103.625 67.7659 103.819 67.7659C104.034 67.7659 104.228 67.8173 104.4 67.92C104.571 68.0211 104.708 68.1583 104.809 68.3317C104.91 68.505 104.961 68.6992 104.961 68.9143C104.961 69.1277 104.907 69.3219 104.799 69.4969C104.693 69.6718 104.551 69.8114 104.373 69.9157C104.197 70.0201 104.001 70.0722 103.786 70.0722ZM103.786 69.728C103.937 69.728 104.074 69.6919 104.197 69.6196C104.323 69.5474 104.421 69.4495 104.493 69.3259C104.567 69.2023 104.604 69.0651 104.604 68.9143C104.604 68.7634 104.567 68.6262 104.493 68.5026C104.421 68.3774 104.323 68.2787 104.2 68.2065C104.076 68.1327 103.939 68.0957 103.788 68.0957C103.637 68.0957 103.5 68.1327 103.376 68.2065C103.253 68.2787 103.154 68.3774 103.08 68.5026C103.008 68.6262 102.972 68.7634 102.972 68.9143C102.972 69.0635 103.008 69.1999 103.08 69.3235C103.153 69.4471 103.25 69.5458 103.374 69.6196C103.498 69.6919 103.635 69.728 103.786 69.728ZM105.551 68.4183V68.115H106.995V68.4183H105.551ZM107.806 70L109.082 66.8776H107.476V66.5333H109.46V66.8776L108.187 70H107.806ZM111.095 70.0722C110.878 70.0722 110.686 70.0289 110.519 69.9422C110.354 69.8556 110.224 69.7344 110.129 69.5787C110.036 69.4214 109.99 69.2377 109.99 69.0274C109.99 68.8123 110.042 68.6214 110.146 68.4544C110.25 68.2859 110.409 68.1583 110.623 68.0717L110.618 68.2113C110.44 68.1455 110.304 68.038 110.211 67.8887C110.118 67.7394 110.071 67.5741 110.071 67.3928C110.071 67.2002 110.116 67.0349 110.204 66.8969C110.292 66.7572 110.412 66.6497 110.565 66.5743C110.719 66.4988 110.896 66.4611 111.095 66.4611C111.294 66.4611 111.47 66.4988 111.624 66.5743C111.778 66.6497 111.899 66.7572 111.988 66.8969C112.076 67.0349 112.12 67.2002 112.12 67.3928C112.12 67.5741 112.075 67.7386 111.985 67.8863C111.897 68.034 111.761 68.1423 111.578 68.2113L111.566 68.0717C111.78 68.1567 111.94 68.2835 112.045 68.452C112.153 68.6206 112.207 68.8123 112.207 69.0274C112.207 69.2377 112.159 69.4214 112.065 69.5787C111.97 69.7344 111.839 69.8556 111.672 69.9422C111.505 70.0289 111.313 70.0722 111.095 70.0722ZM111.095 69.7328C111.313 69.7328 111.49 69.6726 111.627 69.5522C111.763 69.4302 111.831 69.2553 111.831 69.0274C111.831 68.7963 111.764 68.6214 111.629 68.5026C111.494 68.3822 111.316 68.322 111.095 68.322C110.873 68.322 110.696 68.3822 110.563 68.5026C110.429 68.6214 110.363 68.7963 110.363 69.0274C110.363 69.2553 110.43 69.4302 110.565 69.5522C110.7 69.6726 110.876 69.7328 111.095 69.7328ZM111.095 67.9802C111.287 67.9802 111.444 67.9312 111.564 67.8333C111.684 67.7338 111.745 67.587 111.745 67.3928C111.745 67.1986 111.684 67.0533 111.564 66.957C111.444 66.8591 111.287 66.8102 111.095 66.8102C110.902 66.8102 110.745 66.8591 110.625 66.957C110.506 67.0533 110.447 67.1986 110.447 67.3928C110.447 67.587 110.506 67.7338 110.625 67.8333C110.745 67.9312 110.902 67.9802 111.095 67.9802ZM113.854 70.0722C113.674 70.0722 113.508 70.0353 113.355 69.9615C113.203 69.8877 113.073 69.7857 112.965 69.6557C112.858 69.5257 112.781 69.3765 112.734 69.208L113.074 69.1165C113.104 69.2417 113.16 69.35 113.24 69.4415C113.32 69.5314 113.414 69.6012 113.522 69.6509C113.631 69.7007 113.745 69.7256 113.863 69.7256C114.018 69.7256 114.156 69.6886 114.278 69.6148C114.401 69.5394 114.499 69.4399 114.571 69.3163C114.643 69.1927 114.68 69.0571 114.68 68.9094C114.68 68.757 114.642 68.6198 114.566 68.4978C114.491 68.3742 114.391 68.2763 114.268 68.2041C114.144 68.1319 114.01 68.0957 113.863 68.0957C113.7 68.0957 113.559 68.1319 113.44 68.2041C113.321 68.2747 113.226 68.3638 113.156 68.4713L112.833 68.3365L112.939 66.5333H114.79V66.8728H113.095L113.271 66.7067L113.177 68.245L113.088 68.127C113.188 68.0131 113.308 67.924 113.449 67.8598C113.591 67.7956 113.739 67.7635 113.895 67.7635C114.108 67.7635 114.301 67.8149 114.473 67.9176C114.644 68.0187 114.781 68.1559 114.882 68.3293C114.983 68.5026 115.033 68.696 115.033 68.9094C115.033 69.1213 114.98 69.3155 114.872 69.492C114.765 69.667 114.622 69.8074 114.444 69.9133C114.265 70.0193 114.069 70.0722 113.854 70.0722ZM115.561 68.4183V68.115H117.006V68.4183H115.561ZM118.804 70.0722C118.587 70.0722 118.39 70.0201 118.212 69.9157C118.035 69.8098 117.894 69.667 117.788 69.4872C117.684 69.3059 117.631 69.102 117.631 68.8757V67.6744C117.631 67.4417 117.684 67.2347 117.788 67.0533C117.892 66.8704 118.034 66.7267 118.214 66.6224C118.395 66.5165 118.601 66.4635 118.83 66.4635C119.028 66.4635 119.211 66.5069 119.379 66.5935C119.549 66.6802 119.688 66.8014 119.796 66.957L119.524 67.1809C119.45 67.0654 119.352 66.9731 119.23 66.9041C119.108 66.8351 118.975 66.8006 118.83 66.8006C118.668 66.8006 118.524 66.8399 118.397 66.9185C118.27 66.9972 118.171 67.1007 118.098 67.2291C118.026 67.3559 117.99 67.4939 117.99 67.6431V68.3991L117.901 68.298C118.002 68.1391 118.135 68.0107 118.298 67.9128C118.464 67.8149 118.643 67.7659 118.837 67.7659C119.053 67.7659 119.246 67.8173 119.418 67.92C119.589 68.0211 119.726 68.1583 119.827 68.3317C119.928 68.505 119.979 68.6992 119.979 68.9143C119.979 69.1277 119.925 69.3219 119.817 69.4969C119.711 69.6718 119.569 69.8114 119.391 69.9157C119.215 70.0201 119.019 70.0722 118.804 70.0722ZM118.804 69.728C118.955 69.728 119.092 69.6919 119.215 69.6196C119.341 69.5474 119.439 69.4495 119.512 69.3259C119.585 69.2023 119.622 69.0651 119.622 68.9143C119.622 68.7634 119.585 68.6262 119.512 68.5026C119.439 68.3774 119.341 68.2787 119.218 68.2065C119.094 68.1327 118.957 68.0957 118.806 68.0957C118.655 68.0957 118.518 68.1327 118.395 68.2065C118.271 68.2787 118.172 68.3774 118.098 68.5026C118.026 68.6262 117.99 68.7634 117.99 68.9143C117.99 69.0635 118.026 69.1999 118.098 69.3235C118.171 69.4471 118.269 69.5458 118.392 69.6196C118.516 69.6919 118.653 69.728 118.804 69.728ZM121.749 70.0722C121.535 70.0722 121.343 70.0225 121.171 69.923C121.001 69.8235 120.866 69.6886 120.766 69.5185C120.667 69.3468 120.617 69.1542 120.617 68.9407V67.5926C120.617 67.3791 120.667 67.1873 120.766 67.0172C120.866 66.8455 121.001 66.7099 121.171 66.6104C121.343 66.5109 121.535 66.4611 121.749 66.4611C121.962 66.4611 122.154 66.5109 122.324 66.6104C122.496 66.7099 122.631 66.8455 122.731 67.0172C122.83 67.1873 122.88 67.3791 122.88 67.5926V68.9407C122.88 69.1542 122.83 69.3468 122.731 69.5185C122.631 69.6886 122.496 69.8235 122.324 69.923C122.154 70.0225 121.962 70.0722 121.749 70.0722ZM121.749 69.7304C121.891 69.7304 122.021 69.6959 122.139 69.6269C122.256 69.5562 122.349 69.4623 122.418 69.3452C122.487 69.228 122.521 69.0988 122.521 68.9576V67.5757C122.521 67.4329 122.487 67.3029 122.418 67.1857C122.349 67.0686 122.256 66.9755 122.139 66.9065C122.021 66.8359 121.891 66.8006 121.749 66.8006C121.606 66.8006 121.476 66.8359 121.359 66.9065C121.241 66.9755 121.148 67.0686 121.079 67.1857C121.01 67.3029 120.976 67.4329 120.976 67.5757V68.9576C120.976 69.0988 121.01 69.228 121.079 69.3452C121.148 69.4623 121.241 69.5562 121.359 69.6269C121.476 69.6959 121.606 69.7304 121.749 69.7304ZM124.728 70.0722C124.512 70.0722 124.314 70.0201 124.136 69.9157C123.96 69.8098 123.818 69.667 123.712 69.4872C123.608 69.3059 123.556 69.102 123.556 68.8757V67.6744C123.556 67.4417 123.608 67.2347 123.712 67.0533C123.817 66.8704 123.959 66.7267 124.138 66.6224C124.32 66.5165 124.525 66.4635 124.755 66.4635C124.952 66.4635 125.135 66.5069 125.304 66.5935C125.474 66.6802 125.613 66.8014 125.72 66.957L125.448 67.1809C125.374 67.0654 125.276 66.9731 125.154 66.9041C125.032 66.8351 124.899 66.8006 124.755 66.8006C124.593 66.8006 124.448 66.8399 124.321 66.9185C124.195 66.9972 124.095 67.1007 124.023 67.2291C123.951 67.3559 123.915 67.4939 123.915 67.6431V68.3991L123.825 68.298C123.927 68.1391 124.059 68.0107 124.223 67.9128C124.388 67.8149 124.568 67.7659 124.762 67.7659C124.977 67.7659 125.17 67.8173 125.342 67.92C125.514 68.0211 125.65 68.1583 125.751 68.3317C125.853 68.505 125.903 68.6992 125.903 68.9143C125.903 69.1277 125.849 69.3219 125.742 69.4969C125.636 69.6718 125.494 69.8114 125.316 69.9157C125.139 70.0201 124.943 70.0722 124.728 70.0722ZM124.728 69.728C124.879 69.728 125.016 69.6919 125.14 69.6196C125.265 69.5474 125.364 69.4495 125.436 69.3259C125.51 69.2023 125.547 69.0651 125.547 68.9143C125.547 68.7634 125.51 68.6262 125.436 68.5026C125.364 68.3774 125.266 68.2787 125.142 68.2065C125.019 68.1327 124.882 68.0957 124.731 68.0957C124.58 68.0957 124.443 68.1327 124.319 68.2065C124.195 68.2787 124.097 68.3774 124.023 68.5026C123.951 68.6262 123.915 68.7634 123.915 68.9143C123.915 69.0635 123.951 69.1999 124.023 69.3235C124.095 69.4471 124.193 69.5458 124.317 69.6196C124.44 69.6919 124.577 69.728 124.728 69.728ZM127.075 70V66.9281L126.423 67.3206V66.9233L127.075 66.5333H127.434V70H127.075Z" fill="#18191F"/>
</svg>
