<svg width="28" height="31" viewBox="0 0 28 31" fill="none" xmlns="http://www.w3.org/2000/svg">
<path d="M8.17929 1.66632C12.2626 1.66632 15.5726 4.9766 15.5726 9.05959C15.5726 13.1429 12.2623 16.4529 8.17929 16.4529C4.09641 16.4529 0.786011 13.1426 0.786011 9.05959C0.786011 4.97626 4.0963 1.66632 8.17929 1.66632ZM16.9947 22.3296C16.1666 21.7684 17.0193 20.5105 17.8472 21.0715L19.614 22.2686L22.6124 18.3038C23.2149 17.5062 24.4304 18.425 23.8284 19.2217L20.3948 23.762L20.393 23.7605C20.1511 24.0816 19.697 24.16 19.3605 23.9319L16.9947 22.3294L16.9947 22.3296ZM5.97557 11.8814C5.43454 11.0381 6.71395 10.215 7.25734 11.0589C7.76282 11.8443 9.21843 11.5405 9.21843 10.668C9.21843 9.24642 5.61361 10.4455 5.61361 7.45103C5.61361 6.36215 6.40047 5.47915 7.41602 5.18658V4.92232C7.41602 3.91772 8.94187 3.91772 8.94187 4.92232V5.18723C9.53275 5.35822 10.0542 5.72761 10.3824 6.2379C10.9243 7.07921 9.64423 7.90468 9.10061 7.06033C8.59513 6.27459 7.13974 6.58053 7.13974 7.45102C7.13974 8.10179 7.57784 8.15118 8.33684 8.31424C9.54051 8.57323 10.7444 8.83223 10.7444 10.6678C10.7444 11.763 9.95686 12.637 8.94199 12.9316V13.1969C8.94199 14.2015 7.41613 14.2015 7.41613 13.1969V12.9316C6.82419 12.7602 6.30529 12.3919 5.97563 11.8814L5.97557 11.8814ZM8.8695 25.4728C8.27537 24.6712 9.49876 23.7652 10.0918 24.5663L11.8334 26.9255C12.1297 27.296 12.0683 27.7703 11.6941 28.0502L9.19149 30.0449C8.41058 30.6667 7.46196 29.4751 8.24376 28.8526L9.31595 27.9982C4.73131 27.0878 1.34506 23.0464 1.34506 18.277C1.34506 17.2724 2.87091 17.2724 2.87091 18.277C2.87091 22.318 5.74444 25.7411 9.63038 26.5047L8.86897 25.4731L8.8695 25.4728ZM20.3207 13.6395C24.404 13.6395 27.714 16.9493 27.714 21.0328C27.714 25.1162 24.4037 28.4261 20.3207 28.4261C16.2374 28.4261 12.9274 25.1158 12.9274 21.0328C12.9274 16.9499 16.2377 13.6395 20.3207 13.6395ZM20.3207 15.1654C17.0804 15.1654 14.4535 17.7922 14.4535 21.0326C14.4535 24.2733 17.0803 26.9003 20.3207 26.9003C23.5611 26.9003 26.1879 24.2735 26.1879 21.0326C26.1879 17.7923 23.5611 15.1654 20.3207 15.1654ZM19.6302 5.52792C20.2243 6.32951 19.001 7.23554 18.4079 6.43441L16.6663 4.07517C16.37 3.70467 16.4314 3.23038 16.8056 2.9505L19.3082 0.955813C20.0891 0.334031 21.0378 1.52562 20.2559 2.14808L19.1838 3.00253C23.768 3.91273 27.1546 7.95436 27.1546 12.7237C27.1546 13.7283 25.6288 13.7283 25.6288 12.7237C25.6288 8.68273 22.7553 5.25962 18.8693 4.49602L19.6307 5.52758L19.6302 5.52792ZM8.179 3.19172C4.93873 3.19172 2.31181 5.81853 2.31181 9.05892C2.31181 12.2996 4.93862 14.9261 8.179 14.9261C11.4194 14.9261 14.0462 12.2998 14.0462 9.05892C14.0462 5.81864 11.4194 3.19172 8.179 3.19172Z" fill="#18191F"/>
</svg>
