<svg width="44" height="45" viewBox="0 0 44 45" fill="none" xmlns="http://www.w3.org/2000/svg">
<rect y="0.308594" width="44" height="44" rx="22" fill="#D98FDB" fill-opacity="0.15"/>
<path d="M23.8599 19.4846L19.2799 20.0586L19.1159 20.8186L20.0159 20.9846C20.6039 21.1246 20.7199 21.3366 20.5919 21.9226L19.1159 28.8586C18.7279 30.6526 19.3259 31.4966 20.7319 31.4966C21.8219 31.4966 23.0879 30.9926 23.6619 30.3006L23.8379 29.4686C23.4379 29.8206 22.8539 29.9606 22.4659 29.9606C21.9159 29.9606 21.7159 29.5746 21.8579 28.8946L23.8599 19.4846ZM23.9999 15.3086C23.9999 15.839 23.7892 16.3477 23.4141 16.7228C23.039 17.0979 22.5303 17.3086 21.9999 17.3086C21.4695 17.3086 20.9608 17.0979 20.5857 16.7228C20.2106 16.3477 19.9999 15.839 19.9999 15.3086C19.9999 14.7782 20.2106 14.2695 20.5857 13.8944C20.9608 13.5193 21.4695 13.3086 21.9999 13.3086C22.5303 13.3086 23.039 13.5193 23.4141 13.8944C23.7892 14.2695 23.9999 14.7782 23.9999 15.3086Z" fill="#D17FD3"/>
</svg>
