<svg width="44" height="45" viewBox="0 0 44 45" fill="none" xmlns="http://www.w3.org/2000/svg">
<rect y="0.546875" width="44" height="44" rx="22" fill="#E3ECFF"/>
<path d="M23.8599 19.7229L19.2799 20.2969L19.1159 21.0569L20.0159 21.2229C20.6039 21.3629 20.7199 21.5749 20.5919 22.1609L19.1159 29.0969C18.7279 30.8909 19.3259 31.7349 20.7319 31.7349C21.8219 31.7349 23.0879 31.2309 23.6619 30.5389L23.8379 29.7069C23.4379 30.0589 22.8539 30.1989 22.4659 30.1989C21.9159 30.1989 21.7159 29.8129 21.8579 29.1329L23.8599 19.7229ZM23.9999 15.5469C23.9999 16.0773 23.7892 16.586 23.4141 16.9611C23.039 17.3362 22.5303 17.5469 21.9999 17.5469C21.4695 17.5469 20.9608 17.3362 20.5857 16.9611C20.2106 16.586 19.9999 16.0773 19.9999 15.5469C19.9999 15.0164 20.2106 14.5077 20.5857 14.1327C20.9608 13.7576 21.4695 13.5469 21.9999 13.5469C22.5303 13.5469 23.039 13.7576 23.4141 14.1327C23.7892 14.5077 23.9999 15.0164 23.9999 15.5469Z" fill="#7C95CD"/>
</svg>
