<svg width="28" height="42" viewBox="0 0 28 42" fill="none" xmlns="http://www.w3.org/2000/svg">
<path d="M19.3547 18.0193L26.5 1.83301L19.3547 18.0193ZM9.85566 18.3777L1.58333 1.83301L9.85566 18.3777ZM16.4586 17.2583L8.93375 1.83301L16.4586 17.2583ZM19.5233 1.83301L17.53 6.62467L19.5233 1.83301ZM3.49999 28.6663C3.49999 31.7163 4.7116 34.6414 6.86827 36.7981C9.02494 38.9547 11.95 40.1663 15 40.1663C18.05 40.1663 20.9751 38.9547 23.1317 36.7981C25.2884 34.6414 26.5 31.7163 26.5 28.6663C26.5 25.6164 25.2884 22.6913 23.1317 20.5346C20.9751 18.3779 18.05 17.1663 15 17.1663C11.95 17.1663 9.02494 18.3779 6.86827 20.5346C4.7116 22.6913 3.49999 25.6164 3.49999 28.6663V28.6663Z" stroke="white" strokeWidth="2" stroke-linecap="round" stroke-linejoin="round"/>
</svg>
