<svg width="34" height="31" viewBox="0 0 34 31" fill="none" xmlns="http://www.w3.org/2000/svg">
<path d="M30.3333 6.98014H25.3333V3.64681C25.3333 1.80848 23.8383 0.313477 22 0.313477H12C10.1616 0.313477 8.66665 1.80848 8.66665 3.64681V6.98014H3.66665C1.82831 6.98014 0.333313 8.47514 0.333313 10.3135V26.9801C0.333313 28.8185 1.82831 30.3135 3.66665 30.3135H30.3333C32.1716 30.3135 33.6666 28.8185 33.6666 26.9801V10.3135C33.6666 8.47514 32.1716 6.98014 30.3333 6.98014ZM12 3.64681H22V6.98014H12V3.64681ZM3.66665 26.9801V10.3135H30.3333L30.335 26.9801H3.66665Z" fill="white"/>
</svg>
