<svg width="49" height="49" viewBox="0 0 49 49" fill="none" xmlns="http://www.w3.org/2000/svg">
<path d="M28.0391 16.5H9.3724C9.01877 16.5 8.67964 16.3595 8.42959 16.1095C8.17954 15.8594 8.03906 15.5203 8.03906 15.1667V9.83333C8.03906 9.47971 8.17954 9.14057 8.42959 8.89052C8.67964 8.64048 9.01877 8.5 9.3724 8.5H28.0391C28.3927 8.5 28.7318 8.64048 28.9819 8.89052C29.2319 9.14057 29.3724 9.47971 29.3724 9.83333V15.1667C29.3724 15.5203 29.2319 15.8594 28.9819 16.1095C28.7318 16.3595 28.3927 16.5 28.0391 16.5ZM10.7057 13.8333H26.7057V11.0867H10.7057V13.8333Z" fill="white"/>
<path d="M28.0391 19.2734H9.3724C9.01877 19.2734 8.67964 19.4139 8.42959 19.664C8.17954 19.914 8.03906 20.2531 8.03906 20.6068V25.8334C8.03906 26.1871 8.17954 26.5262 8.42959 26.7762C8.67964 27.0263 9.01877 27.1668 9.3724 27.1668H24.5191L29.3724 22.2334V20.6068C29.3724 20.2531 29.2319 19.914 28.9819 19.664C28.7318 19.4139 28.3927 19.2734 28.0391 19.2734ZM26.7057 24.5001H10.7057V21.8334H26.7057V24.5001Z" fill="white"/>
<path d="M14.7857 42.5137V42.4337L15.2124 40.5803H5.37236V5.83366H32.039V19.5003L34.7057 16.9803V4.50033C34.7057 4.1467 34.5652 3.80756 34.3152 3.55752C34.0651 3.30747 33.726 3.16699 33.3724 3.16699H4.03902C3.6854 3.16699 3.34626 3.30747 3.09621 3.55752C2.84616 3.80756 2.70569 4.1467 2.70569 4.50033V41.8337C2.70569 42.1873 2.84616 42.5264 3.09621 42.7765C3.34626 43.0265 3.6854 43.167 4.03902 43.167H14.7057C14.7167 42.9476 14.7434 42.7292 14.7857 42.5137Z" fill="white"/>
<path d="M29.3724 26.0596L28.3324 27.1129C28.5904 27.0597 28.8269 26.9313 29.012 26.7438C29.1971 26.5563 29.3225 26.3182 29.3724 26.0596Z" fill="white"/>
<path d="M8.03906 36.4197C8.03906 36.7733 8.17954 37.1124 8.42959 37.3625C8.67964 37.6125 9.01877 37.753 9.3724 37.753H15.8257L16.2257 36.0197L16.3991 35.2863V35.2197H10.7057V32.4997H19.1591L21.8257 29.833H9.3724C9.01877 29.833 8.67964 29.9735 8.42959 30.2235C8.17954 30.4736 8.03906 30.8127 8.03906 31.1663V36.4197Z" fill="white"/>
<path d="M44.6924 22.7267L40.199 18.2334C39.9996 18.0334 39.7627 17.8748 39.5019 17.7665C39.2411 17.6583 38.9614 17.6025 38.679 17.6025C38.3966 17.6025 38.117 17.6583 37.8562 17.7665C37.5954 17.8748 37.3584 18.0334 37.159 18.2334L18.879 36.62L17.3724 43.0334C17.316 43.31 17.3147 43.5951 17.3686 43.8723C17.4226 44.1495 17.5307 44.4133 17.6867 44.6486C17.8428 44.8839 18.0438 45.0862 18.2781 45.2437C18.5124 45.4012 18.7755 45.511 19.0524 45.5667C19.1898 45.5805 19.3283 45.5805 19.4657 45.5667C19.6291 45.5933 19.7957 45.5933 19.959 45.5667L26.4257 44.14L44.6924 25.8334C44.8919 25.6351 45.0503 25.3993 45.1584 25.1396C45.2664 24.8799 45.3221 24.6013 45.3221 24.32C45.3221 24.0387 45.2664 23.7602 45.1584 23.5005C45.0503 23.2408 44.8919 23.005 44.6924 22.8067V22.7267ZM25.0657 41.7134L20.1857 42.7934L21.3724 37.9534L35.079 24.1L38.839 27.86L25.0657 41.7134ZM40.3457 26.3534L36.5857 22.5934L38.7057 20.5L42.4924 24.2867L40.3457 26.3534Z" fill="white"/>
</svg>
