<svg width="43" height="41" viewBox="0 0 43 41" fill="none" xmlns="http://www.w3.org/2000/svg">
<path d="M41.2715 17.8734C42.8708 17.8734 43.5385 15.8186 42.2394 14.8714L22.473 0.493115C22.1908 0.2863 21.8499 0.174805 21.5 0.174805C21.1501 0.174805 20.8092 0.2863 20.527 0.493115L0.76064 14.8714C-0.538481 15.8134 0.129195 17.8734 1.73369 17.8734H4.9375V37.2308H1.21093C0.983198 37.2308 0.79687 37.4172 0.79687 37.6449V40.3363C0.79687 40.564 0.983198 40.7504 1.21093 40.7504H41.7891C42.0168 40.7504 42.2031 40.564 42.2031 40.3363V37.6449C42.2031 37.4172 42.0168 37.2308 41.7891 37.2308H38.0625V17.8734H41.2715ZM21.5 4.14204L35.5315 14.3487H7.46845L21.5 4.14204ZM8.66406 17.8734H14.7197V37.2308H8.66406V17.8734ZM18.4463 17.8734H24.502V37.2308H18.4463V17.8734ZM34.3359 37.2308H28.2285V17.8734H34.3359V37.2308Z" fill="white"/>
</svg>
