<svg width="590" height="440" viewBox="0 0 590 440" fill="none" xmlns="http://www.w3.org/2000/svg">
<g clip-path="url(#clip0_302_3180)">
<path d="M50.5535 434.619C33.8783 426.485 -5.96611 415.007 0.979905 365.776C3.21595 349.982 23.5545 325.96 38.3742 320.007C95.6075 297.052 81.9533 277.772 57.1903 236.154C37.9222 191.784 47.1995 113.527 91.0878 90.0731C119.443 74.9197 170.206 97.0926 199.988 85.022C232.125 71.9791 235.337 35.1981 266.332 19.6415C359.318 -27.0283 495.099 15.6101 499.309 120.712C507.016 312.324 657.711 239.189 552.808 437.227L50.5535 434.619Z" fill="#E3E9FF"/>
<g clip-path="url(#clip1_302_3180)">
<path d="M508.26 417.643H107.869V423.418H508.26V417.643Z" fill="#C0D8FB"/>
<path d="M512.38 423.418H103.782V429.193H512.38V423.418Z" fill="#AFCDFB"/>
<path d="M518 429.225H98.1295V435H518V429.225Z" fill="#95C0F4"/>
<path d="M491.654 196.623H117.194V417.675H491.654V196.623Z" fill="#66A4ED"/>
<path d="M517.106 200.835H95L309.885 92L517.106 200.835Z" fill="white"/>
<path d="M159.06 186.285L453.014 185.679L309.725 111.24L159.06 186.285Z" fill="#548EE2"/>
<path d="M508.132 200.835H106.017V208.11H508.132V200.835Z" fill="#3A4ACE"/>
<path d="M175.474 200.835H135.876V214.842H175.474V200.835Z" fill="white"/>
<path d="M166.596 214.842H144.753V417.642H166.596V214.842Z" fill="white"/>
<path d="M261.058 200.835H221.459V214.842H261.058V200.835Z" fill="white"/>
<path d="M252.18 214.842H230.337V417.642H252.18V214.842Z" fill="white"/>
<path d="M395.596 200.835H355.998V214.842H395.596V200.835Z" fill="white"/>
<path d="M386.719 214.842H364.876V417.642H386.719V214.842Z" fill="white"/>
<path d="M476.198 200.835H436.6V214.842H476.198V200.835Z" fill="white"/>
<path d="M467.32 214.842H445.478V417.642H467.32V214.842Z" fill="white"/>
<path d="M211.304 289.313H185.661V249.748C185.661 249.493 185.885 249.27 186.14 249.27H210.889C211.145 249.27 211.336 249.461 211.336 249.716V289.313H211.304Z" fill="#3A4ACE"/>
<path d="M211.304 375.239H185.661V335.674C185.661 335.419 185.885 335.195 186.14 335.195H210.889C211.145 335.195 211.336 335.387 211.336 335.642V375.239H211.304Z" fill="#3A4ACE"/>
<path d="M429.287 289.313H403.644V249.748C403.644 249.493 403.867 249.27 404.123 249.27H428.872C429.127 249.27 429.319 249.461 429.319 249.716V289.313H429.287Z" fill="#3A4ACE"/>
<path d="M429.159 375.239H403.516V335.674C403.516 335.419 403.74 335.195 403.995 335.195H428.744C428.999 335.195 429.191 335.387 429.191 335.642V375.239H429.159Z" fill="#3A4ACE"/>
<path d="M144.753 223.999C144.753 223.999 147.979 218.001 155.675 218.288C164.042 218.607 166.596 223.999 166.596 223.999V214.842H144.753V223.999Z" fill="#DCEAFF"/>
<path d="M230.337 223.999C230.337 223.999 233.562 218.001 241.258 218.288C249.625 218.607 252.18 223.999 252.18 223.999V214.842H230.337V223.999Z" fill="#DCEAFF"/>
<path d="M364.876 223.999C364.876 223.999 368.101 218.001 375.797 218.288C384.164 218.607 386.719 223.999 386.719 223.999V214.842H364.876V223.999Z" fill="#DCEAFF"/>
<path d="M445.478 223.999C445.478 223.999 448.703 218.001 456.399 218.288C464.766 218.607 467.32 223.999 467.32 223.999V214.842H445.478V223.999Z" fill="#DCEAFF"/>
<path d="M175.474 200.803H135.876V203.228H175.474V200.803Z" fill="#DCEAFF"/>
<path d="M261.058 200.803H221.459V203.228H261.058V200.803Z" fill="#DCEAFF"/>
<path d="M395.596 200.803H355.998V203.228H395.596V200.803Z" fill="#DCEAFF"/>
<path d="M476.198 200.803H436.6V203.228H476.198V200.803Z" fill="#DCEAFF"/>
<path d="M305.223 113.506L442.093 185.711H453.014L309.725 111.24L305.223 113.506Z" fill="#3E80CE"/>
<path d="M212.23 290.238H184.735V261.331C184.735 254.183 190.547 248.408 197.7 248.408H200C206.77 248.408 212.262 253.896 212.262 260.66V290.238H212.23ZM186.555 288.42H210.378V260.629C210.378 254.885 205.716 250.227 199.968 250.227H197.668C191.537 250.227 186.555 255.204 186.555 261.331V288.42Z" fill="white"/>
<path d="M210.889 261.012H185.853V262.735H210.889V261.012Z" fill="white"/>
<path d="M199.201 261.873H197.509V289.185H199.201V261.873Z" fill="white"/>
<path d="M429.862 290.238H402.366V261.331C402.366 254.183 408.178 248.408 415.332 248.408H417.599C424.369 248.408 429.862 253.896 429.862 260.66V290.238ZM404.187 288.42H428.01V260.629C428.01 254.885 423.347 250.227 417.599 250.227H415.332C409.2 250.227 404.219 255.204 404.219 261.331V288.42H404.187Z" fill="white"/>
<path d="M428.52 261.012H403.484V262.735H428.52V261.012Z" fill="white"/>
<path d="M416.833 261.873H415.14V289.185H416.833V261.873Z" fill="white"/>
<path d="M430.085 376.163H402.59V347.255C402.59 340.108 408.402 334.333 415.523 334.333H417.823C424.593 334.333 430.085 339.821 430.085 346.585V376.163ZM404.442 374.344H428.265V346.553C428.265 340.81 423.603 336.152 417.854 336.152H415.555C409.424 336.152 404.442 341.129 404.442 347.255V374.344Z" fill="white"/>
<path d="M428.744 346.937H403.708V348.66H428.744V346.937Z" fill="white"/>
<path d="M417.088 347.798H415.396V375.11H417.088V347.798Z" fill="white"/>
<path d="M212.103 376.163H184.607V347.255C184.607 340.108 190.419 334.333 197.573 334.333H199.84C206.61 334.333 212.103 339.821 212.103 346.585V376.163ZM186.459 374.344H210.282V346.553C210.282 340.81 205.62 336.152 199.872 336.152H197.604C191.473 336.152 186.491 341.129 186.491 347.255V374.344H186.459Z" fill="white"/>
<path d="M210.761 346.937H185.725V348.66H210.761V346.937Z" fill="white"/>
<path d="M199.105 347.798H197.413V375.11H199.105V347.798Z" fill="white"/>
<path d="M192.048 238.74C192.048 238.74 197.541 236.89 206.003 238.74L203.065 246.079C203.065 246.079 199.01 245.537 195.018 246.079L192.048 238.74Z" fill="#B3D2F6"/>
<path d="M193.932 246.271L190.739 240.049C190.739 240.049 187.258 240.751 185.98 242.123L191.282 246.941L193.932 246.271Z" fill="#B3D2F6"/>
<path d="M204.087 246.27L206.993 240.112C206.993 240.112 210.027 240.399 211.751 242.186L206.482 246.908L204.087 246.27Z" fill="#B3D2F6"/>
<path d="M192.048 320.422C192.048 320.422 197.541 317.646 206.003 320.422L203.065 331.526C203.065 331.526 199.01 330.696 195.018 331.526L192.048 320.422Z" fill="#B3D2F6"/>
<path d="M193.932 331.781L190.739 322.368C190.739 322.368 187.258 323.453 185.98 325.495L191.282 332.77L193.932 331.781Z" fill="#B3D2F6"/>
<path d="M204.087 331.845L206.993 322.528C206.993 322.528 210.027 322.975 211.751 325.655L206.482 332.77L204.087 331.845Z" fill="#B3D2F6"/>
<path d="M409.647 234.56C409.647 234.56 415.14 231.784 423.603 234.56L420.665 245.664C420.665 245.664 416.609 244.834 412.617 245.664L409.647 234.56Z" fill="#B3D2F6"/>
<path d="M411.532 245.918L408.338 236.506C408.338 236.506 404.857 237.591 403.58 239.633L408.881 246.908L411.532 245.918Z" fill="#B3D2F6"/>
<path d="M421.687 245.951L424.593 236.634C424.593 236.634 427.626 237.08 429.351 239.761L424.082 246.876L421.687 245.951Z" fill="#B3D2F6"/>
<path d="M409.52 320.422C409.52 320.422 415.012 317.646 423.475 320.422L420.537 331.526C420.537 331.526 416.481 330.696 412.49 331.526L409.52 320.422Z" fill="#B3D2F6"/>
<path d="M411.404 331.781L408.21 322.368C408.21 322.368 404.73 323.453 403.452 325.495L408.753 332.77L411.404 331.781Z" fill="#B3D2F6"/>
<path d="M421.559 331.845L424.465 322.528C424.465 322.528 427.499 322.975 429.223 325.655L423.954 332.77L421.559 331.845Z" fill="#B3D2F6"/>
</g>
<path d="M362.696 56.8491C356.82 56.8491 352.063 52.0825 352.063 46.2487C352.063 40.3913 356.844 35.6484 362.696 35.6484C368.572 35.6484 373.329 40.415 373.329 46.2487C373.329 52.0825 368.548 56.8491 362.696 56.8491ZM362.696 37.8302C358.034 37.8302 354.251 41.6007 354.251 46.2487C354.251 50.8968 358.034 54.6673 362.696 54.6673C367.358 54.6673 371.141 50.8968 371.141 46.2487C371.141 41.6007 367.335 37.8302 362.696 37.8302Z" fill="#F7F9FF"/>
<path d="M463.491 286.736C457.616 286.736 452.858 281.969 452.858 276.135C452.858 270.278 457.64 265.535 463.491 265.535C469.367 265.535 474.124 270.302 474.124 276.135C474.124 281.969 469.343 286.736 463.491 286.736ZM463.491 267.717C458.829 267.717 455.047 271.487 455.047 276.135C455.047 280.783 458.829 284.554 463.491 284.554C468.154 284.554 471.936 280.783 471.936 276.135C471.936 271.487 468.13 267.717 463.491 267.717Z" fill="#F7F9FF"/>
<path d="M572.979 439.836H50.5535C49.1024 439.836 47.9368 438.674 47.9368 437.228C47.9368 435.781 49.1024 434.619 50.5535 434.619H572.979C574.43 434.619 575.596 435.781 575.596 437.228C575.596 438.674 574.407 439.836 572.979 439.836Z" fill="#2C2858"/>
<path d="M85.236 331.533C79.3604 331.533 74.6029 326.766 74.6029 320.932C74.6029 315.075 79.3842 310.332 85.236 310.332C91.1116 310.332 95.8691 315.099 95.8691 320.932C95.8691 326.766 91.0878 331.533 85.236 331.533ZM85.236 312.49C80.5736 312.49 76.7913 316.261 76.7913 320.909C76.7913 325.557 80.5736 329.327 85.236 329.327C89.8984 329.327 93.6806 325.557 93.6806 320.909C93.6806 316.261 89.8746 312.49 85.236 312.49Z" fill="#F7F9FF"/>
<path d="M115.571 345.122C115.664 341.6 112.876 338.67 109.343 338.577C105.81 338.485 102.87 341.265 102.777 344.787C102.684 348.309 105.473 351.239 109.006 351.332C112.539 351.424 115.478 348.644 115.571 345.122Z" fill="#F7F9FF"/>
<path d="M346.306 25.6653C346.306 29.175 343.452 32.0445 339.907 32.0445C336.387 32.0445 333.508 29.1987 333.508 25.6653C333.508 22.1556 336.363 19.2861 339.907 19.2861C343.452 19.2861 346.306 22.1556 346.306 25.6653Z" fill="#F7F9FF"/>
<path d="M554.14 294.349C554.14 297.859 551.285 300.728 547.741 300.728C544.196 300.728 541.342 297.882 541.342 294.349C541.342 290.839 544.196 287.97 547.741 287.97C551.285 287.97 554.14 290.815 554.14 294.349Z" fill="#F7F9FF"/>
</g>
<defs>
<clipPath id="clip0_302_3180">
<rect width="589.626" height="439" fill="white" transform="translate(0.171082 0.835938)"/>
</clipPath>
<clipPath id="clip1_302_3180">
<rect width="423" height="343" fill="white" transform="translate(95 92)"/>
</clipPath>
</defs>
</svg>
