<svg width="604" height="439" viewBox="0 0 604 439" fill="none" xmlns="http://www.w3.org/2000/svg">
<path d="M50.3783 433.778C33.7031 425.644 -6.14137 414.166 0.804643 364.935C3.04069 349.142 23.3792 325.119 38.1989 319.167C95.4322 296.211 81.7781 276.931 57.015 235.313C37.747 190.943 47.0242 112.686 90.9126 89.2323C119.268 74.0788 170.031 96.2518 199.813 84.1812C231.95 71.1383 235.161 34.3573 266.157 18.8007C359.143 -27.8691 494.923 14.7693 499.134 119.871C506.841 311.483 657.536 238.348 552.632 436.387L50.3783 433.778Z" fill="#E3E9FF"/>
<path d="M362.52 56.0092C356.645 56.0092 351.887 51.2426 351.887 45.4089C351.887 39.5515 356.669 34.8086 362.52 34.8086C368.396 34.8086 373.153 39.5752 373.153 45.4089C373.153 51.2426 368.372 56.0092 362.52 56.0092ZM362.52 36.9903C357.858 36.9903 354.076 40.7609 354.076 45.4089C354.076 50.0569 357.858 53.8275 362.52 53.8275C367.183 53.8275 370.965 50.0569 370.965 45.4089C370.965 40.7609 367.159 36.9903 362.52 36.9903Z" fill="#F7F9FF"/>
<path d="M463.316 285.896C457.44 285.896 452.683 281.129 452.683 275.296C452.683 269.438 457.464 264.695 463.316 264.695C469.191 264.695 473.949 269.462 473.949 275.296C473.949 281.129 469.167 285.896 463.316 285.896ZM463.316 266.877C458.653 266.877 454.871 270.648 454.871 275.296C454.871 279.944 458.653 283.714 463.316 283.714C467.978 283.714 471.76 279.944 471.76 275.296C471.76 270.648 467.954 266.877 463.316 266.877Z" fill="#F7F9FF"/>
<path d="M572.804 438.994H50.3779C48.9268 438.994 47.7612 437.832 47.7612 436.386C47.7612 434.939 48.9268 433.777 50.3779 433.777H572.804C574.255 433.777 575.42 434.939 575.42 436.386C575.42 437.832 574.231 438.994 572.804 438.994Z" fill="#2C2858"/>
<path d="M85.0604 330.693C79.1848 330.693 74.4272 325.926 74.4272 320.093C74.4272 314.235 79.2086 309.492 85.0604 309.492C90.9359 309.492 95.6935 314.259 95.6935 320.093C95.6935 325.926 90.9122 330.693 85.0604 330.693ZM85.0604 311.65C80.398 311.65 76.6157 315.421 76.6157 320.069C76.6157 324.717 80.398 328.487 85.0604 328.487C89.7228 328.487 93.505 324.717 93.505 320.069C93.505 315.421 89.699 311.65 85.0604 311.65Z" fill="#F7F9FF"/>
<path d="M115.396 344.282C115.489 340.76 112.7 337.83 109.167 337.737C105.634 337.645 102.695 340.425 102.602 343.947C102.509 347.469 105.298 350.399 108.831 350.492C112.364 350.585 115.303 347.804 115.396 344.282Z" fill="#F7F9FF"/>
<path d="M346.131 24.8245C346.131 28.3342 343.276 31.2036 339.732 31.2036C336.211 31.2036 333.333 28.3579 333.333 24.8245C333.333 21.3147 336.188 18.4453 339.732 18.4453C343.276 18.4453 346.131 21.3147 346.131 24.8245Z" fill="#F7F9FF"/>
<path d="M553.964 293.508C553.964 297.018 551.11 299.887 547.565 299.887C544.021 299.887 541.167 297.042 541.167 293.508C541.167 289.998 544.021 287.129 547.565 287.129C551.11 287.129 553.964 289.975 553.964 293.508Z" fill="#F7F9FF"/>
<g clip-path="url(#clip0_1233_5999)">
<path d="M549.864 191.164L510.324 321.916L512.553 322.591L552.093 191.839L549.864 191.164Z" fill="#050558"/>
<path d="M552.095 191.108L549.891 191.861L594.476 322.618L596.68 321.865L552.095 191.108Z" fill="#050558"/>
<path d="M552.159 191.504H549.831V322.259H552.159V191.504Z" fill="#050558"/>
<path d="M240.114 191.172L237.885 191.848L277.425 322.6L279.654 321.925L240.114 191.172Z" fill="#050558"/>
<path d="M237.911 191.132L193.326 321.889L195.53 322.642L240.114 191.885L237.911 191.132Z" fill="#050558"/>
<path d="M240.176 191.504H237.848V322.259H240.176V191.504Z" fill="#050558"/>
<path d="M186.507 319.93C186.507 337.714 208.884 352.134 236.496 352.134C264.102 352.134 286.486 337.714 286.486 319.93H186.507Z" fill="#F7D77F"/>
<path d="M233.584 187.238C233.584 184.241 236.021 181.809 239.009 181.809C242.003 181.809 244.311 184.248 244.433 187.238C244.549 190.031 242.057 192.559 239.009 192.668C236.015 192.668 233.584 190.228 233.584 187.238ZM235.906 187.238C235.906 188.951 237.298 190.344 239.009 190.344C240.72 190.344 242.111 188.951 242.111 187.238C242.111 185.526 240.72 184.133 239.009 184.133C237.298 184.133 235.906 185.526 235.906 187.238Z" fill="#050558"/>
<path d="M583.39 169.65C583.017 168.332 582.019 166.891 580.661 167.074C579.86 167.183 579.242 167.856 578.889 168.583C578.536 169.31 578.386 170.119 578.088 170.873C577.511 172.348 576.356 173.585 574.931 174.264C574.829 174.312 574.727 174.359 574.625 174.414C565.161 176.058 536.422 180.217 487.905 167.061C438.289 153.612 402.17 155.998 402.17 155.998V167.258L403.582 175.338C406.284 170.663 461.848 172.049 489.412 178.444C536.544 189.371 575.243 182.066 575.243 182.066C575.243 182.066 578.502 181.196 579.846 180.244C580.315 179.911 580.742 179.524 581.136 179.096C583.431 176.609 584.307 172.905 583.39 169.65Z" fill="#050558"/>
<path d="M603.493 319.93C603.493 337.714 581.115 352.134 553.503 352.134C525.898 352.134 503.513 337.714 503.513 319.93H603.493Z" fill="#F7D77F"/>
<path opacity="0.11" d="M186.568 321.689C186.459 320.826 186.514 320.812 186.514 319.936H286.486C286.059 330.238 281.408 334.505 277.864 338.019L186.568 321.689Z" fill="black"/>
<path opacity="0.11" d="M503.581 321.689C503.473 320.826 503.527 320.812 503.527 319.936H603.5C603.072 330.238 598.421 334.505 594.877 338.019L503.581 321.689Z" fill="black"/>
<path d="M550.992 192.668C547.997 192.668 545.567 190.228 545.567 187.238C545.567 184.241 548.004 181.809 550.992 181.809C553.979 181.809 556.416 184.248 556.416 187.238C556.423 190.228 553.986 192.668 550.992 192.668ZM550.992 184.133C549.281 184.133 547.889 185.526 547.889 187.238C547.889 188.951 549.281 190.344 550.992 190.344C552.702 190.344 554.094 188.951 554.094 187.238C554.094 185.526 552.702 184.133 550.992 184.133Z" fill="#050558"/>
<path d="M206.617 169.65C206.99 168.331 207.988 166.891 209.346 167.074C210.147 167.183 210.765 167.856 211.118 168.583C211.471 169.31 211.621 170.119 211.919 170.873C212.497 172.348 213.651 173.584 215.077 174.264C215.178 174.312 215.28 174.359 215.382 174.413C224.846 176.058 253.586 180.217 302.102 167.061C351.718 153.612 387.376 156.65 387.376 156.65L388.021 166.605L386.419 175.338C383.716 170.662 328.153 172.049 300.588 178.443C253.457 189.371 214.757 182.065 214.757 182.065C214.757 182.065 211.499 181.195 210.154 180.244C209.686 179.911 209.258 179.524 208.864 179.096C206.576 176.608 205.694 172.905 206.617 169.65Z" fill="#050558"/>
<path d="M395.448 409.794H395.108C385.909 409.794 378.502 401.504 378.706 391.432C378.706 391.426 384.809 151.865 387.111 151.865H402.23C404.518 151.865 411.844 391.29 411.844 391.29C412.122 401.422 404.702 409.794 395.448 409.794Z" fill="#060640"/>
<path d="M505.231 426.248H285.325V426.004C285.325 412.596 316.25 401.723 334.249 401.723H459.458C477.456 401.723 505.231 412.596 505.231 426.004V426.248Z" fill="#050558"/>
<path d="M407.144 143.711C408.301 137.15 403.926 130.893 397.372 129.734C390.817 128.576 384.565 132.955 383.408 139.516C382.251 146.076 386.626 152.334 393.18 153.492C399.735 154.651 405.986 150.271 407.144 143.711Z" fill="#060640"/>
<path d="M401.728 125.812C401.728 129.978 398.843 133.348 395.278 133.348C391.721 133.348 388.828 129.971 388.828 125.812C388.828 121.646 393.221 109.387 395.278 109.387C397.098 109.387 401.728 121.653 401.728 125.812Z" fill="#060640"/>
<path d="M399.392 141.639C399.392 143.997 397.485 145.906 395.129 145.906C392.773 145.906 390.865 143.997 390.865 141.639C390.865 139.281 392.773 137.371 395.129 137.371C397.485 137.371 399.392 139.281 399.392 141.639Z" fill="#F7D77F"/>
<path d="M398.103 124.589C398.103 126.39 396.84 127.851 395.285 127.851C393.73 127.851 392.468 126.39 392.468 124.589C392.468 122.788 394.986 117.807 395.285 117.807C395.278 117.807 398.103 122.788 398.103 124.589Z" fill="#F7D77F"/>
<path opacity="0.33" d="M380.274 401.715L423.169 424.691L469.167 425.52L417.228 401.715H380.274Z" fill="black"/>
<path opacity="0.12" d="M402.882 155.965L404.016 174.51C404.016 174.51 410.065 172.764 414.682 172.533L405.951 155.965H402.882Z" fill="black"/>
<path opacity="0.12" d="M386.5 156.352L385.366 174.897C385.366 174.897 379.317 173.15 374.7 172.919L383.431 156.352H386.5Z" fill="black"/>
<path opacity="0.33" d="M505.197 425.52H285.325V425.051C285.325 424.039 285.59 423.04 286.099 422.163L286.486 421.49L504.084 421.32L504.097 421.341C504.892 422.455 505.285 423.808 505.211 425.18L505.197 425.52Z" fill="black"/>
<path d="M410.229 341.465L380.274 341.37L380.593 334.023H410.011L410.229 341.465Z" fill="#8FC5B8"/>
<path d="M409.896 331.754H380.607L380.749 328.125H409.896V331.754Z" fill="#8FC5B8"/>
<path opacity="0.33" d="M382.793 401.715H409.319C409.319 401.715 411.233 398.216 411.437 395.878C411.641 393.534 380.267 330.334 380.267 330.334L379.425 364.088C379.425 364.088 377.952 390.931 378.923 394.743C379.894 398.556 379.493 401.715 382.793 401.715Z" fill="black"/>
<path d="M509.265 436.387H276.595C274.266 436.387 272.372 433.798 272.372 430.597V430.481C272.372 427.287 274.259 424.691 276.595 424.691H509.265C511.593 424.691 513.487 427.281 513.487 430.481V430.597C513.487 433.798 511.6 436.387 509.265 436.387Z" fill="#060640"/>
</g>
<defs>
<clipPath id="clip0_1233_5999">
<rect width="417" height="327" fill="white" transform="translate(186.5 109.387)"/>
</clipPath>
</defs>
</svg>
