<svg width="590" height="440" viewBox="0 0 590 440" fill="none" xmlns="http://www.w3.org/2000/svg">
<g clip-path="url(#clip0_378_7112)">
<path d="M50.5531 434.618C33.8779 426.484 -5.96657 415.006 0.979447 365.775C3.21549 349.981 23.554 325.959 38.3738 320.006C95.607 297.051 81.9529 277.771 57.1898 236.153C37.9218 191.783 47.199 113.526 91.0874 90.0722C119.442 74.9187 170.205 97.0916 199.988 85.021C232.125 71.9781 235.336 35.1972 266.332 19.6406C359.318 -27.0293 495.098 15.6091 499.309 120.711C507.016 312.323 657.711 239.188 552.807 437.227L50.5531 434.618Z" fill="#E3E9FF"/>
<path d="M362.696 56.8491C356.82 56.8491 352.062 52.0825 352.062 46.2487C352.062 40.3913 356.844 35.6484 362.696 35.6484C368.571 35.6484 373.329 40.415 373.329 46.2487C373.329 52.0825 368.547 56.8491 362.696 56.8491ZM362.696 37.8302C358.033 37.8302 354.251 41.6007 354.251 46.2487C354.251 50.8968 358.033 54.6673 362.696 54.6673C367.358 54.6673 371.14 50.8968 371.14 46.2487C371.14 41.6007 367.334 37.8302 362.696 37.8302Z" fill="#F7F9FF"/>
<path d="M463.491 286.736C457.616 286.736 452.858 281.969 452.858 276.135C452.858 270.278 457.64 265.535 463.491 265.535C469.367 265.535 474.125 270.302 474.125 276.135C474.125 281.969 469.343 286.736 463.491 286.736ZM463.491 267.717C458.829 267.717 455.047 271.487 455.047 276.135C455.047 280.783 458.829 284.554 463.491 284.554C468.154 284.554 471.936 280.783 471.936 276.135C471.936 271.487 468.13 267.717 463.491 267.717Z" fill="#F7F9FF"/>
<path d="M572.979 439.836H50.5532C49.1021 439.836 47.9365 438.674 47.9365 437.228C47.9365 435.781 49.1021 434.619 50.5532 434.619H572.979C574.43 434.619 575.596 435.781 575.596 437.228C575.596 438.674 574.406 439.836 572.979 439.836Z" fill="#2C2858"/>
<path d="M85.2357 331.533C79.3601 331.533 74.6025 326.766 74.6025 320.932C74.6025 315.075 79.3839 310.332 85.2357 310.332C91.1112 310.332 95.8688 315.099 95.8688 320.932C95.8688 326.766 91.0874 331.533 85.2357 331.533ZM85.2357 312.49C80.5733 312.49 76.791 316.261 76.791 320.909C76.791 325.557 80.5733 329.327 85.2357 329.327C89.8981 329.327 93.6803 325.557 93.6803 320.909C93.6803 316.261 89.8743 312.49 85.2357 312.49Z" fill="#F7F9FF"/>
<path d="M115.572 345.122C115.664 341.6 112.876 338.67 109.343 338.577C105.81 338.485 102.87 341.265 102.778 344.787C102.685 348.309 105.473 351.239 109.006 351.332C112.539 351.424 115.479 348.644 115.572 345.122Z" fill="#F7F9FF"/>
<path d="M346.306 25.6643C346.306 29.174 343.451 32.0435 339.907 32.0435C336.386 32.0435 333.508 29.1978 333.508 25.6643C333.508 22.1546 336.362 19.2852 339.907 19.2852C343.451 19.2852 346.306 22.1546 346.306 25.6643Z" fill="#F7F9FF"/>
<path d="M554.14 294.348C554.14 297.858 551.285 300.727 547.741 300.727C544.196 300.727 541.342 297.881 541.342 294.348C541.342 290.838 544.196 287.969 547.741 287.969C551.285 287.969 554.14 290.814 554.14 294.348Z" fill="#F7F9FF"/>
<g clip-path="url(#clip1_378_7112)">
<path d="M425 65.2801V68.0801C424.997 68.5825 425.162 69.0715 425.468 69.4699C425.774 69.8683 426.204 70.1534 426.69 70.2801C429.683 71.0612 432.553 72.2525 435.22 73.8201C435.654 74.0725 436.159 74.174 436.656 74.1089C437.154 74.0438 437.616 73.8156 437.97 73.4601L439.97 71.4601C440.397 71.0339 440.976 70.7945 441.58 70.7945C442.184 70.7945 442.763 71.0339 443.19 71.4601L449.81 78.0801C450.236 78.5075 450.476 79.0865 450.476 79.6901C450.476 80.2937 450.236 80.8727 449.81 81.3001L447.81 83.3001C447.455 83.6545 447.227 84.1172 447.164 84.6151C447.101 85.1131 447.205 85.6179 447.46 86.0501C449.028 88.7202 450.219 91.594 451 94.5901C451.13 95.0745 451.416 95.5027 451.813 95.8082C452.211 96.1137 452.699 96.2796 453.2 96.2801H456C456.605 96.2801 457.185 96.5203 457.612 96.9479C458.04 97.3755 458.28 97.9554 458.28 98.5601V107.92C458.28 108.525 458.04 109.105 457.612 109.532C457.185 109.96 456.605 110.2 456 110.2H453.21C452.708 110.201 452.221 110.366 451.823 110.672C451.426 110.978 451.14 111.406 451.01 111.89C450.229 114.886 449.038 117.76 447.47 120.43C447.215 120.862 447.11 121.367 447.174 121.865C447.237 122.363 447.465 122.826 447.82 123.18L449.82 125.18C450.247 125.609 450.486 126.19 450.486 126.795C450.486 127.4 450.247 127.981 449.82 128.41L443.2 135C442.773 135.42 442.199 135.656 441.6 135.656C441.001 135.656 440.427 135.42 440 135L438 133C437.646 132.645 437.183 132.417 436.685 132.354C436.187 132.291 435.682 132.395 435.25 132.65C432.581 134.21 429.711 135.398 426.72 136.18C426.226 136.303 425.787 136.59 425.476 136.992C425.164 137.395 424.996 137.891 425 138.4V141.2C425 141.805 424.76 142.385 424.332 142.812C423.905 143.24 423.325 143.48 422.72 143.48H413.36C412.755 143.48 412.175 143.24 411.748 142.812C411.32 142.385 411.08 141.805 411.08 141.2V138.38C411.079 137.88 410.913 137.394 410.607 136.998C410.302 136.602 409.874 136.318 409.39 136.19C406.403 135.4 403.537 134.209 400.87 132.65C400.437 132.396 399.933 132.293 399.435 132.357C398.938 132.42 398.475 132.646 398.12 133L396.12 135C395.693 135.426 395.114 135.666 394.51 135.666C393.906 135.666 393.327 135.426 392.9 135L386.28 128.38C385.853 127.951 385.614 127.37 385.614 126.765C385.614 126.16 385.853 125.579 386.28 125.15L388.28 123.15C388.636 122.796 388.864 122.334 388.929 121.836C388.994 121.339 388.892 120.834 388.64 120.4C387.08 117.738 385.892 114.875 385.11 111.89C384.982 111.405 384.696 110.976 384.298 110.67C383.9 110.364 383.412 110.199 382.91 110.2H380.07C379.466 110.197 378.888 109.956 378.461 109.529C378.034 109.102 377.793 108.524 377.79 107.92V98.5601C377.793 97.9562 378.034 97.3778 378.461 96.9508C378.888 96.5238 379.466 96.2827 380.07 96.2801H382.91C383.412 96.2813 383.9 96.116 384.298 95.8103C384.696 95.5045 384.982 95.0754 385.11 94.5901C385.892 91.6054 387.08 88.7421 388.64 86.0801C388.892 85.6464 388.994 85.1413 388.929 84.6437C388.864 84.1462 388.636 83.6842 388.28 83.3301L386.28 81.3301C385.854 80.9027 385.614 80.3237 385.614 79.7201C385.614 79.1165 385.854 78.5375 386.28 78.1101L392.9 71.4901C393.327 71.0639 393.906 70.8245 394.51 70.8245C395.114 70.8245 395.693 71.0639 396.12 71.4901L398.12 73.4901C398.474 73.8455 398.937 74.0729 399.435 74.1363C399.933 74.1996 400.438 74.0954 400.87 73.8401C403.536 72.2799 406.402 71.0922 409.39 70.3101C409.874 70.1788 410.301 69.8925 410.606 69.4951C410.911 69.0977 411.078 68.6112 411.08 68.1101V65.2801C411.08 64.979 411.14 64.6809 411.255 64.4029C411.371 64.125 411.541 63.8728 411.755 63.6608C411.969 63.4488 412.222 63.2813 412.501 63.1679C412.78 63.0545 413.079 62.9974 413.38 63.0001H422.74C423.341 63.0054 423.916 63.2479 424.339 63.6749C424.763 64.1019 425 64.6788 425 65.2801V65.2801ZM396.43 103.28C396.43 107.558 397.699 111.74 400.075 115.297C402.452 118.854 405.83 121.626 409.783 123.264C413.735 124.901 418.084 125.329 422.28 124.494C426.476 123.66 430.33 121.6 433.355 118.575C436.38 115.55 438.44 111.696 439.274 107.5C440.109 103.304 439.681 98.955 438.044 95.0026C436.406 91.0503 433.634 87.6721 430.077 85.2954C426.52 82.9187 422.338 81.6501 418.06 81.6501C412.334 81.6554 406.843 83.9311 402.792 87.9783C398.741 92.0255 396.461 97.5139 396.45 103.24L396.43 103.28Z" fill="#A9E3F7"/>
<path d="M465.93 151.791L464.53 152.601C464.281 152.747 464.087 152.971 463.979 153.239C463.87 153.507 463.853 153.803 463.93 154.081C464.397 155.802 464.629 157.578 464.62 159.361C464.621 159.654 464.72 159.938 464.901 160.169C465.082 160.399 465.336 160.562 465.62 160.631L467.18 161.051C467.516 161.142 467.803 161.363 467.977 161.664C468.151 161.966 468.199 162.324 468.11 162.661L466.72 167.871C466.629 168.207 466.409 168.493 466.107 168.668C465.805 168.842 465.447 168.89 465.11 168.801L463.55 168.381C463.26 168.29 462.947 168.302 462.665 168.415C462.383 168.528 462.148 168.735 462 169.001C461.121 170.554 460.03 171.977 458.76 173.231C458.556 173.436 458.424 173.703 458.386 173.99C458.348 174.278 458.406 174.57 458.55 174.821L459.35 176.211C459.438 176.36 459.495 176.524 459.518 176.695C459.541 176.866 459.53 177.04 459.485 177.207C459.441 177.373 459.363 177.529 459.258 177.666C459.152 177.802 459.021 177.916 458.87 178.001L454.2 180.701C453.898 180.875 453.539 180.923 453.201 180.833C452.864 180.743 452.576 180.523 452.4 180.221L451.6 178.831C451.457 178.579 451.234 178.382 450.965 178.271C450.697 178.161 450.4 178.143 450.12 178.221C448.4 178.692 446.624 178.924 444.84 178.911C444.547 178.913 444.262 179.012 444.03 179.193C443.798 179.374 443.633 179.626 443.56 179.911L443.15 181.471C443.059 181.807 442.839 182.093 442.537 182.268C442.235 182.442 441.877 182.49 441.54 182.401L436.32 181.001C436.154 180.956 435.999 180.878 435.862 180.773C435.726 180.668 435.612 180.536 435.527 180.387C435.441 180.237 435.386 180.072 435.364 179.901C435.343 179.731 435.355 179.557 435.4 179.391L435.81 177.831C435.888 177.552 435.871 177.254 435.76 176.986C435.65 176.718 435.453 176.494 435.2 176.351C433.648 175.471 432.224 174.381 430.97 173.111C430.768 172.906 430.502 172.773 430.216 172.735C429.93 172.697 429.64 172.756 429.39 172.901L427.99 173.711C427.688 173.885 427.329 173.933 426.991 173.843C426.654 173.753 426.366 173.533 426.19 173.231L423.5 168.551C423.413 168.402 423.356 168.238 423.333 168.067C423.31 167.896 423.321 167.722 423.365 167.555C423.41 167.389 423.488 167.233 423.593 167.096C423.699 166.96 423.83 166.846 423.98 166.761L425.38 165.951C425.633 165.808 425.83 165.584 425.94 165.316C426.051 165.048 426.068 164.75 425.99 164.471C425.523 162.754 425.294 160.981 425.31 159.201C425.31 158.908 425.211 158.624 425.03 158.393C424.848 158.163 424.595 158 424.31 157.931L422.74 157.501C422.573 157.457 422.417 157.38 422.279 157.275C422.142 157.17 422.027 157.039 421.94 156.89C421.854 156.74 421.798 156.575 421.776 156.403C421.753 156.232 421.765 156.058 421.81 155.891L423.2 150.681C423.292 150.345 423.512 150.059 423.814 149.884C424.115 149.71 424.474 149.662 424.81 149.751L426.4 150.181C426.68 150.256 426.976 150.235 427.242 150.123C427.508 150.011 427.729 149.813 427.87 149.561C428.748 148.015 429.835 146.599 431.1 145.351C431.307 145.147 431.44 144.881 431.48 144.593C431.52 144.306 431.464 144.013 431.32 143.761L430.5 142.341C430.414 142.192 430.359 142.027 430.336 141.857C430.314 141.686 430.325 141.513 430.37 141.347C430.414 141.18 430.491 141.024 430.596 140.888C430.701 140.751 430.831 140.637 430.98 140.551L435.65 137.851C435.953 137.677 436.312 137.629 436.65 137.719C436.987 137.809 437.275 138.029 437.45 138.331L438.27 139.751C438.414 140 438.637 140.195 438.902 140.305C439.168 140.415 439.462 140.435 439.74 140.361C441.457 139.89 443.23 139.658 445.01 139.671C445.303 139.669 445.587 139.569 445.816 139.388C446.046 139.207 446.21 138.955 446.28 138.671L446.7 137.081C446.792 136.745 447.012 136.459 447.314 136.284C447.615 136.11 447.974 136.062 448.31 136.151L453.53 137.551C453.866 137.642 454.153 137.863 454.327 138.164C454.501 138.466 454.549 138.824 454.46 139.161L454.03 140.741C453.957 141.022 453.978 141.318 454.09 141.586C454.202 141.854 454.399 142.077 454.65 142.221C456.197 143.101 457.617 144.187 458.87 145.451C459.077 145.654 459.343 145.785 459.63 145.823C459.917 145.86 460.209 145.804 460.46 145.661L461.86 144.841C462.165 144.67 462.524 144.626 462.861 144.717C463.197 144.809 463.485 145.029 463.66 145.331L466.36 150.001C466.539 150.296 466.593 150.649 466.513 150.984C466.432 151.319 466.223 151.609 465.93 151.791V151.791ZM440.27 151.111C438.655 152.043 437.353 153.434 436.528 155.107C435.703 156.78 435.392 158.66 435.636 160.509C435.879 162.358 436.665 164.094 437.895 165.496C439.125 166.898 440.743 167.904 442.545 168.387C444.347 168.869 446.251 168.807 448.017 168.207C449.783 167.607 451.332 166.497 452.467 165.017C453.602 163.537 454.273 161.754 454.395 159.893C454.516 158.032 454.083 156.176 453.15 154.561C452.532 153.488 451.708 152.547 450.726 151.793C449.744 151.039 448.622 150.485 447.426 150.165C446.23 149.845 444.982 149.763 443.754 149.925C442.526 150.088 441.342 150.491 440.27 151.111V151.111Z" fill="#8CD6EA"/>
<path d="M163.69 434.891C156.88 340.841 130.69 324.361 124.79 337.081C116.53 354.941 152.09 358.321 157.72 434.891H163.69Z" fill="#8CD6EA"/>
<path d="M158.4 434.891C144.72 325.891 186.4 303.831 186.4 326.061C186.4 357.431 169.62 352.561 161.83 434.891H158.4Z" fill="#8CD6EA"/>
<path d="M163.1 434.89C156.71 404.41 117.56 387.12 118.22 398.15C119.05 412.15 151.44 410.07 156.73 434.89H163.1Z" fill="#8CD6EA"/>
<path d="M163.69 434.891C153.55 373.891 93.7402 346.941 96.0702 368.891C97.8502 385.751 148.35 385.281 156.73 434.891H163.69Z" fill="#A9E3F7"/>
<path d="M158.4 434.889C162.46 414.829 206.67 385.779 207.4 401.249C208 413.999 176.74 411.319 164 434.889H158.4Z" fill="#A9E3F7"/>
<path d="M158.4 434.89C165.62 351.4 222.27 324.65 220.61 354.68C219.34 377.78 169.66 366.92 163.69 434.89H158.4Z" fill="#A9E3F7"/>
<path d="M459.78 434.891C452.97 340.841 426.78 324.361 420.88 337.081C412.62 354.941 448.18 358.321 453.8 434.891H459.78Z" fill="#8CD6EA"/>
<path d="M454.49 434.891C440.81 325.891 482.49 303.831 482.49 326.061C482.49 357.431 465.71 352.561 457.92 434.891H454.49Z" fill="#8CD6EA"/>
<path d="M459.19 434.89C452.8 404.41 413.65 387.12 414.3 398.15C415.13 412.15 447.53 410.07 452.82 434.89H459.19Z" fill="#8CD6EA"/>
<path d="M459.78 434.891C449.64 373.891 389.83 346.941 392.15 368.891C393.94 385.751 444.44 385.281 452.82 434.891H459.78Z" fill="#A9E3F7"/>
<path d="M454.49 434.889C458.54 414.829 502.76 385.779 503.49 401.249C504.06 413.969 472.86 411.319 460.08 434.889H454.49Z" fill="#A9E3F7"/>
<path d="M454.49 434.89C461.71 351.4 518.36 324.65 516.7 354.68C515.43 377.78 465.75 366.92 459.78 434.89H454.49Z" fill="#A9E3F7"/>
<path d="M406.91 124.09H186.93C185.489 124.09 184.32 125.258 184.32 126.7V432.28C184.32 433.721 185.489 434.89 186.93 434.89H406.91C408.352 434.89 409.52 433.721 409.52 432.28V126.7C409.52 125.258 408.352 124.09 406.91 124.09Z" fill="#58258E"/>
<path d="M397.63 139.23H196.19C195.688 139.23 195.28 139.638 195.28 140.14V418.84C195.28 419.343 195.688 419.75 196.19 419.75H397.63C398.133 419.75 398.54 419.343 398.54 418.84V140.14C398.54 139.638 398.133 139.23 397.63 139.23Z" fill="#EBFCFC"/>
<path d="M296.92 98.5195C293.575 98.5156 290.304 99.504 287.52 101.36C284.737 103.215 282.566 105.855 281.283 108.944C280 112.034 279.663 115.435 280.313 118.716C280.963 121.998 282.572 125.013 284.936 127.38C287.3 129.747 290.313 131.359 293.594 132.013C296.875 132.667 300.276 132.334 303.367 131.054C306.458 129.775 309.1 127.608 310.959 124.826C312.818 122.045 313.81 118.775 313.81 115.43C313.81 110.948 312.031 106.65 308.864 103.479C305.698 100.309 301.402 98.5248 296.92 98.5195V98.5195ZM296.92 122.05C295.611 122.05 294.331 121.661 293.242 120.934C292.154 120.206 291.305 119.173 290.804 117.963C290.303 116.753 290.172 115.422 290.427 114.138C290.683 112.854 291.313 111.674 292.239 110.748C293.165 109.823 294.345 109.192 295.629 108.937C296.913 108.681 298.244 108.812 299.454 109.313C300.663 109.815 301.697 110.663 302.425 111.752C303.152 112.84 303.54 114.12 303.54 115.43C303.54 117.185 302.843 118.869 301.601 120.111C300.36 121.352 298.676 122.05 296.92 122.05V122.05Z" fill="#66A4ED"/>
<g style="mix-blend-mode:screen">
<path d="M302.591 107.79C300.664 106.375 298.276 105.735 295.9 106C293.524 106.264 291.334 107.413 289.766 109.218C288.198 111.022 287.367 113.351 287.437 115.74C287.507 118.13 288.473 120.406 290.144 122.116C291.815 123.825 294.069 124.844 296.456 124.968C298.843 125.093 301.19 124.315 303.03 122.789C304.87 121.263 306.069 119.1 306.388 116.731C306.706 114.361 306.122 111.959 304.751 110" stroke="#66A4ED" stroke-linecap="round" stroke-linejoin="round"/>
</g>
<path d="M241.59 128.391H352.24C352.406 128.391 352.569 128.423 352.722 128.487C352.875 128.55 353.014 128.643 353.131 128.76C353.248 128.877 353.341 129.016 353.404 129.168C353.467 129.321 353.5 129.485 353.5 129.651V147.561C353.5 148.89 353.238 150.206 352.73 151.433C352.221 152.661 351.476 153.777 350.536 154.717C349.596 155.656 348.481 156.402 347.253 156.91C346.025 157.419 344.709 157.681 343.38 157.681H250.45C249.121 157.681 247.805 157.419 246.577 156.91C245.35 156.402 244.234 155.656 243.294 154.717C242.354 153.777 241.609 152.661 241.1 151.433C240.592 150.206 240.33 148.89 240.33 147.561V129.651C240.33 129.485 240.363 129.321 240.426 129.168C240.489 129.016 240.582 128.877 240.699 128.76C240.816 128.643 240.955 128.55 241.108 128.487C241.261 128.423 241.425 128.391 241.59 128.391V128.391Z" fill="#66A4ED"/>
<g style="mix-blend-mode:multiply" opacity="0.36">
<path d="M353.5 128.391V144.391C353.5 147.918 352.099 151.301 349.605 153.795C347.11 156.289 343.727 157.691 340.2 157.691H253.64C250.112 157.691 246.728 156.29 244.232 153.796C241.736 151.302 240.333 147.919 240.33 144.391V128.391H242.69V140.171C242.69 141.918 243.034 143.648 243.703 145.263C244.372 146.877 245.353 148.344 246.589 149.579C247.825 150.814 249.293 151.793 250.907 152.461C252.522 153.129 254.253 153.472 256 153.471H337.86C341.387 153.471 344.77 152.069 347.265 149.575C349.759 147.081 351.16 143.698 351.16 140.171V128.391H353.5Z" fill="#66A4ED"/>
</g>
<path d="M257 115.43H336.84C337.275 115.43 337.692 115.602 338 115.91C338.308 116.218 338.48 116.635 338.48 117.07V128.39H255.36V117.07C255.36 116.635 255.533 116.218 255.841 115.91C256.148 115.602 256.565 115.43 257 115.43V115.43Z" fill="#66A4ED"/>
<g style="mix-blend-mode:multiply" opacity="0.36">
<path d="M338.47 125.881H255.36V128.381H338.47V125.881Z" fill="#66A4ED"/>
</g>
<path d="M381.29 228.98H212.53V239.19H381.29V228.98Z" fill="#FCCA73"/>
<path d="M381.29 257.42H212.53V267.63H381.29V257.42Z" fill="#FCCA73"/>
<path d="M381.29 285.869H212.53V296.079H381.29V285.869Z" fill="#FCCA73"/>
<path d="M381.29 314.32H212.53V324.53H381.29V314.32Z" fill="#FCCA73"/>
<path d="M306.79 342.77H212.53V352.98H306.79V342.77Z" fill="#FCCA73"/>
<path d="M306.79 371.211H212.53V381.421H306.79V371.211Z" fill="#FCCA73"/>
<path d="M388.65 423.959L374.92 418.779L367.74 431.569L360.49 411.679L359.16 408.029L351.59 387.239L359.16 384.479L372.52 379.619L381.66 404.759L388.65 423.959Z" fill="#66A4ED"/>
<path d="M366.73 387.239L359.16 408.029L357.84 411.679L350.59 431.569L343.4 418.779L329.67 423.959L336.66 404.759L345.82 379.619L359.16 384.479L366.73 387.239Z" fill="#66A4ED"/>
<g style="mix-blend-mode:multiply" opacity="0.36">
<path d="M381.66 404.76C381.237 404.829 380.805 404.812 380.388 404.709C379.972 404.605 379.582 404.419 379.24 404.16C378.685 403.746 378.012 403.522 377.32 403.52C376.886 403.517 376.456 403.601 376.054 403.766C375.653 403.931 375.288 404.174 374.981 404.48C374.674 404.787 374.431 405.152 374.266 405.554C374.101 405.955 374.017 406.386 374.02 406.82V406.82C374.019 407.514 373.798 408.19 373.39 408.751C372.981 409.312 372.405 409.729 371.745 409.943C371.085 410.157 370.374 410.157 369.714 409.943C369.054 409.729 368.479 409.311 368.07 408.75C367.773 408.323 367.376 407.976 366.915 407.737C366.453 407.498 365.94 407.376 365.42 407.38C364.723 407.372 364.041 407.59 363.477 408.001C362.913 408.412 362.497 408.993 362.29 409.66C362.157 410.106 361.927 410.517 361.615 410.862C361.304 411.208 360.92 411.481 360.49 411.66L359.16 408L357.84 411.64C357.408 411.464 357.02 411.193 356.707 410.846C356.394 410.5 356.162 410.088 356.03 409.64C355.823 408.973 355.407 408.392 354.843 407.981C354.279 407.57 353.598 407.352 352.9 407.36C352.38 407.356 351.867 407.478 351.406 407.717C350.944 407.956 350.547 408.303 350.25 408.73C349.954 409.152 349.561 409.497 349.102 409.733C348.644 409.97 348.136 410.093 347.62 410.09C347.185 410.095 346.753 410.014 346.35 409.85C345.946 409.686 345.58 409.443 345.271 409.136C344.963 408.828 344.719 408.463 344.554 408.06C344.389 407.657 344.306 407.225 344.31 406.79C344.311 406.356 344.227 405.926 344.062 405.525C343.896 405.124 343.653 404.76 343.347 404.453C343.04 404.147 342.676 403.904 342.275 403.738C341.874 403.573 341.444 403.489 341.01 403.49C340.318 403.493 339.646 403.718 339.09 404.13C338.529 404.548 337.85 404.776 337.15 404.78C336.985 404.783 336.821 404.767 336.66 404.73L345.82 379.59L359.16 384.45L372.52 379.59L381.66 404.76Z" fill="#66A4ED"/>
</g>
<path d="M362.001 336.651C362.182 337.157 362.497 337.606 362.912 337.949C363.326 338.293 363.826 338.518 364.358 338.602C364.889 338.686 365.434 338.625 365.934 338.426C366.434 338.227 366.872 337.897 367.201 337.471V337.471C367.581 336.99 368.099 336.638 368.685 336.46C369.272 336.283 369.898 336.29 370.481 336.479C371.064 336.669 371.574 337.032 371.944 337.52C372.314 338.009 372.526 338.598 372.551 339.211V339.211C372.566 339.749 372.727 340.273 373.015 340.727C373.303 341.182 373.708 341.551 374.187 341.796C374.667 342.04 375.203 342.151 375.741 342.117C376.278 342.082 376.796 341.904 377.241 341.601C377.75 341.266 378.349 341.095 378.958 341.109C379.568 341.124 380.158 341.323 380.651 341.682C381.144 342.04 381.516 342.54 381.718 343.115C381.92 343.69 381.942 344.313 381.781 344.901V344.901C381.629 345.418 381.62 345.966 381.754 346.489C381.887 347.011 382.16 347.487 382.541 347.868C382.923 348.249 383.4 348.519 383.923 348.652C384.445 348.784 384.994 348.773 385.511 348.621C386.1 348.457 386.725 348.478 387.302 348.68C387.879 348.882 388.38 349.256 388.739 349.75C389.098 350.245 389.297 350.838 389.31 351.449C389.323 352.061 389.149 352.661 388.811 353.171C388.507 353.615 388.329 354.133 388.295 354.67C388.26 355.208 388.371 355.744 388.615 356.224C388.86 356.704 389.229 357.109 389.684 357.397C390.139 357.684 390.663 357.845 391.201 357.861V357.861C391.81 357.888 392.397 358.1 392.883 358.47C393.369 358.839 393.73 359.348 393.919 359.928C394.108 360.508 394.116 361.132 393.941 361.717C393.766 362.302 393.417 362.819 392.941 363.201V363.201C392.512 363.529 392.179 363.967 391.978 364.468C391.778 364.97 391.716 365.516 391.8 366.05C391.884 366.583 392.111 367.084 392.456 367.5C392.801 367.915 393.252 368.23 393.761 368.411C394.33 368.626 394.82 369.01 395.166 369.511C395.511 370.012 395.697 370.607 395.697 371.216C395.697 371.824 395.511 372.419 395.166 372.92C394.82 373.421 394.33 373.805 393.761 374.021V374.021C393.252 374.201 392.801 374.516 392.456 374.931C392.111 375.347 391.884 375.848 391.8 376.381C391.716 376.915 391.778 377.461 391.978 377.963C392.179 378.464 392.512 378.902 392.941 379.231C393.417 379.612 393.766 380.129 393.941 380.714C394.116 381.299 394.108 381.923 393.919 382.503C393.73 383.083 393.369 383.592 392.883 383.961C392.397 384.331 391.81 384.543 391.201 384.571C390.663 384.586 390.139 384.747 389.684 385.034C389.229 385.322 388.86 385.727 388.615 386.207C388.371 386.687 388.26 387.223 388.295 387.761C388.329 388.298 388.507 388.816 388.811 389.261V389.261C389.149 389.77 389.323 390.37 389.31 390.982C389.297 391.593 389.098 392.186 388.739 392.681C388.38 393.175 387.879 393.549 387.302 393.751C386.725 393.953 386.1 393.974 385.511 393.811V393.811C384.994 393.658 384.445 393.647 383.923 393.779C383.4 393.912 382.923 394.182 382.541 394.563C382.16 394.944 381.887 395.42 381.754 395.942C381.62 396.465 381.629 397.013 381.781 397.531C381.942 398.118 381.92 398.741 381.718 399.316C381.516 399.891 381.144 400.391 380.651 400.749C380.158 401.108 379.568 401.307 378.958 401.322C378.349 401.336 377.75 401.165 377.241 400.831V400.831C376.796 400.527 376.278 400.349 375.741 400.314C375.203 400.28 374.667 400.391 374.187 400.635C373.708 400.88 373.303 401.249 373.015 401.704C372.727 402.158 372.566 402.682 372.551 403.221C372.526 403.833 372.314 404.422 371.944 404.911C371.574 405.399 371.064 405.762 370.481 405.952C369.898 406.141 369.272 406.148 368.685 405.971C368.099 405.793 367.581 405.441 367.201 404.961V404.961C366.872 404.534 366.434 404.204 365.934 404.005C365.434 403.806 364.889 403.745 364.358 403.829C363.826 403.913 363.326 404.138 362.912 404.482C362.497 404.825 362.182 405.274 362.001 405.781V405.781C361.787 406.353 361.403 406.846 360.901 407.195C360.398 407.543 359.802 407.73 359.191 407.73C358.579 407.73 357.983 407.543 357.481 407.195C356.978 406.846 356.595 406.353 356.381 405.781V405.781C356.199 405.274 355.884 404.825 355.47 404.482C355.055 404.138 354.556 403.913 354.024 403.829C353.492 403.745 352.947 403.806 352.447 404.005C351.947 404.204 351.509 404.534 351.181 404.961V404.961C350.799 405.437 350.282 405.786 349.697 405.961C349.113 406.136 348.488 406.128 347.908 405.939C347.328 405.75 346.819 405.389 346.45 404.903C346.08 404.417 345.868 403.83 345.841 403.221V403.221C345.825 402.682 345.665 402.158 345.377 401.704C345.089 401.249 344.684 400.88 344.204 400.635C343.724 400.391 343.188 400.28 342.651 400.314C342.113 400.349 341.595 400.527 341.151 400.831C340.641 401.169 340.041 401.343 339.429 401.33C338.818 401.317 338.225 401.118 337.731 400.759C337.236 400.4 336.862 399.899 336.66 399.322C336.458 398.745 336.438 398.12 336.601 397.531V397.531C336.774 397.012 336.799 396.456 336.674 395.924C336.548 395.393 336.277 394.906 335.891 394.52C335.505 394.134 335.018 393.863 334.487 393.738C333.955 393.612 333.399 393.637 332.881 393.811V393.811C332.291 393.974 331.666 393.953 331.089 393.751C330.512 393.549 330.011 393.175 329.652 392.681C329.293 392.186 329.094 391.593 329.081 390.982C329.068 390.37 329.243 389.77 329.581 389.261V389.261C329.884 388.816 330.062 388.298 330.097 387.761C330.131 387.223 330.02 386.687 329.776 386.207C329.531 385.727 329.162 385.322 328.708 385.034C328.253 384.747 327.729 384.586 327.191 384.571C326.581 384.543 325.994 384.331 325.508 383.961C325.022 383.592 324.661 383.083 324.472 382.503C324.283 381.923 324.275 381.299 324.45 380.714C324.625 380.129 324.974 379.612 325.451 379.231V379.231C325.88 378.902 326.212 378.464 326.413 377.963C326.614 377.461 326.675 376.915 326.591 376.381C326.507 375.848 326.281 375.347 325.936 374.931C325.591 374.516 325.14 374.201 324.631 374.021C324.034 373.833 323.512 373.46 323.141 372.955C322.771 372.451 322.571 371.841 322.571 371.216C322.571 370.59 322.771 369.98 323.141 369.476C323.512 368.971 324.034 368.598 324.631 368.411C325.14 368.23 325.591 367.915 325.936 367.5C326.281 367.084 326.507 366.583 326.591 366.05C326.675 365.516 326.614 364.97 326.413 364.468C326.212 363.967 325.88 363.529 325.451 363.201V363.201C324.974 362.819 324.625 362.302 324.45 361.717C324.275 361.132 324.283 360.508 324.472 359.928C324.661 359.348 325.022 358.839 325.508 358.47C325.994 358.1 326.581 357.888 327.191 357.861V357.861C327.729 357.845 328.253 357.684 328.708 357.397C329.162 357.109 329.531 356.704 329.776 356.224C330.02 355.744 330.131 355.208 330.097 354.67C330.062 354.133 329.884 353.615 329.581 353.171V353.171C329.243 352.661 329.068 352.061 329.081 351.449C329.094 350.838 329.293 350.245 329.652 349.75C330.011 349.256 330.512 348.882 331.089 348.68C331.666 348.478 332.291 348.457 332.881 348.621V348.621C333.399 348.794 333.955 348.819 334.487 348.694C335.018 348.568 335.505 348.297 335.891 347.911C336.277 347.525 336.548 347.038 336.674 346.507C336.799 345.975 336.774 345.419 336.601 344.901V344.901C336.438 344.311 336.458 343.686 336.66 343.109C336.862 342.532 337.236 342.031 337.731 341.672C338.225 341.313 338.818 341.114 339.429 341.101C340.041 341.088 340.641 341.263 341.151 341.601C341.595 341.904 342.113 342.082 342.651 342.117C343.188 342.151 343.724 342.04 344.204 341.796C344.684 341.551 345.089 341.182 345.377 340.727C345.665 340.273 345.825 339.749 345.841 339.211C345.868 338.601 346.08 338.014 346.45 337.528C346.819 337.042 347.328 336.681 347.908 336.492C348.488 336.303 349.113 336.295 349.697 336.47C350.282 336.645 350.799 336.994 351.181 337.471V337.471C351.509 337.897 351.947 338.227 352.447 338.426C352.947 338.625 353.492 338.686 354.024 338.602C354.556 338.518 355.055 338.293 355.47 337.949C355.884 337.606 356.199 337.157 356.381 336.651C356.595 336.078 356.978 335.585 357.481 335.236C357.983 334.888 358.579 334.701 359.191 334.701C359.802 334.701 360.398 334.888 360.901 335.236C361.403 335.585 361.787 336.078 362.001 336.651V336.651Z" fill="#66A4ED"/>
<path d="M385.777 375.503C388.141 360.808 378.145 346.978 363.45 344.614C348.755 342.25 334.926 352.246 332.561 366.941C330.197 381.636 340.193 395.465 354.888 397.83C369.583 400.194 383.413 390.198 385.777 375.503Z" fill="#58258E"/>
<path d="M359.16 395.861C372.774 395.861 383.81 384.824 383.81 371.211C383.81 357.597 372.774 346.561 359.16 346.561C345.546 346.561 334.51 357.597 334.51 371.211C334.51 384.824 345.546 395.861 359.16 395.861Z" fill="#FCCA73"/>
<path d="M174.09 426.269C174.09 426.269 173.09 434.35 173.98 434.89H190.78C191.16 434.84 192.12 431.59 190.61 430.6C189.25 429.7 186.86 429.299 185.96 428.719C185.506 428.476 185.119 428.126 184.831 427.699C184.544 427.272 184.365 426.781 184.31 426.269C183.99 421.449 177 421.67 177 421.67C177 421.67 174.67 421.689 174.09 426.269Z" fill="#260040"/>
<path d="M156.64 426.269C156.64 426.269 157.64 434.35 156.75 434.89H142C141.61 434.84 140.65 431.59 142.16 430.6C143.52 429.7 144.07 429.759 144.98 429.179C145.44 428.847 145.813 428.41 146.069 427.903C146.325 427.397 146.455 426.837 146.45 426.269C146.78 421.449 153.76 421.67 153.76 421.67C153.76 421.67 156.06 421.689 156.64 426.269Z" fill="#260040"/>
<path d="M202.34 278.58C202.34 278.58 202.83 280.15 203.34 281.24C203.85 282.33 203.13 286.05 203.13 286.05L200.04 283.55V280.15L202.34 278.58Z" fill="#FCB788"/>
<path d="M172 223.48C173.828 225.125 175.159 227.248 175.84 229.61C176.63 233.12 175.12 232.05 175.57 235.89C176.02 239.73 174.78 245.08 172.74 246.02C170.7 246.96 157.23 245.1 157.23 245.1L172 223.48Z" fill="#FCB788"/>
<path d="M201.901 273.18L189.756 294.216C189.607 294.474 189.696 294.804 189.954 294.954L191.686 295.954C191.944 296.103 192.275 296.014 192.424 295.756L204.569 274.72C204.718 274.462 204.629 274.132 204.371 273.983L202.639 272.983C202.381 272.833 202.05 272.922 201.901 273.18Z" fill="#58258E"/>
<path d="M192.41 294.94L190.24 293.68C190.24 293.68 190.24 293.68 190.24 293.59L201.59 273.93C201.59 273.88 201.65 273.85 201.66 273.85L203.83 275.11C203.83 275.11 203.83 275.11 203.83 275.2L192.47 294.86C192.47 294.86 192.42 294.94 192.41 294.94Z" fill="#D9F3F4"/>
<path d="M202.931 275.071L202.121 274.601C201.971 274.501 202.071 274.281 202.231 274.001L202.521 273.511C202.531 273.5 202.543 273.491 202.557 273.486C202.571 273.48 202.586 273.477 202.601 273.477C202.616 273.477 202.63 273.48 202.644 273.486C202.658 273.491 202.67 273.5 202.681 273.511L203.741 274.121C203.741 274.121 203.791 274.181 203.741 274.261L203.451 274.761C203.301 275.001 203.091 275.151 202.931 275.071Z" fill="#66A4ED"/>
<path d="M203.64 273.999L202.74 273.479L202.95 273.119C202.957 273.102 202.969 273.086 202.982 273.073C202.996 273.06 203.013 273.051 203.031 273.045C203.049 273.039 203.068 273.038 203.087 273.04C203.106 273.043 203.124 273.049 203.14 273.059L203.86 273.479C203.92 273.479 203.86 273.549 203.86 273.589L203.64 273.999Z" fill="#66A4ED"/>
<path d="M199.28 277.719C199.28 277.719 196.92 275.239 196.52 275.799C195.97 276.579 197.16 277.369 197.52 278.299C197.267 278.366 197.042 278.514 196.88 278.719C196.717 278.925 196.626 279.177 196.62 279.439C196.11 279.659 196.02 280.879 196.02 281.269C195.842 281.412 195.712 281.604 195.646 281.822C195.58 282.04 195.581 282.272 195.65 282.489C195.74 282.939 195.98 283.959 196.4 283.239C196.82 282.519 196.46 282.349 196.46 282.349C196.495 282.41 196.545 282.461 196.604 282.498C196.664 282.535 196.731 282.557 196.802 282.562C196.872 282.567 196.942 282.555 197.006 282.527C197.07 282.498 197.126 282.454 197.17 282.399C197.65 281.869 197.31 281.099 197.17 280.729C197.17 280.729 197.39 281.959 198.17 281.259C198.7 280.759 198.38 279.469 198.38 279.469L199.28 277.719Z" fill="#FCB788"/>
<path d="M168.62 244.4C170.38 244.65 175.69 246.29 170.42 246.29C170.62 248.57 170.5 251.84 170.5 251.84H156.17L157.17 245.1C157.17 245.1 166 244 168.62 244.4Z" fill="#F4A671"/>
<path d="M156.171 225.441C156.171 225.441 155.271 221.611 162.591 221.261C169.911 220.911 175.441 218.391 176.821 218.261C178.201 218.131 174.931 222.641 174.931 222.641C176.121 222.861 177.571 222.131 177.821 223.441C177.821 226.601 174.281 228.921 172.571 229.371C172.911 238.521 168.831 240.021 168.621 244.371C168.621 244.731 157.271 245.291 157.201 245.071C156.207 241.557 154.909 238.138 153.321 234.851C151.521 231.311 152.771 225.651 156.171 225.441Z" fill="#260040"/>
<path d="M191.38 313.27C191.89 318.132 192.067 323.023 191.91 327.91C191.69 342.17 184.91 425.09 184.31 425.82C183.71 426.55 174.74 426.37 174.09 425.82C173.44 425.27 173 376.7 173 376.7L169.91 352.19C169.91 352.19 157.1 425.49 156.63 425.82C156.16 426.15 146.98 426.15 146.53 425.82C146.08 425.49 150.41 377.25 150.41 377.25C150.41 377.25 151.6 329.12 151.81 327C152.181 322.347 153.049 317.747 154.4 313.28L191.38 313.27Z" fill="#66A4ED"/>
<path d="M172.69 234.88C172.69 234.88 171.25 231.6 170.05 233.33C168.85 235.06 170.28 240.13 171.37 239.09C172.46 238.05 172.69 234.88 172.69 234.88Z" fill="#FCB788"/>
<path d="M203.34 283.91C203.611 285.276 203.387 286.693 202.71 287.91C200.99 291.17 196.05 295.62 194.71 296.21C193.635 296.6 192.511 296.838 191.371 296.92C191.371 296.92 192.371 312.92 191.371 313.26C186.681 315.02 155.68 314.9 154.37 313.26C153.37 311.98 152.371 303.59 151.451 298.26C151.451 298.26 146.651 297.37 145.651 296.07C144.651 294.77 141.901 260.21 144.401 257.39C148.351 253 156.6 249 156.6 249H170.5C170.5 249 184.93 252.66 188.5 255C190.94 256.6 194.151 274.26 195.871 284.45L200.611 281.65C200.611 281.65 202.51 281 203.34 283.91Z" fill="#060640"/>
<path d="M145.41 262.631C145.41 262.631 150.55 281.541 151.46 294.941" stroke="#260040" strokeWidth="0.25" stroke-linecap="round" stroke-linejoin="round"/>
<path d="M181.51 268.73C181.51 268.73 183 279.3 189.46 296.19" stroke="#260040" strokeWidth="0.25" stroke-linecap="round" stroke-linejoin="round"/>
<path d="M433.16 240.84C433.16 240.84 432.64 256.52 429.55 260.64C426.46 264.76 439.74 259 439.74 259L441.48 247.81L433.16 240.84Z" fill="#260040"/>
<path d="M415.73 425.179C414.73 429.379 415.44 434.049 414.6 434.889H398.8C398.8 431.699 400.09 431.109 401.24 430.549C402.99 429.699 407.53 429.549 408.46 425.969C409.19 423.169 417.2 419.079 415.73 425.179Z" fill="#66A4ED"/>
<path d="M446.17 425.13C446.64 429.42 447.17 434.05 446.34 434.89H435.46C435 431.53 436.46 429.98 437.22 429.33C438.71 428.08 438.82 427.39 438.7 425.97C438.46 423.09 445.57 419.57 446.17 425.13Z" fill="#66A4ED"/>
<path d="M455.53 310.77C458.245 315.686 459.798 321.16 460.07 326.77C460.49 336.07 451.39 367.37 450.95 369.49C450.51 371.61 453.43 374.49 452.25 386.14C451.07 397.79 446.57 421.14 446.19 425.14C446.05 426.6 438.93 427.25 438.72 425.98C438.51 424.71 436.52 376.71 436.72 371.21C436.92 365.71 431.95 315.21 431.95 315.21L455.53 310.77Z" fill="#260040"/>
<path d="M441.46 310.77C443.853 315.756 445.025 321.24 444.88 326.77C444.65 336.07 430.62 370.35 430.03 372.46C429.44 374.57 430.57 378.36 429.48 384.23C427.32 395.83 417.48 419.23 415.58 425.9C415.35 426.69 408.39 427.22 408.26 425.95C408.13 424.68 415.94 377.53 415.91 371.95C415.85 359.42 423.68 314.84 423.68 314.84L441.46 310.77Z" fill="#260040"/>
<path d="M452.86 298.65C452.826 299.319 452.869 299.99 452.99 300.65C453.54 303.59 455.4 310.02 455.53 310.77C455.66 311.52 453.47 314.13 444.41 315.05C435.35 315.97 419.89 311.83 419.95 310.64C420.01 309.45 425.17 301.17 425.18 296.1C425.19 291.03 422.83 276.51 422.83 276.51L416.22 280.06L413 273C413 273 423 260.31 426.82 258.45C430.64 256.59 438.5 255.34 438.5 255.34L450.08 254.77C450.08 254.77 459.67 258.57 460.75 260.5C461.83 262.43 460.86 292.5 460.1 293.57C459.34 294.64 452.86 298.65 452.86 298.65Z" fill="#66A4ED"/>
<path d="M438.84 251.81C438.601 253.536 438.119 255.219 437.41 256.81C436.41 258.81 434.67 266.01 435.69 266.08C436.71 266.15 446.87 257.49 447.49 255.32C448.11 253.15 445.44 247.08 445.44 247.08L438.84 251.81Z" fill="#F4A671"/>
<path d="M430.68 236.519C430.61 237.649 431.03 240.629 431.01 242.519C430.95 249.769 435.37 254.369 437.2 254.369C439.03 254.369 445.76 251.929 447.66 247.919C449.56 243.909 448.51 231.779 448.51 231.779H430.77C430.77 231.779 430.84 233.999 430.68 236.519Z" fill="#FCB788"/>
<path d="M442.491 237.549C442.491 237.549 435.841 240.239 431.261 239.239C426.681 238.239 426.261 231.779 430.451 229.699C434.641 227.619 445.271 226.359 449.451 229.819C453.251 232.939 454.141 253.389 453.151 256.549C452.161 259.709 444.321 262.359 441.991 260.639C439.661 258.919 442.241 253.849 443.581 249.689C444.921 245.529 442.491 237.549 442.491 237.549Z" fill="#260040"/>
<path d="M457.411 261C457.411 261 454.261 263.13 453.551 268.29C452.841 273.45 454.931 286.61 453.721 287.73C452.929 288.451 452.064 289.088 451.141 289.63" stroke="#260040" strokeWidth="0.25" stroke-linecap="round" stroke-linejoin="round"/>
<path d="M446.47 256.609H388.18C386.633 256.609 385.38 257.863 385.38 259.409V317.699C385.38 319.246 386.633 320.499 388.18 320.499H446.47C448.016 320.499 449.27 319.246 449.27 317.699V259.409C449.27 257.863 448.016 256.609 446.47 256.609Z" fill="#12C2C6"/>
<path d="M442.09 260.99H392.56C391.013 260.99 389.76 262.244 389.76 263.79V313.32C389.76 314.867 391.013 316.12 392.56 316.12H442.09C443.636 316.12 444.89 314.867 444.89 313.32V263.79C444.89 262.244 443.636 260.99 442.09 260.99Z" fill="#060640"/>
<g style="mix-blend-mode:screen" opacity="0.36">
<path d="M440.9 262.18H393.75C392.204 262.18 390.95 263.433 390.95 264.98V312.13C390.95 313.676 392.204 314.93 393.75 314.93H440.9C442.447 314.93 443.7 313.676 443.7 312.13V264.98C443.7 263.433 442.447 262.18 440.9 262.18Z" fill="#060640"/>
</g>
<path d="M437.48 273.74L409.97 301.25L397.17 288.45" stroke="#66A4ED" strokeWidth="7" stroke-linecap="round" stroke-linejoin="round"/>
<path d="M449.75 300.22C449.35 300.51 447.75 301.84 447.69 300.94C447.63 300.04 449.39 298.71 449.39 298.71C449.39 298.71 445.76 300.59 445.76 299.33C445.76 298.07 449.32 296.57 449.32 296.57C449.32 296.57 444.83 298.93 444.83 297.57C444.83 296.21 449.27 293.89 449.27 293.89C449.27 293.89 445.61 295.62 445.78 294.48C445.95 293.34 449.28 291.36 449.28 291.36V290C449.96 290.05 451.76 290.26 451.9 291.65C451.96 292.16 451.34 292.91 451.34 294.32C451.33 298.81 450.42 299.75 449.75 300.22Z" fill="#FCB788"/>
<path d="M384.821 276.48C385.301 276.82 386.131 277.3 386.171 276.23C386.169 275.913 386.083 275.602 385.921 275.33C385.76 275.057 385.528 274.833 385.251 274.68C385.251 274.68 387.871 276.12 387.871 274.62C387.871 273.12 385.341 272.15 385.341 272.15C385.341 272.15 388.981 274.15 388.981 272.52C388.981 270.89 385.391 268.95 385.391 268.95C385.391 268.95 389.941 269.35 389.851 268.41C389.721 266.99 385.381 266.35 385.381 266.15V265.5C384.591 265.43 381.101 266.33 382.931 267.92C383.171 268.13 381.931 267.97 382.511 269.92C383.051 271.67 382.511 272.76 382.611 273.64C382.881 275.73 384.231 276.06 384.821 276.48Z" fill="#FCB788"/>
<path d="M433.73 244.001C433.73 244.157 433.684 244.31 433.597 244.44C433.51 244.57 433.387 244.671 433.243 244.731C433.098 244.791 432.94 244.806 432.786 244.776C432.633 244.745 432.492 244.67 432.382 244.56C432.271 244.449 432.196 244.308 432.166 244.155C432.135 244.002 432.151 243.843 432.211 243.699C432.27 243.554 432.372 243.431 432.501 243.344C432.631 243.257 432.784 243.211 432.94 243.211C433.044 243.211 433.147 243.231 433.243 243.271C433.339 243.311 433.426 243.369 433.499 243.442C433.572 243.516 433.631 243.603 433.67 243.699C433.71 243.794 433.73 243.897 433.73 244.001V244.001Z" fill="#260040"/>
<path d="M439.94 244.001C439.94 244.157 439.894 244.31 439.807 244.44C439.72 244.57 439.597 244.671 439.453 244.731C439.308 244.791 439.149 244.806 438.996 244.776C438.843 244.745 438.702 244.67 438.592 244.56C438.481 244.449 438.406 244.308 438.376 244.155C438.345 244.002 438.361 243.843 438.42 243.699C438.48 243.554 438.582 243.431 438.711 243.344C438.841 243.257 438.994 243.211 439.15 243.211C439.36 243.211 439.561 243.294 439.709 243.442C439.857 243.59 439.94 243.791 439.94 244.001V244.001Z" fill="#260040"/>
<path d="M433.79 242.099C433.489 241.916 433.143 241.818 432.79 241.818C432.437 241.818 432.091 241.916 431.79 242.099" stroke="#260040" strokeWidth="0.5" stroke-linecap="round" stroke-linejoin="round"/>
<path d="M440 242C439.698 241.819 439.352 241.723 439 241.723C438.648 241.723 438.302 241.819 438 242" stroke="#260040" strokeWidth="0.5" stroke-linecap="round" stroke-linejoin="round"/>
<path d="M435.2 244.699C435.29 246.019 434.26 248.149 434.72 248.279C435.099 248.366 435.492 248.366 435.87 248.279" stroke="#260040" strokeWidth="0.5" stroke-linecap="round" stroke-linejoin="round"/>
<path d="M434.811 250.421C435.845 250.63 436.915 250.589 437.931 250.301" stroke="#260040" strokeWidth="0.5" stroke-linecap="round" stroke-linejoin="round"/>
<path d="M193 72.5893L195.62 80.8893C195.631 80.9194 195.648 80.9468 195.67 80.9693C195.693 80.9918 195.72 81.0089 195.75 81.0193L204.05 83.6293C204.09 83.6425 204.125 83.6679 204.15 83.702C204.175 83.7361 204.188 83.7772 204.188 83.8193C204.188 83.8614 204.175 83.9025 204.15 83.9366C204.125 83.9707 204.09 83.9962 204.05 84.0093L195.75 86.6193C195.72 86.6297 195.693 86.6468 195.67 86.6693C195.648 86.6919 195.631 86.7192 195.62 86.7493L193 95.0493C192.991 95.091 192.967 95.1283 192.933 95.1549C192.9 95.1815 192.858 95.196 192.815 95.196C192.773 95.196 192.731 95.1815 192.697 95.1549C192.664 95.1283 192.64 95.091 192.63 95.0493L190 86.7493C189.992 86.7199 189.976 86.6929 189.956 86.6703C189.935 86.6478 189.909 86.6303 189.88 86.6193L181.6 83.9993C181.56 83.9862 181.526 83.9607 181.501 83.9266C181.476 83.8925 181.463 83.8514 181.463 83.8093C181.463 83.7672 181.476 83.7261 181.501 83.692C181.526 83.6579 181.56 83.6325 181.6 83.6193L189.9 80.9993C189.929 80.9883 189.955 80.9708 189.976 80.9483C189.996 80.9258 190.012 80.8987 190.02 80.8693L192.64 72.5693C192.655 72.5322 192.681 72.5007 192.715 72.4792C192.748 72.4577 192.788 72.4473 192.828 72.4495C192.867 72.4517 192.906 72.4664 192.937 72.4915C192.968 72.5166 192.99 72.5508 193 72.5893V72.5893Z" fill="#FCCA73"/>
<path d="M486.62 106.051L489.24 114.351C489.25 114.381 489.267 114.408 489.29 114.431C489.312 114.453 489.34 114.471 489.37 114.481L497.66 117.091C497.7 117.104 497.735 117.13 497.759 117.164C497.784 117.198 497.797 117.239 497.797 117.281C497.797 117.323 497.784 117.364 497.759 117.398C497.735 117.432 497.7 117.458 497.66 117.471L489.37 120.081C489.34 120.091 489.312 120.108 489.29 120.131C489.267 120.154 489.25 120.181 489.24 120.211L486.62 128.511C486.61 128.553 486.586 128.59 486.553 128.617C486.519 128.643 486.478 128.658 486.435 128.658C486.392 128.658 486.35 128.643 486.317 128.617C486.283 128.59 486.26 128.553 486.25 128.511L483.63 120.211C483.621 120.18 483.604 120.152 483.582 120.129C483.559 120.106 483.531 120.09 483.5 120.081L475.21 117.471C475.17 117.458 475.135 117.432 475.11 117.398C475.086 117.364 475.072 117.323 475.072 117.281C475.072 117.239 475.086 117.198 475.11 117.164C475.135 117.13 475.17 117.104 475.21 117.091L483.5 114.481C483.531 114.472 483.559 114.456 483.582 114.433C483.604 114.41 483.621 114.382 483.63 114.351L486.25 106.051C486.26 106.009 486.283 105.972 486.317 105.945C486.35 105.919 486.392 105.904 486.435 105.904C486.478 105.904 486.519 105.919 486.553 105.945C486.586 105.972 486.61 106.009 486.62 106.051Z" fill="#FCCA73"/>
<path d="M158.49 139.3L159.8 143.45C159.804 143.464 159.812 143.477 159.822 143.488C159.833 143.498 159.846 143.506 159.86 143.51L164 144.82C164.017 144.828 164.031 144.841 164.041 144.857C164.051 144.873 164.056 144.891 164.056 144.91C164.056 144.929 164.051 144.947 164.041 144.963C164.031 144.979 164.017 144.992 164 145L159.85 146.3C159.835 146.307 159.822 146.317 159.812 146.329C159.802 146.341 159.794 146.355 159.79 146.37L158.48 150.52C158.48 150.544 158.47 150.567 158.453 150.584C158.436 150.601 158.414 150.61 158.39 150.61C158.366 150.61 158.343 150.601 158.326 150.584C158.309 150.567 158.3 150.544 158.3 150.52L157 146.38C156.994 146.364 156.984 146.35 156.972 146.338C156.96 146.326 156.946 146.316 156.93 146.31L152.78 145C152.76 144.994 152.742 144.981 152.73 144.964C152.718 144.947 152.711 144.926 152.711 144.905C152.711 144.884 152.718 144.864 152.73 144.847C152.742 144.83 152.76 144.817 152.78 144.81L156.93 143.5C156.945 143.496 156.959 143.488 156.971 143.478C156.983 143.468 156.993 143.455 157 143.44L158.31 139.29C158.31 139.278 158.313 139.267 158.318 139.256C158.324 139.245 158.331 139.236 158.34 139.228C158.348 139.22 158.359 139.214 158.37 139.21C158.381 139.206 158.393 139.205 158.405 139.205C158.417 139.206 158.428 139.209 158.439 139.214C158.449 139.219 158.459 139.226 158.467 139.235C158.475 139.244 158.481 139.254 158.485 139.265C158.489 139.277 158.49 139.288 158.49 139.3V139.3Z" fill="#FCCA73"/>
<path d="M236.94 92.9099L238.25 97.0599C238.254 97.0741 238.262 97.087 238.272 97.0974C238.283 97.1079 238.296 97.1156 238.31 97.1199L242.46 98.4299C242.48 98.4365 242.497 98.4492 242.51 98.4663C242.522 98.4833 242.529 98.5039 242.529 98.5249C242.529 98.546 242.522 98.5665 242.51 98.5836C242.497 98.6006 242.48 98.6133 242.46 98.6199L238.31 99.9199C238.295 99.9266 238.283 99.9362 238.272 99.9483C238.262 99.9604 238.254 99.9746 238.25 99.9899L236.94 104.14C236.933 104.16 236.921 104.177 236.904 104.19C236.886 104.202 236.866 104.209 236.845 104.209C236.824 104.209 236.803 104.202 236.786 104.19C236.769 104.177 236.756 104.16 236.75 104.14L235.44 99.9999C235.436 99.9846 235.428 99.9704 235.418 99.9583C235.407 99.9463 235.394 99.9366 235.38 99.9299L231.23 98.6299C231.21 98.6233 231.192 98.6106 231.18 98.5936C231.168 98.5765 231.161 98.556 231.161 98.5349C231.161 98.5139 231.168 98.4933 231.18 98.4763C231.192 98.4592 231.21 98.4465 231.23 98.4399L235.38 97.1299C235.394 97.1256 235.407 97.1179 235.417 97.1074C235.428 97.097 235.436 97.0841 235.44 97.0699L236.75 92.9199C236.755 92.8995 236.767 92.8813 236.784 92.868C236.8 92.8547 236.82 92.847 236.841 92.8458C236.862 92.8447 236.883 92.8503 236.901 92.8618C236.919 92.8734 236.932 92.8902 236.94 92.9099V92.9099Z" fill="#FCCA73"/>
<path d="M475.16 172.539L476.47 176.689C476.475 176.703 476.482 176.716 476.493 176.727C476.503 176.737 476.516 176.745 476.53 176.749L480.68 178.059C480.7 178.066 480.718 178.079 480.73 178.096C480.742 178.113 480.749 178.133 480.749 178.154C480.749 178.175 480.742 178.196 480.73 178.213C480.718 178.23 480.7 178.243 480.68 178.249L476.53 179.549C476.516 179.556 476.503 179.566 476.493 179.578C476.482 179.59 476.475 179.604 476.47 179.619L475.16 183.769C475.16 183.793 475.151 183.816 475.134 183.833C475.117 183.85 475.094 183.859 475.07 183.859C475.047 183.859 475.024 183.85 475.007 183.833C474.99 183.816 474.98 183.793 474.98 183.769L473.67 179.619C473.664 179.603 473.655 179.589 473.643 179.577C473.631 179.565 473.616 179.555 473.6 179.549L469.46 178.249C469.44 178.243 469.423 178.23 469.411 178.213C469.398 178.196 469.392 178.175 469.392 178.154C469.392 178.133 469.398 178.113 469.411 178.096C469.423 178.079 469.44 178.066 469.46 178.059L473.6 176.749C473.616 176.745 473.63 176.737 473.642 176.727C473.654 176.717 473.664 176.704 473.67 176.689L474.98 172.539C474.98 172.515 474.99 172.492 475.007 172.476C475.024 172.459 475.047 172.449 475.07 172.449C475.094 172.449 475.117 172.459 475.134 172.476C475.151 172.492 475.16 172.515 475.16 172.539V172.539Z" fill="#FCCA73"/>
<path d="M463.65 78.2105L465 82.3605C465.005 82.3746 465.012 82.3875 465.023 82.398C465.033 82.4084 465.046 82.4162 465.06 82.4205L469.21 83.7305C469.23 83.737 469.248 83.7498 469.26 83.7668C469.272 83.7839 469.279 83.8044 469.279 83.8255C469.279 83.8465 469.272 83.8671 469.26 83.8841C469.248 83.9012 469.23 83.9139 469.21 83.9205L465 85.2205C464.986 85.2271 464.973 85.2368 464.963 85.2489C464.952 85.261 464.945 85.2752 464.94 85.2905L463.63 89.4405C463.624 89.4605 463.611 89.4779 463.594 89.4902C463.577 89.5026 463.556 89.5092 463.535 89.5092C463.514 89.5092 463.494 89.5026 463.477 89.4902C463.46 89.4779 463.447 89.4605 463.44 89.4405L462.14 85.2905C462.134 85.2745 462.125 85.26 462.113 85.2479C462.101 85.2358 462.086 85.2265 462.07 85.2205L457.92 83.9205C457.9 83.9139 457.883 83.9012 457.871 83.8841C457.858 83.8671 457.852 83.8465 457.852 83.8255C457.852 83.8044 457.858 83.7839 457.871 83.7668C457.883 83.7498 457.9 83.737 457.92 83.7305L462.07 82.4205C462.086 82.4161 462.1 82.4085 462.112 82.3982C462.124 82.3878 462.134 82.3749 462.14 82.3605L463.44 78.2105C463.44 78.1826 463.451 78.1559 463.471 78.1362C463.491 78.1165 463.518 78.1055 463.545 78.1055C463.573 78.1055 463.6 78.1165 463.62 78.1362C463.639 78.1559 463.65 78.1826 463.65 78.2105V78.2105Z" fill="#FCCA73"/>
</g>
</g>
<defs>
<clipPath id="clip0_378_7112">
<rect width="589.626" height="439" fill="white" transform="translate(0.170898 0.835938)"/>
</clipPath>
<clipPath id="clip1_378_7112">
<rect width="420.74" height="371.89" fill="white" transform="translate(96 63)"/>
</clipPath>
</defs>
</svg>
