<svg width="35" height="41" viewBox="0 0 35 41" fill="none" xmlns="http://www.w3.org/2000/svg">
<path d="M1.30839 0.272182C0.871561 0.313293 0.538229 0.681213 0.540046 1.12011V36.0736C0.540046 38.3033 2.36188 40.1282 4.59462 40.1282H26.1656C28.3983 40.1282 30.2202 38.3033 30.2202 36.0736V34.6161C30.2202 34.1479 29.8404 33.7682 29.3723 33.7682H26.8281V26.5602C26.8547 26.5602 26.8811 26.5605 26.9077 26.5602L28.1268 31.0256C28.2076 31.3161 28.4371 31.542 28.729 31.6183C29.0209 31.6946 29.3315 31.6104 29.5444 31.3965L30.9224 30.0186L32.5919 30.3498C32.8771 30.4081 33.1719 30.3164 33.3736 30.1067C33.575 29.897 33.6552 29.5986 33.5857 29.3162L32.2873 24.2416C33.6268 22.8654 34.4603 20.9936 34.4603 18.9283C34.4603 14.7235 31.0333 11.2963 26.8283 11.2963V1.1203C26.8283 0.652109 26.4485 0.272372 25.9803 0.272372H1.38833C1.362 0.271189 1.33539 0.271189 1.30877 0.272372L1.30839 0.272182ZM2.23589 1.96803H25.1319V11.4944C21.7392 12.269 19.1957 15.3055 19.1957 18.9277C19.1957 20.993 20.0292 22.8649 21.369 24.241L20.0703 29.3156C20.0008 29.5981 20.081 29.8965 20.2827 30.1062C20.4841 30.3159 20.7793 30.4075 21.064 30.3493L22.7336 30.018L24.1115 31.3959C24.3798 31.6692 24.798 31.729 25.132 31.5418V33.7676H7.74795C7.27976 33.7676 6.90002 34.1474 6.90002 34.6155V36.073C6.89973 36.0863 6.89973 36.0996 6.90002 36.113C6.95296 37.3607 5.98373 38.3498 4.7271 38.4184C4.70048 38.4216 4.67386 38.4261 4.64754 38.4317H4.5946C3.26899 38.4317 2.23595 37.3891 2.23595 36.073L2.23589 1.96803ZM5.12455 4.51218C4.89947 4.52253 4.68801 4.6222 4.53628 4.78842C4.38486 4.95493 4.30559 5.17497 4.31594 5.39975C4.32659 5.62482 4.42596 5.83629 4.59247 5.98801C4.75898 6.13944 4.97903 6.2187 5.2041 6.20805H22.1641C22.3909 6.2113 22.6098 6.12346 22.7713 5.96405C22.9331 5.80463 23.0242 5.58725 23.0242 5.3601C23.0242 5.13296 22.9331 4.91558 22.7713 4.75616C22.6098 4.59674 22.3909 4.50891 22.1641 4.51216H5.2041C5.17748 4.51097 5.15086 4.51097 5.12454 4.51216L5.12455 4.51218ZM5.12455 9.6001C4.89947 9.61045 4.68801 9.71012 4.53628 9.87663C4.38486 10.0431 4.30559 10.2629 4.31594 10.488C4.32659 10.7127 4.42596 10.9242 4.59247 11.0759C4.75898 11.2274 4.97903 11.3066 5.2041 11.296H22.1641C22.3909 11.2992 22.6098 11.2114 22.7713 11.052C22.9331 10.8925 23.0242 10.6752 23.0242 10.448C23.0242 10.2212 22.9331 10.0035 22.7713 9.84408C22.6098 9.68466 22.3909 9.59683 22.1641 9.60008H5.2041C5.17748 9.59889 5.15086 9.59889 5.12454 9.60008L5.12455 9.6001ZM26.828 12.9922C30.1166 12.9922 32.7642 15.6398 32.7642 18.928C32.7642 22.2166 30.1165 24.8642 26.828 24.8642C23.5398 24.8642 20.8922 22.2165 20.8922 18.928C20.8922 15.6397 23.5399 12.9922 26.828 12.9922ZM5.12455 14.688C4.89947 14.6987 4.68801 14.798 4.53628 14.9646C4.38486 15.1311 4.30559 15.3508 4.31594 15.5759C4.32659 15.8007 4.42596 16.0124 4.59247 16.1638C4.75898 16.3156 4.97903 16.3945 5.2041 16.3842H17.0761C17.3032 16.3872 17.5221 16.2993 17.6836 16.1399C17.8454 15.9805 17.9362 15.7631 17.9362 15.536C17.9362 15.3091 17.8454 15.0914 17.6836 14.9323C17.5221 14.7729 17.3032 14.6848 17.0761 14.688H5.2041C5.17748 14.6868 5.15086 14.6868 5.12454 14.688L5.12455 14.688ZM26.828 14.688C24.4966 14.688 22.588 16.5965 22.588 18.928C22.588 21.2598 24.4966 23.168 26.828 23.168C29.1598 23.168 31.0681 21.2598 31.0681 18.928C31.0681 16.5965 29.1598 14.688 26.828 14.688ZM26.828 16.3842C28.2432 16.3842 29.3722 17.5131 29.3722 18.928C29.3722 20.3432 28.2433 21.4722 26.828 21.4722C25.4131 21.4722 24.2842 20.3433 24.2842 18.928C24.2842 17.5131 25.4131 16.3842 26.828 16.3842ZM5.12455 19.7759C4.89947 19.7866 4.68801 19.886 4.53628 20.0525C4.38486 20.219 4.30559 20.4387 4.31594 20.6638C4.32659 20.8889 4.42596 21.1003 4.59247 21.2518C4.75898 21.4035 4.97903 21.4828 5.2041 21.4721H17.0761C17.3032 21.4754 17.5221 21.3872 17.6836 21.2278C17.8454 21.0687 17.9362 20.851 17.9362 20.6242C17.9362 20.397 17.8454 20.1796 17.6836 20.0202C17.5221 19.8608 17.3032 19.773 17.0761 19.7759H5.2041C5.17748 19.7747 5.15086 19.7747 5.12454 19.7759L5.12455 19.7759ZM5.12455 24.8642C4.89947 24.8745 4.68801 24.9739 4.53628 25.1404C4.38486 25.3069 4.30559 25.527 4.31594 25.7517C4.32659 25.9768 4.42596 26.1883 4.59247 26.3397C4.75898 26.4914 4.97903 26.5707 5.2041 26.56H17.9241C18.1509 26.5633 18.3698 26.4755 18.5313 26.316C18.6931 26.1566 18.7842 25.9389 18.7842 25.7121C18.7842 25.485 18.6931 25.2676 18.5313 25.1082C18.3698 24.9487 18.1509 24.8609 17.9241 24.8641H5.2041C5.17748 24.8627 5.15086 24.8627 5.12454 24.8641L5.12455 24.8642ZM22.8129 25.4205C23.4949 25.8446 24.25 26.1557 25.0521 26.348L24.2704 29.1571L23.6079 28.4946C23.4056 28.2956 23.117 28.211 22.8393 28.2693L22.0443 28.4284L22.8129 25.4205ZM30.8424 25.4205L31.6108 28.4284L30.8158 28.2693C30.538 28.211 30.2497 28.2956 30.0474 28.4946L29.3849 29.1571L28.6029 26.348C29.4051 26.1557 30.1601 25.8446 30.8424 25.4205ZM5.12379 29.9521C4.89871 29.9625 4.68725 30.0622 4.53553 30.2284C4.3841 30.3949 4.30483 30.6149 4.31518 30.8397C4.32583 31.0648 4.4252 31.2762 4.59172 31.428C4.75823 31.5794 4.97827 31.6587 5.20334 31.648H17.9233C18.1502 31.6513 18.3691 31.5634 18.5305 31.404C18.6923 31.2446 18.7834 31.0272 18.7834 30.8001C18.7834 30.5729 18.6923 30.3555 18.5305 30.1961C18.3691 30.0367 18.1502 29.9489 17.9233 29.9521H5.20334C5.17672 29.9509 5.15011 29.9509 5.12378 29.9521L5.12379 29.9521ZM8.59514 35.4642H28.5231V36.0735C28.5231 37.3896 27.49 38.4321 26.1645 38.4321H7.79999C8.29095 37.761 8.62368 36.9705 8.59499 36.0735C8.59469 36.0602 8.59558 36.0474 8.59499 36.0338L8.59514 35.4642Z" fill="white"/>
</svg>
