<svg width="34" height="34" viewBox="0 0 34 34" fill="none" xmlns="http://www.w3.org/2000/svg">
<path d="M31.8761 17.3301C31.8761 16.1071 31.7748 15.2146 31.5557 14.2891H17.3047V19.8093H25.6697C25.5011 21.1811 24.5904 23.2471 22.5665 24.6354L22.5382 24.8202L27.0441 28.241L27.3563 28.2716C30.2233 25.6767 31.8761 21.8587 31.8761 17.3301Z" fill="#4285F4"/>
<path d="M17.3056 31.8746C21.4037 31.8746 24.8442 30.5523 27.3571 28.2715L22.5674 24.6353C21.2857 25.5112 19.5655 26.1228 17.3056 26.1228C13.2918 26.1228 9.88505 23.528 8.67065 19.9414L8.49265 19.9562L3.80737 23.5097L3.74609 23.6767C6.24209 28.5358 11.3691 31.8746 17.3056 31.8746Z" fill="#34A853"/>
<path d="M8.66858 19.9416C8.34815 19.016 8.1627 18.0243 8.1627 16.9996C8.1627 15.9749 8.34815 14.9832 8.65172 14.0577L8.64323 13.8606L3.89922 10.25L3.74401 10.3224C2.71528 12.3388 2.125 14.6031 2.125 16.9996C2.125 19.3962 2.71528 21.6604 3.74401 23.6768L8.66858 19.9416Z" fill="#FBBC05"/>
<path d="M17.3057 7.87663C20.1558 7.87663 22.0784 9.08315 23.1747 10.0914L27.4584 5.9925C24.8275 3.59598 21.4038 2.125 17.3057 2.125C11.3691 2.125 6.2421 5.46358 3.74609 10.3227L8.65382 14.058C9.88508 10.4715 13.2918 7.87663 17.3057 7.87663Z" fill="#EB4335"/>
</svg>
