<svg width="18" height="26" viewBox="0 0 18 26" fill="none" xmlns="http://www.w3.org/2000/svg">
<path fillRule="evenodd" clipRule="evenodd" d="M18 9.41304L17.9999 9.46086C17.9998 9.481 17.9996 9.50114 17.9993 9.52128C17.9998 9.5448 18 9.56848 18 9.59239C18 13.3457 15.0758 16.668 13.119 18.8912C12.5513 19.5363 12.0649 20.0889 11.7551 20.5326C10.6531 22.1109 10.0714 23.8207 9.91837 24.4783C9.91837 24.9735 9.50721 25.375 9 25.375C8.49279 25.375 8.08163 24.9735 8.08163 24.4783C7.92856 23.8207 7.34694 22.1109 6.2449 20.5326C5.93508 20.0889 5.44875 19.5363 4.88096 18.8912C2.92418 16.668 0 13.3457 0 9.59239C0 9.56848 0.000224211 9.5448 0.000672632 9.52128C0.000224211 9.48525 0 9.44917 0 9.41304C0 4.55953 4.02943 0.625 9 0.625C13.9706 0.625 18 4.55953 18 9.41304ZM9 12.6413C10.9274 12.6413 12.4898 11.1157 12.4898 9.2337C12.4898 7.35173 10.9274 5.82609 9 5.82609C7.07264 5.82609 5.5102 7.35173 5.5102 9.2337C5.5102 11.1157 7.07264 12.6413 9 12.6413Z" fill="#34A851"/>
<path d="M16.9948 5.37198C15.8928 3.29849 13.9694 1.70809 11.6454 1.01172L6.47656 6.88273C7.11207 6.23255 8.0083 5.82749 9.00142 5.82749C10.9288 5.82749 12.4912 7.35313 12.4912 9.2351C12.4912 10.0028 12.2312 10.7113 11.7925 11.281L16.9948 5.37198Z" fill="#4285F5"/>
<path d="M4.9836 19.0106C4.94914 18.9714 4.91434 18.9319 4.87923 18.8921C3.58939 17.4266 1.87923 15.4836 0.863281 13.2543L6.23553 7.15234C5.77971 7.72817 5.50848 8.45038 5.50848 9.2345C5.50848 11.1165 7.07091 12.6421 8.99828 12.6421C9.9746 12.6421 10.8573 12.2506 11.4907 11.6197L4.9836 19.0106Z" fill="#F9BB0E"/>
<path d="M2.12949 3.73633C0.801083 5.2677 0 7.24907 0 9.41315C0 9.44927 0.000224211 9.48535 0.000672632 9.52139C0.000224211 9.5449 0 9.56859 0 9.5925C0 10.8718 0.339702 12.101 0.865005 13.2536L6.22819 7.16193L2.12949 3.73633Z" fill="#E74335"/>
<path d="M11.6434 1.01036C10.8074 0.759861 9.91951 0.625 8.9994 0.625C6.2451 0.625 3.77979 1.8331 2.12891 3.73622L6.22761 7.16178L6.23654 7.15167C6.31109 7.05748 6.39057 6.9672 6.47463 6.8812L11.6434 1.01036Z" fill="#1A73E6"/>
</svg>
