<svg width="22" height="23" viewBox="0 0 22 23" fill="none" xmlns="http://www.w3.org/2000/svg">
<path d="M17.1875 9.19678C17.1875 7.55575 16.5356 5.98194 15.3752 4.82155C14.2148 3.66117 12.641 3.00928 11 3.00928C9.35897 3.00928 7.78516 3.66117 6.62478 4.82155C5.4644 5.98194 4.8125 7.55575 4.8125 9.19678C4.8125 11.735 6.84337 15.0433 11 19.006C15.1566 15.0433 17.1875 11.735 17.1875 9.19678ZM11 20.8843C5.95788 16.3014 3.4375 12.4047 3.4375 9.19678C3.4375 7.19108 4.23426 5.26753 5.65251 3.84928C7.07075 2.43104 8.9943 1.63428 11 1.63428C13.0057 1.63428 14.9293 2.43104 16.3475 3.84928C17.7657 5.26753 18.5625 7.19108 18.5625 9.19678C18.5625 12.4047 16.0421 16.3014 11 20.8843Z" fill="#18191F"/>
<path d="M11 11.2593C11.547 11.2593 12.0716 11.042 12.4584 10.6552C12.8452 10.2684 13.0625 9.74379 13.0625 9.19678C13.0625 8.64977 12.8452 8.12516 12.4584 7.73837C12.0716 7.35158 11.547 7.13428 11 7.13428C10.453 7.13428 9.92839 7.35158 9.54159 7.73837C9.1548 8.12516 8.9375 8.64977 8.9375 9.19678C8.9375 9.74379 9.1548 10.2684 9.54159 10.6552C9.92839 11.042 10.453 11.2593 11 11.2593ZM11 12.6343C10.0883 12.6343 9.21398 12.2721 8.56932 11.6275C7.92466 10.9828 7.5625 10.1085 7.5625 9.19678C7.5625 8.2851 7.92466 7.41075 8.56932 6.7661C9.21398 6.12144 10.0883 5.75928 11 5.75928C11.9117 5.75928 12.786 6.12144 13.4307 6.7661C14.0753 7.41075 14.4375 8.2851 14.4375 9.19678C14.4375 10.1085 14.0753 10.9828 13.4307 11.6275C12.786 12.2721 11.9117 12.6343 11 12.6343Z" fill="#18191F"/>
</svg>
