<svg width="20" height="21" viewBox="0 0 20 21" fill="none" xmlns="http://www.w3.org/2000/svg">
<path d="M17.0003 7H15.8337V5C15.8337 2.24 13.2203 0 10.0003 0C6.78032 0 4.16699 2.24 4.16699 5V7H3.00033C1.71699 7 0.666992 7.9 0.666992 9V19C0.666992 20.1 1.71699 21 3.00033 21H17.0003C18.2837 21 19.3337 20.1 19.3337 19V9C19.3337 7.9 18.2837 7 17.0003 7ZM6.50032 5C6.50032 3.34 8.06366 2 10.0003 2C11.937 2 13.5003 3.34 13.5003 5V7H6.50032V5ZM17.0003 19H3.00033V9H17.0003V19ZM10.0003 16C11.2837 16 12.3337 15.1 12.3337 14C12.3337 12.9 11.2837 12 10.0003 12C8.71699 12 7.66699 12.9 7.66699 14C7.66699 15.1 8.71699 16 10.0003 16Z" fill="#F9A000"/>
</svg>
