<svg width="76" height="53" viewBox="0 0 76 53" fill="none" xmlns="http://www.w3.org/2000/svg">
<rect x="0.5" y="0.5" width="75" height="51.1143" rx="5.5" fill="white" stroke="#D9D9D9"/>
<path fillRule="evenodd" clipRule="evenodd" d="M38.5428 37.2549C35.9554 39.4877 32.5991 40.8356 28.9316 40.8356C20.7482 40.8356 14.1143 34.1247 14.1143 25.8463C14.1143 17.5679 20.7482 10.8569 28.9316 10.8569C32.5991 10.8569 35.9554 12.2048 38.5428 14.4377C41.1302 12.2048 44.4865 10.8569 48.1541 10.8569C56.3374 10.8569 62.9714 17.5679 62.9714 25.8463C62.9714 34.1247 56.3374 40.8356 48.1541 40.8356C44.4865 40.8356 41.1302 39.4877 38.5428 37.2549Z" fill="#ED0006"/>
<path fillRule="evenodd" clipRule="evenodd" d="M38.5427 37.2549C41.7286 34.5055 43.7488 30.4146 43.7488 25.8463C43.7488 21.278 41.7286 17.187 38.5427 14.4377C41.1301 12.2048 44.4864 10.8569 48.154 10.8569C56.3373 10.8569 62.9713 17.5679 62.9713 25.8463C62.9713 34.1247 56.3373 40.8356 48.154 40.8356C44.4864 40.8356 41.1301 39.4877 38.5427 37.2549Z" fill="#F9A000"/>
<path fillRule="evenodd" clipRule="evenodd" d="M38.5429 14.438C41.7288 17.1873 43.749 21.2783 43.749 25.8465C43.749 30.4148 41.7288 34.5057 38.5429 37.2551C35.3571 34.5057 33.3369 30.4148 33.3369 25.8465C33.3369 21.2783 35.3571 17.1873 38.5429 14.438Z" fill="#FF5E00"/>
</svg>
