<svg width="26" height="19" viewBox="0 0 26 19" fill="none" xmlns="http://www.w3.org/2000/svg">
<path d="M25.2688 10.8688C25.1292 10.9763 24.9574 11.0336 24.7813 11.0313C24.6551 11.0313 24.5307 11.0019 24.4179 10.9455C24.3051 10.8891 24.2069 10.8072 24.1313 10.7063C23.6415 10.048 23.0041 9.51391 22.2703 9.147C21.5364 8.78008 20.7267 8.59058 19.9063 8.59377C19.6908 8.59377 19.4841 8.50816 19.3317 8.35579C19.1794 8.20342 19.0938 7.99676 19.0938 7.78127C19.0938 7.56578 19.1794 7.35912 19.3317 7.20674C19.4841 7.05437 19.6908 6.96877 19.9063 6.96877C20.3687 6.96827 20.8214 6.83625 21.2116 6.58811C21.6018 6.33998 21.9134 5.98597 22.11 5.5674C22.3065 5.14884 22.38 4.683 22.3217 4.22426C22.2635 3.76552 22.076 3.33282 21.781 2.97666C21.4861 2.6205 21.096 2.35558 20.6561 2.21282C20.2163 2.07007 19.7449 2.05537 19.297 2.17045C18.8492 2.28553 18.4433 2.52563 18.1267 2.86273C17.8102 3.19983 17.5961 3.62002 17.5094 4.07423C17.4936 4.18285 17.456 4.28714 17.3988 4.38082C17.3416 4.4745 17.2661 4.55563 17.1767 4.6193C17.0873 4.68297 16.9859 4.72787 16.8787 4.7513C16.7715 4.77472 16.6606 4.77617 16.5528 4.75557C16.445 4.73497 16.3425 4.69275 16.2515 4.63144C16.1604 4.57014 16.0828 4.49102 16.0231 4.39888C15.9635 4.30673 15.9232 4.20346 15.9046 4.0953C15.886 3.98713 15.8895 3.87632 15.9148 3.76955C16.0354 3.13765 16.3043 2.54341 16.6993 2.03574C17.0944 1.52806 17.6044 1.12147 18.1874 0.849423C18.7703 0.577374 19.4095 0.447648 20.0524 0.470922C20.6952 0.494195 21.3234 0.669802 21.8851 0.98329C22.4469 1.29678 22.9261 1.73919 23.2835 2.2741C23.6408 2.80901 23.866 3.42114 23.9405 4.0601C24.0151 4.69905 23.9368 5.34658 23.7122 5.94937C23.4875 6.55217 23.1229 7.093 22.6484 7.52736C23.7527 8.00616 24.7122 8.76605 25.4313 9.73127C25.4953 9.81663 25.5419 9.91376 25.5683 10.0171C25.5948 10.1205 25.6007 10.228 25.5856 10.3337C25.5705 10.4393 25.5347 10.5409 25.4804 10.6327C25.426 10.7245 25.3541 10.8047 25.2688 10.8688ZM19.5813 17.582C19.673 17.7764 19.685 17.9989 19.6147 18.202C19.5445 18.405 19.3976 18.5726 19.2055 18.6688C19.0934 18.7187 18.9726 18.7463 18.85 18.75C18.6978 18.749 18.5488 18.7057 18.4197 18.625C18.2906 18.5443 18.1864 18.4294 18.1188 18.293C17.6502 17.3346 16.9221 16.527 16.0171 15.9621C15.1122 15.3972 14.0668 15.0977 13 15.0977C11.9332 15.0977 10.8878 15.3972 9.9829 15.9621C9.07795 16.527 8.34977 17.3346 7.88125 18.293C7.83463 18.3891 7.76952 18.475 7.68966 18.5459C7.60979 18.6168 7.51673 18.6713 7.4158 18.7062C7.31487 18.7411 7.20804 18.7557 7.10144 18.7493C6.99484 18.7429 6.89055 18.7155 6.79453 18.6688C6.60238 18.5726 6.45548 18.405 6.38526 18.202C6.31503 17.9989 6.32705 17.7764 6.41875 17.582C7.17385 16.0272 8.4546 14.7897 10.0344 14.0883C9.22576 13.4685 8.63163 12.611 8.33549 11.6361C8.03935 10.6613 8.05607 9.61817 8.3833 8.65333C8.71053 7.68848 9.33182 6.85041 10.1599 6.25685C10.988 5.6633 11.9812 5.3441 13 5.3441C14.0188 5.3441 15.012 5.6633 15.8401 6.25685C16.6682 6.85041 17.2895 7.68848 17.6167 8.65333C17.9439 9.61817 17.9607 10.6613 17.6645 11.6361C17.3684 12.611 16.7742 13.4685 15.9656 14.0883C17.5454 14.7897 18.8262 16.0272 19.5813 17.582ZM13 13.4688C13.6428 13.4688 14.2711 13.2782 14.8056 12.921C15.3401 12.5639 15.7566 12.0563 16.0026 11.4625C16.2486 10.8686 16.313 10.2152 16.1876 9.58472C16.0622 8.95428 15.7526 8.37519 15.2981 7.92067C14.8436 7.46615 14.2645 7.15662 13.634 7.03121C13.0036 6.90581 12.3501 6.97017 11.7563 7.21616C11.1624 7.46214 10.6548 7.8787 10.2977 8.41316C9.94061 8.94762 9.75 9.57598 9.75 10.2188C9.75268 11.0799 10.096 11.905 10.7049 12.5139C11.3138 13.1228 12.1389 13.4661 13 13.4688ZM6.90625 7.78127C6.90625 7.56578 6.82065 7.35912 6.66828 7.20674C6.5159 7.05437 6.30924 6.96877 6.09375 6.96877C5.63133 6.96827 5.17859 6.83625 4.78839 6.58811C4.39818 6.33998 4.08661 5.98597 3.89004 5.5674C3.69348 5.14884 3.62003 4.683 3.67827 4.22426C3.73651 3.76552 3.92404 3.33282 4.21897 2.97666C4.5139 2.6205 4.90405 2.35558 5.34388 2.21282C5.78372 2.07007 6.25508 2.05537 6.70296 2.17045C7.15083 2.28553 7.55673 2.52563 7.87326 2.86273C8.1898 3.19983 8.40392 3.62002 8.49063 4.07423C8.50639 4.18285 8.544 4.28714 8.60118 4.38082C8.65836 4.4745 8.73393 4.55563 8.82333 4.6193C8.91272 4.68297 9.01409 4.72787 9.12131 4.7513C9.22854 4.77472 9.33939 4.77617 9.4472 4.75557C9.555 4.73497 9.65751 4.69275 9.74854 4.63144C9.83958 4.57014 9.91725 4.49102 9.97687 4.39888C10.0365 4.30673 10.0768 4.20346 10.0954 4.0953C10.114 3.98713 10.1105 3.87632 10.0852 3.76955C9.96462 3.13765 9.69575 2.54341 9.30066 2.03574C8.90558 1.52806 8.39558 1.12147 7.81265 0.849423C7.22971 0.577374 6.59051 0.447648 5.94764 0.470922C5.30477 0.494195 4.67662 0.669802 4.11488 0.98329C3.55314 1.29678 3.07388 1.73919 2.71654 2.2741C2.3592 2.80901 2.134 3.42114 2.05947 4.0601C1.98494 4.69905 2.06322 5.34658 2.28785 5.94937C2.51249 6.55217 2.87706 7.093 3.35157 7.52736C2.24729 8.00616 1.2878 8.76605 0.568753 9.73127C0.43946 9.90366 0.383945 10.1203 0.414419 10.3337C0.444894 10.547 0.558863 10.7395 0.731253 10.8688C0.87081 10.9763 1.04259 11.0336 1.21875 11.0313C1.34489 11.0313 1.46929 11.0019 1.58211 10.9455C1.69493 10.8891 1.79307 10.8072 1.86875 10.7063C2.35847 10.048 2.99591 9.51391 3.72974 9.147C4.46358 8.78008 5.27331 8.59058 6.09375 8.59377C6.30924 8.59377 6.5159 8.50816 6.66828 8.35579C6.82065 8.20342 6.90625 7.99676 6.90625 7.78127Z" fill="#18191F"/>
</svg>
