<svg width="51" height="45" viewBox="0 0 51 45" fill="none" xmlns="http://www.w3.org/2000/svg">
<path fillRule="evenodd" clipRule="evenodd" d="M27.156 2.07275C27.156 1.63349 26.9815 1.21222 26.6709 0.901608C26.3603 0.591001 25.9391 0.416504 25.4998 0.416504C25.0605 0.416504 24.6392 0.591001 24.3286 0.901608C24.018 1.21222 23.8435 1.63349 23.8435 2.07275V5.93734H19.4843C18.7085 5.93699 17.9506 6.17015 17.3091 6.60646L13.566 9.15488C13.4741 9.21711 13.3656 9.2502 13.2546 9.24984H4.19599C3.75673 9.24984 3.33546 9.42433 3.02485 9.73494C2.71424 10.0455 2.53974 10.4668 2.53974 10.9061C2.53974 11.3454 2.71424 11.7666 3.02485 12.0772C3.33546 12.3878 3.75673 12.5623 4.19599 12.5623H7.67854L0.243078 29.5223C0.10263 29.8533 0.0718808 30.2206 0.155336 30.5703C0.238791 30.92 0.432063 31.2338 0.706828 31.4657C0.883494 31.607 1.06237 31.7417 1.3892 31.9537C1.79995 32.2209 2.38737 32.5676 3.1382 32.9099C4.63987 33.5967 6.80845 34.2791 9.48937 34.2791C11.6801 34.2833 13.8461 33.8163 15.8405 32.9099C16.5914 32.5676 17.1788 32.2209 17.5895 31.9537C17.9208 31.7395 18.0975 31.6048 18.2741 31.4613C18.5511 31.232 18.7459 30.9188 18.8292 30.569C18.9124 30.2192 18.8796 29.8518 18.7357 29.5223L11.298 12.5623H13.2546C14.0297 12.5623 14.7872 12.3283 15.4276 11.8932L19.1729 9.3448C19.2642 9.28299 19.3719 9.24992 19.4821 9.24984H23.8435V41.2707H13.9347C13.4955 41.2707 13.0742 41.4452 12.7636 41.7558C12.453 42.0664 12.2785 42.4877 12.2785 42.9269C12.2785 43.3662 12.453 43.7875 12.7636 44.0981C13.0742 44.4087 13.4955 44.5832 13.9347 44.5832H37.0648C37.5041 44.5832 37.9254 44.4087 38.236 44.0981C38.5466 43.7875 38.7211 43.3662 38.7211 42.9269C38.7211 42.4877 38.5466 42.0664 38.236 41.7558C37.9254 41.4452 37.5041 41.2707 37.0648 41.2707H27.156V9.24984H31.5153C31.6257 9.24984 31.7361 9.28296 31.8245 9.3448L35.572 11.8932C36.2124 12.3283 36.9699 12.5623 37.745 12.5623H39.7016L32.2639 29.5223C32.1152 29.8615 32.0844 30.2406 32.1765 30.5993C32.2686 30.958 32.4782 31.2754 32.7718 31.501C32.7983 31.5209 32.7718 31.501 32.7762 31.501C32.9953 31.666 33.2239 31.8179 33.4608 31.9559C33.8694 32.2033 34.4546 32.5213 35.2054 32.8393C37.2022 33.6739 39.346 34.1004 41.5102 34.0936C43.6753 34.1 45.8198 33.6728 47.8172 32.837C48.5636 32.5213 49.151 32.2033 49.5618 31.9559C49.7979 31.8165 50.0264 31.6647 50.2464 31.501C50.54 31.2754 50.7496 30.958 50.8417 30.5993C50.9338 30.2406 50.903 29.8615 50.7543 29.5223L43.321 12.5623H46.8058C47.2451 12.5623 47.6663 12.3878 47.9769 12.0772C48.2875 11.7666 48.462 11.3454 48.462 10.9061C48.462 10.4668 48.2875 10.0455 47.9769 9.73494C47.6663 9.42433 47.2451 9.24984 46.8058 9.24984H37.7472C37.637 9.24976 37.5293 9.21669 37.438 9.15488L33.6905 6.60646C33.0496 6.17057 32.2925 5.93744 31.5175 5.93734H27.156V2.07275ZM3.84266 29.5621C5.58084 30.487 7.52042 30.9687 9.48937 30.9644C11.4583 30.9687 13.3979 30.487 15.1361 29.5621L9.48937 16.6875L3.84266 29.5621ZM35.8856 29.5091C36.0667 29.5974 36.2698 29.6924 36.4929 29.7873C37.6633 30.2798 39.3747 30.7811 41.5102 30.7811C43.457 30.7866 45.3798 30.3518 47.1348 29.5091L41.5102 16.6853L35.8856 29.5091Z" fill="white"/>
</svg>
