<svg width="35" height="41" viewBox="0 0 35 41" fill="none" xmlns="http://www.w3.org/2000/svg">
<path d="M1.30839 0.27206C0.871561 0.313171 0.538229 0.681091 0.540046 1.11998V36.0735C0.540046 38.3032 2.36188 40.128 4.59462 40.128H26.1656C28.3983 40.128 30.2202 38.3032 30.2202 36.0735V34.616C30.2202 34.1478 29.8404 33.768 29.3723 33.768H26.8281V26.5601C26.8547 26.5601 26.8811 26.5604 26.9077 26.5601L28.1268 31.0255C28.2076 31.3159 28.4371 31.5419 28.729 31.6182C29.0209 31.6945 29.3315 31.6102 29.5444 31.3964L30.9224 30.0185L32.5919 30.3497C32.8771 30.408 33.1719 30.3163 33.3736 30.1066C33.575 29.8969 33.6552 29.5985 33.5857 29.3161L32.2873 24.2415C33.6268 22.8653 34.4603 20.9935 34.4603 18.9282C34.4603 14.7234 31.0333 11.2962 26.8283 11.2962V1.12017C26.8283 0.651987 26.4485 0.27225 25.9803 0.27225H1.38833C1.362 0.271067 1.33539 0.271067 1.30877 0.27225L1.30839 0.27206ZM2.23589 1.96791H25.1319V11.4943C21.7392 12.2688 19.1957 15.3054 19.1957 18.9276C19.1957 20.9928 20.0292 22.8647 21.369 24.2409L20.0703 29.3155C20.0008 29.598 20.081 29.8964 20.2827 30.106C20.4841 30.3157 20.7793 30.4074 21.064 30.3492L22.7336 30.0179L24.1115 31.3958C24.3798 31.6691 24.798 31.7288 25.132 31.5416V33.7675H7.74795C7.27976 33.7675 6.90002 34.1472 6.90002 34.6154V36.0729C6.89973 36.0862 6.89973 36.0995 6.90002 36.1128C6.95296 37.3606 5.98373 38.3497 4.7271 38.4183C4.70048 38.4215 4.67386 38.4259 4.64754 38.4316H4.5946C3.26899 38.4316 2.23595 37.389 2.23595 36.0729L2.23589 1.96791ZM5.12455 4.51206C4.89947 4.52241 4.68801 4.62208 4.53628 4.78829C4.38486 4.9548 4.30559 5.17485 4.31594 5.39962C4.32659 5.6247 4.42596 5.83616 4.59247 5.98789C4.75898 6.13932 4.97903 6.21858 5.2041 6.20793H22.1641C22.3909 6.21118 22.6098 6.12334 22.7713 5.96392C22.9331 5.80451 23.0242 5.58712 23.0242 5.35998C23.0242 5.13284 22.9331 4.91546 22.7713 4.75604C22.6098 4.59662 22.3909 4.50879 22.1641 4.51203H5.2041C5.17748 4.51085 5.15086 4.51085 5.12454 4.51203L5.12455 4.51206ZM5.12455 9.59998C4.89947 9.61033 4.68801 9.71 4.53628 9.87651C4.38486 10.043 4.30559 10.2628 4.31594 10.4878C4.32659 10.7126 4.42596 10.9241 4.59247 11.0758C4.75898 11.2272 4.97903 11.3065 5.2041 11.2958H22.1641C22.3909 11.2991 22.6098 11.2113 22.7713 11.0518C22.9331 10.8924 23.0242 10.675 23.0242 10.4479C23.0242 10.2211 22.9331 10.0034 22.7713 9.84396C22.6098 9.68454 22.3909 9.59671 22.1641 9.59995H5.2041C5.17748 9.59877 5.15086 9.59877 5.12454 9.59995L5.12455 9.59998ZM26.828 12.9921C30.1166 12.9921 32.7642 15.6397 32.7642 18.9279C32.7642 22.2165 30.1165 24.864 26.828 24.864C23.5398 24.864 20.8922 22.2164 20.8922 18.9279C20.8922 15.6396 23.5399 12.9921 26.828 12.9921ZM5.12455 14.6879C4.89947 14.6985 4.68801 14.7979 4.53628 14.9644C4.38486 15.1309 4.30559 15.3507 4.31594 15.5758C4.32659 15.8005 4.42596 16.0123 4.59247 16.1637C4.75898 16.3155 4.97903 16.3944 5.2041 16.3841H17.0761C17.3032 16.387 17.5221 16.2992 17.6836 16.1398C17.8454 15.9804 17.9362 15.763 17.9362 15.5358C17.9362 15.309 17.8454 15.0913 17.6836 14.9322C17.5221 14.7728 17.3032 14.6846 17.0761 14.6879H5.2041C5.17748 14.6867 5.15086 14.6867 5.12454 14.6879L5.12455 14.6879ZM26.828 14.6879C24.4966 14.6879 22.588 16.5964 22.588 18.9279C22.588 21.2597 24.4966 23.1679 26.828 23.1679C29.1598 23.1679 31.0681 21.2597 31.0681 18.9279C31.0681 16.5964 29.1598 14.6879 26.828 14.6879ZM26.828 16.384C28.2432 16.384 29.3722 17.5129 29.3722 18.9279C29.3722 20.3431 28.2433 21.472 26.828 21.472C25.4131 21.472 24.2842 20.3431 24.2842 18.9279C24.2842 17.5129 25.4131 16.384 26.828 16.384ZM5.12455 19.7758C4.89947 19.7865 4.68801 19.8858 4.53628 20.0523C4.38486 20.2189 4.30559 20.4386 4.31594 20.6637C4.32659 20.8888 4.42596 21.1002 4.59247 21.2516C4.75898 21.4034 4.97903 21.4826 5.2041 21.472H17.0761C17.3032 21.4752 17.5221 21.3871 17.6836 21.2277C17.8454 21.0686 17.9362 20.8509 17.9362 20.624C17.9362 20.3969 17.8454 20.1795 17.6836 20.0201C17.5221 19.8607 17.3032 19.7729 17.0761 19.7758H5.2041C5.17748 19.7746 5.15086 19.7746 5.12454 19.7758L5.12455 19.7758ZM5.12455 24.864C4.89947 24.8744 4.68801 24.9738 4.53628 25.1403C4.38486 25.3068 4.30559 25.5268 4.31594 25.7516C4.32659 25.9767 4.42596 26.1881 4.59247 26.3396C4.75898 26.4913 4.97903 26.5706 5.2041 26.5599H17.9241C18.1509 26.5632 18.3698 26.4753 18.5313 26.3159C18.6931 26.1565 18.7842 25.9388 18.7842 25.712C18.7842 25.4848 18.6931 25.2674 18.5313 25.108C18.3698 24.9486 18.1509 24.8608 17.9241 24.864H5.2041C5.17748 24.8625 5.15086 24.8625 5.12454 24.864L5.12455 24.864ZM22.8129 25.4204C23.4949 25.8445 24.25 26.1556 25.0521 26.3479L24.2704 29.157L23.6079 28.4945C23.4056 28.2955 23.117 28.2109 22.8393 28.2691L22.0443 28.4283L22.8129 25.4204ZM30.8424 25.4204L31.6108 28.4283L30.8158 28.2691C30.538 28.2109 30.2497 28.2955 30.0474 28.4945L29.3849 29.157L28.6029 26.3479C29.4051 26.1556 30.1601 25.8445 30.8424 25.4204ZM5.12379 29.952C4.89871 29.9624 4.68725 30.062 4.53553 30.2283C4.3841 30.3948 4.30483 30.6148 4.31518 30.8396C4.32583 31.0647 4.4252 31.2761 4.59172 31.4278C4.75823 31.5793 4.97827 31.6585 5.20334 31.6479H17.9233C18.1502 31.6511 18.3691 31.5633 18.5305 31.4039C18.6923 31.2445 18.7834 31.0271 18.7834 30.7999C18.7834 30.5728 18.6923 30.3554 18.5305 30.196C18.3691 30.0366 18.1502 29.9487 17.9233 29.952H5.20334C5.17672 29.9508 5.15011 29.9508 5.12378 29.952L5.12379 29.952ZM8.59514 35.4641H28.5231V36.0734C28.5231 37.3895 27.49 38.432 26.1645 38.432H7.79999C8.29095 37.7609 8.62368 36.9703 8.59499 36.0734C8.59469 36.06 8.59558 36.0473 8.59499 36.0337L8.59514 35.4641Z" fill="white"/>
</svg>
