<svg width="43" height="41" viewBox="0 0 43 41" fill="none" xmlns="http://www.w3.org/2000/svg">
<path d="M41.2716 17.9121C42.8709 17.9121 43.5386 15.8573 42.2395 14.9102L22.4732 0.531836C22.1909 0.325021 21.8501 0.213526 21.5001 0.213526C21.1502 0.213526 20.8094 0.325021 20.5271 0.531836L0.760762 14.9102C-0.538359 15.8522 0.129317 17.9121 1.73381 17.9121H4.93762V37.2696H1.21105C0.983321 37.2696 0.796992 37.4559 0.796992 37.6836V40.375C0.796992 40.6028 0.983321 40.7891 1.21105 40.7891H41.7892C42.0169 40.7891 42.2033 40.6028 42.2033 40.375V37.6836C42.2033 37.4559 42.0169 37.2696 41.7892 37.2696H38.0626V17.9121H41.2716ZM21.5001 4.18076L35.5317 14.3874H7.46858L21.5001 4.18076ZM8.66418 17.9121H14.7198V37.2696H8.66418V17.9121ZM18.4464 17.9121H24.5021V37.2696H18.4464V17.9121ZM34.3361 37.2696H28.2286V17.9121H34.3361V37.2696Z" fill="white"/>
</svg>
