<svg width="28" height="42" viewBox="0 0 28 42" fill="none" xmlns="http://www.w3.org/2000/svg">
<path d="M19.3543 18.0196L26.4997 1.83333L19.3543 18.0196ZM9.85534 18.378L1.58301 1.83333L9.85534 18.378ZM16.4583 17.2587L8.93342 1.83333L16.4583 17.2587ZM19.523 1.83333L17.5297 6.625L19.523 1.83333ZM3.49967 28.6667C3.49967 31.7167 4.71128 34.6417 6.86795 36.7984C9.02462 38.9551 11.9497 40.1667 14.9997 40.1667C18.0497 40.1667 20.9747 38.9551 23.1314 36.7984C25.2881 34.6417 26.4997 31.7167 26.4997 28.6667C26.4997 25.6167 25.2881 22.6916 23.1314 20.5349C20.9747 18.3783 18.0497 17.1667 14.9997 17.1667C11.9497 17.1667 9.02462 18.3783 6.86795 20.5349C4.71128 22.6916 3.49967 25.6167 3.49967 28.6667V28.6667Z" stroke="white" strokeWidth="2" stroke-linecap="round" stroke-linejoin="round"/>
</svg>
