<svg width="49" height="49" viewBox="0 0 49 49" fill="none" xmlns="http://www.w3.org/2000/svg">
<path d="M28.0391 16.5H9.3724C9.01877 16.5 8.67964 16.3595 8.42959 16.1095C8.17954 15.8594 8.03906 15.5203 8.03906 15.1667V9.83333C8.03906 9.47971 8.17954 9.14057 8.42959 8.89052C8.67964 8.64048 9.01877 8.5 9.3724 8.5H28.0391C28.3927 8.5 28.7318 8.64048 28.9819 8.89052C29.2319 9.14057 29.3724 9.47971 29.3724 9.83333V15.1667C29.3724 15.5203 29.2319 15.8594 28.9819 16.1095C28.7318 16.3595 28.3927 16.5 28.0391 16.5ZM10.7057 13.8333H26.7057V11.0867H10.7057V13.8333Z" fill="white"/>
<path d="M28.0391 19.2733H9.3724C9.01877 19.2733 8.67964 19.4138 8.42959 19.6639C8.17954 19.9139 8.03906 20.253 8.03906 20.6067V25.8333C8.03906 26.187 8.17954 26.5261 8.42959 26.7761C8.67964 27.0262 9.01877 27.1667 9.3724 27.1667H24.5191L29.3724 22.2333V20.6067C29.3724 20.253 29.2319 19.9139 28.9819 19.6639C28.7318 19.4138 28.3927 19.2733 28.0391 19.2733ZM26.7057 24.5H10.7057V21.8333H26.7057V24.5Z" fill="white"/>
<path d="M14.7861 42.5133V42.4333L15.2127 40.58H5.37272V5.83333H32.0394V19.5L34.7061 16.98V4.5C34.7061 4.14638 34.5656 3.80724 34.3155 3.55719C34.0655 3.30714 33.7263 3.16667 33.3727 3.16667H4.03939C3.68577 3.16667 3.34663 3.30714 3.09658 3.55719C2.84653 3.80724 2.70605 4.14638 2.70605 4.5V41.8333C2.70605 42.187 2.84653 42.5261 3.09658 42.7761C3.34663 43.0262 3.68577 43.1667 4.03939 43.1667H14.7061C14.717 42.9473 14.7438 42.7289 14.7861 42.5133Z" fill="white"/>
<path d="M29.372 26.06L28.332 27.1133C28.5901 27.0601 28.8265 26.9317 29.0116 26.7442C29.1967 26.5568 29.3221 26.3187 29.372 26.06Z" fill="white"/>
<path d="M8.03906 36.42C8.03906 36.7736 8.17954 37.1128 8.42959 37.3628C8.67964 37.6129 9.01877 37.7533 9.3724 37.7533H15.8257L16.2257 36.02L16.3991 35.2867V35.22H10.7057V32.5H19.1591L21.8257 29.8333H9.3724C9.01877 29.8333 8.67964 29.9738 8.42959 30.2239C8.17954 30.4739 8.03906 30.813 8.03906 31.1667V36.42Z" fill="white"/>
<path d="M44.6924 22.7267L40.199 18.2333C39.9996 18.0334 39.7627 17.8747 39.5019 17.7665C39.2411 17.6582 38.9614 17.6025 38.679 17.6025C38.3966 17.6025 38.117 17.6582 37.8562 17.7665C37.5954 17.8747 37.3584 18.0334 37.159 18.2333L18.879 36.62L17.3724 43.0333C17.316 43.31 17.3147 43.5951 17.3686 43.8723C17.4226 44.1494 17.5307 44.4132 17.6867 44.6486C17.8428 44.8839 18.0438 45.0861 18.2781 45.2437C18.5124 45.4012 18.7755 45.511 19.0524 45.5667C19.1898 45.5805 19.3283 45.5805 19.4657 45.5667C19.6291 45.5933 19.7957 45.5933 19.959 45.5667L26.4257 44.14L44.6924 25.8333C44.8919 25.6351 45.0503 25.3993 45.1584 25.1396C45.2664 24.8798 45.3221 24.6013 45.3221 24.32C45.3221 24.0387 45.2664 23.7602 45.1584 23.5004C45.0503 23.2407 44.8919 23.0049 44.6924 22.8067V22.7267ZM25.0657 41.7133L20.1857 42.7933L21.3724 37.9533L35.079 24.1L38.839 27.86L25.0657 41.7133ZM40.3457 26.3533L36.5857 22.5933L38.7057 20.5L42.4924 24.2867L40.3457 26.3533Z" fill="white"/>
</svg>
