<svg width="38" height="44" viewBox="0 0 38 44" fill="none" xmlns="http://www.w3.org/2000/svg">
<path d="M34.625 15.75H22.125V3.25H3.375V40.75H34.625V15.75ZM33.3313 12.625L25.25 4.54375V12.625H33.3313ZM1.8125 0.125H25.25L37.75 12.625V42.3125C37.75 42.7269 37.5854 43.1243 37.2924 43.4174C36.9993 43.7104 36.6019 43.875 36.1875 43.875H1.8125C1.3981 43.875 1.00067 43.7104 0.707646 43.4174C0.41462 43.1243 0.25 42.7269 0.25 42.3125V1.6875C0.25 1.2731 0.41462 0.875671 0.707646 0.582646C1.00067 0.28962 1.3981 0.125 1.8125 0.125ZM9.625 22H28.375V25.125H9.625V22ZM9.625 12.625H17.4375V15.75H9.625V12.625ZM9.625 31.375H28.375V34.5H9.625V31.375Z" fill="white"/>
</svg>
