<svg width="26" height="26" viewBox="0 0 26 26" fill="none" xmlns="http://www.w3.org/2000/svg">
<path d="M0 6.5C0 5.63805 0.34241 4.8114 0.951903 4.2019C1.5614 3.59241 2.38805 3.25 3.25 3.25H22.75C23.612 3.25 24.4386 3.59241 25.0481 4.2019C25.6576 4.8114 26 5.63805 26 6.5V19.5C26 20.362 25.6576 21.1886 25.0481 21.7981C24.4386 22.4076 23.612 22.75 22.75 22.75H3.25C2.38805 22.75 1.5614 22.4076 0.951903 21.7981C0.34241 21.1886 0 20.362 0 19.5V6.5ZM3.25 4.875C2.81902 4.875 2.4057 5.0462 2.10095 5.35095C1.7962 5.6557 1.625 6.06902 1.625 6.5V8.125H24.375V6.5C24.375 6.06902 24.2038 5.6557 23.899 5.35095C23.5943 5.0462 23.181 4.875 22.75 4.875H3.25ZM24.375 11.375H1.625V19.5C1.625 19.931 1.7962 20.3443 2.10095 20.649C2.4057 20.9538 2.81902 21.125 3.25 21.125H22.75C23.181 21.125 23.5943 20.9538 23.899 20.649C24.2038 20.3443 24.375 19.931 24.375 19.5V11.375Z" fill="#18191F"/>
<path d="M3.25 16.25C3.25 15.819 3.4212 15.4057 3.72595 15.101C4.0307 14.7962 4.44402 14.625 4.875 14.625H6.5C6.93098 14.625 7.3443 14.7962 7.64905 15.101C7.95379 15.4057 8.125 15.819 8.125 16.25V17.875C8.125 18.306 7.95379 18.7193 7.64905 19.024C7.3443 19.3288 6.93098 19.5 6.5 19.5H4.875C4.44402 19.5 4.0307 19.3288 3.72595 19.024C3.4212 18.7193 3.25 18.306 3.25 17.875V16.25Z" fill="#18191F"/>
</svg>
