<svg width="30" height="33" viewBox="0 0 30 33" fill="none" xmlns="http://www.w3.org/2000/svg">
<path d="M1.55383 0.0513579C1.19135 0.0853188 0.914758 0.389253 0.916266 0.751817V29.6264C0.916266 31.4684 2.428 32.9759 4.2807 32.9759H22.18C24.0327 32.9759 25.5445 31.4684 25.5445 29.6264V28.4224C25.5445 28.0356 25.2294 27.7219 24.8409 27.7219H22.7298V21.7676C22.7519 21.7676 22.7737 21.7678 22.7958 21.7676L23.8074 25.4564C23.8744 25.6963 24.0649 25.883 24.3071 25.946C24.5493 26.009 24.807 25.9394 24.9837 25.7628L26.1271 24.6245L27.5125 24.8981C27.7491 24.9463 27.9938 24.8705 28.1611 24.6973C28.3283 24.5241 28.3948 24.2775 28.3371 24.0442L27.2598 19.8522C28.3712 18.7153 29.0628 17.1691 29.0628 15.4629C29.0628 11.9894 26.2192 9.15823 22.7299 9.15823V0.751973C22.7299 0.36521 22.4148 0.0515142 22.0263 0.0515142H1.62016C1.59832 0.0505369 1.57623 0.0505369 1.55414 0.0515142L1.55383 0.0513579ZM2.32346 1.45228H21.3223V9.32188C18.5071 9.96173 16.3965 12.4702 16.3965 15.4625C16.3965 17.1685 17.0881 18.7149 18.1998 19.8517L17.1222 24.0438C17.0646 24.2771 17.1311 24.5236 17.2984 24.6968C17.4656 24.87 17.7105 24.9458 17.9468 24.8976L19.3322 24.624L20.4756 25.7623C20.6982 25.9881 21.0452 26.0374 21.3223 25.8827V27.7215H6.89729C6.5088 27.7215 6.19369 28.0352 6.19369 28.4219V29.626C6.19345 29.637 6.19345 29.648 6.19369 29.659C6.23762 30.6897 5.43337 31.5068 4.39063 31.5634C4.36854 31.5661 4.34646 31.5698 4.32461 31.5744H4.28068C3.18071 31.5744 2.3235 30.7132 2.3235 29.626L2.32346 1.45228ZM4.72043 3.55396C4.53366 3.56252 4.35819 3.64485 4.23229 3.78216C4.10664 3.91971 4.04087 4.10149 4.04945 4.28717C4.05829 4.4731 4.14075 4.64779 4.27892 4.77313C4.41709 4.89822 4.59968 4.9637 4.78644 4.9549H18.8596C19.0479 4.95759 19.2295 4.88502 19.3635 4.75333C19.4977 4.62164 19.5733 4.44206 19.5733 4.25442C19.5733 4.06678 19.4977 3.88721 19.3635 3.75551C19.2295 3.62382 19.0479 3.55126 18.8596 3.55395H4.78644C4.76435 3.55297 4.74226 3.55297 4.72042 3.55395L4.72043 3.55396ZM4.72043 7.75703C4.53366 7.76558 4.35819 7.84792 4.23229 7.98547C4.10664 8.12302 4.04087 8.30455 4.04945 8.49048C4.05829 8.67617 4.14075 8.85085 4.27892 8.97619C4.41709 9.10128 4.59968 9.16677 4.78644 9.15796H18.8596C19.0479 9.16065 19.2295 9.08809 19.3635 8.9564C19.4977 8.8247 19.5733 8.64513 19.5733 8.45749C19.5733 8.27009 19.4977 8.09027 19.3635 7.95858C19.2295 7.82689 19.0479 7.75433 18.8596 7.75701H4.78644C4.76435 7.75603 4.74226 7.75603 4.72042 7.75701L4.72043 7.75703ZM22.7297 10.5592C25.4585 10.5592 27.6555 12.7464 27.6555 15.4627C27.6555 18.1793 25.4585 20.3665 22.7297 20.3665C20.0011 20.3665 17.8042 18.1793 17.8042 15.4627C17.8042 12.7463 20.0012 10.5592 22.7297 10.5592ZM4.72043 11.9601C4.53366 11.9689 4.35819 12.051 4.23229 12.1885C4.10664 12.3261 4.04087 12.5076 4.04945 12.6935C4.05829 12.8792 4.14075 13.0542 4.27892 13.1793C4.41709 13.3046 4.59968 13.3698 4.78644 13.3613H14.6377C14.8262 13.3637 15.0078 13.2912 15.1418 13.1595C15.276 13.0278 15.3513 12.8482 15.3513 12.6606C15.3513 12.4732 15.276 12.2933 15.1418 12.1619C15.0078 12.0302 14.8262 11.9574 14.6377 11.9601H4.78644C4.76435 11.9591 4.74226 11.9591 4.72042 11.9601L4.72043 11.9601ZM22.7297 11.9601C20.7951 11.9601 19.2114 13.5367 19.2114 15.4627C19.2114 17.3889 20.7951 18.9653 22.7297 18.9653C24.6646 18.9653 26.248 17.3889 26.248 15.4627C26.248 13.5367 24.6646 11.9601 22.7297 11.9601ZM22.7297 13.3613C23.904 13.3613 24.8408 14.2938 24.8408 15.4627C24.8408 16.6318 23.9041 17.5644 22.7297 17.5644C21.5556 17.5644 20.6189 16.6318 20.6189 15.4627C20.6189 14.2938 21.5556 13.3613 22.7297 13.3613ZM4.72043 16.1632C4.53366 16.172 4.35819 16.254 4.23229 16.3916C4.10664 16.5291 4.04087 16.7107 4.04945 16.8966C4.05829 17.0825 4.14075 17.2572 4.27892 17.3823C4.41709 17.5077 4.59968 17.5731 4.78644 17.5643H14.6377C14.8262 17.567 15.0078 17.4942 15.1418 17.3625C15.276 17.2311 15.3513 17.0513 15.3513 16.8639C15.3513 16.6762 15.276 16.4966 15.1418 16.365C15.0078 16.2333 14.8262 16.1607 14.6377 16.1631H4.78644C4.76435 16.1622 4.74226 16.1622 4.72042 16.1631L4.72043 16.1632ZM4.72043 20.3665C4.53366 20.375 4.35819 20.4571 4.23229 20.5947C4.10664 20.7322 4.04087 20.914 4.04945 21.0997C4.05829 21.2856 4.14075 21.4603 4.27892 21.5854C4.41709 21.7107 4.59968 21.7762 4.78644 21.7674H15.3413C15.5296 21.7701 15.7112 21.6975 15.8452 21.5658C15.9794 21.4342 16.055 21.2543 16.055 21.0669C16.055 20.8793 15.9794 20.6997 15.8452 20.568C15.7112 20.4363 15.5296 20.3638 15.3413 20.3665H4.78644C4.76435 20.3652 4.74226 20.3652 4.72042 20.3665L4.72043 20.3665ZM19.398 20.826C19.9639 21.1764 20.5905 21.4334 21.2561 21.5922L20.6074 23.9128L20.0577 23.3656C19.8898 23.2011 19.6503 23.1313 19.4199 23.1794L18.7602 23.3108L19.398 20.826ZM26.0608 20.826L26.6984 23.3108L26.0387 23.1794C25.8082 23.1313 25.5689 23.2011 25.4011 23.3656L24.8514 23.9128L24.2025 21.5922C24.8681 21.4334 25.4946 21.1764 26.0608 20.826ZM4.7198 24.5696C4.53303 24.5781 4.35756 24.6605 4.23167 24.7978C4.10601 24.9353 4.04024 25.1171 4.04883 25.3028C4.05766 25.4887 4.14012 25.6634 4.27829 25.7887C4.41646 25.9138 4.59905 25.9793 4.78581 25.9705H15.3407C15.5289 25.9732 15.7105 25.9006 15.8445 25.7689C15.9788 25.6373 16.0544 25.4577 16.0544 25.27C16.0544 25.0824 15.9788 24.9028 15.8445 24.7711C15.7105 24.6394 15.5289 24.5669 15.3407 24.5696H4.78581C4.76372 24.5686 4.74164 24.5686 4.71979 24.5696L4.7198 24.5696ZM7.60028 29.123H24.1363V29.6263C24.1363 30.7136 23.279 31.5748 22.1791 31.5748H6.94047C7.34787 31.0204 7.62396 30.3673 7.60015 29.6263C7.59991 29.6153 7.60064 29.6048 7.60015 29.5936L7.60028 29.123Z" fill="#18191F"/>
</svg>
