<svg width="38" height="41" viewBox="0 0 38 41" fill="none" xmlns="http://www.w3.org/2000/svg">
<path fillRule="evenodd" clipRule="evenodd" d="M23.6502 0.590485C23.1076 0.770468 22.4629 1.46192 22.2298 2.11412C21.8737 3.11017 21.2119 3.61693 20.1132 3.7346C19.3368 3.81781 18.8849 4.00992 18.4827 4.42765C17.8802 5.05352 17.7097 5.87756 17.9572 6.96879C18.0661 7.44922 18.0743 7.62593 18.0036 7.96843C17.8676 8.62725 17.7055 8.8981 17.0312 9.59378C16.3492 10.2974 16.154 10.7094 16.154 11.4452C16.154 12.1048 16.4275 12.6514 17.0863 13.3086C17.9604 14.1803 18.185 14.8219 17.9637 15.8134C17.7326 16.8481 17.8256 17.4975 18.2976 18.1462C18.6931 18.6895 19.26 18.9766 20.0937 19.0556C21.2321 19.1633 21.7641 19.5754 22.2894 20.7563C22.6462 21.5587 23.1101 22.0234 23.746 22.2153C24.4228 22.4197 24.9067 22.3339 25.7851 21.8537C26.4849 21.4712 26.5654 21.4461 27.0924 21.4461C27.6774 21.4461 27.628 21.4276 28.8405 22.0983C29.4891 22.457 30.4902 22.3374 31.1461 21.8229C31.4017 21.6223 31.5595 21.3896 31.8352 20.8063C32.426 19.5569 32.9119 19.1788 34.0891 19.0527C34.853 18.9708 35.3053 18.7814 35.6893 18.3826C36.3006 17.7477 36.4927 16.8828 36.239 15.9091C36.0779 15.2912 36.1171 14.7364 36.3585 14.2185C36.5212 13.8694 36.6492 13.7154 37.2933 13.0932C37.7837 12.6196 37.9931 12.1277 37.9998 11.4337C38.0075 10.649 37.7662 10.1352 37.1048 9.52852C36.236 8.73128 35.969 7.91984 36.2317 6.87481C36.4658 5.94394 36.3228 5.18803 35.7947 4.56487C35.3621 4.05444 34.888 3.82914 34.0589 3.74011C32.9209 3.6178 32.4399 3.26558 31.9439 2.19126C31.3999 1.01292 30.7484 0.51621 29.7424 0.5127C29.3339 0.511343 29.1558 0.554504 28.8207 0.736322C27.6643 1.36371 27.6548 1.36714 27.0954 1.37248C26.6486 1.37671 26.4839 1.33954 26.1545 1.16011C25.9349 1.04052 25.5834 0.848891 25.3734 0.734248C24.8918 0.471214 24.187 0.412416 23.6502 0.590485ZM29.879 8.65389C30.4486 8.93464 30.7179 9.81126 30.4162 10.4027C30.278 10.6737 27.0274 14.0465 26.7781 14.1777C26.5429 14.3013 25.9411 14.2876 25.6938 14.1529C25.5797 14.0909 25.0835 13.6152 24.591 13.0959C23.8683 12.334 23.6851 12.094 23.6415 11.8526C23.5318 11.2452 23.7936 10.6663 24.3012 10.3937C24.5778 10.2452 25.1635 10.2433 25.4326 10.3901C25.5467 10.4522 25.7773 10.6503 25.945 10.8303L26.25 11.1574L27.4428 9.92885C28.0989 9.25312 28.7048 8.66123 28.7892 8.61345C29.0189 8.48364 29.5755 8.50431 29.879 8.65389ZM1.69332 9.96483C-0.348282 10.4644 -0.618115 13.3055 1.2913 14.1983C1.63188 14.3575 1.84049 14.3828 3.13389 14.4216L4.59244 14.4654L5.84067 18.9729C6.5272 21.4521 7.41812 24.6652 7.82053 26.1132C8.22293 27.5612 8.66106 28.9793 8.79424 29.2645C9.13613 29.9968 9.94793 30.8241 10.7005 31.2072C11.7827 31.7582 11.5599 31.7456 19.7906 31.7192C26.7068 31.6968 27.2031 31.686 27.5987 31.5493C28.82 31.1273 29.763 30.2889 30.2704 29.1745C30.5611 28.5357 31.6508 24.7507 31.5685 24.6652C31.5476 24.6436 31.3631 24.687 31.1584 24.7617C30.9403 24.8414 30.4526 24.9131 29.9798 24.935C29.0037 24.9801 28.3494 24.8421 27.5995 24.4327L27.0837 24.1512L26.543 24.433C24.4999 25.498 22.0627 24.9309 20.6115 23.0528C20.4167 22.8005 20.1721 22.3903 20.0682 22.1411C19.93 21.8097 19.838 21.6874 19.7257 21.6854C19.3008 21.6778 18.4269 21.4132 17.8483 21.1169C16.1822 20.2639 15.1428 18.3802 15.251 16.41L15.2897 15.7039L12.5306 15.683L9.77142 15.6621L9.13282 13.6635C8.78165 12.5643 8.40674 11.5232 8.29974 11.3499C7.84879 10.6194 7.08131 10.093 6.26482 9.95406C5.71371 9.86032 2.08552 9.86886 1.69332 9.96483ZM13.1804 34.641C12.3841 34.911 11.7587 35.4858 11.4022 36.2755C11.2258 36.6663 11.1998 36.8264 11.1998 37.5217C11.1998 38.2345 11.2227 38.3681 11.4155 38.7757C12.1982 40.4314 14.1732 40.9948 15.6136 39.9734C16.7293 39.1821 17.1746 37.7205 16.6954 36.4219C16.456 35.7732 15.8372 35.0978 15.2156 34.8068C14.6394 34.5369 13.7106 34.4613 13.1804 34.641ZM23.1821 34.6691C21.1152 35.4398 20.5605 38.1391 22.1541 39.6715C23.1582 40.637 24.5693 40.7579 25.6757 39.9734C26.5151 39.378 26.941 38.5271 26.9423 37.4419C26.943 36.8908 26.91 36.7308 26.7006 36.2691C26.4019 35.6106 25.9278 35.1057 25.328 34.8078C24.7321 34.5118 23.7708 34.4496 23.1821 34.6691Z" fill="#18191F"/>
</svg>
