<svg width="23" height="26" viewBox="0 0 23 26" fill="none" xmlns="http://www.w3.org/2000/svg">
<path fillRule="evenodd" clipRule="evenodd" d="M0.25 4.42773C0.25 3.43317 0.645088 2.47935 1.34835 1.77608C2.05161 1.07282 3.00544 0.677734 4 0.677734H19C19.9946 0.677734 20.9484 1.07282 21.6517 1.77608C22.3549 2.47935 22.75 3.43317 22.75 4.42773V24.4277C22.7499 24.6632 22.6832 24.8938 22.5578 25.093C22.4323 25.2922 22.2532 25.452 22.0409 25.5539C21.8287 25.6557 21.592 25.6956 21.3581 25.6689C21.1241 25.6421 20.9025 25.5499 20.7188 25.4027L18.3075 23.4752L15.3188 25.4677C15.098 25.6151 14.836 25.6883 14.5708 25.6769C14.3056 25.6654 14.051 25.5698 13.8438 25.404L11.5 23.5277L9.15625 25.4027C8.94901 25.5686 8.69436 25.6642 8.42917 25.6756C8.16398 25.6871 7.90203 25.6138 7.68125 25.4665L4.6925 23.474L2.28 25.4027C2.0962 25.5495 1.87472 25.6414 1.64101 25.668C1.40729 25.6945 1.17084 25.6546 0.958814 25.5527C0.746789 25.4509 0.567799 25.2913 0.442413 25.0923C0.317027 24.8933 0.250335 24.6629 0.25 24.4277V4.42773ZM6.5 5.67773C6.16848 5.67773 5.85054 5.80943 5.61612 6.04385C5.3817 6.27827 5.25 6.59621 5.25 6.92773C5.25 7.25925 5.3817 7.5772 5.61612 7.81162C5.85054 8.04604 6.16848 8.17773 6.5 8.17773H16.5C16.8315 8.17773 17.1495 8.04604 17.3839 7.81162C17.6183 7.5772 17.75 7.25925 17.75 6.92773C17.75 6.59621 17.6183 6.27827 17.3839 6.04385C17.1495 5.80943 16.8315 5.67773 16.5 5.67773H6.5ZM6.5 10.6777C6.16848 10.6777 5.85054 10.8094 5.61612 11.0439C5.3817 11.2783 5.25 11.5962 5.25 11.9277C5.25 12.2593 5.3817 12.5772 5.61612 12.8116C5.85054 13.046 6.16848 13.1777 6.5 13.1777H16.5C16.8315 13.1777 17.1495 13.046 17.3839 12.8116C17.6183 12.5772 17.75 12.2593 17.75 11.9277C17.75 11.5962 17.6183 11.2783 17.3839 11.0439C17.1495 10.8094 16.8315 10.6777 16.5 10.6777H6.5ZM6.5 15.6777C6.16848 15.6777 5.85054 15.8094 5.61612 16.0439C5.3817 16.2783 5.25 16.5962 5.25 16.9277C5.25 17.2593 5.3817 17.5772 5.61612 17.8116C5.85054 18.046 6.16848 18.1777 6.5 18.1777H11.5C11.8315 18.1777 12.1495 18.046 12.3839 17.8116C12.6183 17.5772 12.75 17.2593 12.75 16.9277C12.75 16.5962 12.6183 16.2783 12.3839 16.0439C12.1495 15.8094 11.8315 15.6777 11.5 15.6777H6.5Z" fill="#060640"/>
</svg>
