<svg width="591" height="441" viewBox="0 0 591 441" fill="none" xmlns="http://www.w3.org/2000/svg">
<g clip-path="url(#clip0_272_3109)">
<path d="M50.8968 435.043C34.2216 426.901 -5.62282 415.412 1.3232 366.134C3.55924 350.325 23.8977 326.279 38.7175 320.321C95.9508 297.344 82.2966 278.046 57.5336 236.387C38.2655 191.975 47.5428 113.642 91.4311 90.1665C119.786 74.9985 170.549 97.1927 200.331 85.1105C232.469 72.0551 235.68 35.2389 266.675 19.6674C359.661 -27.0472 495.442 15.6321 499.652 120.835C507.359 312.63 658.055 239.425 553.151 437.654L50.8968 435.043Z" fill="#E3E9FF"/>
<path d="M434.174 317.036L265.045 265.264L307.667 111.131L482.883 140.866L434.174 317.036ZM266.797 264.296L433.178 315.237L481.081 142.011L308.701 112.741L266.797 264.296Z" fill="#444444"/>
<path d="M183.052 419.522L182.712 418.893L124.424 310.381L192.529 273.942L203.909 295.111L251.17 383.083L250.54 383.423L183.052 419.522ZM126.365 310.96L183.644 417.585L249.216 382.492L202.636 295.778L191.937 275.867L183.43 280.42L126.365 310.96Z" fill="#444444"/>
<path opacity="0.2" d="M467.345 293.576C493.488 293.576 514.681 272.425 514.681 246.333C514.681 220.241 493.488 199.089 467.345 199.089C441.202 199.089 420.009 220.241 420.009 246.333C420.009 272.425 441.202 293.576 467.345 293.576Z" fill="#3A7EC1"/>
<path d="M462.656 293.576C488.799 293.576 509.992 272.425 509.992 246.333C509.992 220.241 488.799 199.089 462.656 199.089C436.513 199.089 415.32 220.241 415.32 246.333C415.32 272.425 436.513 293.576 462.656 293.576Z" fill="#F9C067"/>
<path opacity="0.2" d="M422.769 307.162C422.769 307.162 473.066 153.368 471.642 153.368C470.218 153.368 454.83 150.513 454.83 150.513L422.769 307.162Z" fill="#3A7EC1"/>
<path opacity="0.2" d="M329.975 392.002L389.724 297.162L329.975 280.471V392.002Z" fill="#3A7EC1"/>
<path opacity="0.2" d="M373.82 342.154C369.787 342.154 366.031 343.148 362.893 344.833L352.95 336.896C354.651 334.469 355.621 331.664 355.621 328.67C355.621 319.564 346.673 312.18 335.633 312.18C324.593 312.18 315.646 319.564 315.646 328.67C315.646 337.777 324.593 345.16 335.633 345.16C341.065 345.16 345.993 343.374 349.597 340.468L358.785 347.801C355.71 350.707 353.844 354.493 353.844 358.656C353.844 367.763 362.792 375.146 373.832 375.146C384.872 375.146 393.82 367.763 393.82 358.656C393.808 349.537 384.86 342.154 373.82 342.154Z" fill="#3A7EC1"/>
<path d="M234.332 379.863L167.487 415.623L109.54 307.74L167.248 276.861L176.372 271.968L187.412 292.508L234.332 379.863Z" fill="#3B82F4"/>
<path d="M141.441 340.7C145.124 339.987 147.531 336.43 146.817 332.754C146.103 329.078 142.539 326.676 138.856 327.389C135.173 328.101 132.766 331.658 133.48 335.334C134.194 339.01 137.758 341.412 141.441 340.7Z" fill="#B3CEF6"/>
<path d="M186.228 312.595L152.869 330.444C151.495 331.186 149.781 330.658 149.038 329.287C148.294 327.916 148.823 326.205 150.197 325.463L183.556 307.614C184.93 306.872 186.644 307.401 187.388 308.772C188.131 310.143 187.615 311.853 186.228 312.595Z" fill="#B3CEF6"/>
<path d="M150.02 359.042C153.771 358.993 156.773 355.918 156.723 352.174C156.674 348.43 153.593 345.435 149.842 345.484C146.091 345.533 143.09 348.608 143.139 352.352C143.188 356.096 146.269 359.091 150.02 359.042Z" fill="#B3CEF6"/>
<path d="M196.02 330.808L162.661 348.657C161.287 349.399 159.573 348.871 158.83 347.5C158.086 346.129 158.615 344.418 159.989 343.676L193.348 325.84C194.722 325.098 196.436 325.626 197.18 326.997C197.911 328.368 197.394 330.079 196.02 330.808Z" fill="#B3CEF6"/>
<path d="M159.725 377.272C163.476 377.272 166.517 374.237 166.517 370.493C166.517 366.748 163.476 363.713 159.725 363.713C155.973 363.713 152.932 366.748 152.932 370.493C152.932 374.237 155.973 377.272 159.725 377.272Z" fill="#B3CEF6"/>
<path d="M205.812 349.034L172.453 366.883C171.079 367.625 169.365 367.097 168.621 365.726C167.878 364.355 168.407 362.644 169.781 361.902L203.14 344.053C204.514 343.311 206.228 343.84 206.972 345.211C207.703 346.582 207.186 348.292 205.812 349.034Z" fill="#B3CEF6"/>
<path d="M169.504 395.485C173.255 395.485 176.297 392.449 176.297 388.705C176.297 384.961 173.255 381.925 169.504 381.925C165.752 381.925 162.711 384.961 162.711 388.705C162.711 392.449 165.752 395.485 169.504 395.485Z" fill="#B3CEF6"/>
<path d="M215.592 367.26L182.233 385.108C180.859 385.85 179.145 385.322 178.402 383.951C177.658 382.58 178.188 380.869 179.561 380.127L212.921 362.279C214.294 361.536 216.008 362.065 216.752 363.436C217.483 364.807 216.966 366.517 215.592 367.26Z" fill="#B3CEF6"/>
<path opacity="0.2" d="M187.413 292.508L178.49 310.331L174.104 319.086L162.434 342.38L160.896 345.437L161.123 343.085L162.774 325.148L163.404 318.406L165.068 300.407L165.433 296.495L165.887 291.489L166.114 289.024L167.248 276.861L176.373 271.968L187.413 292.508Z" fill="#3A7EC1"/>
<path d="M449.991 269.05C448.289 268.886 446.651 268.069 445.479 266.647L432.687 251.113C430.343 248.271 430.759 244.069 433.607 241.73C436.455 239.39 440.665 239.805 443.009 242.648L451.554 253.038L478.17 231.215C481.019 228.875 485.228 229.29 487.572 232.133C489.916 234.975 489.5 239.176 486.652 241.516L454.881 267.565C453.457 268.735 451.692 269.213 449.991 269.05Z" fill="white"/>
<path d="M379.238 366.82C378.242 365.927 378.167 364.393 379.074 363.412C381.393 360.846 377.499 356.821 377.461 356.783L320.623 305.389C319.627 304.496 319.551 302.961 320.459 301.98C321.354 300.986 322.891 300.911 323.874 301.816L380.813 353.311C383.397 355.928 386.951 361.953 382.666 366.669C381.759 367.638 380.234 367.713 379.238 366.82Z" fill="#636466"/>
<path d="M322.74 315.727C323.736 316.62 325.261 316.545 326.155 315.564C328.474 312.998 332.885 316.482 332.923 316.52L389.761 367.927C390.757 368.82 392.282 368.744 393.177 367.763C394.072 366.769 393.996 365.247 393.013 364.354L336.074 312.86C333.213 310.558 326.861 307.614 322.576 312.331C321.682 313.3 321.757 314.834 322.74 315.727Z" fill="#636466"/>
<path opacity="0.28" d="M348.379 328.427C355.427 321.393 355.427 309.988 348.379 302.954C341.331 295.92 329.905 295.92 322.857 302.954C315.809 309.988 315.809 321.393 322.857 328.427C329.905 335.461 341.331 335.461 348.379 328.427Z" fill="#F2F2F2"/>
<path opacity="0.28" d="M391.028 366.984C398.075 359.95 398.075 348.545 391.028 341.511C383.98 334.477 372.553 334.477 365.505 341.511C358.458 348.545 358.457 359.95 365.505 366.984C372.553 374.018 383.98 374.018 391.028 366.984Z" fill="#F2F2F2"/>
<path d="M392.345 338.732C385.338 332.393 375.155 331.688 367.454 336.304C365.804 330.179 360.825 325.689 354.562 324.645C358.406 316.544 356.717 306.519 349.697 300.167C341.127 292.419 327.831 293.073 320.068 301.626C312.305 310.18 312.96 323.45 321.53 331.198C324.378 333.776 327.731 335.424 331.272 336.154C332.154 336.342 333.049 336.481 333.944 336.543C334.965 336.619 335.985 336.632 337.006 336.556C342.249 336.204 347.366 333.927 351.172 329.739C351.323 329.575 351.487 329.386 351.625 329.21C352.117 329.223 352.596 329.248 353.075 329.286C355.57 329.563 357.813 330.519 359.54 332.091C361.279 333.663 362.451 335.789 362.968 338.242C363.056 338.719 363.144 339.197 363.182 339.688C363.018 339.839 362.867 340.015 362.716 340.179C358.922 344.355 357.158 349.662 357.322 354.895C357.347 355.914 357.46 356.933 357.637 357.939C357.801 358.819 358.015 359.712 358.28 360.568C359.364 364.002 361.342 367.184 364.178 369.75C372.748 377.498 386.044 376.844 393.807 368.291C401.57 359.763 400.915 346.493 392.345 338.732ZM334.876 331.764C331.272 331.613 327.68 330.242 324.794 327.626C318.19 321.651 317.686 311.463 323.673 304.884C329.646 298.306 339.867 297.79 346.458 303.765C352.419 309.161 353.402 318.041 349.092 324.556L349.08 324.569C348.639 325.236 348.134 325.89 347.58 326.519C347.252 326.871 346.912 327.223 346.572 327.538C344.354 329.6 341.694 330.896 338.871 331.462C337.561 331.713 336.212 331.827 334.876 331.764ZM367.429 366.178C364.531 363.561 362.817 360.14 362.3 356.568C362.111 355.247 362.086 353.901 362.224 352.568C362.502 349.713 363.548 346.933 365.375 344.531C365.652 344.153 365.967 343.788 366.295 343.424C366.862 342.807 367.454 342.241 368.085 341.738C368.085 341.738 368.085 341.738 368.097 341.726C374.172 336.808 383.12 336.908 389.093 342.304C395.697 348.279 396.189 358.48 390.215 365.046C384.241 371.649 374.033 372.152 367.429 366.178Z" fill="#636466"/>
<path d="M467.345 146.224L423.21 305.816C421.131 313.35 413.317 317.778 405.768 315.69C403.399 315.036 401.332 313.815 399.681 312.218C396.077 308.734 394.451 303.451 395.875 298.281L403.865 269.377L262.122 230.334L293.541 116.716L467.345 146.224Z" fill="white"/>
<path opacity="0.2" d="M410.783 177.884L409.8 181.456L285.146 147.117L288.713 134.237C309.974 141.759 410.783 177.884 410.783 177.884Z" fill="#3A7EC1"/>
<path opacity="0.2" d="M419.013 181.707C414.678 180.512 410.292 180.902 406.448 182.512L387.935 249.44L407.872 254.924L395.887 298.281C394.463 303.451 395.257 308.495 397.613 311.639C401.293 310.117 404.621 306.067 406.095 300.759L418.005 257.704L432.246 206.197L432.473 205.354C435.296 195.128 429.272 184.537 419.013 181.707Z" fill="#3A7EC1"/>
<path d="M405.78 315.69L255.757 274.371C245.233 271.465 239.045 260.598 241.957 250.095L272.455 139.797L390.707 172.362L385.578 190.902C386.838 186.337 389.636 182.626 393.265 180.148C393.706 179.846 394.173 179.557 394.639 179.293C398.924 176.865 404.154 176.073 409.283 177.482C419.542 180.312 425.566 190.902 422.731 201.141L395.874 298.282C393.795 305.816 398.231 313.615 405.78 315.69Z" fill="#5B97EF"/>
<path d="M382.616 309.312L354.953 301.69L385.704 190.474C387.015 186.109 389.762 182.537 393.278 180.147C402.856 183.38 408.401 193.631 405.679 203.479L379.932 296.595C378.659 301.187 379.818 305.878 382.616 309.312Z" fill="#3B82F4"/>
<path d="M329.975 392L385.578 190.9C388.414 180.662 399.025 174.65 409.284 177.467L240.067 130.865C229.884 128.06 219.348 134.035 216.538 144.198L160.896 345.436L329.975 392Z" fill="white"/>
<path d="M241.241 178.787C244.799 175.236 244.799 169.478 241.241 165.927C237.683 162.375 231.913 162.375 228.355 165.927C224.797 169.478 224.797 175.236 228.355 178.787C231.913 182.339 237.683 182.339 241.241 178.787Z" fill="#E4ECF9"/>
<path d="M358.368 211.113L253.766 182.309C251.409 181.655 249.997 179.202 250.653 176.837L250.703 176.648C251.359 174.296 253.816 172.888 256.185 173.542L360.788 202.346C363.145 203 364.556 205.452 363.901 207.817L363.851 208.006C363.208 210.358 360.738 211.754 358.368 211.113Z" fill="#E4ECF9"/>
<path d="M226.494 211.491C231.526 211.491 235.605 207.419 235.605 202.397C235.605 197.374 231.526 193.303 226.494 193.303C221.461 193.303 217.382 197.374 217.382 202.397C217.382 207.419 221.461 211.491 226.494 211.491Z" fill="#E4ECF9"/>
<path d="M350.064 241.15L245.461 212.346C243.104 211.692 241.693 209.239 242.348 206.875L242.399 206.686C243.054 204.334 245.511 202.925 247.881 203.579L352.483 232.383C354.84 233.037 356.252 235.49 355.596 237.855L355.546 238.043C354.891 240.408 352.433 241.804 350.064 241.15Z" fill="#E4ECF9"/>
<path d="M218.176 241.539C223.209 241.539 227.288 237.468 227.288 232.445C227.288 227.423 223.209 223.351 218.176 223.351C213.144 223.351 209.064 227.423 209.064 232.445C209.064 237.468 213.144 241.539 218.176 241.539Z" fill="#E4ECF9"/>
<path d="M341.758 271.199L237.155 242.395C234.799 241.741 233.387 239.288 234.042 236.924L234.093 236.735C234.748 234.383 237.206 232.974 239.575 233.628L344.178 262.432C346.535 263.086 347.946 265.539 347.291 267.904L347.24 268.092C346.585 270.444 344.127 271.841 341.758 271.199Z" fill="#E4ECF9"/>
<path d="M216.311 268.916C219.87 265.364 219.87 259.606 216.311 256.055C212.753 252.504 206.984 252.504 203.425 256.055C199.867 259.606 199.867 265.364 203.425 268.916C206.984 272.467 212.753 272.467 216.311 268.916Z" fill="#E4ECF9"/>
<path d="M333.453 301.236L228.851 272.432C226.494 271.778 225.082 269.325 225.738 266.961L225.788 266.772C226.444 264.42 228.901 263.011 231.27 263.665L335.873 292.469C338.23 293.123 339.641 295.576 338.986 297.941L338.936 298.129C338.28 300.494 335.823 301.89 333.453 301.236Z" fill="#E4ECF9"/>
<path d="M208.009 298.962C211.568 295.411 211.568 289.653 208.01 286.101C204.451 282.55 198.682 282.55 195.124 286.101C191.565 289.653 191.565 295.411 195.124 298.962C198.682 302.514 204.451 302.514 208.009 298.962Z" fill="#E4ECF9"/>
<path d="M325.148 331.273L220.545 302.469C218.188 301.815 216.777 299.362 217.432 296.997L217.483 296.809C218.138 294.457 220.595 293.048 222.965 293.702L327.567 322.506C329.924 323.16 331.336 325.613 330.68 327.977L330.63 328.166C329.975 330.531 327.504 331.927 325.148 331.273Z" fill="#E4ECF9"/>
<path d="M199.7 328.998C203.258 325.447 203.258 319.689 199.7 316.137C196.142 312.586 190.372 312.586 186.814 316.137C183.256 319.689 183.256 325.447 186.814 328.998C190.372 332.55 196.142 332.55 199.7 328.998Z" fill="#E4ECF9"/>
<path d="M316.843 361.322L212.24 332.518C209.884 331.864 208.472 329.411 209.127 327.046L209.178 326.857C209.833 324.505 212.291 323.097 214.66 323.751L319.263 352.555C321.619 353.209 323.031 355.661 322.376 358.026L322.325 358.215C321.67 360.58 319.2 361.976 316.843 361.322Z" fill="#E4ECF9"/>
<path d="M222.171 207.831C221.566 207.667 221.037 207.265 220.697 206.686L217.067 200.296C216.399 199.126 216.815 197.642 217.987 196.976C219.159 196.309 220.646 196.724 221.314 197.894L223.747 202.17L234.698 195.969C235.87 195.303 237.357 195.718 238.025 196.888C238.693 198.057 238.277 199.542 237.105 200.208L224.036 207.604C223.444 207.944 222.776 208.007 222.171 207.831Z" fill="#F9C067"/>
<path d="M206.052 266.143C205.447 265.98 204.918 265.577 204.578 264.998L200.948 258.609C200.28 257.439 200.696 255.955 201.868 255.288C203.04 254.621 204.527 255.037 205.195 256.206L207.627 260.483L218.579 254.282C219.751 253.615 221.238 254.03 221.906 255.2C222.574 256.37 222.158 257.854 220.986 258.521L207.917 265.917C207.312 266.244 206.657 266.319 206.052 266.143Z" fill="#F9C067"/>
<path d="M197.494 297.073C196.89 296.909 196.36 296.507 196.02 295.928L192.39 289.538C191.722 288.369 192.138 286.884 193.31 286.218C194.482 285.551 195.97 285.966 196.637 287.136L199.07 291.413L210.022 285.211C211.194 284.545 212.681 284.96 213.349 286.13C214.017 287.299 213.601 288.784 212.429 289.45L199.36 296.846C198.767 297.173 198.099 297.236 197.494 297.073Z" fill="#F9C067"/>
<path d="M189.442 326.228C188.837 326.064 188.307 325.662 187.967 325.083L184.338 318.694C183.67 317.524 184.086 316.04 185.258 315.373C186.43 314.706 187.917 315.121 188.585 316.291L191.017 320.568L201.969 314.367C203.141 313.7 204.628 314.115 205.296 315.285C205.964 316.455 205.548 317.939 204.376 318.606L191.307 326.002C190.702 326.329 190.034 326.391 189.442 326.228Z" fill="#F9C067"/>
<path d="M332.344 88.9682C338.378 88.9682 343.27 84.0858 343.27 78.063C343.27 72.0402 338.378 67.1577 332.344 67.1577C326.309 67.1577 321.417 72.0402 321.417 78.063C321.417 84.0858 326.309 88.9682 332.344 88.9682Z" fill="#4786D1"/>
<path d="M131.177 225.259C132.23 220.433 129.164 215.668 124.329 214.617C119.493 213.566 114.72 216.627 113.667 221.453C112.613 226.279 115.68 231.043 120.515 232.094C125.351 233.145 130.124 230.085 131.177 225.259Z" fill="#4786D1"/>
<path d="M447.218 381.259C453.252 381.259 458.144 376.376 458.144 370.354C458.144 364.331 453.252 359.448 447.218 359.448C441.183 359.448 436.291 364.331 436.291 370.354C436.291 376.376 441.183 381.259 447.218 381.259Z" fill="#4786D1"/>
<path d="M363.039 56.9109C357.164 56.9109 352.406 52.1397 352.406 46.3004C352.406 40.4374 357.188 35.6899 363.039 35.6899C368.915 35.6899 373.672 40.4611 373.672 46.3004C373.672 52.1397 368.891 56.9109 363.039 56.9109ZM363.039 37.8738C358.377 37.8738 354.595 41.6479 354.595 46.3004C354.595 50.9529 358.377 54.7271 363.039 54.7271C367.702 54.7271 371.484 50.9529 371.484 46.3004C371.484 41.6479 367.678 37.8738 363.039 37.8738Z" fill="#F7F9FF"/>
<path d="M573.323 440.265H50.8969C49.4459 440.265 48.2803 439.102 48.2803 437.654C48.2803 436.206 49.4459 435.042 50.8969 435.042H573.323C574.774 435.042 575.94 436.206 575.94 437.654C575.94 439.102 574.75 440.265 573.323 440.265Z" fill="#2C2858"/>
<path d="M85.5794 331.857C79.7038 331.857 74.9463 327.086 74.9463 321.247C74.9463 315.384 79.7276 310.636 85.5794 310.636C91.455 310.636 96.2125 315.407 96.2125 321.247C96.2125 327.086 91.4312 331.857 85.5794 331.857ZM85.5794 312.796C80.917 312.796 77.1348 316.57 77.1348 321.223C77.1348 325.875 80.917 329.65 85.5794 329.65C90.2418 329.65 94.0241 325.875 94.0241 321.223C94.0241 316.57 90.218 312.796 85.5794 312.796Z" fill="#F7F9FF"/>
<path d="M115.915 345.46C116.008 341.935 113.22 339.002 109.687 338.909C106.154 338.816 103.214 341.599 103.121 345.124C103.028 348.65 105.817 351.583 109.35 351.676C112.883 351.768 115.822 348.986 115.915 345.46Z" fill="#F7F9FF"/>
<path d="M346.649 25.6963C346.649 29.2094 343.795 32.0816 340.25 32.0816C336.73 32.0816 333.852 29.2331 333.852 25.6963C333.852 22.1832 336.706 19.311 340.25 19.311C343.795 19.311 346.649 22.1832 346.649 25.6963Z" fill="#F7F9FF"/>
<path d="M554.483 294.638C554.483 298.151 551.629 301.023 548.084 301.023C544.54 301.023 541.686 298.175 541.686 294.638C541.686 291.125 544.54 288.252 548.084 288.252C551.629 288.252 554.483 291.101 554.483 294.638Z" fill="#F7F9FF"/>
</g>
<defs>
<clipPath id="clip0_272_3109">
<rect width="589.626" height="439.421" fill="white" transform="translate(0.514648 0.84375)"/>
</clipPath>
</defs>
</svg>
