<svg width="25" height="19" viewBox="0 0 25 19" fill="none" xmlns="http://www.w3.org/2000/svg">
<path d="M0.142046 19V13.1705C0.142046 11.5511 0.457386 9.91477 1.08807 8.26136C1.7358 6.59091 2.57102 5.03977 3.59375 3.60795C4.63352 2.15909 5.70739 0.965909 6.81534 0.0284095L12.1335 2.94318C11.2131 4.44318 10.4801 6.01136 9.93466 7.64772C9.3892 9.26704 9.125 11.0994 9.14205 13.1449V19H0.142046ZM12.9773 19V13.1705C12.9773 11.5511 13.2926 9.91477 13.9233 8.26136C14.571 6.59091 15.4063 5.03977 16.429 3.60795C17.4688 2.15909 18.5426 0.965909 19.6506 0.0284095L24.9688 2.94318C24.0483 4.44318 23.3153 6.01136 22.7699 7.64772C22.2244 9.26704 21.9602 11.0994 21.9773 13.1449V19H12.9773Z" fill="#2EC5CE"/>
</svg>
