<svg width="20" height="21" viewBox="0 0 20 21" fill="none" xmlns="http://www.w3.org/2000/svg">
<path d="M7.49733 13.0967V17.532H2.01353V3.78099C2.01353 2.6287 2.95874 1.6836 4.11122 1.6836H12.8631C12.2992 2.31555 11.9562 3.13218 11.9562 4.04468V12.5049H8.08912C7.76247 12.5049 7.49733 12.7701 7.49733 13.0967ZM13.1808 15.387L13.1809 15.3869C13.3148 15.253 13.3686 15.0959 13.3587 14.9436C13.3489 14.7938 13.2782 14.6562 13.1764 14.5545C13.0747 14.4527 12.9371 14.3819 12.7874 14.3722C12.6351 14.3622 12.4781 14.4161 12.3442 14.55L9.54203 17.3521L9.54201 17.3521C9.40813 17.4861 9.35429 17.6432 9.36424 17.7955C9.37402 17.9452 9.44481 18.0828 9.54657 18.1845C9.64833 18.2863 9.78592 18.357 9.93567 18.3667C10.088 18.3766 10.2451 18.3227 10.379 18.1888L13.1808 15.387ZM1.42148 18.7154H7.49703V19.6411C7.49703 19.9681 7.7622 20.2329 8.08882 20.2329H14.6335C14.9604 20.2329 15.2253 19.9679 15.2253 19.6411V13.0964C15.2253 12.7698 14.9603 12.5046 14.6335 12.5046H13.1391V11.2536H18.4535C18.7801 11.2536 19.0453 10.9886 19.0453 10.6618V4.04416C19.0453 2.09352 17.4513 0.499609 15.5004 0.499609H4.11081C2.30505 0.499609 0.829687 1.97465 0.829687 3.78058V18.1236C0.829687 18.4506 1.09486 18.7154 1.42148 18.7154ZM12.2711 17.3081C12.0817 17.3081 11.9325 17.381 11.8318 17.4958C11.7328 17.6085 11.6856 17.7559 11.6856 17.8998C11.6856 18.0437 11.7328 18.191 11.8318 18.3038C11.9325 18.4185 12.0817 18.4915 12.2711 18.4915H12.6777C12.8671 18.4915 13.0163 18.4185 13.117 18.3038C13.2159 18.191 13.2632 18.0437 13.2632 17.8998C13.2632 17.7559 13.2159 17.6085 13.117 17.4958C13.0163 17.381 12.8671 17.3081 12.6777 17.3081H12.2711ZM10.4518 15.4305C10.6412 15.4305 10.7904 15.3575 10.8911 15.2428C10.9901 15.13 11.0373 14.9827 11.0373 14.8388C11.0373 14.6949 10.9901 14.5475 10.8911 14.4347C10.7904 14.32 10.6412 14.247 10.4518 14.247H10.0452C9.85578 14.247 9.70659 14.32 9.60591 14.4347C9.50693 14.5475 9.4597 14.6949 9.4597 14.8388C9.4597 14.9827 9.50693 15.13 9.60591 15.2428C9.70659 15.3575 9.85578 15.4305 10.0452 15.4305H10.4518ZM8.68046 13.6885H14.0419V19.0499H8.68046V13.6885ZM3.58353 2.80686C3.39409 2.80686 3.24488 2.87983 3.14418 2.99453C3.04517 3.1073 2.99793 3.25463 2.99793 3.39852C2.99793 3.54241 3.04517 3.68974 3.14418 3.80251C3.24488 3.91722 3.39409 3.99018 3.58353 3.99018H10.3858C10.5752 3.99018 10.7244 3.91722 10.8251 3.80251C10.9241 3.68974 10.9714 3.54241 10.9714 3.39852C10.9714 3.25463 10.9241 3.1073 10.8251 2.99453C10.7244 2.87983 10.5752 2.80686 10.3858 2.80686H3.58353ZM3.58353 5.2279C3.39409 5.2279 3.24488 5.30087 3.14418 5.41557C3.04517 5.52834 2.99793 5.67567 2.99793 5.81956C2.99793 5.96345 3.04517 6.11078 3.14418 6.22355C3.24488 6.33825 3.39409 6.41122 3.58353 6.41122H10.3858C10.5752 6.41122 10.7244 6.33825 10.8251 6.22355C10.9241 6.11078 10.9714 5.96345 10.9714 5.81956C10.9714 5.67567 10.9241 5.52834 10.8251 5.41557C10.7244 5.30087 10.5752 5.2279 10.3858 5.2279H3.58353ZM3.58353 7.64906C3.39409 7.64906 3.24488 7.72203 3.14417 7.83675C3.04517 7.94954 2.99793 8.09688 2.99793 8.24079C2.99793 8.38469 3.04517 8.53204 3.14417 8.64483C3.24488 8.75954 3.39409 8.83252 3.58353 8.83252H10.3858C10.5752 8.83252 10.7244 8.75954 10.8251 8.64483C10.9241 8.53204 10.9714 8.38469 10.9714 8.24079C10.9714 8.09688 10.9241 7.94954 10.8251 7.83675C10.7244 7.72203 10.5752 7.64906 10.3858 7.64906H3.58353ZM3.58353 10.0701C3.39409 10.0701 3.24488 10.1431 3.14417 10.2578C3.04517 10.3706 2.99793 10.5179 2.99793 10.6618C2.99793 10.8057 3.04517 10.9531 3.14417 11.0659C3.24488 11.1806 3.39409 11.2536 3.58353 11.2536H10.3858C10.5752 11.2536 10.7244 11.1806 10.8251 11.0659C10.9241 10.9531 10.9714 10.8057 10.9714 10.6618C10.9714 10.5179 10.9241 10.3706 10.8251 10.2578C10.7244 10.1431 10.5752 10.0701 10.3858 10.0701H3.58353ZM13.1396 4.04438C13.1396 2.74726 14.2037 1.6833 15.5009 1.6833C16.7981 1.6833 17.8621 2.74696 17.8621 4.04438V10.0704H13.1396V4.04438Z" fill="#18191F" stroke="#18191F" strokeWidth="0.2"/>
</svg>
