<svg width="20" height="21" viewBox="0 0 20 21" fill="none" xmlns="http://www.w3.org/2000/svg">
<path d="M10 1.73828L2.5 4.23828V11.7383C2.5 15.8809 5.85742 19.2383 10 19.2383C14.1426 19.2383 17.5 15.8809 17.5 11.7383V4.23828L10 1.73828ZM16.0938 11.7383C16.0938 15.1035 13.3652 17.832 10 17.832C6.63477 17.832 3.90625 15.1035 3.90625 11.7383V5.29297L10 3.14453L16.0938 5.29297V11.7383Z" fill="black"/>
<path d="M7.39015 9.76758C7.32498 9.70211 7.24752 9.65016 7.16222 9.61472C7.07692 9.57927 6.98545 9.56102 6.89308 9.56102C6.80071 9.56102 6.70924 9.57927 6.62394 9.61472C6.53864 9.65016 6.46118 9.70211 6.39601 9.76758C6.33054 9.83275 6.27859 9.91021 6.24315 9.99551C6.2077 10.0808 6.18945 10.1723 6.18945 10.2646C6.18945 10.357 6.2077 10.4485 6.24315 10.5338C6.27859 10.6191 6.33054 10.6966 6.39601 10.7617L8.92335 13.2891L8.96437 13.3301C9.02601 13.3918 9.09923 13.4408 9.17983 13.4743C9.26043 13.5077 9.34684 13.5249 9.4341 13.5249C9.52136 13.5249 9.60776 13.5077 9.68836 13.4743C9.76896 13.4408 9.84218 13.3918 9.90382 13.3301L14.2691 8.96484C14.3308 8.9032 14.3798 8.82998 14.4132 8.74938C14.4467 8.66878 14.4639 8.58238 14.4639 8.49512C14.4639 8.40786 14.4467 8.32146 14.4132 8.24085C14.3798 8.16025 14.3308 8.08703 14.2691 8.02539L14.2144 7.9707C14.1527 7.90894 14.0795 7.85995 13.9989 7.82652C13.9183 7.79309 13.8319 7.77588 13.7446 7.77588C13.6574 7.77588 13.571 7.79309 13.4904 7.82652C13.4098 7.85995 13.3366 7.90894 13.2749 7.9707L9.43312 11.8105L7.39015 9.76758Z" fill="black"/>
</svg>
