<svg width="30" height="23" viewBox="0 0 30 23" fill="none" xmlns="http://www.w3.org/2000/svg">
<path d="M26.3335 5.12539H20.6668V2.57539L17.8335 0.0253906H12.1668L9.3335 2.57539V5.12539H3.66683C2.1085 5.12539 0.833496 6.27289 0.833496 7.67539V14.0504C0.833496 15.0066 1.40016 15.8099 2.25016 16.2561V20.4254C2.25016 21.8406 3.511 22.9754 5.0835 22.9754H24.9168C26.4893 22.9754 27.7502 21.8406 27.7502 20.4254V16.2434C28.586 15.7971 29.1668 14.9811 29.1668 14.0504V7.67539C29.1668 6.27289 27.8918 5.12539 26.3335 5.12539ZM12.1668 2.57539H17.8335V5.12539H12.1668V2.57539ZM3.66683 7.67539H26.3335V14.0504H19.2502V10.2254H10.7502V14.0504H3.66683V7.67539ZM16.4168 15.3254H13.5835V12.7754H16.4168V15.3254ZM24.9168 20.4254H5.0835V16.6004H10.7502V17.8754H19.2502V16.6004H24.9168V20.4254Z" fill="#18191F"/>
</svg>
