<svg width="590" height="439" viewBox="0 0 590 439" fill="none" xmlns="http://www.w3.org/2000/svg">
<g clip-path="url(#clip0_320_3715)">
<path d="M50.3822 433.783C33.707 425.649 -6.13747 414.171 0.808549 364.94C3.0446 349.146 23.3831 325.124 38.2029 319.172C95.4361 296.216 81.782 276.936 57.0189 235.318C37.7509 190.948 47.0281 112.691 90.9165 89.2372C119.271 74.0837 170.034 96.2567 199.817 84.1861C231.954 71.1432 235.165 34.3622 266.161 18.8056C359.147 -27.8643 494.927 14.7741 499.138 119.876C506.845 311.488 657.54 238.353 552.636 436.392L50.3822 433.783Z" fill="#E3E9FF"/>
<path d="M362.524 56.0131C356.648 56.0131 351.891 51.2465 351.891 45.4128C351.891 39.5554 356.672 34.8125 362.524 34.8125C368.399 34.8125 373.157 39.5791 373.157 45.4128C373.157 51.2465 368.376 56.0131 362.524 56.0131ZM362.524 36.9942C357.861 36.9942 354.079 40.7648 354.079 45.4128C354.079 50.0608 357.861 53.8314 362.524 53.8314C367.186 53.8314 370.968 50.0608 370.968 45.4128C370.968 40.7648 367.162 36.9942 362.524 36.9942Z" fill="#F7F9FF"/>
<path d="M463.32 285.9C457.444 285.9 452.687 281.133 452.687 275.3C452.687 269.442 457.468 264.699 463.32 264.699C469.195 264.699 473.953 269.466 473.953 275.3C473.953 281.133 469.171 285.9 463.32 285.9ZM463.32 266.881C458.657 266.881 454.875 270.652 454.875 275.3C454.875 279.948 458.657 283.718 463.32 283.718C467.982 283.718 471.764 279.948 471.764 275.3C471.764 270.652 467.958 266.881 463.32 266.881Z" fill="#F7F9FF"/>
<path d="M572.808 439H50.3823C48.9312 439 47.7656 437.838 47.7656 436.392C47.7656 434.945 48.9312 433.783 50.3823 433.783H572.808C574.259 433.783 575.425 434.945 575.425 436.392C575.425 437.838 574.235 439 572.808 439Z" fill="#2C2858"/>
<path d="M85.0648 330.697C79.1892 330.697 74.4316 325.93 74.4316 320.096C74.4316 314.239 79.213 309.496 85.0648 309.496C90.9403 309.496 95.6979 314.263 95.6979 320.096C95.6979 325.93 90.9165 330.697 85.0648 330.697ZM85.0648 311.654C80.4024 311.654 76.6201 315.425 76.6201 320.073C76.6201 324.721 80.4024 328.491 85.0648 328.491C89.7272 328.491 93.5094 324.721 93.5094 320.073C93.5094 315.425 89.7034 311.654 85.0648 311.654Z" fill="#F7F9FF"/>
<path d="M115.4 344.286C115.493 340.764 112.704 337.834 109.171 337.741C105.638 337.649 102.699 340.429 102.606 343.951C102.513 347.473 105.302 350.403 108.834 350.496C112.367 350.588 115.307 347.808 115.4 344.286Z" fill="#F7F9FF"/>
<path d="M346.135 24.8294C346.135 28.3391 343.28 31.2085 339.736 31.2085C336.215 31.2085 333.337 28.3628 333.337 24.8294C333.337 21.3196 336.191 18.4502 339.736 18.4502C343.28 18.4502 346.135 21.3196 346.135 24.8294Z" fill="#F7F9FF"/>
<path d="M553.968 293.513C553.968 297.023 551.113 299.892 547.569 299.892C544.024 299.892 541.17 297.046 541.17 293.513C541.17 290.003 544.024 287.134 547.569 287.134C551.113 287.134 553.968 289.979 553.968 293.513Z" fill="#F7F9FF"/>
<g clip-path="url(#clip1_320_3715)">
<path d="M447.039 418.01H110.019C109.619 418.01 109.289 417.68 109.289 417.28V238.06C109.289 227.16 118.209 218.24 129.109 218.24H427.959C438.859 218.24 447.779 227.16 447.779 238.06V417.29C447.769 417.68 447.449 418.01 447.039 418.01Z" fill="#CCE6FF"/>
<path d="M437.649 407.94H119.419C119.319 407.94 119.249 407.86 119.249 407.77V243.83C119.249 236.68 125.099 230.82 132.259 230.82H424.819C431.969 230.82 437.829 236.67 437.829 243.83V407.76C437.819 407.86 437.739 407.94 437.649 407.94Z" fill="#99E9FF"/>
<path d="M284.139 225.72C284.139 228.3 282.049 230.4 279.459 230.4C276.869 230.4 274.779 228.31 274.779 225.72C274.779 223.14 276.869 221.04 279.459 221.04C282.049 221.04 284.139 223.14 284.139 225.72Z" fill="#CCCCCC"/>
<path d="M443.229 435.7H114.769C106.609 435.7 99.9395 429.03 99.9395 420.87V416.99C99.9395 416.48 100.349 416.07 100.859 416.07H457.479C457.799 416.07 458.049 416.33 458.049 416.64V420.87C458.059 429.03 451.389 435.7 443.229 435.7Z" fill="#0071BC"/>
<path d="M510 435.24H79V438.24H510V435.24Z" fill="#2E3192"/>
<path d="M211 398.24C253.526 398.24 288 363.766 288 321.24C288 278.714 253.526 244.24 211 244.24C168.474 244.24 134 278.714 134 321.24C134 363.766 168.474 398.24 211 398.24Z" fill="#662D91"/>
<path d="M251.298 255.914L248.723 254.375L169.705 386.553L172.28 388.092L251.298 255.914Z" fill="#93278F"/>
<path d="M214.582 318.429L141.555 288.29L140.41 291.063L213.438 321.202L214.582 318.429Z" fill="#93278F"/>
<path d="M268.489 372.607L212.628 316.746L210.507 318.867L266.368 374.728L268.489 372.607Z" fill="#93278F"/>
<path d="M209 273.24H189V293.24H209V273.24Z" fill="white"/>
<path d="M185 275.24H213L199 263.24L185 275.24Z" fill="white"/>
<path d="M227 359.37H202V364.1H227V359.37Z" fill="white"/>
<path d="M212.133 349.237V374.237H216.863V349.237H212.133Z" fill="white"/>
<path d="M243.74 301.171H242V309.881H243.74V301.171Z" fill="white"/>
<path d="M247.22 301.171H245.48V309.881H247.22V301.171Z" fill="white"/>
<path d="M250.711 301.171H248.971V309.881H250.711V301.171Z" fill="white"/>
<path d="M254.19 301.171H252.45V309.881H254.19V301.171Z" fill="white"/>
<path d="M250.77 315.111H245.42C243.53 315.111 242 313.581 242 311.691V309.881H254.19V311.691C254.19 313.581 252.66 315.111 250.77 315.111Z" fill="white"/>
<path d="M249.83 315.11H246.35V328.17H249.83V315.11Z" fill="white"/>
<path d="M265.12 315.111H260.69C258.56 315.111 256.81 313.361 256.81 311.231V305.501C256.81 302.641 259.15 300.311 262 300.311H263.81C266.67 300.311 269 302.651 269 305.501V311.231C269 313.361 267.25 315.111 265.12 315.111Z" fill="white"/>
<path d="M264.64 315.11H261.16V328.17H264.64V315.11Z" fill="white"/>
<path d="M158.52 325.7L169.02 329.22L178.47 325.7V333.92C178.47 333.92 167.97 339.79 158.51 333.92V325.7H158.52Z" fill="white"/>
<path d="M155 323.35L169.09 328.04L182 323.35L169.09 322.17L155 323.35Z" fill="white"/>
<path d="M155.81 323.62L155 330.39H157.35L155.81 323.62Z" fill="white"/>
<path d="M500.61 435.119H442.84C440.84 435.119 439.21 433.489 439.21 431.489V427.579C439.21 425.579 440.84 423.949 442.84 423.949H500.61C502.61 423.949 504.24 425.579 504.24 427.579V431.489C504.24 433.489 502.6 435.119 500.61 435.119Z" fill="#FFE33E" stroke="#FBCB21" stroke-miterlimit="10"/>
<path d="M444.79 423.949H442.76V434.619H444.79V423.949Z" fill="#FBCB21"/>
<path d="M449.37 423.949H447.34V435.129H449.37V423.949Z" fill="#FBCB21"/>
<path d="M453.94 423.949H451.91V434.619H453.94V423.949Z" fill="#FBCB21"/>
<path d="M458.51 423.949H456.48V435.129H458.51V423.949Z" fill="#FBCB21"/>
<path d="M463.08 423.949H461.05V434.619H463.08V423.949Z" fill="#FBCB21"/>
<path d="M467.66 423.949H465.63V435.129H467.66V423.949Z" fill="#FBCB21"/>
<path d="M472.23 423.949H470.2V434.619H472.23V423.949Z" fill="#FBCB21"/>
<path d="M476.8 423.949H474.77V435.129H476.8V423.949Z" fill="#FBCB21"/>
<path d="M481.37 423.949H479.34V434.619H481.37V423.949Z" fill="#FBCB21"/>
<path d="M485.95 423.949H483.92V435.129H485.95V423.949Z" fill="#FBCB21"/>
<path d="M490.52 423.949H488.49V434.619H490.52V423.949Z" fill="#FBCB21"/>
<path d="M495.09 423.949H493.06V435.129H495.09V423.949Z" fill="#FBCB21"/>
<path d="M499.66 423.949H497.63V434.619H499.66V423.949Z" fill="#FBCB21"/>
<path d="M499.589 422.93H441.819C439.819 422.93 438.189 421.3 438.189 419.3V415.39C438.189 413.39 439.819 411.76 441.819 411.76H499.589C501.589 411.76 503.219 413.39 503.219 415.39V419.3C503.219 421.3 501.589 422.93 499.589 422.93Z" fill="#FFE33E" stroke="#FBCB21" stroke-miterlimit="10"/>
<path d="M443.779 411.75H441.749V422.42H443.779V411.75Z" fill="#FBCB21"/>
<path d="M448.348 411.75H446.318V422.93H448.348V411.75Z" fill="#FBCB21"/>
<path d="M452.919 411.75H450.889V422.42H452.919V411.75Z" fill="#FBCB21"/>
<path d="M457.499 411.75H455.469V422.93H457.499V411.75Z" fill="#FBCB21"/>
<path d="M462.069 411.75H460.039V422.42H462.069V411.75Z" fill="#FBCB21"/>
<path d="M466.639 411.75H464.609V422.93H466.639V411.75Z" fill="#FBCB21"/>
<path d="M471.21 411.75H469.18V422.42H471.21V411.75Z" fill="#FBCB21"/>
<path d="M475.789 411.75H473.759V422.93H475.789V411.75Z" fill="#FBCB21"/>
<path d="M480.359 411.75H478.329V422.42H480.359V411.75Z" fill="#FBCB21"/>
<path d="M484.929 411.75H482.899V422.93H484.929V411.75Z" fill="#FBCB21"/>
<path d="M489.499 411.75H487.469V422.42H489.499V411.75Z" fill="#FBCB21"/>
<path d="M494.069 411.75H492.039V422.93H494.069V411.75Z" fill="#FBCB21"/>
<path d="M498.649 411.75H496.619V422.42H498.649V411.75Z" fill="#FBCB21"/>
<path d="M502.64 410.739H444.87C442.87 410.739 441.24 409.109 441.24 407.109V403.199C441.24 401.199 442.87 399.569 444.87 399.569H502.64C504.64 399.569 506.27 401.199 506.27 403.199V407.109C506.27 409.099 504.64 410.739 502.64 410.739Z" fill="#FFE33E" stroke="#FBCB21" stroke-miterlimit="10"/>
<path d="M446.83 399.56H444.8V410.23H446.83V399.56Z" fill="#FBCB21"/>
<path d="M451.399 399.56H449.369V410.74H451.399V399.56Z" fill="#FBCB21"/>
<path d="M455.969 399.56H453.939V410.23H455.969V399.56Z" fill="#FBCB21"/>
<path d="M460.54 399.56H458.51V410.74H460.54V399.56Z" fill="#FBCB21"/>
<path d="M465.12 399.56H463.09V410.23H465.12V399.56Z" fill="#FBCB21"/>
<path d="M469.69 399.56H467.66V410.74H469.69V399.56Z" fill="#FBCB21"/>
<path d="M474.26 399.56H472.23V410.23H474.26V399.56Z" fill="#FBCB21"/>
<path d="M478.83 399.56H476.8V410.74H478.83V399.56Z" fill="#FBCB21"/>
<path d="M483.41 399.56H481.38V410.23H483.41V399.56Z" fill="#FBCB21"/>
<path d="M487.979 399.56H485.949V410.74H487.979V399.56Z" fill="#FBCB21"/>
<path d="M492.55 399.56H490.52V410.23H492.55V399.56Z" fill="#FBCB21"/>
<path d="M497.12 399.56H495.09V410.74H497.12V399.56Z" fill="#FBCB21"/>
<path d="M501.7 399.56H499.67V410.23H501.7V399.56Z" fill="#FBCB21"/>
<path d="M501.621 398.549H443.851C441.851 398.549 440.221 396.919 440.221 394.919V390.999C440.221 388.999 441.851 387.369 443.851 387.369H501.621C503.621 387.369 505.251 388.999 505.251 390.999V394.909C505.251 396.909 503.621 398.549 501.621 398.549Z" fill="#FFE33E" stroke="#FBCB21" stroke-miterlimit="10"/>
<path d="M445.81 387.369H443.78V398.039H445.81V387.369Z" fill="#FBCB21"/>
<path d="M450.38 387.369H448.35V398.549H450.38V387.369Z" fill="#FBCB21"/>
<path d="M454.961 387.369H452.931V398.039H454.961V387.369Z" fill="#FBCB21"/>
<path d="M459.53 387.369H457.5V398.549H459.53V387.369Z" fill="#FBCB21"/>
<path d="M464.1 387.369H462.07V398.039H464.1V387.369Z" fill="#FBCB21"/>
<path d="M468.671 387.369H466.641V398.549H468.671V387.369Z" fill="#FBCB21"/>
<path d="M473.241 387.369H471.211V398.039H473.241V387.369Z" fill="#FBCB21"/>
<path d="M477.82 387.369H475.79V398.549H477.82V387.369Z" fill="#FBCB21"/>
<path d="M482.39 387.369H480.36V398.039H482.39V387.369Z" fill="#FBCB21"/>
<path d="M486.961 387.369H484.931V398.549H486.961V387.369Z" fill="#FBCB21"/>
<path d="M491.53 387.369H489.5V398.039H491.53V387.369Z" fill="#FBCB21"/>
<path d="M496.11 387.369H494.08V398.549H496.11V387.369Z" fill="#FBCB21"/>
<path d="M500.68 387.369H498.65V398.039H500.68V387.369Z" fill="#FBCB21"/>
<path d="M498.57 386.35H440.8C438.8 386.35 437.17 384.72 437.17 382.72V378.81C437.17 376.81 438.8 375.18 440.8 375.18H498.57C500.57 375.18 502.2 376.81 502.2 378.81V382.72C502.21 384.72 500.57 386.35 498.57 386.35Z" fill="#FFE33E" stroke="#FBCB21" stroke-miterlimit="10"/>
<path d="M442.759 375.18H440.729V385.85H442.759V375.18Z" fill="#FBCB21"/>
<path d="M447.329 375.18H445.299V386.36H447.329V375.18Z" fill="#FBCB21"/>
<path d="M451.91 375.18H449.88V385.85H451.91V375.18Z" fill="#FBCB21"/>
<path d="M456.479 375.18H454.449V386.36H456.479V375.18Z" fill="#FBCB21"/>
<path d="M461.05 375.18H459.02V385.85H461.05V375.18Z" fill="#FBCB21"/>
<path d="M465.62 375.18H463.59V386.36H465.62V375.18Z" fill="#FBCB21"/>
<path d="M470.2 375.18H468.17V385.85H470.2V375.18Z" fill="#FBCB21"/>
<path d="M474.769 375.18H472.739V386.36H474.769V375.18Z" fill="#FBCB21"/>
<path d="M479.34 375.18H477.31V385.85H479.34V375.18Z" fill="#FBCB21"/>
<path d="M483.91 375.18H481.88V386.36H483.91V375.18Z" fill="#FBCB21"/>
<path d="M488.489 375.18H486.459V385.85H488.489V375.18Z" fill="#FBCB21"/>
<path d="M493.059 375.18H491.029V386.36H493.059V375.18Z" fill="#FBCB21"/>
<path d="M497.63 375.18H495.6V385.85H497.63V375.18Z" fill="#FBCB21"/>
<path d="M497.56 374.159H439.79C437.79 374.159 436.16 372.529 436.16 370.529V366.619C436.16 364.619 437.79 362.989 439.79 362.989H497.56C499.56 362.989 501.19 364.619 501.19 366.619V370.529C501.19 372.529 499.56 374.159 497.56 374.159Z" fill="#FFE33E" stroke="#FBCB21" stroke-miterlimit="10"/>
<path d="M441.75 362.979H439.72V373.649H441.75V362.979Z" fill="#FBCB21"/>
<path d="M446.319 362.979H444.289V374.16H446.319V362.979Z" fill="#FBCB21"/>
<path d="M450.889 362.979H448.859V373.649H450.889V362.979Z" fill="#FBCB21"/>
<path d="M455.46 362.979H453.43V374.16H455.46V362.979Z" fill="#FBCB21"/>
<path d="M460.04 362.979H458.01V373.649H460.04V362.979Z" fill="#FBCB21"/>
<path d="M464.61 362.979H462.58V374.16H464.61V362.979Z" fill="#FBCB21"/>
<path d="M469.18 362.979H467.15V373.649H469.18V362.979Z" fill="#FBCB21"/>
<path d="M473.75 362.979H471.72V374.16H473.75V362.979Z" fill="#FBCB21"/>
<path d="M478.33 362.979H476.3V373.649H478.33V362.979Z" fill="#FBCB21"/>
<path d="M482.9 362.979H480.87V374.16H482.9V362.979Z" fill="#FBCB21"/>
<path d="M487.469 362.979H485.439V373.649H487.469V362.979Z" fill="#FBCB21"/>
<path d="M492.04 362.979H490.01V374.16H492.04V362.979Z" fill="#FBCB21"/>
<path d="M496.61 362.979H494.58V373.649H496.61V362.979Z" fill="#FBCB21"/>
<path d="M500.61 361.97H442.84C440.84 361.97 439.21 360.34 439.21 358.34V354.43C439.21 352.43 440.84 350.8 442.84 350.8H500.61C502.61 350.8 504.24 352.43 504.24 354.43V358.34C504.24 360.33 502.6 361.97 500.61 361.97Z" fill="#FFE33E" stroke="#FBCB21" stroke-miterlimit="10"/>
<path d="M444.79 350.79H442.76V361.46H444.79V350.79Z" fill="#FBCB21"/>
<path d="M449.37 350.79H447.34V361.97H449.37V350.79Z" fill="#FBCB21"/>
<path d="M453.94 350.79H451.91V361.46H453.94V350.79Z" fill="#FBCB21"/>
<path d="M458.51 350.79H456.48V361.97H458.51V350.79Z" fill="#FBCB21"/>
<path d="M463.08 350.79H461.05V361.46H463.08V350.79Z" fill="#FBCB21"/>
<path d="M467.66 350.79H465.63V361.97H467.66V350.79Z" fill="#FBCB21"/>
<path d="M472.23 350.79H470.2V361.46H472.23V350.79Z" fill="#FBCB21"/>
<path d="M476.8 350.79H474.77V361.97H476.8V350.79Z" fill="#FBCB21"/>
<path d="M481.37 350.79H479.34V361.46H481.37V350.79Z" fill="#FBCB21"/>
<path d="M485.95 350.79H483.92V361.97H485.95V350.79Z" fill="#FBCB21"/>
<path d="M490.52 350.79H488.49V361.46H490.52V350.79Z" fill="#FBCB21"/>
<path d="M495.09 350.79H493.06V361.97H495.09V350.79Z" fill="#FBCB21"/>
<path d="M499.66 350.79H497.63V361.46H499.66V350.79Z" fill="#FBCB21"/>
<path d="M499.589 349.77H441.819C439.819 349.77 438.189 348.14 438.189 346.14V342.23C438.189 340.23 439.819 338.6 441.819 338.6H499.589C501.589 338.6 503.219 340.23 503.219 342.23V346.14C503.219 348.14 501.589 349.77 499.589 349.77Z" fill="#FFE33E" stroke="#FBCB21" stroke-miterlimit="10"/>
<path d="M443.779 338.6H441.749V349.27H443.779V338.6Z" fill="#FBCB21"/>
<path d="M448.348 338.6H446.318V349.78H448.348V338.6Z" fill="#FBCB21"/>
<path d="M452.919 338.6H450.889V349.27H452.919V338.6Z" fill="#FBCB21"/>
<path d="M457.499 338.6H455.469V349.78H457.499V338.6Z" fill="#FBCB21"/>
<path d="M462.069 338.6H460.039V349.27H462.069V338.6Z" fill="#FBCB21"/>
<path d="M466.639 338.6H464.609V349.78H466.639V338.6Z" fill="#FBCB21"/>
<path d="M471.21 338.6H469.18V349.27H471.21V338.6Z" fill="#FBCB21"/>
<path d="M475.789 338.6H473.759V349.78H475.789V338.6Z" fill="#FBCB21"/>
<path d="M480.359 338.6H478.329V349.27H480.359V338.6Z" fill="#FBCB21"/>
<path d="M484.929 338.6H482.899V349.78H484.929V338.6Z" fill="#FBCB21"/>
<path d="M489.499 338.6H487.469V349.27H489.499V338.6Z" fill="#FBCB21"/>
<path d="M494.069 338.6H492.039V349.78H494.069V338.6Z" fill="#FBCB21"/>
<path d="M498.649 338.6H496.619V349.27H498.649V338.6Z" fill="#FBCB21"/>
<path d="M383.779 357.24C383.779 357.24 395.679 362.53 396.999 353.28C396.999 353.28 395.679 344.03 387.749 353.28C387.749 353.28 382.459 362.53 395.679 362.53" stroke="#1A1A1A" stroke-miterlimit="10"/>
<path d="M302.5 349.969C302.5 349.969 309.11 324.859 346.12 326.179C346.12 326.179 384.45 324.859 384.45 355.259C384.45 355.259 388.42 381.689 368.59 384.339C368.59 384.339 368.59 398.879 360.66 397.559C360.66 397.559 354.05 398.879 352.73 388.309C352.73 388.309 344.8 390.949 334.23 388.309C334.23 388.309 334.23 397.559 327.62 397.559C327.62 397.559 318.37 400.199 318.37 383.019C318.37 383.019 309.12 379.049 303.83 369.799C303.83 369.799 291.93 368.479 293.26 359.229C293.25 359.219 291.93 351.289 302.5 349.969Z" fill="#CCE6FF"/>
<path d="M307.79 320.89C307.79 320.89 332.9 322.21 322.33 339.39C322.33 339.39 309.11 351.29 306.47 335.43C306.46 335.43 303.82 320.89 307.79 320.89Z" fill="#0071BC"/>
<path opacity="0.21" d="M301.58 350.1C301.58 350.1 295.89 357.89 299.86 361.86C299.86 361.86 303.83 365.83 309.11 364.5C309.11 364.5 311.75 372.43 323.65 377.72C323.65 377.72 339.51 388.29 364.62 377.72C364.62 377.72 374.24 373.22 384.63 356.97C384.63 356.97 388.41 381.69 368.59 384.33C368.59 384.33 368.59 398.87 360.66 397.55C360.66 397.55 354.05 398.87 352.73 388.3C352.73 388.3 344.8 390.94 334.23 388.3C334.23 388.3 334.23 397.48 328.28 397.52C328.28 397.52 318.37 400.2 318.37 383.02C318.37 383.02 309.12 379.05 303.83 369.8C303.83 369.8 291.93 368.48 293.26 359.23C293.25 359.22 292.73 351.56 301.58 350.1Z" fill="#0071BC"/>
<path d="M345.449 328.82C355.302 328.82 363.289 328.229 363.289 327.5C363.289 326.771 355.302 326.18 345.449 326.18C335.597 326.18 327.609 326.771 327.609 327.5C327.609 328.229 335.597 328.82 345.449 328.82Z" fill="#0071BC"/>
<path d="M308.45 351.289C308.45 353.109 310.23 354.589 312.42 354.589C314.61 354.589 316.38 353.109 316.38 351.289C316.38 349.469 314.6 347.989 312.42 347.989C310.22 347.979 308.45 349.459 308.45 351.289Z" fill="#1A1A1A"/>
<path d="M423.82 418.88C423.82 418.88 427.59 452.91 414.08 421.14L423.82 418.88Z" fill="#EDD1A4"/>
<path d="M455.28 420.53C455.28 420.53 453.52 454.72 445.3 421.18L455.28 420.53Z" fill="#EDD1A4"/>
<path d="M424.359 232.82L425.059 246.34L441.169 237.77L435.859 229L424.359 232.82Z" fill="#EDD1A4"/>
<path d="M421.21 209.78C421.21 209.78 402.29 242.39 433.26 230.41C433.26 230.41 428.81 216.6 429.43 212.17C429.42 212.18 421.85 211.79 421.21 209.78Z" fill="#FAE0B2"/>
<path d="M433.89 231.77C433.89 231.77 429.45 224.82 429.42 212.17C429.42 212.17 421.52 213.77 412.96 203.98C412.96 203.98 410.74 200.51 418.65 202.07C418.65 202.07 418.96 196.69 421.17 197.01C421.17 197.01 422.12 196.69 424.34 200.17C424.34 200.17 430.02 195.1 433.2 201.42C433.2 201.42 438.89 199.51 439.22 206.78C439.22 206.78 465.51 231.71 433.89 231.77Z" fill="black"/>
<path d="M452.05 320.96C452.05 320.96 459.84 322.02 455.28 420.53L445.3 421.18C445.3 421.18 430.39 362.03 431.73 351.92L414.21 375.12L424.21 420.56L413.23 421.28C413.23 421.28 396.43 394.32 394.25 376.43C394.25 376.43 396.38 335.18 411.52 320.17L452.05 320.96Z" fill="#3F46A0"/>
<path d="M416.48 244.689C416.48 244.689 399.51 262.239 394.51 277.239C394.51 277.239 388.51 275.239 373.51 281.239L375.51 289.239C375.51 289.239 386.51 290.239 394.51 288.239C394.51 288.239 408.26 287.889 410.38 280.069C410.39 280.059 410.46 265.139 416.48 244.689Z" fill="#F2F2F2"/>
<path d="M440.539 236.56C440.539 236.56 447.539 233.88 456.019 244.06C456.019 244.06 459.509 298.24 454.509 326.24C454.509 326.24 441.869 330.24 407.189 326.24C407.189 326.24 408.509 252.24 416.509 244.24C416.509 244.24 417.579 240.88 440.539 236.56Z" fill="white"/>
<path d="M369.337 315.953C381.015 303.39 380.298 283.738 367.734 272.059C355.17 260.381 335.518 261.098 323.84 273.662C312.162 286.225 312.879 305.877 325.443 317.556C338.006 329.234 357.658 328.517 369.337 315.953Z" fill="#FFE33E" stroke="#FBCB21" stroke-miterlimit="10"/>
<path d="M372.379 290.82C374.579 305.06 364.809 318.39 350.569 320.58C336.329 322.78 322.999 313.01 320.809 298.77C318.609 284.53 328.379 271.2 342.619 269.01C356.859 266.82 370.189 276.58 372.379 290.82Z" fill="#FBCB21"/>
<path d="M350.72 301.68C350.55 300.61 350.16 299.81 349.54 299.28C348.92 298.75 347.9 298.32 346.49 297.98C345.08 297.64 343.77 297.28 342.56 296.9C341.35 296.52 340.28 296.02 339.36 295.42C338.44 294.81 337.68 294.06 337.1 293.17C336.52 292.28 336.12 291.14 335.91 289.78C335.56 287.49 336.04 285.49 337.35 283.77C338.66 282.05 340.59 280.87 343.12 280.23L342.46 275.95L345.69 275.45L346.36 279.82C348.89 279.8 351 280.52 352.67 281.98C354.34 283.43 355.38 285.45 355.77 288.02L348.91 289.08C348.69 287.67 348.26 286.63 347.6 285.96C346.94 285.29 346.11 285.03 345.11 285.18C344.22 285.32 343.57 285.71 343.16 286.34C342.75 286.98 342.62 287.79 342.78 288.78C342.93 289.78 343.34 290.53 344 291.04C344.66 291.54 345.66 291.96 347 292.3C348.34 292.64 349.61 293.01 350.82 293.42C352.03 293.82 353.09 294.33 354.02 294.93C354.94 295.54 355.71 296.29 356.32 297.19C356.93 298.09 357.34 299.23 357.55 300.6C357.91 302.91 357.46 304.92 356.22 306.6C354.98 308.29 353.11 309.45 350.61 310.08L351.24 314.16L348.01 314.66L347.38 310.56C344.38 310.7 341.96 310.04 340.12 308.57C338.28 307.1 337.14 304.97 336.71 302.16L343.55 301.1C343.79 302.64 344.31 303.76 345.12 304.46C345.93 305.16 346.96 305.41 348.22 305.22C349.14 305.08 349.82 304.69 350.27 304.06C350.73 303.44 350.87 302.64 350.72 301.68Z" fill="#FFE33E"/>
<path d="M441.51 236.239C441.51 236.239 449.51 234.239 456.51 244.239C456.51 244.239 465.24 263.239 440.38 298.239C440.38 298.239 426.51 304.239 386.51 297.239L387.51 291.239C387.51 291.239 411.51 287.239 426.51 287.239L441.51 236.239Z" fill="#F2F2F2"/>
<path d="M387.51 291.24C387.51 291.24 358.51 290.24 386.51 297.24L387.51 291.24Z" fill="#EDD1A4"/>
</g>
</g>
<defs>
<clipPath id="clip0_320_3715">
<rect width="589.626" height="439" fill="white"/>
</clipPath>
<clipPath id="clip1_320_3715">
<rect width="431" height="241.24" fill="white" transform="translate(79 197)"/>
</clipPath>
</defs>
</svg>
