<svg width="25" height="26" viewBox="0 0 25 26" fill="none" xmlns="http://www.w3.org/2000/svg">
<path d="M25 13C25 19.9 19.4063 25.5 12.5 25.5C5.59375 25.5 0 19.9 0 13C0 6.09375 5.59375 0.5 12.5 0.5C19.4063 0.5 25 6.09375 25 13Z" fill="#33CCFF"/>
<path d="M19.7112 11.4083C20.1366 13.9237 18.8047 16.3278 16.3957 17.5059C16.7765 18.5049 16.0324 19.5625 14.98 19.5625C14.5923 19.5622 14.2194 19.4131 13.9383 19.146C13.6572 18.879 13.4893 18.5142 13.4692 18.127C13.2805 18.1325 11.5883 18.127 11.233 18.1082C11.2249 18.307 11.1778 18.5023 11.0942 18.6829C11.0107 18.8635 10.8924 19.0259 10.7461 19.1607C10.5997 19.2955 10.4283 19.4002 10.2415 19.4688C10.0547 19.5373 9.85618 19.5684 9.65737 19.5602C8.66537 19.5203 7.95961 18.5395 8.28041 17.5703C7.19028 17.1862 6.15522 16.5487 5.36186 15.4961C4.981 14.9898 5.3478 14.2715 5.9724 14.2715C7.32914 14.2715 6.91635 12.6845 7.23657 11.0412C7.77651 8.28906 10.657 6.4375 13.4393 6.4375C16.4416 6.4375 19.2152 8.50791 19.7112 11.4083ZM15.9418 16.8754C17.1723 16.3135 18.3246 15.214 18.7628 13.883C19.9488 10.2769 16.8834 7.20332 13.4393 7.20332C10.9945 7.20332 8.44946 8.82695 7.98803 11.1877C7.70883 12.6206 8.13452 15.0358 5.97387 15.0358C6.70453 16.0059 7.68276 16.5774 8.71987 16.9123C9.44233 16.2736 10.5911 16.4591 11.0586 17.3324C11.4752 17.3617 13.3787 17.367 13.6338 17.3564C13.7369 17.1552 13.8837 16.9795 14.0635 16.8424C14.2432 16.7053 14.4515 16.6102 14.6728 16.5641C14.8942 16.5179 15.123 16.5219 15.3426 16.5758C15.5622 16.6297 15.767 16.732 15.9418 16.8754ZM11.0085 10.9823C11.0085 9.96455 12.498 9.96426 12.498 10.9823C12.498 12.0004 11.0085 12.0001 11.0085 10.9823ZM14.4237 10.9823C14.4237 9.96455 15.9137 9.96426 15.9137 10.9823C15.9137 12.0004 14.4237 12.0004 14.4237 10.9823ZM10.8316 13.0533C10.7308 12.557 11.4814 12.4035 11.5822 12.9007L11.5839 12.9089C11.7052 13.5364 12.4584 14.1979 13.4624 14.1707C14.5078 14.1432 15.1983 13.52 15.3407 12.9177C15.4713 12.4475 16.1786 12.6142 16.0869 13.0935C15.9336 13.7433 15.1725 14.9099 13.4074 14.9362C12.1608 14.9362 11.0378 14.1206 10.8322 13.0539L10.8316 13.0533Z" fill="white"/>
</svg>
