<svg width="25" height="26" viewBox="0 0 25 26" fill="none" xmlns="http://www.w3.org/2000/svg">
<path d="M25.0013 13.2764C25.0013 12.2485 24.9162 11.4985 24.732 10.7207H12.7559V15.3597H19.7856C19.6439 16.5126 18.8786 18.2488 17.1778 19.4155L17.154 19.5708L20.9406 22.4456L21.2029 22.4712C23.6123 20.2906 25.0013 17.0821 25.0013 13.2764Z" fill="#4285F4"/>
<path d="M12.7544 25.499C16.1984 25.499 19.0897 24.3878 21.2015 22.4711L17.1764 19.4153C16.0992 20.1515 14.6536 20.6654 12.7544 20.6654C9.38131 20.6654 6.5184 18.4848 5.49785 15.4707L5.34826 15.4832L1.41087 18.4694L1.35938 18.6097C3.45695 22.6932 7.76553 25.499 12.7544 25.499Z" fill="#34A853"/>
<path d="M5.49906 15.4727C5.22978 14.6949 5.07393 13.8615 5.07393 13.0003C5.07393 12.1391 5.22978 11.3058 5.48489 10.528L5.47776 10.3623L1.49101 7.32812L1.36057 7.38893C0.496059 9.08347 0 10.9864 0 13.0003C0 15.0143 0.496059 16.9171 1.36057 18.6117L5.49906 15.4727Z" fill="#FBBC05"/>
<path d="M12.7545 5.33352C15.1497 5.33352 16.7654 6.34745 17.6867 7.19477L21.2866 3.75015C19.0757 1.73617 16.1985 0.5 12.7545 0.5C7.76556 0.5 3.45696 3.30566 1.35938 7.38915L5.4837 10.5282C6.51843 7.5142 9.38135 5.33352 12.7545 5.33352Z" fill="#EB4335"/>
</svg>
