<svg width="25" height="26" viewBox="0 0 25 26" fill="none" xmlns="http://www.w3.org/2000/svg">
<g clip-path="url(#clip0_1678_6058)">
<path d="M25 12.6738C25 19.5738 19.4063 25.1738 12.5 25.1738C5.59375 25.1738 0 19.5738 0 12.6738C0 5.76758 5.59375 0.173828 12.5 0.173828C19.4063 0.173828 25 5.76758 25 12.6738Z" fill="#283544"/>
<path d="M17.5954 10.4374C17.5357 10.4722 16.1149 11.207 16.1149 12.8362C16.1819 14.6942 17.9079 15.3458 17.9375 15.3458C17.9079 15.3806 17.6769 16.2334 16.9927 17.1274C16.4497 17.8974 15.847 18.6738 14.9319 18.6738C14.0613 18.6738 13.7488 18.1606 12.7444 18.1606C11.6656 18.1606 11.3604 18.6738 10.5345 18.6738C9.61935 18.6738 8.97203 17.8558 8.39943 17.093C7.65554 16.0946 7.02326 14.5278 7.00094 13.0234C6.9859 12.2262 7.14991 11.4426 7.56626 10.777C8.1539 9.84777 9.20301 9.21698 10.3487 9.19618C11.2265 9.1686 12.0077 9.75779 12.5435 9.75779C13.0569 9.75779 14.0167 9.19618 15.1027 9.19618C15.5714 9.19664 16.8214 9.32822 17.5954 10.4374ZM12.4692 9.03702C12.313 8.30901 12.7444 7.58101 13.1461 7.11662C13.6595 6.55501 14.4704 6.17383 15.1696 6.17383C15.2143 6.90183 14.9314 7.61582 14.4257 8.13583C13.972 8.69743 13.1908 9.12022 12.4692 9.03702Z" fill="white"/>
</g>
<defs>
<clipPath id="clip0_1678_6058">
<rect width="25" height="25" fill="white" transform="translate(0 0.173828)"/>
</clipPath>
</defs>
</svg>
