<svg width="80" height="80" viewBox="0 0 80 80" fill="none" xmlns="http://www.w3.org/2000/svg">
<rect width="80" height="80" rx="12" fill="#060640"/>
<path d="M29.9581 55.9134C28.9593 55.9134 27.9605 55.641 27.0525 55.2779C26.1445 54.8239 25.0549 54.1883 23.693 53.1895C22.785 52.5539 21.9678 52.0999 21.423 51.7367C20.8782 51.4643 20.3334 51.1919 19.6978 51.0103C19.3346 50.9195 18.8806 50.8287 18.5174 50.8287C18.3358 50.8287 18.245 50.8287 18.0634 50.8287C17.8818 50.8287 17.7002 50.8287 17.6095 50.9195C17.4279 50.9195 17.3371 51.0103 17.1555 51.0103C16.6107 51.0103 16.1567 50.8287 15.7935 50.4655C15.3395 50.0115 15.0671 49.2851 15.2487 48.6495L17.1555 39.4789C16.0659 39.4789 15.0671 39.2065 14.3407 38.6617C13.6143 38.1169 12.7971 37.1181 12.7971 35.0297C12.7971 33.3954 13.4327 31.6702 14.7039 30.1266C15.8843 28.6738 17.3371 27.4027 19.0622 26.4947C20.8782 25.4959 22.6942 24.8603 24.5102 24.6787C24.7825 24.6787 25.2365 24.5879 25.7813 24.5879C25.7813 24.5879 25.7813 24.5879 25.8721 24.5879C26.4169 24.5879 27.0525 24.8603 27.4157 25.3143C27.7789 25.7683 27.9605 26.4039 27.8697 27.0395L26.5077 33.7586C26.6893 33.577 26.7801 33.3954 26.9617 33.2138C28.5053 31.5794 30.4121 30.6714 32.682 30.399C32.9544 30.399 33.2268 30.399 33.4084 30.399C34.3164 30.399 37.0404 30.6714 38.0392 33.7586C38.4932 33.123 38.9471 32.4874 39.4011 31.9426C40.8539 30.399 42.5791 29.491 44.5767 29.3094C44.8491 29.3094 45.1215 29.3094 45.3939 29.3094C45.8479 29.3094 46.211 29.3094 46.4834 29.4002C46.665 29.3094 46.9374 29.2186 47.2098 29.2186L51.2958 28.7646C51.3866 28.7646 51.4774 28.7646 51.4774 28.7646C52.0222 28.7646 52.567 29.037 52.9301 29.4002C53.2933 29.7634 53.3841 30.2174 53.4749 30.6714C53.4749 30.2174 53.5657 30.2174 53.5657 30.1266C55.0185 28.4922 56.9253 27.5842 59.2861 27.3119C59.5585 27.3119 59.8308 27.3119 60.0124 27.3119C61.6468 27.3119 62.918 27.9474 63.826 29.037C64.0984 28.7646 64.4616 28.6738 64.8248 28.583L65.7328 28.4922C65.8236 28.4922 65.9144 28.4922 65.9144 28.4922C66.55 28.4922 67.1855 28.7646 67.5487 29.3094C68.0935 29.945 68.0935 30.6714 67.8211 31.307C67.2763 32.4874 66.8223 33.3954 66.3684 34.031C66.0052 34.5757 65.5512 35.1205 65.0064 35.5745C64.8248 37.2089 64.4616 38.7525 63.826 40.1145C63.0996 41.8396 62.1008 43.2016 60.9204 44.2004C59.6493 45.29 58.1965 45.9256 56.5621 46.1072C56.1989 46.1072 55.9265 46.198 55.5633 46.198C54.2013 46.198 53.0209 45.8348 52.0222 45.1992C51.3866 45.744 50.751 46.198 50.0246 46.5612L49.9338 47.6508C49.4798 50.0115 48.5718 51.6459 47.3006 52.7355C46.0294 53.8251 44.6675 54.3699 43.0331 54.5515C42.7607 54.5515 42.5791 54.5515 42.3067 54.5515C41.2171 54.5515 40.2183 54.2791 39.4011 53.7343C38.2208 52.9171 37.5852 51.6459 37.5852 50.1023C37.5852 49.1035 37.8576 48.1048 38.4024 47.2876C37.9484 47.106 37.4944 46.7428 37.1312 46.3796C36.6772 45.9256 36.2232 45.3808 35.9508 44.7452C35.3152 45.6532 34.6796 46.4704 33.8624 47.106C33.8624 47.106 33.8624 47.106 33.7716 47.106C33.9532 47.1968 34.2256 47.2876 34.4072 47.3784C35.0428 47.8324 35.3152 48.468 35.2244 49.1943C35.0428 50.9195 34.5888 52.2815 33.9532 53.3711C32.8636 55.0963 31.5017 55.641 30.5029 55.7318C30.4121 55.9134 30.2305 55.9134 29.9581 55.9134ZM31.6832 39.2973C31.5925 39.5697 31.5017 39.8421 31.5017 40.1145C31.5925 39.7513 31.774 39.2973 31.8648 38.9341C31.6833 39.0249 31.6832 39.2065 31.6832 39.2973Z" fill="white" stroke="white" strokeWidth="0.5" stroke-miterlimit="10" stroke-linecap="round" stroke-linejoin="round"/>
<path d="M27.3249 48.5589C26.4169 48.2865 25.4181 47.9233 24.147 47.3785C23.3298 47.0153 22.6942 46.7429 22.1494 46.5613C21.6046 46.3798 21.0598 46.1982 20.515 46.1074L24.8733 25.3145C24.4193 25.3145 23.9654 25.3145 23.693 25.4053C22.1494 25.5868 20.6058 26.0408 19.0622 26.9488C17.5186 27.8568 16.2475 28.8556 15.2487 30.1268C14.2499 31.398 13.7959 32.5784 13.7959 33.8495C13.7959 34.8483 14.0683 35.4839 14.5223 35.8471C15.0671 36.2103 15.7935 36.3919 16.7923 36.2103C16.7923 36.2103 16.7015 36.0287 16.6107 35.7563C16.5199 35.4839 16.4291 35.0299 16.4291 34.3035C16.4291 32.7599 16.7923 31.4888 17.4278 30.3084C18.1542 29.3096 19.153 28.4016 20.4242 27.766L16.1567 47.8325C16.3383 47.8325 16.5199 47.8325 16.7923 47.7417C17.6094 47.6509 18.4266 47.7417 19.153 48.0141C19.9702 48.2865 20.6966 48.5589 21.3322 48.9221C21.9678 49.2853 22.785 49.8301 23.7838 50.4657C25.0549 51.3737 26.0537 52.0093 26.9617 52.3725C27.7789 52.7357 28.5961 52.9173 29.5041 52.8265C30.3213 52.7357 30.9569 52.2817 31.4108 51.4645C31.9556 50.6473 32.228 49.4669 32.4096 48.1049C31.6832 48.4681 30.8661 48.7405 30.0489 48.8313C29.1409 48.9221 28.2329 48.8313 27.3249 48.5589ZM64.0984 29.582C63.826 30.1268 63.5536 30.5808 63.1904 30.944C62.8272 31.3072 62.464 31.5796 62.1008 31.7612C61.9192 29.2188 60.7388 28.0384 58.4689 28.3108C56.6529 28.4924 55.2001 29.2188 54.0197 30.49C52.8393 31.7612 52.0222 33.2139 51.5682 34.8483C51.0234 36.3919 50.8418 37.8447 50.8418 39.2067C50.8418 39.2975 50.8418 39.3883 50.8418 39.4791C50.5694 40.2054 50.2062 40.841 49.843 41.295C49.2982 41.9306 48.5718 42.4754 47.6638 42.9294L50.4786 29.4912L46.3926 29.9452L46.1202 31.4888V31.1256C46.1202 30.6716 45.9386 30.3992 45.5754 30.1268C45.2122 29.9452 44.5767 29.8544 43.8503 29.9452C42.3067 30.1268 41.0355 30.7624 39.8551 31.9428C39.1287 32.6691 38.5839 33.4863 38.13 34.3943C38.0392 34.3943 38.0392 34.4851 37.9484 34.4851C37.1312 34.9391 36.4048 35.1207 35.7692 35.2115C35.5876 35.2115 35.4968 35.2115 35.4968 35.2115C35.4968 32.2152 34.3164 30.7624 31.8648 31.0348C30.0489 31.2164 28.5961 31.9428 27.4157 33.2139C26.2353 34.4851 25.4181 35.9379 24.8733 37.5723C24.3285 39.2067 24.0562 40.6594 24.0562 41.9306C24.0562 43.4742 24.4193 44.5638 25.2365 45.1994C26.0537 45.835 27.1433 46.1074 28.5961 45.9258C29.7765 45.835 30.7753 45.381 31.774 44.5638C32.7728 43.7466 33.59 42.657 34.2256 41.295C34.8612 39.933 35.2244 38.3895 35.406 36.6643C36.1324 36.4827 36.8588 36.2103 37.4944 35.8471C37.4944 35.9379 37.4036 35.9379 37.4036 36.0287C36.8588 37.6631 36.5864 39.1159 36.5864 40.5686C36.5864 42.1122 36.9496 43.2926 37.676 43.9282C38.4023 44.5638 39.3103 44.8362 40.3999 44.7454C41.6711 44.5638 42.8515 43.9282 43.7595 42.8386L43.3963 44.3822C42.0343 44.927 40.9447 45.6534 40.0367 46.3798C39.1287 47.1061 38.7655 48.0141 38.7655 49.1037C38.7655 50.0117 39.0379 50.6473 39.6735 51.0105C40.3091 51.4645 41.0355 51.5553 41.9435 51.4645C43.1239 51.3737 44.1227 50.9197 45.1215 50.1025C46.0294 49.2853 46.665 48.0141 47.119 46.1074L47.573 44.019C48.6626 43.6558 49.6614 43.0202 50.4786 42.1122C50.751 41.8398 51.0234 41.4766 51.2958 41.1134C51.4774 41.6582 51.8406 42.1122 52.2038 42.3846C53.0209 43.0202 54.1105 43.2926 55.5633 43.111C56.7437 43.0202 57.8333 42.4754 58.8321 41.6582C59.8308 40.841 60.648 39.7514 61.1928 38.2987C61.8284 36.8459 62.1916 35.3023 62.2824 33.4863C62.918 33.0323 63.4628 32.5783 63.826 31.9428C64.1892 31.3072 64.6432 30.49 65.188 29.4004L64.0984 29.582ZM32.9544 37.1183C32.7728 38.2079 32.5912 39.2975 32.228 40.2054C31.8648 41.1134 31.5016 41.9306 31.0477 42.4754C30.5937 43.0202 30.1397 43.3834 29.6857 43.3834C29.1409 43.4742 28.7777 43.2926 28.5961 43.0202C28.4145 42.7478 28.3237 42.1122 28.3237 41.2042C28.3237 40.2054 28.5053 39.1159 28.8685 37.7539C29.2317 36.4827 29.6857 35.3023 30.3213 34.3035C30.8661 33.3047 31.5016 32.8507 32.1372 32.7599C32.5004 32.7599 32.7728 32.8507 32.9544 33.0323C33.136 33.2139 33.2268 33.6679 33.2268 34.3035C32.682 34.5759 32.3188 35.1207 32.3188 35.9379C32.1372 36.6643 32.4096 37.0275 32.9544 37.1183ZM42.8515 46.7429C42.6699 47.5601 42.4883 48.1957 42.1251 48.6497C41.8527 49.1037 41.4895 49.3761 41.2171 49.3761C40.9447 49.3761 40.6723 49.3761 40.4907 49.1945C40.3091 49.0129 40.2183 48.8313 40.2183 48.5589C40.2183 47.6509 41.1263 46.7429 43.0331 45.835L42.8515 46.7429ZM44.3043 39.3883C44.1227 40.1146 43.8503 40.6594 43.3963 41.1134C42.9423 41.5674 42.4883 41.8398 42.0343 41.8398C41.6711 41.8398 41.3079 41.749 41.0355 41.5674C40.7631 41.295 40.5815 40.7502 40.5815 39.7514C40.5815 38.8435 40.7631 37.6631 41.1263 36.3919C41.4895 35.1207 41.9435 34.0311 42.5791 33.0323C43.2147 32.1244 43.8503 31.5796 44.6675 31.4888C45.0307 31.4888 45.3938 31.5796 45.5754 31.7612C45.757 31.9428 45.8478 32.2152 45.8478 32.3968L44.3043 39.3883ZM59.6492 34.3035C59.3769 36.0287 59.0137 37.3907 58.3781 38.6619C57.7425 39.8422 57.1069 40.4778 56.3805 40.5686C55.8357 40.6594 55.4725 40.4778 55.2909 40.2054C55.1093 39.933 55.0185 39.2975 55.0185 38.3895C55.0185 37.3907 55.2001 36.3011 55.5633 34.9391C55.9265 33.6679 56.3805 32.4876 56.9253 31.4888C57.4701 30.49 58.1057 30.036 58.7413 29.9452C59.1045 29.9452 59.3768 30.036 59.5584 30.2176C59.74 30.3992 59.8308 30.8532 59.8308 31.4888C59.286 31.7612 59.0137 32.306 59.0137 33.0323C59.0137 33.7587 59.1953 34.1219 59.6492 34.3035Z" fill="#060640" stroke="white" strokeWidth="0.5" stroke-miterlimit="10" stroke-linecap="round" stroke-linejoin="round"/>
</svg>
