<svg width="80" height="80" viewBox="0 0 80 80" fill="none" xmlns="http://www.w3.org/2000/svg">
<rect width="80" height="80" rx="12" fill="#060640"/>
<path d="M17.7279 47.4078H15.0483C13.5745 47.4078 12.3687 46.202 12.3687 44.7282V43.3884H15.0483V44.7282H17.7279V42.0486H15.0483C13.5745 42.0486 12.3687 40.8428 12.3687 39.369V36.6894C12.3687 35.2156 13.5745 34.0098 15.0483 34.0098H17.7279C19.2017 34.0098 20.4075 35.2156 20.4075 36.6894V38.0292H17.7279V36.6894H15.0483V39.369H17.7279C19.2017 39.369 20.4075 40.5748 20.4075 42.0486V44.7282C20.4075 46.202 19.2017 47.4078 17.7279 47.4078Z" fill="#060640" stroke="white" stroke-miterlimit="10" stroke-linecap="round" stroke-linejoin="round"/>
<path d="M28.4466 47.4078H21.7476V34.0098H24.4272V44.7282H28.4466V47.4078Z" fill="#060640" stroke="white" stroke-miterlimit="10" stroke-linecap="round" stroke-linejoin="round"/>
<path d="M35.1454 47.4078H32.4657C30.992 47.4078 29.7861 46.202 29.7861 44.7282V36.6894C29.7861 35.2156 30.992 34.0098 32.4657 34.0098H35.1454C36.6191 34.0098 37.825 35.2156 37.825 36.6894V44.7282C37.825 46.202 36.6191 47.4078 35.1454 47.4078ZM32.4657 36.6894V44.7282H35.1454V36.6894H32.4657Z" fill="#060640" stroke="white" stroke-miterlimit="10" stroke-linecap="round" stroke-linejoin="round"/>
<path d="M44.5243 47.4078H41.8447C40.3709 47.4078 39.165 46.202 39.165 44.7282V36.6894C39.165 35.2156 40.3709 34.0098 41.8447 34.0098H44.5243C45.998 34.0098 47.2039 35.2156 47.2039 36.6894V38.0292H44.5243V36.6894H41.8447V44.7282H44.5243V43.3884H43.1845V40.7088H47.2039V44.7282C47.2039 46.202 45.998 47.4078 44.5243 47.4078Z" fill="#060640" stroke="white" stroke-miterlimit="10" stroke-linecap="round" stroke-linejoin="round"/>
<path d="M63.9515 34.0098V40.0389L61.2719 34.0098H58.5923V47.4078H61.2719V41.3787L63.9515 47.4078H66.6311V34.0098H63.9515Z" fill="#060640" stroke="white" stroke-miterlimit="10" stroke-linecap="round" stroke-linejoin="round"/>
<path d="M54.5726 47.4078H57.2522L53.9027 34.0098H51.223L47.8735 47.4078H50.5531L51.223 44.7282H53.9027L54.5726 47.4078ZM51.893 42.0486L52.5629 39.369L53.2328 42.0486H51.893Z" fill="#060640" stroke="white" stroke-miterlimit="10" stroke-linecap="round" stroke-linejoin="round"/>
<path d="M68.6406 32V34.6796H69.9804L69.3105 36.6893H70.6503L71.3202 34.6796V32H68.6406Z" fill="#060640" stroke="white" stroke-miterlimit="10" stroke-linecap="round" stroke-linejoin="round"/>
<path d="M71.3203 32V34.6796H72.6601L71.9902 36.6893H73.33L73.9999 34.6796V32H71.3203Z" fill="#060640" stroke="white" stroke-miterlimit="10" stroke-linecap="round" stroke-linejoin="round"/>
<path d="M10.3593 36.6893V34.0097H9.01949L9.6894 32H8.34959L7.67969 34.0097V36.6893H10.3593Z" fill="#060640" stroke="white" stroke-miterlimit="10" stroke-linecap="round" stroke-linejoin="round"/>
<path d="M7.67961 36.6893V34.0097H6.33981L7.00971 32H5.6699L5 34.0097V36.6893H7.67961Z" fill="#060640" stroke="white" stroke-miterlimit="10" stroke-linecap="round" stroke-linejoin="round"/>
</svg>
