<svg width="34" height="26" viewBox="0 0 34 26" fill="none" xmlns="http://www.w3.org/2000/svg">
<path d="M11.2519 19.375V8.73937H14.8751V6.625H5.10645V8.73725H8.72107V19.375H11.2498H11.2519ZM18.4706 19.375V10.8963H18.5938L21.6283 17.7791H23.2709L26.2884 10.8941H26.4096V19.375H28.6876V6.62712H26.1376L22.5038 14.9019H22.4209L18.7872 6.62712H16.2223V19.375H18.4748H18.4706Z" fill="#18191F"/>
<path d="M29.75 2.375C30.3136 2.375 30.8541 2.59888 31.2526 2.9974C31.6511 3.39591 31.875 3.93641 31.875 4.5V21.5C31.875 22.0636 31.6511 22.6041 31.2526 23.0026C30.8541 23.4011 30.3136 23.625 29.75 23.625H4.25C3.68641 23.625 3.14591 23.4011 2.7474 23.0026C2.34888 22.6041 2.125 22.0636 2.125 21.5V4.5C2.125 3.93641 2.34888 3.39591 2.7474 2.9974C3.14591 2.59888 3.68641 2.375 4.25 2.375H29.75ZM4.25 0.25C3.12283 0.25 2.04183 0.697766 1.2448 1.4948C0.447767 2.29183 0 3.37283 0 4.5L0 21.5C0 22.6272 0.447767 23.7082 1.2448 24.5052C2.04183 25.3022 3.12283 25.75 4.25 25.75H29.75C30.8772 25.75 31.9582 25.3022 32.7552 24.5052C33.5522 23.7082 34 22.6272 34 21.5V4.5C34 3.37283 33.5522 2.29183 32.7552 1.4948C31.9582 0.697766 30.8772 0.25 29.75 0.25H4.25Z" fill="#18191F"/>
</svg>
