<svg width="590" height="439" viewBox="0 0 590 439" fill="none" xmlns="http://www.w3.org/2000/svg">
<path d="M50.3783 433.778C33.7031 425.644 -6.14137 414.166 0.804643 364.935C3.04069 349.142 23.3792 325.119 38.1989 319.167C95.4322 296.211 81.7781 276.931 57.015 235.313C37.747 190.943 47.0242 112.686 90.9126 89.2323C119.268 74.0788 170.031 96.2518 199.813 84.1812C231.95 71.1383 235.161 34.3573 266.157 18.8007C359.143 -27.8691 494.923 14.7693 499.134 119.871C506.841 311.483 657.536 238.348 552.632 436.387L50.3783 433.778Z" fill="#E3E9FF"/>
<g clip-path="url(#clip0_363_4293)">
<path d="M272.317 272.375V226.704H287.875V217.625H245.927V226.695H261.449V272.375H272.308H272.317ZM303.315 272.375V235.966H303.844L316.874 265.522H323.928L336.885 235.957H337.406V272.375H347.188V217.634H336.238L320.634 253.167H320.278L304.674 217.634H293.66V272.375H303.333H303.315Z" fill="#060640"/>
<path d="M351.75 199.375C354.17 199.375 356.491 200.336 358.202 202.048C359.914 203.759 360.875 206.08 360.875 208.5V281.5C360.875 283.92 359.914 286.241 358.202 287.952C356.491 289.664 354.17 290.625 351.75 290.625H242.25C239.83 290.625 237.509 289.664 235.798 287.952C234.086 286.241 233.125 283.92 233.125 281.5V208.5C233.125 206.08 234.086 203.759 235.798 202.048C237.509 200.336 239.83 199.375 242.25 199.375H351.75ZM242.25 190.25C237.41 190.25 232.768 192.173 229.345 195.595C225.923 199.018 224 203.66 224 208.5V281.5C224 286.34 225.923 290.982 229.345 294.405C232.768 297.827 237.41 299.75 242.25 299.75H351.75C356.59 299.75 361.232 297.827 364.655 294.405C368.077 290.982 370 286.34 370 281.5V208.5C370 203.66 368.077 199.018 364.655 195.595C361.232 192.173 356.59 190.25 351.75 190.25H242.25Z" fill="#060640"/>
</g>
<path d="M362.52 56.0092C356.645 56.0092 351.887 51.2426 351.887 45.4089C351.887 39.5515 356.669 34.8086 362.52 34.8086C368.396 34.8086 373.153 39.5752 373.153 45.4089C373.153 51.2426 368.372 56.0092 362.52 56.0092ZM362.52 36.9903C357.858 36.9903 354.076 40.7609 354.076 45.4089C354.076 50.0569 357.858 53.8275 362.52 53.8275C367.183 53.8275 370.965 50.0569 370.965 45.4089C370.965 40.7609 367.159 36.9903 362.52 36.9903Z" fill="#F7F9FF"/>
<path d="M463.316 285.896C457.44 285.896 452.683 281.129 452.683 275.296C452.683 269.438 457.464 264.695 463.316 264.695C469.191 264.695 473.949 269.462 473.949 275.296C473.949 281.129 469.167 285.896 463.316 285.896ZM463.316 266.877C458.653 266.877 454.871 270.648 454.871 275.296C454.871 279.944 458.653 283.714 463.316 283.714C467.978 283.714 471.76 279.944 471.76 275.296C471.76 270.648 467.954 266.877 463.316 266.877Z" fill="#F7F9FF"/>
<path d="M572.804 438.994H50.3779C48.9268 438.994 47.7612 437.832 47.7612 436.386C47.7612 434.939 48.9268 433.777 50.3779 433.777H572.804C574.255 433.777 575.42 434.939 575.42 436.386C575.42 437.832 574.231 438.994 572.804 438.994Z" fill="#2C2858"/>
<path d="M85.0604 330.693C79.1848 330.693 74.4272 325.926 74.4272 320.093C74.4272 314.235 79.2086 309.492 85.0604 309.492C90.9359 309.492 95.6935 314.259 95.6935 320.093C95.6935 325.926 90.9122 330.693 85.0604 330.693ZM85.0604 311.65C80.398 311.65 76.6157 315.421 76.6157 320.069C76.6157 324.717 80.398 328.487 85.0604 328.487C89.7228 328.487 93.505 324.717 93.505 320.069C93.505 315.421 89.699 311.65 85.0604 311.65Z" fill="#F7F9FF"/>
<path d="M115.396 344.282C115.489 340.76 112.7 337.83 109.167 337.737C105.634 337.645 102.695 340.425 102.602 343.947C102.509 347.469 105.298 350.399 108.831 350.492C112.364 350.585 115.303 347.804 115.396 344.282Z" fill="#F7F9FF"/>
<path d="M346.131 24.8245C346.131 28.3342 343.276 31.2036 339.732 31.2036C336.211 31.2036 333.333 28.3579 333.333 24.8245C333.333 21.3147 336.188 18.4453 339.732 18.4453C343.276 18.4453 346.131 21.3147 346.131 24.8245Z" fill="#F7F9FF"/>
<path d="M553.964 293.508C553.964 297.018 551.11 299.887 547.565 299.887C544.021 299.887 541.167 297.042 541.167 293.508C541.167 289.998 544.021 287.129 547.565 287.129C551.11 287.129 553.964 289.975 553.964 293.508Z" fill="#F7F9FF"/>
<path d="M297 101L422 147.08V262.28C422 314.12 374.381 365.96 297 389C219.619 365.96 172 319.88 172 262.28V147.08L297 101Z" stroke="#18194F" strokeWidth="5" stroke-linecap="round" stroke-linejoin="round"/>
<defs>
<clipPath id="clip0_363_4293">
<rect width="146" height="146" fill="white" transform="translate(224 172)"/>
</clipPath>
</defs>
</svg>
