<svg width="21" height="21" viewBox="0 0 21 21" fill="none" xmlns="http://www.w3.org/2000/svg">
<g clip-path="url(#clip0_246_4375)">
<path d="M11.2375 13.8334H9.15421C8.58004 13.8334 8.11254 13.3659 8.11254 12.7917V8.00005H5.82088C5.27171 8.00005 4.99004 7.34005 5.36921 6.94338L9.74421 2.36005C9.98004 2.11338 10.4125 2.11338 10.6484 2.36005L15.0234 6.94338C15.4017 7.34005 15.12 8.00005 14.5709 8.00005H12.2792V12.7917C12.2792 13.3659 11.8117 13.8334 11.2375 13.8334Z" fill="white"/>
<path d="M18.7365 18.8333H1.65316C0.848991 18.8333 0.194824 18.1792 0.194824 17.375V16.9583C0.194824 16.1542 0.848991 15.5 1.65316 15.5H18.7365C19.5407 15.5 20.1948 16.1542 20.1948 16.9583V17.375C20.1948 18.1792 19.5407 18.8333 18.7365 18.8333Z" fill="white"/>
</g>
<defs>
<clipPath id="clip0_246_4375">
<rect width="20" height="20" fill="white" transform="translate(0.194824 0.5)"/>
</clipPath>
</defs>
</svg>
