<svg width="29" height="22" viewBox="0 0 29 22" fill="none" xmlns="http://www.w3.org/2000/svg">
<g clip-path="url(#clip0_276_3693)">
<path fillRule="evenodd" clipRule="evenodd" d="M0.469727 0H40.3697V1.69297H0.469727V0ZM0.469727 3.38594H40.3697V5.07891H0.469727V3.38594ZM0.469727 6.76758H40.3697V8.46484H0.469727V6.76758ZM0.469727 10.1535H40.3697V11.8465H0.469727V10.1535ZM0.469727 13.5395H40.3697V15.2324H0.469727V13.5395ZM0.469727 16.9211H40.3697V18.6141H0.469727V16.9211ZM0.469727 20.307H40.3697V22H0.469727V20.307Z" fill="#BD3D44"/>
<path fillRule="evenodd" clipRule="evenodd" d="M0.469727 1.69287H40.3697V3.38584H0.469727V1.69287ZM0.469727 5.07881H40.3697V6.76748H0.469727V5.07881ZM0.469727 8.46045H40.3697V10.1534H0.469727V8.46045ZM0.469727 11.8464H40.3697V13.5394H0.469727V11.8464ZM0.469727 15.2323H40.3697V16.9253H0.469727V15.2323ZM0.469727 18.614H40.3697V20.3069H0.469727V18.614Z" fill="white"/>
<path fillRule="evenodd" clipRule="evenodd" d="M0.469727 0H16.4289V11.8465H0.469727V0Z" fill="#192F5D"/>
<path fillRule="evenodd" clipRule="evenodd" d="M1.79883 0.506836L1.94648 0.975195H2.41406L2.03672 1.26309L2.18027 1.73574L1.79883 1.44355L1.42148 1.73144L1.56504 1.26309L1.18359 0.975195H1.65938L1.79883 0.506836ZM4.46074 0.506836L4.6043 0.975195H5.07598L4.69453 1.26309L4.83809 1.73574L4.46074 1.44355L4.0793 1.73144L4.22285 1.26309L3.84551 0.975195H4.31309L4.46074 0.506836ZM7.11856 0.506836L7.26621 0.975195H7.72969L7.35234 1.26309L7.4959 1.73574L7.11445 1.44355L6.73711 1.73144L6.88066 1.26309L6.49922 0.975195H6.9709L7.11856 0.506836ZM9.78047 0.506836L9.92402 0.975195H10.3957L10.0143 1.26309L10.1619 1.73574L9.78047 1.44355L9.39902 1.73144L9.54668 1.26309L9.16524 0.975195H9.63281L9.78047 0.506836ZM12.4383 0.506836L12.5859 0.975195H13.0535L12.6762 1.26309L12.8197 1.73574L12.4383 1.44355L12.0609 1.73144L12.2045 1.26309L11.8271 0.975195H12.2947L12.4383 0.506836ZM15.1002 0.506836L15.2438 0.975195H15.7154L15.334 1.26309L15.4816 1.73574L15.1002 1.44355L14.7188 1.73144L14.8664 1.26309L14.485 0.975195H14.9566L15.1002 0.506836ZM3.13184 1.69277L3.27539 2.16113H3.74707L3.36563 2.44902L3.50508 2.91738L3.13594 2.62949L2.75449 2.91738L2.88984 2.44902L2.5207 2.16113H2.98828L3.13184 1.69277ZM5.78965 1.69277L5.9373 2.16113H6.40488L6.02344 2.44902L6.17109 2.91738L5.78965 2.62949L5.4082 2.91738L5.55586 2.44902L5.17441 2.16113H5.64609L5.78965 1.69277ZM8.45156 1.69277L8.59512 2.16113H9.0668L8.68535 2.44902L8.82891 2.91738L8.45156 2.62949L8.07012 2.91738L8.21367 2.44902L7.83633 2.16113H8.30391L8.45156 1.69277ZM11.1094 1.69277L11.257 2.16113H11.7246L11.3432 2.44902L11.4908 2.91738L11.1094 2.62949L10.732 2.91738L10.8756 2.44902L10.4941 2.16113H10.9699L11.1094 1.69277ZM13.7713 1.69277L13.9148 2.16113H14.3865L14.0051 2.44902L14.1486 2.91738L13.7713 2.62949L13.3898 2.91738L13.5334 2.44902L13.1561 2.16113H13.6236L13.7713 1.69277ZM1.79883 2.87441L1.94648 3.35137H2.41406L2.03672 3.63926L2.18027 4.10762L1.79883 3.81543L1.42148 4.10762L1.56504 3.63496L1.18359 3.34707H1.65938L1.79883 2.87441ZM4.46074 2.87441L4.6043 3.34707H5.07598L4.69453 3.63496L4.83809 4.10332L4.46074 3.81113L4.0793 4.10332L4.22285 3.63066L3.84551 3.34277H4.31309L4.46074 2.87441ZM7.11856 2.87441L7.26621 3.34707H7.72969L7.35234 3.63496L7.4959 4.10332L7.11445 3.81113L6.73711 4.10332L6.88066 3.63066L6.49922 3.34277H6.9709L7.11856 2.87441ZM9.78047 2.87441L9.92402 3.34707H10.3957L10.0143 3.63496L10.1619 4.10332L9.78047 3.81113L9.39902 4.10332L9.54668 3.63066L9.16524 3.34277H9.63281L9.78047 2.87441ZM12.4383 2.87441L12.5859 3.34707H13.0535L12.6762 3.63496L12.8197 4.10332L12.4383 3.81113L12.0609 4.10332L12.2045 3.63066L11.8271 3.34277H12.2947L12.4383 2.87441ZM15.1002 2.87441L15.2438 3.34707H15.7154L15.334 3.63496L15.4816 4.10332L15.1002 3.81113L14.7188 4.10332L14.8664 3.63066L14.485 3.34277H14.9566L15.1002 2.87441ZM3.13184 4.06035L3.27539 4.52871H3.74707L3.36563 4.8166L3.50918 5.28926L3.13184 4.99707L2.75039 5.28496L2.89395 4.8166L2.5166 4.52871H2.98418L3.13184 4.06035ZM5.78965 4.06035L5.9373 4.52871H6.40488L6.02344 4.8166L6.17109 5.28926L5.78965 4.99707L5.4082 5.28496L5.55586 4.8166L5.17441 4.52871H5.64609L5.78965 4.06035ZM8.45156 4.06035L8.59512 4.52871H9.0668L8.68535 4.8166L8.82891 5.28926L8.45156 4.99707L8.07012 5.28496L8.21367 4.8166L7.83633 4.52871H8.30391L8.45156 4.06035ZM11.1094 4.06035L11.257 4.52871H11.7246L11.3473 4.8166L11.4908 5.28926L11.1094 4.99707L10.732 5.28496L10.8756 4.8166L10.4941 4.52871H10.9699L11.1094 4.06035ZM13.7713 4.06035L13.9148 4.52871H14.3865L14.0051 4.8166L14.1486 5.28926L13.7713 4.99707L13.3898 5.28496L13.5334 4.8166L13.1561 4.52871H13.6236L13.7713 4.06035ZM1.79883 5.24629L1.94648 5.71465H2.41406L2.03672 6.00254L2.18027 6.47519L1.79883 6.183L1.42148 6.4709L1.56504 6.00254L1.18359 5.71465H1.65938L1.79883 5.24629ZM4.46074 5.24629L4.6043 5.71465H5.07598L4.69453 6.00254L4.83809 6.4709L4.46074 6.183L4.0793 6.4709L4.22285 6.00254L3.84551 5.71465H4.31309L4.46074 5.24629ZM7.11856 5.24629L7.26621 5.71465H7.72969L7.35234 6.00254L7.4959 6.47519L7.11445 6.183L6.73711 6.4709L6.88066 6.00254L6.49922 5.71465H6.9709L7.11856 5.24629ZM9.78047 5.24629L9.92402 5.71465H10.3957L10.0143 6.00254L10.1619 6.47519L9.78047 6.183L9.39902 6.4709L9.54668 6.00254L9.16524 5.71465H9.63281L9.78047 5.24629ZM12.4383 5.24629L12.5859 5.71465H13.0535L12.6762 6.00254L12.8197 6.47519L12.4383 6.183L12.0609 6.4709L12.2045 6.00254L11.8271 5.71465H12.2947L12.4383 5.24629ZM15.1002 5.24629L15.2438 5.71465H15.7154L15.334 6.00254L15.4816 6.47519L15.1002 6.183L14.7188 6.4709L14.8664 6.00254L14.485 5.71465H14.9566L15.1002 5.24629ZM3.13184 6.43222L3.27539 6.90058H3.74707L3.36563 7.18847L3.50918 7.65683L3.13184 7.36465L2.75039 7.65683L2.89395 7.18418L2.5166 6.89629H2.98418L3.13184 6.43222ZM5.78965 6.43222L5.9373 6.90058H6.40488L6.02344 7.18847L6.17109 7.65683L5.78965 7.36465L5.4082 7.65683L5.55586 7.18418L5.17441 6.89629H5.64609L5.78965 6.43222ZM8.45156 6.43222L8.59512 6.90058H9.0668L8.68535 7.18847L8.82891 7.65683L8.45156 7.36465L8.07012 7.65683L8.21367 7.18418L7.83633 6.89629H8.30391L8.45156 6.43222ZM11.1094 6.43222L11.257 6.90058H11.7246L11.3473 7.18847L11.4908 7.65683L11.1094 7.36465L10.732 7.65683L10.8756 7.18418L10.4941 6.89629H10.9699L11.1094 6.43222ZM13.7713 6.43222L13.9148 6.90058H14.3865L14.0051 7.18847L14.1486 7.65683L13.7713 7.36465L13.3898 7.65683L13.5334 7.18418L13.1561 6.89629H13.6236L13.7713 6.43222ZM1.79883 7.61386L1.94648 8.08652H2.41406L2.03672 8.37441L2.18027 8.83847L1.79883 8.55058L1.42148 8.83847L1.56504 8.37011L1.18359 8.08222H1.65938L1.79883 7.61386ZM4.46074 7.61386L4.6043 8.08652H5.07598L4.69453 8.37441L4.84219 8.83847L4.46074 8.55058L4.0793 8.83847L4.22695 8.37011L3.84551 8.08222H4.31309L4.46074 7.61386ZM7.11856 7.61386L7.26621 8.08652H7.72969L7.35234 8.37441L7.4959 8.83847L7.11445 8.55058L6.73711 8.83847L6.88066 8.37011L6.49922 8.08222H6.9709L7.11856 7.61386ZM9.78047 7.61386L9.92402 8.08652H10.3957L10.0143 8.37441L10.1619 8.83847L9.78047 8.55058L9.39902 8.83847L9.54668 8.37011L9.16524 8.08222H9.63281L9.78047 7.61386ZM12.4383 7.61386L12.5859 8.08652H13.0535L12.6762 8.37441L12.8197 8.83847L12.4383 8.55058L12.0609 8.83847L12.2045 8.37011L11.8271 8.08222H12.2947L12.4383 7.61386ZM15.1002 7.61386L15.2438 8.08652H15.7154L15.334 8.37441L15.4816 8.83847L15.1002 8.55058L14.7188 8.83847L14.8664 8.37011L14.485 8.08222H14.9566L15.1002 7.61386ZM3.13184 8.7998L3.27539 9.26816H3.74707L3.36563 9.55605L3.50918 10.0287L3.13184 9.73652L2.75039 10.0244L2.89395 9.55605L2.5166 9.26816H2.98418L3.13184 8.7998ZM5.78965 8.7998L5.9373 9.26816H6.40488L6.02344 9.55605L6.17109 10.0287L5.78965 9.73652L5.4082 10.0244L5.55586 9.55605L5.17441 9.26816H5.64609L5.78965 8.7998ZM8.45156 8.7998L8.59512 9.26816H9.0668L8.68535 9.55605L8.82891 10.0287L8.45156 9.73652L8.07012 10.0244L8.21367 9.55605L7.83633 9.26816H8.30391L8.45156 8.7998ZM11.1094 8.7998L11.257 9.26816H11.7246L11.3473 9.55605L11.4908 10.0287L11.1094 9.73652L10.732 10.0244L10.8756 9.55605L10.4941 9.26816H10.9699L11.1094 8.7998ZM13.7713 8.7998L13.9148 9.26816H14.3865L14.0051 9.55605L14.1486 10.0287L13.7713 9.73652L13.3898 10.0244L13.5334 9.55605L13.1561 9.26816H13.6236L13.7713 8.7998ZM1.79883 9.98574L1.94648 10.4541H2.41406L2.03672 10.742L2.18027 11.2103L1.79883 10.9225L1.42148 11.2103L1.56504 10.7377L1.18359 10.4498H1.65938L1.79883 9.98574ZM4.46074 9.98574L4.6043 10.4541H5.07598L4.69453 10.742L4.84219 11.2103L4.46074 10.9225L4.0793 11.2103L4.22695 10.7377L3.84551 10.4498H4.31309L4.46074 9.98574ZM7.11856 9.98574L7.26621 10.4541H7.72969L7.36055 10.742L7.5041 11.2103L7.12266 10.9225L6.74531 11.2103L6.88887 10.7377L6.50742 10.4498H6.9791L7.11856 9.98574ZM9.78047 9.98574L9.92402 10.4541H10.3957L10.0143 10.742L10.1619 11.2103L9.78047 10.9225L9.39902 11.2103L9.54668 10.7377L9.16524 10.4498H9.63281L9.78047 9.98574ZM12.4383 9.98574L12.5859 10.4541H13.0535L12.6762 10.742L12.8197 11.2103L12.4383 10.9225L12.0609 11.2103L12.2045 10.7377L11.8271 10.4498H12.2947L12.4383 9.98574ZM15.1002 9.98574L15.2438 10.4541H15.7154L15.334 10.742L15.4816 11.2103L15.1002 10.9225L14.7188 11.2103L14.8664 10.7377L14.485 10.4498H14.9566L15.1002 9.98574Z" fill="white"/>
</g>
<defs>
<clipPath id="clip0_276_3693">
<rect width="28" height="22" fill="white" transform="translate(0.469727)"/>
</clipPath>
</defs>
</svg>
