<svg width="21" height="19" viewBox="0 0 21 19" fill="none" xmlns="http://www.w3.org/2000/svg">
<path d="M7.37498 0.125C4.4985 0.125 2.16665 2.45685 2.16665 5.33333C2.16665 8.20982 4.4985 10.5417 7.37498 10.5417C10.2515 10.5417 12.5833 8.20982 12.5833 5.33333C12.5833 2.45685 10.2515 0.125 7.37498 0.125ZM4.24998 5.33333C4.24998 3.60744 5.64909 2.20833 7.37498 2.20833C9.10087 2.20833 10.5 3.60744 10.5 5.33333C10.5 7.05922 9.10087 8.45833 7.37498 8.45833C5.64909 8.45833 4.24998 7.05922 4.24998 5.33333Z" fill="#18191F"/>
<path d="M15.6129 5.56071C15.3199 5.41129 14.9956 5.3334 14.6666 5.3334V3.25006C15.3246 3.25006 15.9731 3.4058 16.5592 3.70464C16.6238 3.73755 16.6874 3.7721 16.75 3.80823C17.2556 4.10014 17.695 4.49551 18.0388 4.96933C18.4253 5.50179 18.6801 6.1182 18.7825 6.76809C18.8849 7.41798 18.832 8.08289 18.628 8.70839C18.4241 9.33389 18.0749 9.9022 17.6091 10.3668C17.1432 10.8314 16.574 11.1791 15.948 11.3814C15.3909 11.5615 14.8029 11.6218 14.2224 11.5596C14.1506 11.5519 14.0788 11.5423 14.0073 11.5308C13.3581 11.4268 12.7428 11.1706 12.2116 10.7832L12.2105 10.7824L13.4386 9.09955C13.7043 9.29346 14.0122 9.42163 14.337 9.47369C14.6618 9.52574 14.9943 9.50014 15.3073 9.39898C15.6203 9.29783 15.9049 9.12398 16.1378 8.89169C16.3707 8.65939 16.5453 8.37525 16.6473 8.06251C16.7493 7.74977 16.7757 7.41733 16.7245 7.09239C16.6733 6.76745 16.5459 6.45926 16.3527 6.19303C16.1595 5.92681 15.906 5.71012 15.6129 5.56071Z" fill="#18191F"/>
<path d="M18.8313 18.875C18.8313 18.3281 18.7236 17.7865 18.5143 17.2812C18.305 16.776 17.9983 16.3168 17.6115 15.9301C17.2248 15.5434 16.7657 15.2366 16.2604 15.0273C15.7551 14.818 15.2136 14.7103 14.6666 14.7103V12.625C15.3771 12.625 16.0816 12.7461 16.75 12.9824C16.8537 13.0191 16.9566 13.0586 17.0584 13.1008C17.8167 13.4148 18.5057 13.8752 19.0861 14.4556C19.6664 15.0359 20.1268 15.7249 20.4409 16.4832C20.4831 16.5851 20.5225 16.6879 20.5592 16.7917C20.7955 17.46 20.9166 18.1645 20.9166 18.875H18.8313Z" fill="#18191F"/>
<path d="M14.6666 18.875H12.5833C12.5833 15.9985 10.2515 13.6667 7.37498 13.6667C4.4985 13.6667 2.16665 15.9985 2.16665 18.875H0.083313C0.083313 14.8479 3.3479 11.5833 7.37498 11.5833C11.4021 11.5833 14.6666 14.8479 14.6666 18.875Z" fill="#18191F"/>
</svg>
