<svg width="19" height="19" viewBox="0 0 19 19" fill="none" xmlns="http://www.w3.org/2000/svg">
<path d="M16.0629 18.3399H15.9513C3.05602 17.5815 1.22508 6.4536 0.969141 3.05751C0.948519 2.79346 0.979043 2.52784 1.05897 2.27588C1.13889 2.02392 1.26664 1.79056 1.43489 1.58917C1.60315 1.38779 1.80861 1.22234 2.03949 1.1023C2.27038 0.982263 2.52215 0.909999 2.78039 0.889649H6.39633C6.6592 0.889389 6.91608 0.96986 7.13371 1.12064C7.35134 1.27142 7.51969 1.48556 7.61695 1.73532L8.61445 4.24547C8.7105 4.48947 8.73433 4.75695 8.683 5.01469C8.63166 5.27242 8.50742 5.50906 8.3257 5.69519L6.92789 7.13819C7.14624 8.4072 7.74045 9.57698 8.63014 10.4893C9.51982 11.4016 10.662 12.0124 11.9023 12.239L13.3263 10.796C13.5111 10.6122 13.7446 10.4881 13.9979 10.4392C14.2511 10.3903 14.5128 10.4187 14.7504 10.5209L17.2245 11.5343C17.465 11.6369 17.6702 11.8105 17.8139 12.0328C17.9577 12.2551 18.0335 12.5162 18.0316 12.7827V16.3264C18.0316 16.8604 17.8242 17.3726 17.455 17.7502C17.0858 18.1278 16.585 18.3399 16.0629 18.3399ZM2.93789 2.23198C2.76384 2.23198 2.59692 2.30269 2.47385 2.42856C2.35078 2.55443 2.28164 2.72514 2.28164 2.90314V2.95684C2.58352 6.93013 4.51945 16.3264 16.0235 16.9976C16.1097 17.0031 16.1961 16.991 16.2778 16.9623C16.3595 16.9335 16.4348 16.8885 16.4994 16.8299C16.564 16.7713 16.6167 16.7002 16.6544 16.6207C16.6921 16.5412 16.7141 16.4549 16.7191 16.3667V12.7827L14.2451 11.7692L12.3616 13.682L12.0466 13.6418C6.33727 12.9102 5.56289 7.07108 5.56289 7.01067L5.52352 6.68851L7.38727 4.76227L6.40289 2.23198H2.93789Z" fill="#19181F"/>
</svg>
