<svg width="34" height="10" viewBox="0 0 34 10" fill="none" xmlns="http://www.w3.org/2000/svg">
<path d="M4.50016 0.833984C2.2085 0.833984 0.333496 2.70898 0.333496 5.00065C0.333496 7.29232 2.2085 9.16732 4.50016 9.16732C6.79183 9.16732 8.66683 7.29232 8.66683 5.00065C8.66683 2.70898 6.79183 0.833984 4.50016 0.833984ZM29.5002 0.833984C27.2085 0.833984 25.3335 2.70898 25.3335 5.00065C25.3335 7.29232 27.2085 9.16732 29.5002 9.16732C31.7918 9.16732 33.6668 7.29232 33.6668 5.00065C33.6668 2.70898 31.7918 0.833984 29.5002 0.833984ZM17.0002 0.833984C14.7085 0.833984 12.8335 2.70898 12.8335 5.00065C12.8335 7.29232 14.7085 9.16732 17.0002 9.16732C19.2918 9.16732 21.1668 7.29232 21.1668 5.00065C21.1668 2.70898 19.2918 0.833984 17.0002 0.833984Z" fill="white"/>
</svg>
