<svg width="30" height="38" viewBox="0 0 30 38" fill="none" xmlns="http://www.w3.org/2000/svg">
<path d="M26.6667 0.666016H3.33333C1.5 0.666016 0.0166667 2.16602 0.0166667 3.99935L0 25.5493C0 26.6993 0.583334 27.716 1.46667 28.316L15 37.3327L28.5167 28.316C29.4 27.716 29.9833 26.6993 29.9833 25.5493L30 3.99935C30 2.16602 28.5 0.666016 26.6667 0.666016ZM15 33.3327L3.33333 25.566V3.99935H26.6667V25.5493L15 33.3327ZM11.65 20.966L7.35 16.6493L5 18.9993L11.6667 25.666L25 12.3327L22.6333 9.96601L11.65 20.966Z" fill="white"/>
</svg>
