<svg width="32" height="30" viewBox="0 0 32 30" fill="none" xmlns="http://www.w3.org/2000/svg">
<path d="M31.6751 10.0758L30.0126 3.15667C29.6643 1.73167 28.4293 0.75 26.9885 0.75H4.99597C3.57097 0.75 2.32013 1.7475 1.98763 3.15667L0.325133 10.0758C-0.0548675 11.6908 0.293466 13.3375 1.3068 14.6358C1.43347 14.81 1.60763 14.9367 1.75013 15.095V26.0833C1.75013 27.825 3.17513 29.25 4.9168 29.25H27.0835C28.8251 29.25 30.2501 27.825 30.2501 26.0833V15.095C30.3926 14.9525 30.5668 14.81 30.6935 14.6517C31.7068 13.3533 32.071 11.6908 31.6751 10.0758ZM26.941 3.90083L28.6035 10.82C28.7618 11.485 28.6193 12.15 28.2076 12.6725C27.986 12.9575 27.511 13.4167 26.7193 13.4167C25.7535 13.4167 24.9143 12.6408 24.8035 11.6117L23.8851 3.91667L26.941 3.90083ZM17.5835 3.91667H20.6868L21.5418 11.0733C21.621 11.6908 21.431 12.3083 21.0193 12.7675C20.671 13.1792 20.1643 13.4167 19.5151 13.4167C18.4543 13.4167 17.5835 12.4825 17.5835 11.3425V3.91667ZM10.4426 11.0733L11.3135 3.91667H14.4168V11.3425C14.4168 12.4825 13.546 13.4167 12.3743 13.4167C11.836 13.4167 11.3451 13.1792 10.9651 12.7675C10.5693 12.3083 10.3793 11.6908 10.4426 11.0733ZM3.3968 10.82L4.99597 3.91667H8.11513L7.1968 11.6117C7.07013 12.6408 6.2468 13.4167 5.28097 13.4167C4.50513 13.4167 4.0143 12.9575 3.80847 12.6725C3.38097 12.1658 3.23847 11.485 3.3968 10.82ZM4.9168 26.0833V16.5358C5.04347 16.5517 5.1543 16.5833 5.28097 16.5833C6.65847 16.5833 7.9093 16.0133 8.82763 15.0792C9.77763 16.0292 11.0443 16.5833 12.4851 16.5833C13.8626 16.5833 15.0976 16.0133 16.016 15.1108C16.9501 16.0133 18.2168 16.5833 19.6418 16.5833C20.9718 16.5833 22.2385 16.0292 23.1885 15.0792C24.1068 16.0133 25.3576 16.5833 26.7351 16.5833C26.8618 16.5833 26.9726 16.5517 27.0993 16.5358V26.0833H4.9168Z" fill="white"/>
</svg>
