<svg width="34" height="34" viewBox="0 0 34 34" fill="none" xmlns="http://www.w3.org/2000/svg">
<path d="M33.4999 30.8783L30.8838 33.4963L19.0734 21.686L21.6951 19.068L33.4999 30.8783ZM19.0533 0.5C14.3233 0.5 9.59326 2.29667 5.96326 5.90833L5.94492 5.92667C-1.29674 13.1683 -1.29674 24.92 5.94492 32.1617L32.1616 5.92667C28.5499 2.315 23.8016 0.5 19.0533 0.5ZM6.25659 26.6617C4.89992 24.3883 4.16659 21.785 4.16659 19.0533C4.16659 17.3483 4.45992 15.7167 5.00992 14.1583C5.35826 17.66 6.64159 21.1067 8.80492 24.1317L6.25659 26.6617ZM11.4633 21.455C8.98826 17.6967 8.05326 13.205 8.93326 8.93333C9.99659 8.71333 11.0599 8.60333 12.1416 8.60333C15.4416 8.60333 18.6499 9.61167 21.4549 11.4633L11.4633 21.455ZM14.1583 5.01C15.7166 4.46 17.3483 4.16667 19.0533 4.16667C21.7849 4.16667 24.3883 4.9 26.6616 6.25667L24.1133 8.805C21.0883 6.64167 17.6599 5.35833 14.1583 5.01Z" fill="white"/>
</svg>
