<svg width="40" height="28" viewBox="0 0 40 28" fill="none" xmlns="http://www.w3.org/2000/svg">
<path d="M34 7H28.75V0H4.25C2.325 0 0.75 1.575 0.75 3.5V22.75H4.25C4.25 25.655 6.595 28 9.5 28C12.405 28 14.75 25.655 14.75 22.75H25.25C25.25 25.655 27.595 28 30.5 28C33.405 28 35.75 25.655 35.75 22.75H39.25V14L34 7ZM33.125 9.625L36.555 14H28.75V9.625H33.125ZM9.5 24.5C8.5375 24.5 7.75 23.7125 7.75 22.75C7.75 21.7875 8.5375 21 9.5 21C10.4625 21 11.25 21.7875 11.25 22.75C11.25 23.7125 10.4625 24.5 9.5 24.5ZM13.385 19.25C12.4225 18.1825 11.0575 17.5 9.5 17.5C7.9425 17.5 6.5775 18.1825 5.615 19.25H4.25V3.5H25.25V19.25H13.385ZM30.5 24.5C29.5375 24.5 28.75 23.7125 28.75 22.75C28.75 21.7875 29.5375 21 30.5 21C31.4625 21 32.25 21.7875 32.25 22.75C32.25 23.7125 31.4625 24.5 30.5 24.5Z" fill="white"/>
</svg>
