<svg width="48" height="48" viewBox="0 0 48 48" fill="none" xmlns="http://www.w3.org/2000/svg">
<path d="M46.5827 40.8249L34.5227 28.694C34.8291 28.3439 34.9898 27.8895 34.9712 27.4242C34.9527 26.9593 34.7563 26.5191 34.4229 26.1945L33.5141 25.2857H33.5138C33.1603 24.9472 32.6899 24.7585 32.2006 24.7585C31.7112 24.7585 31.2405 24.9472 30.887 25.2857L30.2235 25.9401L28.7256 24.4422L35.8603 17.3315C36.8611 17.7611 37.9386 17.9837 39.0277 17.9863C40.7541 17.9845 42.4345 17.4303 43.8232 16.4042C45.2118 15.3785 46.2353 13.9348 46.7439 12.285C46.8864 12.0117 46.8747 11.6834 46.7133 11.4207C46.5519 11.158 46.2644 10.9991 45.9562 11.0024C45.8775 10.9908 45.7977 10.9908 45.7189 11.0021L40.828 12.3105C39.8445 12.5721 38.6785 11.5872 38.3123 10.2084C38.1134 9.5267 38.1455 8.79835 38.4034 8.137C38.5725 7.65713 38.9562 7.28401 39.4408 7.12912L44.3846 5.81193L44.3849 5.8123C44.6699 5.72412 44.8907 5.49712 44.9708 5.21C45.0513 4.92251 44.9803 4.61389 44.7821 4.3909C43.1792 2.74901 40.9504 1.87088 38.6581 1.9788C36.3663 2.08629 34.2296 3.1696 32.7874 4.95458C31.3456 6.73966 30.736 9.05633 31.1127 11.3197L23.2992 19.107L23.0047 18.8195L12.1704 8.00293L12.0975 5.43963C12.0881 5.12846 11.9201 4.84389 11.6523 4.68539L5.46241 1.00414C5.10533 0.790255 4.6484 0.846371 4.3536 1.14041L1.17233 4.32169C0.878289 4.61646 0.822172 5.07338 1.03606 5.43049L4.71731 11.6204C4.87581 11.8882 5.16038 12.0565 5.47155 12.066L8.04399 12.1389L18.9063 22.9191L19.1737 23.1822L18.5846 23.763L12.043 30.2823C9.64547 29.2519 6.89664 29.4512 4.6725 30.8158C2.44837 32.1803 1.02549 34.5407 0.85787 37.1449C0.836737 37.4648 0.991958 37.7705 1.26195 37.9425C1.53195 38.1149 1.87446 38.1262 2.15575 37.9724L5.85444 35.9774C6.74168 35.4874 8.10115 36.1392 8.81025 37.4043C9.51896 38.6694 9.34114 40.1616 8.46264 40.6603L4.47348 42.8738C4.20785 43.0225 4.03842 43.2983 4.02531 43.6022C4.01255 43.9061 4.15758 44.195 4.40935 44.3659C6.15945 45.5359 8.29861 45.9725 10.3672 45.5807C12.4353 45.1893 14.2673 44.0015 15.4687 42.2726C16.67 40.544 17.1444 38.4128 16.7902 36.3377L23.9822 29.1698L24.5903 28.5638L26.0697 30.0756L25.4061 30.7391C25.3868 30.7577 25.3679 30.7763 25.3497 30.7956C25.0163 31.1439 24.8348 31.6103 24.8454 32.0924C24.8563 32.5744 25.0578 33.0324 25.4061 33.3658L26.3152 34.2745V34.2749C26.6399 34.6083 27.0801 34.8043 27.545 34.8229C28.01 34.8415 28.4643 34.6812 28.8148 34.3747L40.8842 46.5243C40.9027 46.5436 40.9213 46.5626 40.9406 46.5808C41.289 46.9142 41.7554 47.0953 42.2374 47.0847C42.7195 47.0741 43.1775 46.8726 43.5108 46.5243L46.5833 43.4519C46.6026 43.4333 46.6215 43.4147 46.6397 43.3954C46.9728 43.0471 47.1542 42.5807 47.1437 42.0986C47.1331 41.6166 46.9312 41.1586 46.5829 40.8252L46.5827 40.8249ZM32.6646 12.1996C32.8792 11.9868 32.9692 11.6785 32.9029 11.3837C32.5272 9.77468 32.8012 8.08252 33.6652 6.67429C34.5291 5.26596 35.9136 4.2552 37.5184 3.86137C39.1231 3.46749 40.8181 3.72218 42.2359 4.57044L38.9693 5.44275C37.9578 5.73023 37.1405 6.47683 36.7627 7.45803C36.3535 8.47757 36.293 9.60382 36.5907 10.6612C36.7729 11.578 37.2487 12.4098 37.9461 13.0318C38.6435 13.6538 39.5246 14.032 40.4559 14.1085C40.7255 14.1093 40.994 14.0743 41.2546 14.0047L44.4333 13.1499C43.6102 14.5395 42.2831 15.5587 40.728 15.996C39.1729 16.4333 37.5091 16.2543 36.0823 15.4968C35.7423 15.319 35.3266 15.3824 35.0547 15.6531L27.4813 23.1981L27.2958 23.0127L24.5321 20.312L32.6646 12.1996ZM15.1935 35.439C14.9789 35.6518 14.8889 35.9601 14.9552 36.2549C15.2941 37.7259 15.0911 39.27 14.3839 40.6036C13.6766 41.9376 12.5125 42.9717 11.1045 43.5164C9.69623 44.0615 8.13931 44.0805 6.7183 43.5703L9.27507 42.1264C11.0321 41.1462 11.5017 38.6102 10.3113 36.4754C9.57419 35.0238 8.12252 34.0723 6.49742 33.9762C5.96288 33.9729 5.43637 34.1081 4.96961 34.3686L2.96626 35.4799C3.59006 33.7743 4.9211 32.4221 6.61691 31.7721C8.31272 31.1217 10.2066 31.2375 11.811 32.0891C12.1455 32.2804 12.5656 32.2315 12.8469 31.9681L20.4229 24.4107L23.1605 27.1026L23.3587 27.3052L15.1935 35.439ZM9.07058 10.584C8.90552 10.4204 8.68435 10.326 8.45224 10.3202L5.97998 10.2294L2.98051 5.08494L5.16202 2.90343L10.3157 5.96671L10.3885 8.39345C10.394 8.62555 10.4884 8.84672 10.652 9.01142L28.9635 27.2204L27.4 28.7839L9.07058 10.584ZM28.7682 31.72L27.5684 32.929L26.6866 32.029L32.1405 26.5026L33.0493 27.4113L29.2318 31.2562L28.7682 31.72ZM42.1733 45.2324L30.1217 33.0651L31.6123 31.5198L33.1759 29.9563L45.2909 42.1329L42.1733 45.2324Z" fill="white"/>
</svg>
