<svg width="37" height="37" viewBox="0 0 37 37" fill="none" xmlns="http://www.w3.org/2000/svg">
<path d="M7.23559 28.876L1.64446 25.7698L2.60348 24.8108L7.35852 25.4901L7.8535 25.5608L8.20705 25.2073L16.4571 16.9572L17.4189 15.9954L16.214 15.3643L1.66882 7.74539L3.31512 6.09909L22.2751 10.4745L22.8152 10.5991L23.2071 10.2072L31.4571 1.95716C32.3116 1.10268 33.6885 1.10268 34.5429 1.95716C35.3974 2.81164 35.3974 4.18848 34.5429 5.04297L26.2929 13.293L25.901 13.6849L26.0256 14.225L30.401 33.185L28.7547 34.8313L21.1358 20.2861L20.5047 19.0812L19.5429 20.043L11.2929 28.2931L10.9393 28.6466L11.01 29.1416L11.6893 33.8966L10.7303 34.8557L7.6241 29.2645L7.48534 29.0148L7.23559 28.876Z" stroke="white" strokeWidth="2"/>
</svg>
