<svg width="40" height="40" viewBox="0 0 40 40" fill="none" xmlns="http://www.w3.org/2000/svg">
<path d="M31.6667 1.66699H8.33333C6.5 1.66699 5.01667 3.16699 5.01667 5.00033L5 26.5503C5 27.7003 5.58333 28.717 6.46667 29.317L20 38.3337L33.5167 29.317C34.4 28.717 34.9833 27.7003 34.9833 26.5503L35 5.00033C35 3.16699 33.5 1.66699 31.6667 1.66699ZM20 34.3337L8.33333 26.567V5.00033H31.6667V26.5503L20 34.3337ZM16.65 21.967L12.35 17.6503L10 20.0003L16.6667 26.667L30 13.3337L27.6333 10.967L16.65 21.967Z" fill="white"/>
</svg>
