<svg width="54" height="53" viewBox="0 0 54 53" fill="none" xmlns="http://www.w3.org/2000/svg">
<path d="M19.6997 47.1113C21.5292 47.1113 23.0122 45.6283 23.0122 43.7988C23.0122 41.9694 21.5292 40.4863 19.6997 40.4863C17.8703 40.4863 16.3872 41.9694 16.3872 43.7988C16.3872 45.6283 17.8703 47.1113 19.6997 47.1113Z" fill="white"/>
<path d="M39.8252 47.1113C41.6546 47.1113 43.1377 45.6283 43.1377 43.7988C43.1377 41.9694 41.6546 40.4863 39.8252 40.4863C37.9958 40.4863 36.5127 41.9694 36.5127 43.7988C36.5127 45.6283 37.9958 47.1113 39.8252 47.1113Z" fill="white"/>
<path d="M48.7764 7.90583C48.6394 7.73694 48.4667 7.60051 48.2707 7.50632C48.0746 7.41214 47.8602 7.36254 47.6427 7.3611H16.9911L17.948 10.3055H45.7141L41.7833 27.9722H19.7L12.9719 6.66916C12.8991 6.44311 12.7728 6.23803 12.6036 6.07139C12.4344 5.90476 12.2274 5.78153 12.0002 5.71222L5.96414 3.85722C5.77853 3.80018 5.58352 3.78026 5.39022 3.7986C5.19692 3.81693 5.00912 3.87316 4.83755 3.96407C4.49105 4.14768 4.23168 4.46141 4.1165 4.83624C4.00131 5.21108 4.03975 5.61633 4.22335 5.96283C4.40695 6.30933 4.72068 6.5687 5.09552 6.68388L10.3808 8.30333L17.1383 29.6505L14.7239 31.6233L14.5325 31.8147C13.9352 32.503 13.5967 33.3779 13.5752 34.2889C13.5537 35.1999 13.8506 36.0899 14.4147 36.8055C14.816 37.2935 15.3259 37.6808 15.9036 37.9365C16.4814 38.1921 17.1109 38.309 17.7419 38.2778H42.3133C42.7038 38.2778 43.0782 38.1227 43.3543 37.8466C43.6304 37.5705 43.7855 37.196 43.7855 36.8055C43.7855 36.4151 43.6304 36.0406 43.3543 35.7645C43.0782 35.4884 42.7038 35.3333 42.3133 35.3333H17.5064C17.3368 35.3275 17.1717 35.2781 17.0268 35.1899C16.8819 35.1016 16.7623 34.9775 16.6794 34.8295C16.5965 34.6815 16.5532 34.5146 16.5536 34.3449C16.5541 34.1753 16.5983 34.0087 16.6819 33.8611L20.23 30.9167H42.9611C43.3014 30.925 43.6341 30.8151 43.9025 30.6057C44.1709 30.3964 44.3585 30.1004 44.4333 29.7683L49.1003 9.15722C49.145 8.93773 49.1391 8.71093 49.083 8.49407C49.0269 8.27722 48.922 8.07603 48.7764 7.90583Z" fill="white"/>
</svg>
