<svg width="643" height="440" viewBox="0 0 643 440" fill="none" xmlns="http://www.w3.org/2000/svg">
<g clip-path="url(#clip0_314_3182)">
<path d="M50.5536 434.619C33.8784 426.485 -5.96608 415.007 0.979936 365.776C3.21598 349.982 23.5545 325.96 38.3742 320.007C95.6075 297.052 81.9533 277.772 57.1903 236.154C37.9223 191.784 47.1995 113.527 91.0878 90.0731C119.443 74.9197 170.206 97.0926 199.988 85.022C232.125 71.9791 235.337 35.1981 266.332 19.6415C359.318 -27.0283 495.099 15.6101 499.309 120.712C507.016 312.324 657.711 239.189 552.808 437.227L50.5536 434.619Z" fill="#E3E9FF"/>
<path d="M362.696 56.8491C356.82 56.8491 352.062 52.0825 352.062 46.2487C352.062 40.3913 356.844 35.6484 362.696 35.6484C368.571 35.6484 373.329 40.415 373.329 46.2487C373.329 52.0825 368.547 56.8491 362.696 56.8491ZM362.696 37.8302C358.033 37.8302 354.251 41.6007 354.251 46.2487C354.251 50.8968 358.033 54.6673 362.696 54.6673C367.358 54.6673 371.14 50.8968 371.14 46.2487C371.14 41.6007 367.334 37.8302 362.696 37.8302Z" fill="#F7F9FF"/>
<path d="M463.491 286.736C457.615 286.736 452.858 281.969 452.858 276.135C452.858 270.278 457.639 265.535 463.491 265.535C469.367 265.535 474.124 270.302 474.124 276.135C474.124 281.969 469.343 286.736 463.491 286.736ZM463.491 267.717C458.829 267.717 455.046 271.487 455.046 276.135C455.046 280.783 458.829 284.554 463.491 284.554C468.153 284.554 471.936 280.783 471.936 276.135C471.936 271.487 468.13 267.717 463.491 267.717Z" fill="#F7F9FF"/>
<path d="M572.979 439.836H50.5532C49.1021 439.836 47.9365 438.674 47.9365 437.228C47.9365 435.781 49.1021 434.619 50.5532 434.619H572.979C574.43 434.619 575.596 435.781 575.596 437.228C575.596 438.674 574.406 439.836 572.979 439.836Z" fill="#2C2858"/>
<path d="M85.2357 331.533C79.3601 331.533 74.6025 326.766 74.6025 320.932C74.6025 315.075 79.3839 310.332 85.2357 310.332C91.1112 310.332 95.8688 315.099 95.8688 320.932C95.8688 326.766 91.0874 331.533 85.2357 331.533ZM85.2357 312.49C80.5733 312.49 76.791 316.261 76.791 320.909C76.791 325.557 80.5733 329.327 85.2357 329.327C89.8981 329.327 93.6803 325.557 93.6803 320.909C93.6803 316.261 89.8743 312.49 85.2357 312.49Z" fill="#F7F9FF"/>
<path d="M115.571 345.122C115.664 341.6 112.875 338.67 109.342 338.577C105.809 338.485 102.87 341.265 102.777 344.787C102.684 348.309 105.473 351.239 109.006 351.332C112.539 351.424 115.478 348.644 115.571 345.122Z" fill="#F7F9FF"/>
<path d="M346.306 25.6653C346.306 29.175 343.452 32.0445 339.907 32.0445C336.387 32.0445 333.508 29.1987 333.508 25.6653C333.508 22.1556 336.363 19.2861 339.907 19.2861C343.452 19.2861 346.306 22.1556 346.306 25.6653Z" fill="#F7F9FF"/>
<path d="M554.14 294.349C554.14 297.859 551.285 300.728 547.741 300.728C544.196 300.728 541.342 297.882 541.342 294.349C541.342 290.839 544.196 287.97 547.741 287.97C551.285 287.97 554.14 290.815 554.14 294.349Z" fill="#F7F9FF"/>
</g>
<g opacity="0.5">
<path d="M183.736 294.494H88.0508C85.9944 294.494 84.3311 292.832 84.3311 290.778V116.21C84.3311 114.156 85.9944 112.494 88.0508 112.494H183.736C185.792 112.494 187.456 114.156 187.456 116.21V290.778C187.456 292.802 185.792 294.494 183.736 294.494Z" fill="#F4F7FD"/>
<path d="M131.448 161.469H94.2199C93.2824 161.469 92.4961 160.714 92.4961 159.747V122.585C92.4961 121.649 93.2521 120.863 94.2199 120.863H131.448C132.385 120.863 133.171 121.619 133.171 122.585V159.777C133.141 160.714 132.385 161.469 131.448 161.469Z" fill="#CCE6FF"/>
<path d="M179.502 123.341H150.651C150.168 123.341 149.744 122.948 149.744 122.434V121.77C149.744 121.286 150.137 120.863 150.651 120.863H179.502C179.986 120.863 180.409 121.256 180.409 121.77V122.434C180.379 122.918 179.986 123.341 179.502 123.341Z" fill="#CCE6FF"/>
<path d="M179.502 127.631H150.651C150.168 127.631 149.744 127.238 149.744 126.724V126.06C149.744 125.576 150.137 125.153 150.651 125.153H179.502C179.986 125.153 180.409 125.546 180.409 126.06V126.724C180.379 127.238 179.986 127.631 179.502 127.631Z" fill="#CCE6FF"/>
<path d="M179.502 131.951H150.651C150.168 131.951 149.744 131.558 149.744 131.045V130.38C149.744 129.897 150.137 129.474 150.651 129.474H179.502C179.986 129.474 180.409 129.866 180.409 130.38V131.045C180.379 131.528 179.986 131.951 179.502 131.951Z" fill="#CCE6FF"/>
<path d="M179.502 136.241H150.651C150.168 136.241 149.744 135.848 149.744 135.335V134.67C149.744 134.187 150.137 133.764 150.651 133.764H179.502C179.986 133.764 180.409 134.156 180.409 134.67V135.335C180.379 135.848 179.986 136.241 179.502 136.241Z" fill="#CCE6FF"/>
<path d="M179.502 140.531H150.651C150.168 140.531 149.744 140.138 149.744 139.625V138.96C149.744 138.477 150.137 138.054 150.651 138.054H179.502C179.986 138.054 180.409 138.446 180.409 138.96V139.625C180.379 140.138 179.986 140.531 179.502 140.531Z" fill="#CCE6FF"/>
<path d="M179.502 144.851H150.651C150.168 144.851 149.744 144.459 149.744 143.945V143.28C149.744 142.797 150.137 142.374 150.651 142.374H179.502C179.986 142.374 180.409 142.767 180.409 143.28V143.945C180.379 144.459 179.986 144.851 179.502 144.851Z" fill="#CCE6FF"/>
<path d="M179.502 149.141H150.651C150.168 149.141 149.744 148.749 149.744 148.235V147.57C149.744 147.087 150.137 146.664 150.651 146.664H179.502C179.986 146.664 180.409 147.057 180.409 147.57V148.235C180.379 148.749 179.986 149.141 179.502 149.141Z" fill="#CCE6FF"/>
<path d="M179.502 153.462H150.651C150.168 153.462 149.744 153.069 149.744 152.555V151.891C149.744 151.407 150.137 150.984 150.651 150.984H179.502C179.986 150.984 180.409 151.377 180.409 151.891V152.555C180.379 153.069 179.986 153.462 179.502 153.462Z" fill="#CCE6FF"/>
<path d="M179.502 157.753H150.651C150.168 157.753 149.744 157.36 149.744 156.846V156.182C149.744 155.698 150.137 155.275 150.651 155.275H179.502C179.986 155.275 180.409 155.668 180.409 156.182V156.846C180.379 157.36 179.986 157.753 179.502 157.753Z" fill="#CCE6FF"/>
<path d="M179.502 162.073H150.651C150.168 162.073 149.744 161.68 149.744 161.167V160.502C149.744 160.019 150.137 159.596 150.651 159.596H179.502C179.986 159.596 180.409 159.988 180.409 160.502V161.167C180.379 161.65 179.986 162.073 179.502 162.073Z" fill="#CCE6FF"/>
<path d="M140.913 126.996C142.099 126.996 143.061 126.036 143.061 124.851C143.061 123.666 142.099 122.706 140.913 122.706C139.727 122.706 138.766 123.666 138.766 124.851C138.766 126.036 139.727 126.996 140.913 126.996Z" fill="#CCE6FF"/>
<path d="M140.913 143.915C142.099 143.915 143.061 142.955 143.061 141.77C143.061 140.585 142.099 139.625 140.913 139.625C139.727 139.625 138.766 140.585 138.766 141.77C138.766 142.955 139.727 143.915 140.913 143.915Z" fill="#CCE6FF"/>
<path d="M143.061 158.689C143.061 159.867 142.093 160.834 140.913 160.834C139.734 160.834 138.766 159.867 138.766 158.689C138.766 157.511 139.734 156.544 140.913 156.544C142.093 156.544 143.061 157.481 143.061 158.689Z" fill="#CCE6FF"/>
<path d="M180.379 168.115H92.4961V173.131H180.379V168.115Z" fill="#CCE6FF"/>
<path d="M180.379 176.816H92.4961V181.832H180.379V176.816Z" fill="#CCE6FF"/>
<path d="M138.766 185.518H92.4961V190.533H138.766V185.518Z" fill="#CCE6FF"/>
<path d="M179.714 200.019H93.1614C92.7985 200.019 92.4961 199.717 92.4961 199.355V197.723C92.4961 197.361 92.7985 197.059 93.1614 197.059H179.714C180.076 197.059 180.379 197.361 180.379 197.723V199.355C180.379 199.717 180.076 200.019 179.714 200.019Z" fill="#CCE6FF"/>
<path d="M179.714 206.123H93.1614C92.7985 206.123 92.4961 205.821 92.4961 205.458V203.827C92.4961 203.464 92.7985 203.162 93.1614 203.162H179.714C180.076 203.162 180.379 203.464 180.379 203.827V205.458C180.379 205.821 180.076 206.123 179.714 206.123Z" fill="#CCE6FF"/>
<path d="M179.714 212.225H93.1614C92.7985 212.225 92.4961 211.923 92.4961 211.561V209.929C92.4961 209.567 92.7985 209.265 93.1614 209.265H179.714C180.076 209.265 180.379 209.567 180.379 209.929V211.561C180.379 211.923 180.076 212.225 179.714 212.225Z" fill="#CCE6FF"/>
<path d="M179.714 218.328H93.1614C92.7985 218.328 92.4961 218.026 92.4961 217.663V216.032C92.4961 215.669 92.7985 215.367 93.1614 215.367H179.714C180.076 215.367 180.379 215.669 180.379 216.032V217.663C180.379 218.026 180.076 218.328 179.714 218.328Z" fill="#CCE6FF"/>
<path d="M179.714 224.432H93.1614C92.7985 224.432 92.4961 224.129 92.4961 223.767V222.135C92.4961 221.773 92.7985 221.471 93.1614 221.471H179.714C180.076 221.471 180.379 221.773 180.379 222.135V223.767C180.379 224.129 180.076 224.432 179.714 224.432Z" fill="#CCE6FF"/>
<path d="M179.714 230.534H93.1614C92.7985 230.534 92.4961 230.232 92.4961 229.869V228.238C92.4961 227.875 92.7985 227.573 93.1614 227.573H179.714C180.076 227.573 180.379 227.875 180.379 228.238V229.869C180.379 230.232 180.076 230.534 179.714 230.534Z" fill="#CCE6FF"/>
<path d="M136.498 236.638H92.98C92.7078 236.638 92.4961 236.426 92.4961 236.154V234.13C92.4961 233.858 92.7078 233.646 92.98 233.646H136.498C136.77 233.646 136.982 233.858 136.982 234.13V236.154C136.982 236.426 136.77 236.638 136.498 236.638Z" fill="#CCE6FF"/>
<path d="M116.115 272.862H94.8852C93.5546 272.862 92.4961 271.804 92.4961 270.475V247.906C92.4961 246.577 93.5546 245.52 94.8852 245.52H116.115C117.446 245.52 118.504 246.577 118.504 247.906V270.475C118.504 271.774 117.446 272.862 116.115 272.862Z" fill="#CCE6FF"/>
<path d="M147.052 272.742H125.823C124.492 272.742 123.434 271.684 123.434 270.355V247.786C123.434 246.457 124.492 245.399 125.823 245.399H147.052C148.383 245.399 149.442 246.457 149.442 247.786V270.355C149.442 271.654 148.383 272.742 147.052 272.742Z" fill="#CCE6FF"/>
<path d="M177.99 272.621H156.76C155.43 272.621 154.371 271.563 154.371 270.234V247.665C154.371 246.336 155.43 245.278 156.76 245.278H177.99C179.321 245.278 180.379 246.336 180.379 247.665V270.234C180.379 271.533 179.321 272.621 177.99 272.621Z" fill="#CCE6FF"/>
<path d="M179.986 280.657H92.8893C92.6776 280.657 92.4961 280.476 92.4961 280.264V278.451C92.4961 278.24 92.6776 278.059 92.8893 278.059H179.986C180.197 278.059 180.379 278.24 180.379 278.451V280.264C180.379 280.476 180.228 280.657 179.986 280.657Z" fill="#CCE6FF"/>
<path d="M179.986 285.491H92.8893C92.6776 285.491 92.4961 285.31 92.4961 285.098V283.285C92.4961 283.074 92.6776 282.893 92.8893 282.893H179.986C180.197 282.893 180.379 283.074 180.379 283.285V285.098C180.379 285.31 180.228 285.491 179.986 285.491Z" fill="#CCE6FF"/>
<path d="M144.754 290.325H92.7985C92.6171 290.325 92.4961 290.174 92.4961 290.023V288.029C92.4961 287.847 92.6473 287.727 92.7985 287.727H144.754C144.935 287.727 145.056 287.878 145.056 288.029V290.023C145.056 290.174 144.935 290.325 144.754 290.325Z" fill="#CCE6FF"/>
</g>
<path d="M494.896 428.586H131.972C128.041 428.586 124.855 425.428 124.855 421.533V183.355C124.855 179.46 128.041 176.303 131.972 176.303H494.926C498.856 176.303 502.042 179.46 502.042 183.355V421.533C502.012 425.428 498.826 428.586 494.896 428.586Z" fill="#CCE6FF"/>
<mask id="mask0_314_3182" style="mask-type:alpha" maskUnits="userSpaceOnUse" x="124" y="176" width="379" height="253">
<path d="M494.896 428.586H131.972C128.041 428.586 124.855 425.428 124.855 421.533V183.355C124.855 179.46 128.041 176.303 131.972 176.303H494.926C498.856 176.303 502.042 179.46 502.042 183.355V421.533C502.012 425.428 498.826 428.586 494.896 428.586Z" fill="#CCE6FF"/>
</mask>
<g mask="url(#mask0_314_3182)">
<path d="M519.132 161.962H106.276V203.832H519.132V161.962Z" fill="#102A54"/>
</g>
<path d="M145.117 196.817C148.007 196.817 150.349 194.477 150.349 191.59C150.349 188.703 148.007 186.363 145.117 186.363C142.228 186.363 139.885 188.703 139.885 191.59C139.885 194.477 142.228 196.817 145.117 196.817Z" fill="#3C94F8"/>
<path d="M164.139 196.817C167.029 196.817 169.371 194.477 169.371 191.59C169.371 188.703 167.029 186.363 164.139 186.363C161.25 186.363 158.907 188.703 158.907 191.59C158.907 194.477 161.25 196.817 164.139 196.817Z" fill="white"/>
<path d="M183.191 196.817C186.081 196.817 188.423 194.477 188.423 191.59C188.423 188.703 186.081 186.363 183.191 186.363C180.302 186.363 177.959 188.703 177.959 191.59C177.959 194.477 180.302 196.817 183.191 196.817Z" fill="white"/>
<path d="M495.741 432.142H130.904C125.611 432.142 121.317 427.852 121.317 422.565V182.496C121.317 177.209 125.611 172.919 130.904 172.919H495.741C501.033 172.919 505.328 177.209 505.328 182.496V422.565C505.328 427.852 501.033 432.142 495.741 432.142ZM130.904 173.825C126.125 173.825 122.224 177.723 122.224 182.496V422.565C122.224 427.338 126.125 431.236 130.904 431.236H495.741C500.519 431.236 504.42 427.338 504.42 422.565V182.496C504.42 177.723 500.519 173.825 495.741 173.825H130.904Z" fill="#102A54"/>
<path d="M241.286 409.634H145.601C143.545 409.634 141.881 407.972 141.881 405.918V231.35C141.881 229.295 143.545 227.634 145.601 227.634H241.286C243.343 227.634 245.006 229.295 245.006 231.35V405.918C245.006 407.942 243.343 409.634 241.286 409.634Z" fill="#F4F7FD"/>
<path d="M186.488 287.092H149.805C148.867 287.092 148.081 286.337 148.081 285.37V237.695C148.081 236.758 148.837 235.973 149.805 235.973H186.488C187.426 235.973 188.212 236.728 188.212 237.695V285.37C188.182 286.337 187.426 287.092 186.488 287.092Z" fill="#CCE6FF"/>
<path d="M198.434 242.408C200.204 242.408 201.639 240.974 201.639 239.205C201.639 237.437 200.204 236.003 198.434 236.003C196.663 236.003 195.228 237.437 195.228 239.205C195.228 240.974 196.663 242.408 198.434 242.408Z" fill="#CCE6FF"/>
<path d="M238.837 238.058H208.111C207.748 238.058 207.416 237.756 207.416 237.363C207.416 237 207.718 236.668 208.111 236.668H238.867C239.23 236.668 239.563 236.97 239.563 237.363C239.532 237.756 239.23 238.058 238.837 238.058Z" fill="#CCE6FF"/>
<path d="M238.837 241.713H208.111C207.748 241.713 207.416 241.411 207.416 241.018C207.416 240.656 207.718 240.323 208.111 240.323H238.867C239.23 240.323 239.563 240.625 239.563 241.018C239.532 241.411 239.23 241.713 238.837 241.713Z" fill="#CCE6FF"/>
<path d="M238.837 245.369H208.111C207.748 245.369 207.416 245.067 207.416 244.674C207.416 244.312 207.718 243.979 208.111 243.979H238.867C239.23 243.979 239.563 244.282 239.563 244.674C239.532 245.067 239.23 245.369 238.837 245.369Z" fill="#CCE6FF"/>
<path d="M201.578 253.109C201.906 251.371 200.763 249.696 199.023 249.368C197.283 249.04 195.607 250.183 195.278 251.921C194.949 253.659 196.093 255.333 197.833 255.662C199.573 255.99 201.249 254.847 201.578 253.109Z" fill="#CCE6FF"/>
<path d="M238.837 251.351H208.111C207.748 251.351 207.416 251.049 207.416 250.656C207.416 250.293 207.718 249.961 208.111 249.961H238.867C239.23 249.961 239.563 250.263 239.563 250.656C239.532 251.049 239.23 251.351 238.837 251.351Z" fill="#CCE6FF"/>
<path d="M238.837 255.036H208.111C207.748 255.036 207.416 254.734 207.416 254.341C207.416 253.979 207.718 253.646 208.111 253.646H238.867C239.23 253.646 239.563 253.949 239.563 254.341C239.532 254.704 239.23 255.036 238.837 255.036Z" fill="#CCE6FF"/>
<path d="M238.837 258.693H208.111C207.748 258.693 207.416 258.39 207.416 257.998C207.416 257.635 207.718 257.303 208.111 257.303H238.867C239.23 257.303 239.563 257.605 239.563 257.998C239.532 258.39 239.23 258.693 238.837 258.693Z" fill="#CCE6FF"/>
<path d="M201.59 266.423C201.919 264.685 200.775 263.01 199.036 262.682C197.296 262.353 195.619 263.496 195.291 265.234C194.962 266.972 196.106 268.647 197.846 268.975C199.585 269.304 201.262 268.161 201.59 266.423Z" fill="#CCE6FF"/>
<path d="M238.837 264.675H208.111C207.748 264.675 207.416 264.373 207.416 263.98C207.416 263.617 207.718 263.285 208.111 263.285H238.867C239.23 263.285 239.563 263.587 239.563 263.98C239.532 264.373 239.23 264.675 238.837 264.675Z" fill="#CCE6FF"/>
<path d="M238.837 268.33H208.111C207.748 268.33 207.416 268.028 207.416 267.635C207.416 267.273 207.718 266.94 208.111 266.94H238.867C239.23 266.94 239.563 267.243 239.563 267.635C239.532 268.028 239.23 268.33 238.837 268.33Z" fill="#CCE6FF"/>
<path d="M238.837 271.985H208.111C207.748 271.985 207.416 271.683 207.416 271.291C207.416 270.928 207.718 270.596 208.111 270.596H238.867C239.23 270.596 239.563 270.898 239.563 271.291C239.532 271.683 239.23 271.985 238.837 271.985Z" fill="#CCE6FF"/>
<path d="M200.061 281.883C201.586 280.984 202.093 279.021 201.194 277.497C200.294 275.974 198.329 275.467 196.804 276.365C195.279 277.264 194.772 279.227 195.671 280.751C196.57 282.274 198.536 282.781 200.061 281.883Z" fill="#CCE6FF"/>
<path d="M238.836 277.968H208.111C207.748 277.968 207.415 277.666 207.415 277.273C207.415 276.91 207.717 276.578 208.111 276.578H238.867C239.229 276.578 239.562 276.88 239.562 277.273C239.532 277.666 239.229 277.968 238.836 277.968Z" fill="#CCE6FF"/>
<path d="M238.836 281.654H208.111C207.748 281.654 207.415 281.352 207.415 280.96C207.415 280.597 207.717 280.265 208.111 280.265H238.867C239.229 280.265 239.562 280.567 239.562 280.96C239.532 281.352 239.229 281.654 238.836 281.654Z" fill="#CCE6FF"/>
<path d="M238.836 285.31H208.111C207.748 285.31 207.415 285.008 207.415 284.615C207.415 284.252 207.717 283.92 208.111 283.92H238.867C239.229 283.92 239.562 284.222 239.562 284.615C239.532 285.008 239.229 285.31 238.836 285.31Z" fill="#CCE6FF"/>
<path d="M186.095 343.559H149.412C148.474 343.559 147.688 342.804 147.688 341.837V294.162C147.688 293.225 148.444 292.439 149.412 292.439H186.095C187.033 292.439 187.819 293.195 187.819 294.162V341.837C187.819 342.773 187.033 343.559 186.095 343.559Z" fill="#CCE6FF"/>
<path d="M198.071 298.845C199.841 298.845 201.277 297.411 201.277 295.642C201.277 293.873 199.841 292.439 198.071 292.439C196.3 292.439 194.865 293.873 194.865 295.642C194.865 297.411 196.3 298.845 198.071 298.845Z" fill="#CCE6FF"/>
<path d="M238.474 294.494H207.718C207.355 294.494 207.022 294.192 207.022 293.799C207.022 293.437 207.325 293.104 207.718 293.104H238.474C238.837 293.104 239.17 293.407 239.17 293.799C239.17 294.192 238.837 294.494 238.474 294.494Z" fill="#CCE6FF"/>
<path d="M238.474 298.18H207.718C207.355 298.18 207.022 297.878 207.022 297.485C207.022 297.122 207.325 296.79 207.718 296.79H238.474C238.837 296.79 239.17 297.092 239.17 297.485C239.17 297.878 238.837 298.18 238.474 298.18Z" fill="#CCE6FF"/>
<path d="M238.474 301.835H207.718C207.355 301.835 207.022 301.533 207.022 301.14C207.022 300.778 207.325 300.445 207.718 300.445H238.474C238.837 300.445 239.17 300.747 239.17 301.14C239.17 301.533 238.837 301.835 238.474 301.835Z" fill="#CCE6FF"/>
<path d="M201.179 309.684C201.584 307.962 200.515 306.239 198.792 305.834C197.068 305.43 195.343 306.497 194.938 308.219C194.533 309.941 195.602 311.665 197.325 312.069C199.049 312.474 200.774 311.406 201.179 309.684Z" fill="#CCE6FF"/>
<path d="M238.474 307.818H207.718C207.355 307.818 207.022 307.515 207.022 307.123C207.022 306.76 207.325 306.428 207.718 306.428H238.474C238.837 306.428 239.17 306.73 239.17 307.123C239.17 307.515 238.837 307.818 238.474 307.818Z" fill="#CCE6FF"/>
<path d="M238.474 311.474H207.718C207.355 311.474 207.022 311.172 207.022 310.779C207.022 310.416 207.325 310.084 207.718 310.084H238.474C238.837 310.084 239.17 310.386 239.17 310.779C239.17 311.172 238.837 311.474 238.474 311.474Z" fill="#CCE6FF"/>
<path d="M238.474 315.159H207.718C207.355 315.159 207.022 314.857 207.022 314.464C207.022 314.102 207.325 313.77 207.718 313.77H238.474C238.837 313.77 239.17 314.072 239.17 314.464C239.17 314.857 238.837 315.159 238.474 315.159Z" fill="#CCE6FF"/>
<path d="M201.192 322.998C201.597 321.276 200.528 319.552 198.805 319.147C197.081 318.743 195.356 319.811 194.951 321.533C194.546 323.255 195.615 324.978 197.338 325.383C199.062 325.787 200.787 324.719 201.192 322.998Z" fill="#CCE6FF"/>
<path d="M238.474 321.142H207.718C207.355 321.142 207.022 320.84 207.022 320.447C207.022 320.084 207.325 319.752 207.718 319.752H238.474C238.837 319.752 239.17 320.054 239.17 320.447C239.17 320.809 238.837 321.142 238.474 321.142Z" fill="#CCE6FF"/>
<path d="M238.474 324.797H207.718C207.355 324.797 207.022 324.495 207.022 324.102C207.022 323.74 207.325 323.407 207.718 323.407H238.474C238.837 323.407 239.17 323.709 239.17 324.102C239.17 324.495 238.837 324.797 238.474 324.797Z" fill="#CCE6FF"/>
<path d="M238.474 328.453H207.718C207.355 328.453 207.022 328.151 207.022 327.758C207.022 327.396 207.325 327.063 207.718 327.063H238.474C238.837 327.063 239.17 327.366 239.17 327.758C239.17 328.151 238.837 328.453 238.474 328.453Z" fill="#CCE6FF"/>
<path d="M200.328 337.84C201.58 336.589 201.58 334.561 200.328 333.311C199.076 332.06 197.046 332.06 195.795 333.311C194.543 334.561 194.543 336.589 195.795 337.84C197.046 339.09 199.076 339.09 200.328 337.84Z" fill="#CCE6FF"/>
<path d="M238.474 334.435H207.718C207.355 334.435 207.022 334.133 207.022 333.74C207.022 333.377 207.325 333.045 207.718 333.045H238.474C238.837 333.045 239.17 333.347 239.17 333.74C239.17 334.133 238.837 334.435 238.474 334.435Z" fill="#CCE6FF"/>
<path d="M238.474 338.091H207.718C207.355 338.091 207.022 337.789 207.022 337.396C207.022 337.034 207.325 336.701 207.718 336.701H238.474C238.837 336.701 239.17 337.003 239.17 337.396C239.17 337.789 238.837 338.091 238.474 338.091Z" fill="#CCE6FF"/>
<path d="M238.474 341.776H207.718C207.355 341.776 207.022 341.474 207.022 341.082C207.022 340.719 207.325 340.387 207.718 340.387H238.474C238.837 340.387 239.17 340.689 239.17 341.082C239.17 341.474 238.837 341.776 238.474 341.776Z" fill="#CCE6FF"/>
<path d="M185.732 400.026H149.048C148.111 400.026 147.325 399.27 147.325 398.304V350.628C147.325 349.692 148.081 348.906 149.048 348.906H185.732C186.669 348.906 187.456 349.662 187.456 350.628V398.304C187.425 399.24 186.669 400.026 185.732 400.026Z" fill="#CCE6FF"/>
<path d="M197.677 355.311C199.448 355.311 200.883 353.877 200.883 352.109C200.883 350.34 199.448 348.906 197.677 348.906C195.907 348.906 194.472 350.34 194.472 352.109C194.472 353.877 195.907 355.311 197.677 355.311Z" fill="#CCE6FF"/>
<path d="M238.08 350.961H207.355C206.992 350.961 206.659 350.659 206.659 350.266C206.659 349.904 206.962 349.571 207.355 349.571H238.111C238.474 349.571 238.806 349.873 238.806 350.266C238.776 350.659 238.474 350.961 238.08 350.961Z" fill="#CCE6FF"/>
<path d="M238.08 354.647H207.355C206.992 354.647 206.659 354.344 206.659 353.952C206.659 353.589 206.962 353.257 207.355 353.257H238.111C238.474 353.257 238.806 353.559 238.806 353.952C238.776 354.314 238.474 354.647 238.08 354.647Z" fill="#CCE6FF"/>
<path d="M238.08 358.302H207.355C206.992 358.302 206.659 358 206.659 357.607C206.659 357.244 206.962 356.912 207.355 356.912H238.111C238.474 356.912 238.806 357.214 238.806 357.607C238.776 358 238.474 358.302 238.08 358.302Z" fill="#CCE6FF"/>
<path d="M200.802 366.156C201.207 364.434 200.138 362.71 198.415 362.306C196.691 361.901 194.966 362.969 194.561 364.691C194.156 366.413 195.225 368.137 196.948 368.541C198.672 368.946 200.397 367.878 200.802 366.156Z" fill="#CCE6FF"/>
<path d="M238.08 364.284H207.355C206.992 364.284 206.659 363.982 206.659 363.589C206.659 363.227 206.962 362.895 207.355 362.895H238.111C238.474 362.895 238.806 363.197 238.806 363.589C238.776 363.982 238.474 364.284 238.08 364.284Z" fill="#CCE6FF"/>
<path d="M238.08 367.941H207.355C206.992 367.941 206.659 367.638 206.659 367.246C206.659 366.883 206.962 366.551 207.355 366.551H238.111C238.474 366.551 238.806 366.853 238.806 367.246C238.776 367.638 238.474 367.941 238.08 367.941Z" fill="#CCE6FF"/>
<path d="M238.08 371.596H207.355C206.992 371.596 206.659 371.294 206.659 370.901C206.659 370.538 206.962 370.206 207.355 370.206H238.111C238.474 370.206 238.806 370.508 238.806 370.901C238.776 371.294 238.474 371.596 238.08 371.596Z" fill="#CCE6FF"/>
<path d="M200.786 379.462C201.19 377.741 200.121 376.017 198.398 375.612C196.674 375.208 194.949 376.276 194.544 377.998C194.139 379.719 195.208 381.443 196.932 381.848C198.655 382.252 200.381 381.184 200.786 379.462Z" fill="#CCE6FF"/>
<path d="M238.08 377.578H207.355C206.992 377.578 206.659 377.276 206.659 376.883C206.659 376.521 206.962 376.188 207.355 376.188H238.111C238.474 376.188 238.806 376.491 238.806 376.883C238.776 377.276 238.474 377.578 238.08 377.578Z" fill="#CCE6FF"/>
<path d="M238.08 381.264H207.355C206.992 381.264 206.659 380.962 206.659 380.569C206.659 380.206 206.962 379.874 207.355 379.874H238.111C238.474 379.874 238.806 380.176 238.806 380.569C238.776 380.962 238.474 381.264 238.08 381.264Z" fill="#CCE6FF"/>
<path d="M238.08 384.92H207.355C206.992 384.92 206.659 384.618 206.659 384.225C206.659 383.863 206.962 383.53 207.355 383.53H238.111C238.474 383.53 238.806 383.832 238.806 384.225C238.776 384.618 238.474 384.92 238.08 384.92Z" fill="#CCE6FF"/>
<path d="M199.943 394.312C201.195 393.062 201.195 391.034 199.943 389.783C198.691 388.533 196.661 388.533 195.409 389.783C194.157 391.034 194.157 393.062 195.409 394.312C196.661 395.563 198.691 395.563 199.943 394.312Z" fill="#CCE6FF"/>
<path d="M238.08 390.901H207.355C206.992 390.901 206.659 390.599 206.659 390.207C206.659 389.844 206.962 389.512 207.355 389.512H238.111C238.474 389.512 238.806 389.814 238.806 390.207C238.776 390.599 238.474 390.901 238.08 390.901Z" fill="#CCE6FF"/>
<path d="M238.08 394.558H207.355C206.992 394.558 206.659 394.256 206.659 393.863C206.659 393.5 206.962 393.168 207.355 393.168H238.111C238.474 393.168 238.806 393.47 238.806 393.863C238.776 394.256 238.474 394.558 238.08 394.558Z" fill="#CCE6FF"/>
<path d="M238.08 398.243H207.355C206.992 398.243 206.659 397.941 206.659 397.548C206.659 397.186 206.962 396.854 207.355 396.854H238.111C238.474 396.854 238.806 397.156 238.806 397.548C238.776 397.911 238.474 398.243 238.08 398.243Z" fill="#CCE6FF"/>
<path d="M180.228 262.499H155.43C154.643 262.499 154.008 261.865 154.008 261.079V241.652C154.008 240.867 154.643 240.232 155.43 240.232H180.228C181.014 240.232 181.649 240.867 181.649 241.652V261.079C181.68 261.865 181.014 262.499 180.228 262.499Z" fill="#F4F7FD"/>
<path d="M180.803 267.665H154.855C154.371 267.665 154.008 267.273 154.008 266.819V266.698C154.008 266.215 154.401 265.853 154.855 265.853H180.803C181.286 265.853 181.649 266.245 181.649 266.698V266.819C181.68 267.273 181.286 267.665 180.803 267.665Z" fill="#F4F7FD"/>
<path d="M180.803 271.563H154.855C154.371 271.563 154.008 271.17 154.008 270.717V270.596C154.008 270.113 154.401 269.75 154.855 269.75H180.803C181.286 269.75 181.649 270.143 181.649 270.596V270.717C181.68 271.17 181.286 271.563 180.803 271.563Z" fill="#F4F7FD"/>
<path d="M180.803 275.46H154.855C154.371 275.46 154.008 275.067 154.008 274.614V274.493C154.008 274.01 154.401 273.647 154.855 273.647H180.803C181.286 273.647 181.649 274.04 181.649 274.493V274.614C181.68 275.067 181.286 275.46 180.803 275.46Z" fill="#F4F7FD"/>
<path d="M180.803 279.358H154.855C154.371 279.358 154.008 278.965 154.008 278.512V278.391C154.008 277.907 154.401 277.545 154.855 277.545H180.803C181.286 277.545 181.649 277.938 181.649 278.391V278.512C181.68 278.965 181.286 279.358 180.803 279.358Z" fill="#F4F7FD"/>
<path d="M180.803 283.255H154.855C154.371 283.255 154.008 282.862 154.008 282.409V282.288C154.008 281.805 154.401 281.442 154.855 281.442H180.803C181.286 281.442 181.649 281.835 181.649 282.288V282.409C181.68 282.862 181.286 283.255 180.803 283.255Z" fill="#F4F7FD"/>
<path d="M180.228 318.755H155.43C154.643 318.755 154.008 318.12 154.008 317.335V297.908C154.008 297.123 154.643 296.488 155.43 296.488H180.228C181.014 296.488 181.649 297.123 181.649 297.908V317.335C181.68 318.12 181.014 318.755 180.228 318.755Z" fill="#F4F7FD"/>
<path d="M180.803 323.921H154.855C154.371 323.921 154.008 323.528 154.008 323.075V322.954C154.008 322.471 154.401 322.108 154.855 322.108H180.803C181.286 322.108 181.649 322.501 181.649 322.954V323.075C181.68 323.528 181.286 323.921 180.803 323.921Z" fill="#F4F7FD"/>
<path d="M180.803 327.819H154.855C154.371 327.819 154.008 327.426 154.008 326.973V326.852C154.008 326.368 154.401 326.006 154.855 326.006H180.803C181.286 326.006 181.649 326.399 181.649 326.852V326.973C181.68 327.426 181.286 327.819 180.803 327.819Z" fill="#F4F7FD"/>
<path d="M180.803 331.716H154.855C154.371 331.716 154.008 331.323 154.008 330.87V330.749C154.008 330.266 154.401 329.903 154.855 329.903H180.803C181.286 329.903 181.649 330.296 181.649 330.749V330.87C181.68 331.323 181.286 331.716 180.803 331.716Z" fill="#F4F7FD"/>
<path d="M180.803 335.614H154.855C154.371 335.614 154.008 335.221 154.008 334.768V334.647C154.008 334.163 154.401 333.801 154.855 333.801H180.803C181.286 333.801 181.649 334.194 181.649 334.647V334.768C181.68 335.251 181.286 335.614 180.803 335.614Z" fill="#F4F7FD"/>
<path d="M180.803 339.511H154.855C154.371 339.511 154.008 339.118 154.008 338.665V338.544C154.008 338.061 154.401 337.698 154.855 337.698H180.803C181.286 337.698 181.649 338.091 181.649 338.544V338.665C181.68 339.148 181.286 339.511 180.803 339.511Z" fill="#F4F7FD"/>
<path d="M180.228 375.04H155.43C154.643 375.04 154.008 374.406 154.008 373.62V354.193C154.008 353.408 154.643 352.773 155.43 352.773H180.228C181.014 352.773 181.649 353.408 181.649 354.193V373.62C181.68 374.406 181.014 375.04 180.228 375.04Z" fill="#F4F7FD"/>
<path d="M180.803 380.206H154.855C154.371 380.206 154.008 379.814 154.008 379.36V379.24C154.008 378.756 154.401 378.394 154.855 378.394H180.803C181.286 378.394 181.649 378.786 181.649 379.24V379.36C181.68 379.814 181.286 380.206 180.803 380.206Z" fill="#F4F7FD"/>
<path d="M180.803 384.104H154.855C154.371 384.104 154.008 383.711 154.008 383.258V383.137C154.008 382.654 154.401 382.291 154.855 382.291H180.803C181.286 382.291 181.649 382.684 181.649 383.137V383.258C181.68 383.711 181.286 384.104 180.803 384.104Z" fill="#F4F7FD"/>
<path d="M180.803 388.001H154.855C154.371 388.001 154.008 387.608 154.008 387.155V387.004C154.008 386.521 154.401 386.158 154.855 386.158H180.803C181.286 386.158 181.649 386.551 181.649 387.004V387.125C181.68 387.608 181.286 388.001 180.803 388.001Z" fill="#F4F7FD"/>
<path d="M180.803 391.899H154.855C154.371 391.899 154.008 391.506 154.008 391.053V390.932C154.008 390.448 154.401 390.086 154.855 390.086H180.803C181.286 390.086 181.649 390.479 181.649 390.932V391.053C181.68 391.506 181.286 391.899 180.803 391.899Z" fill="#F4F7FD"/>
<path d="M180.803 395.796H154.855C154.371 395.796 154.008 395.403 154.008 394.95V394.829C154.008 394.346 154.401 393.983 154.855 393.983H180.803C181.286 393.983 181.649 394.376 181.649 394.829V394.95C181.68 395.403 181.286 395.796 180.803 395.796Z" fill="#F4F7FD"/>
<path d="M481.074 409.634H385.389C383.332 409.634 381.669 407.972 381.669 405.918V231.35C381.669 229.295 383.332 227.634 385.389 227.634H481.074C483.13 227.634 484.794 229.295 484.794 231.35V405.918C484.794 407.942 483.13 409.634 481.074 409.634Z" fill="#F4F7FD"/>
<path d="M475.691 236.003H445.751C445.207 236.003 444.753 235.55 444.753 235.006C444.753 234.462 445.207 234.009 445.751 234.009H475.691C476.235 234.009 476.689 234.462 476.689 235.006C476.659 235.55 476.235 236.003 475.691 236.003Z" fill="#CCE6FF"/>
<path d="M475.691 240.535H445.751C445.207 240.535 444.753 240.082 444.753 239.538C444.753 238.994 445.207 238.541 445.751 238.541H475.691C476.235 238.541 476.689 238.994 476.689 239.538C476.659 240.082 476.235 240.535 475.691 240.535Z" fill="#CCE6FF"/>
<path d="M475.691 245.036H445.751C445.207 245.036 444.753 244.583 444.753 244.039C444.753 243.495 445.207 243.042 445.751 243.042H475.691C476.235 243.042 476.689 243.495 476.689 244.039C476.659 244.613 476.235 245.036 475.691 245.036Z" fill="#CCE6FF"/>
<path d="M475.691 249.568H445.751C445.207 249.568 444.753 249.115 444.753 248.571C444.753 248.027 445.207 247.574 445.751 247.574H475.691C476.235 247.574 476.689 248.027 476.689 248.571C476.659 249.115 476.235 249.568 475.691 249.568Z" fill="#CCE6FF"/>
<path d="M475.691 254.07H445.751C445.207 254.07 444.753 253.617 444.753 253.073C444.753 252.529 445.207 252.076 445.751 252.076H475.691C476.235 252.076 476.689 252.529 476.689 253.073C476.659 253.647 476.235 254.07 475.691 254.07Z" fill="#CCE6FF"/>
<path d="M475.691 258.601H445.751C445.207 258.601 444.753 258.148 444.753 257.604C444.753 257.061 445.207 256.607 445.751 256.607H475.691C476.235 256.607 476.689 257.061 476.689 257.604C476.659 258.148 476.235 258.601 475.691 258.601Z" fill="#CCE6FF"/>
<path d="M475.691 263.134H445.751C445.207 263.134 444.753 262.68 444.753 262.137C444.753 261.593 445.207 261.14 445.751 261.14H475.691C476.235 261.14 476.689 261.593 476.689 262.137C476.659 262.68 476.235 263.134 475.691 263.134Z" fill="#CCE6FF"/>
<path d="M475.691 349.058H445.751C445.207 349.058 444.753 348.604 444.753 348.06C444.753 347.517 445.207 347.063 445.751 347.063H475.691C476.235 347.063 476.689 347.517 476.689 348.06C476.659 348.604 476.235 349.058 475.691 349.058Z" fill="#CCE6FF"/>
<path d="M475.691 353.559H445.751C445.207 353.559 444.753 353.106 444.753 352.562C444.753 352.019 445.207 351.565 445.751 351.565H475.691C476.235 351.565 476.689 352.019 476.689 352.562C476.659 353.136 476.235 353.559 475.691 353.559Z" fill="#CCE6FF"/>
<path d="M475.691 358.092H445.751C445.207 358.092 444.753 357.638 444.753 357.095C444.753 356.551 445.207 356.098 445.751 356.098H475.691C476.235 356.098 476.689 356.551 476.689 357.095C476.659 357.638 476.235 358.092 475.691 358.092Z" fill="#CCE6FF"/>
<path d="M475.691 362.623H445.751C445.207 362.623 444.753 362.17 444.753 361.626C444.753 361.082 445.207 360.629 445.751 360.629H475.691C476.235 360.629 476.689 361.082 476.689 361.626C476.659 362.17 476.235 362.623 475.691 362.623Z" fill="#CCE6FF"/>
<path d="M475.691 367.125H445.751C445.207 367.125 444.753 366.672 444.753 366.128C444.753 365.584 445.207 365.131 445.751 365.131H475.691C476.235 365.131 476.689 365.584 476.689 366.128C476.659 366.702 476.235 367.125 475.691 367.125Z" fill="#CCE6FF"/>
<path d="M475.691 371.657H445.751C445.207 371.657 444.753 371.204 444.753 370.66C444.753 370.116 445.207 369.663 445.751 369.663H475.691C476.235 369.663 476.689 370.116 476.689 370.66C476.659 371.204 476.235 371.657 475.691 371.657Z" fill="#CCE6FF"/>
<path d="M475.691 376.158H445.751C445.207 376.158 444.753 375.705 444.753 375.161C444.753 374.617 445.207 374.164 445.751 374.164H475.691C476.235 374.164 476.689 374.617 476.689 375.161C476.659 375.735 476.235 376.158 475.691 376.158Z" fill="#CCE6FF"/>
<path d="M475.691 381.234H445.751C445.207 381.234 444.753 380.781 444.753 380.237C444.753 379.693 445.207 379.24 445.751 379.24H475.691C476.235 379.24 476.689 379.693 476.689 380.237C476.659 380.811 476.235 381.234 475.691 381.234Z" fill="#CCE6FF"/>
<path d="M475.691 385.767H445.751C445.207 385.767 444.753 385.313 444.753 384.769C444.753 384.226 445.207 383.772 445.751 383.772H475.691C476.235 383.772 476.689 384.226 476.689 384.769C476.659 385.313 476.235 385.767 475.691 385.767Z" fill="#CCE6FF"/>
<path d="M475.691 390.298H445.751C445.207 390.298 444.753 389.845 444.753 389.301C444.753 388.757 445.207 388.304 445.751 388.304H475.691C476.235 388.304 476.689 388.757 476.689 389.301C476.659 389.845 476.235 390.298 475.691 390.298Z" fill="#CCE6FF"/>
<path d="M475.691 394.8H445.751C445.207 394.8 444.753 394.347 444.753 393.803C444.753 393.259 445.207 392.806 445.751 392.806H475.691C476.235 392.806 476.689 393.259 476.689 393.803C476.659 394.377 476.235 394.8 475.691 394.8Z" fill="#CCE6FF"/>
<path d="M475.691 399.332H445.751C445.207 399.332 444.753 398.879 444.753 398.335C444.753 397.791 445.207 397.338 445.751 397.338H475.691C476.235 397.338 476.689 397.791 476.689 398.335C476.659 398.879 476.235 399.332 475.691 399.332Z" fill="#CCE6FF"/>
<path d="M475.691 403.833H445.751C445.207 403.833 444.753 403.38 444.753 402.836C444.753 402.292 445.207 401.839 445.751 401.839H475.691C476.235 401.839 476.689 402.292 476.689 402.836C476.659 403.41 476.235 403.833 475.691 403.833Z" fill="#CCE6FF"/>
<path d="M475.691 267.636H445.751C445.207 267.636 444.753 267.182 444.753 266.639C444.753 266.095 445.207 265.642 445.751 265.642H475.691C476.235 265.642 476.689 266.095 476.689 266.639C476.659 267.213 476.235 267.636 475.691 267.636Z" fill="#CCE6FF"/>
<path d="M475.691 272.167H445.751C445.207 272.167 444.753 271.714 444.753 271.17C444.753 270.626 445.207 270.173 445.751 270.173H475.691C476.235 270.173 476.689 270.626 476.689 271.17C476.659 271.714 476.235 272.167 475.691 272.167Z" fill="#CCE6FF"/>
<path d="M475.691 276.669H445.751C445.207 276.669 444.753 276.216 444.753 275.672C444.753 275.128 445.207 274.675 445.751 274.675H475.691C476.235 274.675 476.689 275.128 476.689 275.672C476.659 276.246 476.235 276.669 475.691 276.669Z" fill="#CCE6FF"/>
<path d="M475.691 281.201H445.751C445.207 281.201 444.753 280.748 444.753 280.204C444.753 279.66 445.207 279.207 445.751 279.207H475.691C476.235 279.207 476.689 279.66 476.689 280.204C476.659 280.748 476.235 281.201 475.691 281.201Z" fill="#CCE6FF"/>
<path d="M475.691 285.732H445.751C445.207 285.732 444.753 285.279 444.753 284.735C444.753 284.191 445.207 283.738 445.751 283.738H475.691C476.235 283.738 476.689 284.191 476.689 284.735C476.659 285.279 476.235 285.732 475.691 285.732Z" fill="#CCE6FF"/>
<path d="M475.691 290.234H445.751C445.207 290.234 444.753 289.781 444.753 289.237C444.753 288.693 445.207 288.24 445.751 288.24H475.691C476.235 288.24 476.689 288.693 476.689 289.237C476.659 289.811 476.235 290.234 475.691 290.234Z" fill="#CCE6FF"/>
<path d="M475.691 294.766H445.751C445.207 294.766 444.753 294.313 444.753 293.769C444.753 293.226 445.207 292.772 445.751 292.772H475.691C476.235 292.772 476.689 293.226 476.689 293.769C476.659 294.313 476.235 294.766 475.691 294.766Z" fill="#CCE6FF"/>
<path d="M475.691 299.267H445.751C445.207 299.267 444.753 298.814 444.753 298.27C444.753 297.727 445.207 297.273 445.751 297.273H475.691C476.235 297.273 476.689 297.727 476.689 298.27C476.659 298.844 476.235 299.267 475.691 299.267Z" fill="#CCE6FF"/>
<path d="M475.691 303.8H445.751C445.207 303.8 444.753 303.347 444.753 302.803C444.753 302.259 445.207 301.806 445.751 301.806H475.691C476.235 301.806 476.689 302.259 476.689 302.803C476.659 303.347 476.235 303.8 475.691 303.8Z" fill="#CCE6FF"/>
<path d="M435.227 314.042H390.772C390.228 314.042 389.774 313.589 389.774 313.045C389.774 312.501 390.228 312.048 390.772 312.048H435.227C435.772 312.048 436.225 312.501 436.225 313.045C436.195 313.589 435.772 314.042 435.227 314.042Z" fill="#CCE6FF"/>
<path d="M435.227 318.543H390.772C390.228 318.543 389.774 318.09 389.774 317.546C389.774 317.002 390.228 316.549 390.772 316.549H435.227C435.772 316.549 436.225 317.002 436.225 317.546C436.195 318.12 435.772 318.543 435.227 318.543Z" fill="#CCE6FF"/>
<path d="M435.227 323.075H390.772C390.228 323.075 389.774 322.622 389.774 322.078C389.774 321.534 390.228 321.081 390.772 321.081H435.227C435.772 321.081 436.225 321.534 436.225 322.078C436.195 322.622 435.772 323.075 435.227 323.075Z" fill="#CCE6FF"/>
<path d="M435.227 327.607H390.772C390.228 327.607 389.774 327.154 389.774 326.61C389.774 326.066 390.228 325.613 390.772 325.613H435.227C435.772 325.613 436.225 326.066 436.225 326.61C436.195 327.154 435.772 327.607 435.227 327.607Z" fill="#CCE6FF"/>
<path d="M435.227 332.108H390.772C390.228 332.108 389.774 331.655 389.774 331.111C389.774 330.567 390.228 330.114 390.772 330.114H435.227C435.772 330.114 436.225 330.567 436.225 331.111C436.195 331.685 435.772 332.108 435.227 332.108Z" fill="#CCE6FF"/>
<path d="M435.227 336.641H390.772C390.228 336.641 389.774 336.187 389.774 335.643C389.774 335.1 390.228 334.646 390.772 334.646H435.227C435.772 334.646 436.225 335.1 436.225 335.643C436.195 336.187 435.772 336.641 435.227 336.641Z" fill="#CCE6FF"/>
<path d="M435.227 341.142H390.772C390.228 341.142 389.774 340.689 389.774 340.145C389.774 339.602 390.228 339.148 390.772 339.148H435.227C435.772 339.148 436.225 339.602 436.225 340.145C436.195 340.72 435.772 341.142 435.227 341.142Z" fill="#CCE6FF"/>
<path d="M435.227 345.674H390.772C390.228 345.674 389.774 345.221 389.774 344.677C389.774 344.133 390.228 343.68 390.772 343.68H435.227C435.772 343.68 436.225 344.133 436.225 344.677C436.195 345.221 435.772 345.674 435.227 345.674Z" fill="#CCE6FF"/>
<path d="M435.227 350.206H390.772C390.228 350.206 389.774 349.753 389.774 349.209C389.774 348.665 390.228 348.212 390.772 348.212H435.227C435.772 348.212 436.225 348.665 436.225 349.209C436.195 349.753 435.772 350.206 435.227 350.206Z" fill="#CCE6FF"/>
<path d="M435.227 354.708H390.772C390.228 354.708 389.774 354.255 389.774 353.711C389.774 353.167 390.228 352.714 390.772 352.714H435.227C435.772 352.714 436.225 353.167 436.225 353.711C436.195 354.255 435.772 354.708 435.227 354.708Z" fill="#CCE6FF"/>
<path d="M435.227 359.239H390.772C390.228 359.239 389.774 358.786 389.774 358.242C389.774 357.698 390.228 357.245 390.772 357.245H435.227C435.772 357.245 436.225 357.698 436.225 358.242C436.195 358.786 435.772 359.239 435.227 359.239Z" fill="#CCE6FF"/>
<path d="M435.227 363.741H390.772C390.228 363.741 389.774 363.288 389.774 362.744C389.774 362.2 390.228 361.747 390.772 361.747H435.227C435.772 361.747 436.225 362.2 436.225 362.744C436.195 363.318 435.772 363.741 435.227 363.741Z" fill="#CCE6FF"/>
<path d="M435.227 368.273H390.772C390.228 368.273 389.774 367.82 389.774 367.276C389.774 366.732 390.228 366.279 390.772 366.279H435.227C435.772 366.279 436.225 366.732 436.225 367.276C436.195 367.82 435.772 368.273 435.227 368.273Z" fill="#CCE6FF"/>
<path d="M435.227 372.805H390.772C390.228 372.805 389.774 372.351 389.774 371.808C389.774 371.264 390.228 370.811 390.772 370.811H435.227C435.772 370.811 436.225 371.264 436.225 371.808C436.195 372.351 435.772 372.805 435.227 372.805Z" fill="#CCE6FF"/>
<path d="M435.227 377.307H390.772C390.228 377.307 389.774 376.853 389.774 376.31C389.774 375.766 390.228 375.312 390.772 375.312H435.227C435.772 375.312 436.225 375.766 436.225 376.31C436.195 376.853 435.772 377.307 435.227 377.307Z" fill="#CCE6FF"/>
<path d="M435.227 381.839H390.772C390.228 381.839 389.774 381.386 389.774 380.842C389.774 380.298 390.228 379.845 390.772 379.845H435.227C435.772 379.845 436.225 380.298 436.225 380.842C436.195 381.386 435.772 381.839 435.227 381.839Z" fill="#CCE6FF"/>
<path d="M435.227 386.038H390.772C390.228 386.038 389.774 385.585 389.774 385.041C389.774 384.497 390.228 384.044 390.772 384.044H435.227C435.772 384.044 436.225 384.497 436.225 385.041C436.195 385.615 435.772 386.038 435.227 386.038Z" fill="#CCE6FF"/>
<path d="M435.227 390.57H390.772C390.228 390.57 389.774 390.117 389.774 389.573C389.774 389.029 390.228 388.576 390.772 388.576H435.227C435.772 388.576 436.225 389.029 436.225 389.573C436.195 390.117 435.772 390.57 435.227 390.57Z" fill="#CCE6FF"/>
<path d="M435.227 395.101H390.772C390.228 395.101 389.774 394.648 389.774 394.104C389.774 393.561 390.228 393.107 390.772 393.107H435.227C435.772 393.107 436.225 393.561 436.225 394.104C436.195 394.648 435.772 395.101 435.227 395.101Z" fill="#CCE6FF"/>
<path d="M435.227 399.603H390.772C390.228 399.603 389.774 399.15 389.774 398.606C389.774 398.063 390.228 397.609 390.772 397.609H435.227C435.772 397.609 436.225 398.063 436.225 398.606C436.195 399.18 435.772 399.603 435.227 399.603Z" fill="#CCE6FF"/>
<path d="M435.227 404.136H390.772C390.228 404.136 389.774 403.682 389.774 403.139C389.774 402.595 390.228 402.142 390.772 402.142H435.227C435.772 402.142 436.225 402.595 436.225 403.139C436.195 403.682 435.772 404.136 435.227 404.136Z" fill="#CCE6FF"/>
<path d="M475.812 341.384H445.6C445.147 341.384 444.753 340.991 444.753 340.538V312.652C444.753 312.198 445.147 311.806 445.6 311.806H475.812C476.265 311.806 476.659 312.198 476.659 312.652V340.538C476.659 341.021 476.296 341.384 475.812 341.384Z" fill="#CCE6FF"/>
<path d="M435.076 303.8H390.923C390.288 303.8 389.774 303.286 389.774 302.652V235.157C389.774 234.522 390.288 234.009 390.923 234.009H435.076C435.711 234.009 436.225 234.522 436.225 235.157V302.652C436.195 303.286 435.681 303.8 435.076 303.8Z" fill="#CCE6FF"/>
<path d="M431.144 258.602H394.824C394.431 258.602 394.128 258.3 394.128 257.907V239.054C394.128 238.661 394.431 238.359 394.824 238.359H431.144C431.538 238.359 431.84 238.661 431.84 239.054V257.907C431.84 258.3 431.538 258.602 431.144 258.602Z" fill="#F4F7FD"/>
<path d="M431.144 281.291H394.824C394.431 281.291 394.128 280.989 394.128 280.596V261.744C394.128 261.351 394.431 261.049 394.824 261.049H431.144C431.538 261.049 431.84 261.351 431.84 261.744V280.596C431.84 280.989 431.538 281.291 431.144 281.291Z" fill="#F4F7FD"/>
<path d="M411.276 300.536H394.733C394.401 300.536 394.128 300.265 394.128 299.932V284.343C394.128 284.01 394.401 283.738 394.733 283.738H411.276C411.608 283.738 411.88 284.01 411.88 284.343V299.932C411.88 300.265 411.608 300.536 411.276 300.536Z" fill="#F4F7FD"/>
<path d="M431.235 300.536H414.27C413.937 300.536 413.665 300.265 413.665 299.932V284.343C413.665 284.01 413.937 283.738 414.27 283.738H431.235C431.568 283.738 431.84 284.01 431.84 284.343V299.932C431.84 300.265 431.568 300.536 431.235 300.536Z" fill="#F4F7FD"/>
<path d="M361.165 409.634H265.48C263.423 409.634 261.76 407.972 261.76 405.918V231.35C261.76 229.295 263.423 227.634 265.48 227.634H361.165C363.221 227.634 364.884 229.295 364.884 231.35V405.918C364.884 407.942 363.221 409.634 361.165 409.634Z" fill="#F4F7FD"/>
<path d="M308.876 276.609H271.649C270.711 276.609 269.925 275.853 269.925 274.886V237.725C269.925 236.788 270.681 236.003 271.649 236.003H308.876C309.814 236.003 310.6 236.758 310.6 237.725V274.917C310.57 275.853 309.814 276.609 308.876 276.609Z" fill="#CCE6FF"/>
<path d="M356.931 238.48H328.08C327.596 238.48 327.173 238.088 327.173 237.574V236.909C327.173 236.426 327.566 236.003 328.08 236.003H356.931C357.415 236.003 357.838 236.396 357.838 236.909V237.574C357.808 238.057 357.415 238.48 356.931 238.48Z" fill="#CCE6FF"/>
<path d="M356.931 242.77H328.08C327.596 242.77 327.173 242.378 327.173 241.864V241.199C327.173 240.716 327.566 240.293 328.08 240.293H356.931C357.415 240.293 357.838 240.686 357.838 241.199V241.864C357.808 242.378 357.415 242.77 356.931 242.77Z" fill="#CCE6FF"/>
<path d="M356.931 247.091H328.08C327.596 247.091 327.173 246.698 327.173 246.184V245.52C327.173 245.036 327.566 244.613 328.08 244.613H356.931C357.415 244.613 357.838 245.006 357.838 245.52V246.184C357.808 246.668 357.415 247.091 356.931 247.091Z" fill="#CCE6FF"/>
<path d="M356.931 251.381H328.08C327.596 251.381 327.173 250.988 327.173 250.474V249.81C327.173 249.326 327.566 248.903 328.08 248.903H356.931C357.415 248.903 357.838 249.296 357.838 249.81V250.474C357.808 250.988 357.415 251.381 356.931 251.381Z" fill="#CCE6FF"/>
<path d="M356.931 255.671H328.08C327.596 255.671 327.173 255.278 327.173 254.764V254.1C327.173 253.616 327.566 253.193 328.08 253.193H356.931C357.415 253.193 357.838 253.586 357.838 254.1V254.764C357.808 255.278 357.415 255.671 356.931 255.671Z" fill="#CCE6FF"/>
<path d="M356.931 259.991H328.08C327.596 259.991 327.173 259.598 327.173 259.085V258.42C327.173 257.937 327.566 257.514 328.08 257.514H356.931C357.415 257.514 357.838 257.906 357.838 258.42V259.085C357.808 259.598 357.415 259.991 356.931 259.991Z" fill="#CCE6FF"/>
<path d="M356.931 264.281H328.08C327.596 264.281 327.173 263.888 327.173 263.375V262.71C327.173 262.227 327.566 261.804 328.08 261.804H356.931C357.415 261.804 357.838 262.196 357.838 262.71V263.375C357.808 263.888 357.415 264.281 356.931 264.281Z" fill="#CCE6FF"/>
<path d="M356.931 268.601H328.08C327.596 268.601 327.173 268.209 327.173 267.695V267.03C327.173 266.547 327.566 266.124 328.08 266.124H356.931C357.415 266.124 357.838 266.517 357.838 267.03V267.695C357.808 268.209 357.415 268.601 356.931 268.601Z" fill="#CCE6FF"/>
<path d="M356.931 272.892H328.08C327.596 272.892 327.173 272.5 327.173 271.986V271.321C327.173 270.838 327.566 270.415 328.08 270.415H356.931C357.415 270.415 357.838 270.808 357.838 271.321V271.986C357.808 272.5 357.415 272.892 356.931 272.892Z" fill="#CCE6FF"/>
<path d="M356.931 277.213H328.08C327.596 277.213 327.173 276.82 327.173 276.306V275.642C327.173 275.158 327.566 274.735 328.08 274.735H356.931C357.415 274.735 357.838 275.128 357.838 275.642V276.306C357.808 276.79 357.415 277.213 356.931 277.213Z" fill="#CCE6FF"/>
<path d="M318.342 242.136C319.528 242.136 320.489 241.175 320.489 239.991C320.489 238.806 319.528 237.846 318.342 237.846C317.156 237.846 316.195 238.806 316.195 239.991C316.195 241.175 317.156 242.136 318.342 242.136Z" fill="#CCE6FF"/>
<path d="M318.342 259.055C319.528 259.055 320.489 258.094 320.489 256.91C320.489 255.725 319.528 254.765 318.342 254.765C317.156 254.765 316.195 255.725 316.195 256.91C316.195 258.094 317.156 259.055 318.342 259.055Z" fill="#CCE6FF"/>
<path d="M320.489 273.829C320.489 275.007 319.521 275.974 318.342 275.974C317.163 275.974 316.195 275.007 316.195 273.829C316.195 272.65 317.163 271.684 318.342 271.684C319.521 271.684 320.489 272.62 320.489 273.829Z" fill="#CCE6FF"/>
<path d="M357.808 283.255H269.925V288.27H357.808V283.255Z" fill="#CCE6FF"/>
<path d="M357.808 291.956H269.925V296.971H357.808V291.956Z" fill="#CCE6FF"/>
<path d="M316.195 300.657H269.925V305.672H316.195V300.657Z" fill="#CCE6FF"/>
<path d="M357.142 315.159H270.59C270.227 315.159 269.925 314.857 269.925 314.494V312.863C269.925 312.5 270.227 312.198 270.59 312.198H357.142C357.505 312.198 357.808 312.5 357.808 312.863V314.494C357.808 314.857 357.505 315.159 357.142 315.159Z" fill="#CCE6FF"/>
<path d="M357.142 321.263H270.59C270.227 321.263 269.925 320.96 269.925 320.598V318.966C269.925 318.604 270.227 318.302 270.59 318.302H357.142C357.505 318.302 357.808 318.604 357.808 318.966V320.598C357.808 320.96 357.505 321.263 357.142 321.263Z" fill="#CCE6FF"/>
<path d="M357.142 327.365H270.59C270.227 327.365 269.925 327.063 269.925 326.7V325.069C269.925 324.706 270.227 324.404 270.59 324.404H357.142C357.505 324.404 357.808 324.706 357.808 325.069V326.7C357.808 327.063 357.505 327.365 357.142 327.365Z" fill="#CCE6FF"/>
<path d="M357.142 333.468H270.59C270.227 333.468 269.925 333.166 269.925 332.803V331.172C269.925 330.809 270.227 330.507 270.59 330.507H357.142C357.505 330.507 357.808 330.809 357.808 331.172V332.803C357.808 333.166 357.505 333.468 357.142 333.468Z" fill="#CCE6FF"/>
<path d="M357.142 339.571H270.59C270.227 339.571 269.925 339.269 269.925 338.906V337.275C269.925 336.912 270.227 336.61 270.59 336.61H357.142C357.505 336.61 357.808 336.912 357.808 337.275V338.906C357.808 339.269 357.505 339.571 357.142 339.571Z" fill="#CCE6FF"/>
<path d="M357.142 345.674H270.59C270.227 345.674 269.925 345.372 269.925 345.009V343.378C269.925 343.015 270.227 342.713 270.59 342.713H357.142C357.505 342.713 357.808 343.015 357.808 343.378V345.009C357.808 345.372 357.505 345.674 357.142 345.674Z" fill="#CCE6FF"/>
<path d="M313.927 351.777H270.409C270.137 351.777 269.925 351.566 269.925 351.294V349.27C269.925 348.998 270.137 348.786 270.409 348.786H313.927C314.199 348.786 314.411 348.998 314.411 349.27V351.294C314.411 351.566 314.199 351.777 313.927 351.777Z" fill="#CCE6FF"/>
<path d="M293.544 388.001H272.314C270.983 388.001 269.925 386.944 269.925 385.615V363.046C269.925 361.717 270.983 360.659 272.314 360.659H293.544C294.874 360.659 295.933 361.717 295.933 363.046V385.615C295.933 386.914 294.874 388.001 293.544 388.001Z" fill="#CCE6FF"/>
<path d="M324.481 387.881H303.251C301.921 387.881 300.862 386.824 300.862 385.495V362.926C300.862 361.596 301.921 360.539 303.251 360.539H324.481C325.812 360.539 326.87 361.596 326.87 362.926V385.495C326.87 386.794 325.812 387.881 324.481 387.881Z" fill="#CCE6FF"/>
<path d="M355.419 387.76H334.189C332.858 387.76 331.8 386.703 331.8 385.373V362.805C331.8 361.475 332.858 360.418 334.189 360.418H355.419C356.749 360.418 357.808 361.475 357.808 362.805V385.373C357.808 386.673 356.749 387.76 355.419 387.76Z" fill="#CCE6FF"/>
<path d="M357.414 395.797H270.318C270.106 395.797 269.925 395.615 269.925 395.404V393.591C269.925 393.38 270.106 393.198 270.318 393.198H357.414C357.626 393.198 357.808 393.38 357.808 393.591V395.404C357.808 395.615 357.656 395.797 357.414 395.797Z" fill="#CCE6FF"/>
<path d="M357.414 400.63H270.318C270.106 400.63 269.925 400.449 269.925 400.238V398.425C269.925 398.213 270.106 398.032 270.318 398.032H357.414C357.626 398.032 357.808 398.213 357.808 398.425V400.238C357.808 400.449 357.656 400.63 357.414 400.63Z" fill="#CCE6FF"/>
<path d="M322.183 405.464H270.227C270.046 405.464 269.925 405.313 269.925 405.162V403.168C269.925 402.987 270.076 402.866 270.227 402.866H322.183C322.364 402.866 322.485 403.017 322.485 403.168V405.162C322.485 405.313 322.364 405.464 322.183 405.464Z" fill="#CCE6FF"/>
<path d="M565.762 380.57H450.329C442.265 380.57 435.721 374.032 435.721 365.976C435.721 357.919 442.265 351.382 450.329 351.382H565.762C573.827 351.382 580.371 357.919 580.371 365.976C580.371 374.032 573.842 380.57 565.762 380.57Z" fill="#F4F7FD"/>
<path d="M563.735 380.346H448.287C439.984 380.346 433.231 373.6 433.231 365.305C433.231 357.011 439.984 350.265 448.287 350.265H563.72C572.023 350.265 578.776 357.011 578.776 365.305C578.776 373.6 572.023 380.346 563.735 380.346ZM448.287 351.173C440.476 351.173 434.126 357.517 434.126 365.32C434.126 373.123 440.476 379.467 448.287 379.467H563.72C571.531 379.467 577.881 373.123 577.881 365.32C577.881 357.517 571.531 351.173 563.72 351.173H448.287Z" fill="#102A54"/>
<path d="M450.732 366.199H449.331C448.898 366.199 448.541 365.842 448.541 365.41V364.01C448.541 363.578 448.898 363.221 449.331 363.221H450.732C451.164 363.221 451.522 363.578 451.522 364.01V365.41C451.522 365.842 451.164 366.199 450.732 366.199Z" fill="#102A54"/>
<path d="M455.964 366.199H454.563C454.13 366.199 453.772 365.842 453.772 365.41V364.01C453.772 363.578 454.13 363.221 454.563 363.221H455.964C456.396 363.221 456.754 363.578 456.754 364.01V365.41C456.754 365.842 456.396 366.199 455.964 366.199Z" fill="#102A54"/>
<path d="M461.196 366.199H459.794C459.362 366.199 459.004 365.842 459.004 365.41V364.01C459.004 363.578 459.362 363.221 459.794 363.221H461.196C461.628 363.221 461.986 363.578 461.986 364.01V365.41C462.001 365.842 461.643 366.199 461.196 366.199Z" fill="#102A54"/>
<path d="M466.443 366.199H465.042C464.61 366.199 464.252 365.842 464.252 365.41V364.01C464.252 363.578 464.61 363.221 465.042 363.221H466.443C466.875 363.221 467.233 363.578 467.233 364.01V365.41C467.233 365.842 466.875 366.199 466.443 366.199Z" fill="#102A54"/>
<path d="M471.675 366.199H470.274C469.842 366.199 469.484 365.842 469.484 365.41V364.01C469.484 363.578 469.842 363.221 470.274 363.221H471.675C472.107 363.221 472.465 363.578 472.465 364.01V365.41C472.465 365.842 472.107 366.199 471.675 366.199Z" fill="#102A54"/>
<path d="M476.907 366.199H475.506C475.074 366.199 474.716 365.842 474.716 365.41V364.01C474.716 363.578 475.074 363.221 475.506 363.221H476.907C477.339 363.221 477.697 363.578 477.697 364.01V365.41C477.712 365.842 477.354 366.199 476.907 366.199Z" fill="#102A54"/>
<path d="M482.154 366.199H480.753C480.321 366.199 479.963 365.842 479.963 365.41V364.01C479.963 363.578 480.321 363.221 480.753 363.221H482.154C482.586 363.221 482.944 363.578 482.944 364.01V365.41C482.944 365.842 482.586 366.199 482.154 366.199Z" fill="#102A54"/>
<path d="M487.386 366.199H485.985C485.553 366.199 485.195 365.842 485.195 365.41V364.01C485.195 363.578 485.553 363.221 485.985 363.221H487.386C487.818 363.221 488.176 363.578 488.176 364.01V365.41C488.176 365.842 487.818 366.199 487.386 366.199Z" fill="#102A54"/>
<path d="M492.618 366.199H491.217C490.785 366.199 490.427 365.842 490.427 365.41V364.01C490.427 363.578 490.785 363.221 491.217 363.221H492.618C493.05 363.221 493.408 363.578 493.408 364.01V365.41C493.423 365.842 493.065 366.199 492.618 366.199Z" fill="#102A54"/>
<path d="M497.865 366.199H496.464C496.032 366.199 495.674 365.842 495.674 365.41V364.01C495.674 363.578 496.032 363.221 496.464 363.221H497.865C498.297 363.221 498.655 363.578 498.655 364.01V365.41C498.655 365.842 498.297 366.199 497.865 366.199Z" fill="#102A54"/>
<path d="M503.097 366.199H501.696C501.264 366.199 500.906 365.842 500.906 365.41V364.01C500.906 363.578 501.264 363.221 501.696 363.221H503.097C503.53 363.221 503.887 363.578 503.887 364.01V365.41C503.887 365.842 503.545 366.199 503.097 366.199Z" fill="#102A54"/>
<path d="M508.329 366.199H506.928C506.496 366.199 506.138 365.842 506.138 365.41V364.01C506.138 363.578 506.496 363.221 506.928 363.221H508.329C508.762 363.221 509.119 363.578 509.119 364.01V365.41C509.134 365.842 508.777 366.199 508.329 366.199Z" fill="#102A54"/>
<path d="M513.576 366.199H512.175C511.743 366.199 511.385 365.842 511.385 365.41V364.01C511.385 363.578 511.743 363.221 512.175 363.221H513.576C514.009 363.221 514.366 363.578 514.366 364.01V365.41C514.366 365.842 514.009 366.199 513.576 366.199Z" fill="#102A54"/>
<path d="M518.808 366.199H517.407C516.975 366.199 516.617 365.842 516.617 365.41V364.01C516.617 363.578 516.975 363.221 517.407 363.221H518.808C519.241 363.221 519.598 363.578 519.598 364.01V365.41C519.598 365.842 519.256 366.199 518.808 366.199Z" fill="#102A54"/>
<path d="M524.04 366.199H522.639C522.207 366.199 521.849 365.842 521.849 365.41V364.01C521.849 363.578 522.207 363.221 522.639 363.221H524.04C524.473 363.221 524.83 363.578 524.83 364.01V365.41C524.845 365.842 524.487 366.199 524.04 366.199Z" fill="#102A54"/>
<path d="M529.287 366.199H527.886C527.454 366.199 527.096 365.842 527.096 365.41V364.01C527.096 363.578 527.454 363.221 527.886 363.221H529.287C529.72 363.221 530.077 363.578 530.077 364.01V365.41C530.077 365.842 529.72 366.199 529.287 366.199Z" fill="#102A54"/>
<path d="M534.519 366.199H533.118C532.686 366.199 532.328 365.842 532.328 365.41V364.01C532.328 363.578 532.686 363.221 533.118 363.221H534.519C534.952 363.221 535.309 363.578 535.309 364.01V365.41C535.324 365.842 534.967 366.199 534.519 366.199Z" fill="#102A54"/>
<path d="M539.752 366.199H538.351C537.918 366.199 537.561 365.842 537.561 365.41V364.01C537.561 363.578 537.918 363.221 538.351 363.221H539.752C540.184 363.221 540.542 363.578 540.542 364.01V365.41C540.557 365.842 540.199 366.199 539.752 366.199Z" fill="#102A54"/>
<path d="M544.998 366.199H543.597C543.165 366.199 542.807 365.842 542.807 365.41V364.01C542.807 363.578 543.165 363.221 543.597 363.221H544.998C545.431 363.221 545.788 363.578 545.788 364.01V365.41C545.788 365.842 545.431 366.199 544.998 366.199Z" fill="#102A54"/>
<path d="M550.231 366.199H548.83C548.397 366.199 548.04 365.842 548.04 365.41V364.01C548.04 363.578 548.397 363.221 548.83 363.221H550.231C550.663 363.221 551.021 363.578 551.021 364.01V365.41C551.036 365.842 550.678 366.199 550.231 366.199Z" fill="#102A54"/>
<path d="M555.478 366.199H554.077C553.644 366.199 553.287 365.842 553.287 365.41V364.01C553.287 363.578 553.644 363.221 554.077 363.221H555.478C555.91 363.221 556.268 363.578 556.268 364.01V365.41C556.268 365.842 555.91 366.199 555.478 366.199Z" fill="#102A54"/>
<path d="M560.71 366.199H559.309C558.876 366.199 558.519 365.842 558.519 365.41V364.01C558.519 363.578 558.876 363.221 559.309 363.221H560.71C561.142 363.221 561.5 363.578 561.5 364.01V365.41C561.5 365.842 561.142 366.199 560.71 366.199Z" fill="#102A54"/>
<path d="M565.942 366.199H564.54C564.108 366.199 563.75 365.842 563.75 365.41V364.01C563.75 363.578 564.108 363.221 564.54 363.221H565.942C566.374 363.221 566.732 363.578 566.732 364.01V365.41C566.747 365.842 566.389 366.199 565.942 366.199Z" fill="#102A54"/>
<defs>
<clipPath id="clip0_314_3182">
<rect width="589.626" height="439" fill="white" transform="translate(0.170898 0.835938)"/>
</clipPath>
</defs>
</svg>
