<svg width="234" height="53" viewBox="0 0 234 53" fill="none" xmlns="http://www.w3.org/2000/svg">
<path d="M75.9041 0.961336C73.2808 2.33704 72.3018 4.6591 72.3018 11.0735C72.3018 11.0735 73.6308 9.78801 75.6018 9.07437C77.0373 8.5522 78.2645 7.7612 78.9748 7.24161C81.192 5.61707 81.5336 3.52386 81.5336 0.00337805C81.5336 0.00337805 77.919 -0.094615 75.9041 0.961336Z" fill="#F9C638"/>
<path d="M60.3422 2.46416C58.2023 4.35043 57.5764 7.35712 57.5764 7.35712L50.4928 34.8087L44.5997 12.3423C44.0261 9.95381 42.9916 7.00063 41.3557 5.00412C39.27 2.45901 35.0314 2.30106 34.5815 2.30106C34.129 2.30106 29.8905 2.45901 27.806 5.00412C26.1689 7.00063 25.1344 9.95381 24.5607 12.3423L18.6695 34.8087L11.584 7.35712C11.584 7.35712 10.9594 4.35043 8.82018 2.46416C5.35057 -0.596037 0.146484 0.0595845 0.146484 0.0595845L13.7123 51.3629C13.7123 51.3629 18.1881 51.6839 20.4272 50.5422C23.3696 49.0434 24.7689 47.8862 26.5504 40.9065C28.1373 34.6823 32.5744 16.4036 32.9875 15.1021C33.1925 14.4593 33.4523 12.9218 34.5809 12.9218C35.7353 12.9218 35.9731 14.4581 36.1748 15.1021C36.5815 16.4056 41.0251 34.6823 42.6119 40.9065C44.3909 47.8856 45.7928 49.0434 48.7332 50.5422C50.9724 51.6839 55.4481 51.3629 55.4481 51.3629L69.014 0.0595845C69.014 0.0595845 63.8118 -0.596037 60.3422 2.46416ZM81.5304 8.43564C81.5304 8.43564 80.6809 9.74752 78.7454 10.8305C77.5014 11.5255 76.309 11.9967 75.0282 12.6098C72.8825 13.6413 72.3018 14.7875 72.3018 16.5377V51.3622C72.3018 51.3622 75.7244 51.7954 77.9635 50.6531C80.8472 49.1839 81.5092 47.7676 81.5337 41.3874V10.2929H81.5304V8.43628V8.43564ZM115.346 25.8344L132.558 0.22913C132.558 0.22913 125.294 -1.00797 121.697 2.2669C119.396 4.36333 116.821 8.13071 116.821 8.13071L110.488 17.263C110.181 17.7374 109.778 18.2545 109.137 18.2545C108.495 18.2545 108.092 17.7374 107.786 17.263L101.452 8.13071C101.452 8.13071 98.8778 4.36333 96.5755 2.2669C92.9776 -1.00797 85.7136 0.22913 85.7136 0.22913L102.927 25.835L85.7593 51.3629C85.7593 51.3629 93.3251 52.317 96.921 49.0421C99.2233 46.9469 101.452 43.5399 101.452 43.5399L107.786 34.4083C108.092 33.9332 108.495 33.4162 109.137 33.4162C109.778 33.4162 110.181 33.9332 110.488 34.4083L116.821 43.5399C116.821 43.5399 119.18 46.9476 121.482 49.0421C125.079 52.317 132.513 51.3629 132.513 51.3629L115.347 25.8344" fill="#2A2D2C"/>
<path d="M138.891 52.2344C138.276 52.2344 137.745 52.0156 137.297 51.5781C136.859 51.1302 136.641 50.599 136.641 49.9844C136.641 49.3594 136.859 48.8281 137.297 48.3906C137.745 47.9531 138.276 47.7344 138.891 47.7344C139.516 47.7344 140.047 47.9531 140.484 48.3906C140.922 48.8281 141.141 49.3594 141.141 49.9844C141.141 50.3906 141.036 50.7656 140.828 51.1094C140.63 51.4531 140.359 51.7292 140.016 51.9375C139.682 52.1354 139.307 52.2344 138.891 52.2344ZM157.863 52.5C155.717 52.5 153.848 51.9635 152.254 50.8906C150.671 49.8177 149.441 48.349 148.566 46.4844C147.691 44.6198 147.254 42.4948 147.254 40.1094C147.254 37.7031 147.697 35.5625 148.582 33.6875C149.478 31.8125 150.717 30.3437 152.301 29.2812C153.884 28.2083 155.723 27.6719 157.816 27.6719C159.421 27.6719 160.874 27.9844 162.176 28.6094C163.478 29.224 164.551 30.0937 165.395 31.2187C166.249 32.3333 166.785 33.6354 167.004 35.125H164.191C163.9 33.7708 163.197 32.6146 162.082 31.6562C160.978 30.6875 159.572 30.2031 157.863 30.2031C156.332 30.2031 154.978 30.6198 153.801 31.4531C152.624 32.276 151.702 33.4271 151.035 34.9062C150.379 36.375 150.051 38.0781 150.051 40.0156C150.051 41.9635 150.374 43.6875 151.02 45.1875C151.665 46.6771 152.572 47.8437 153.738 48.6875C154.915 49.5312 156.29 49.9531 157.863 49.9531C158.926 49.9531 159.895 49.7552 160.77 49.3594C161.655 48.9531 162.395 48.3802 162.988 47.6406C163.592 46.901 163.999 46.0208 164.207 45H167.02C166.811 46.4479 166.296 47.7396 165.473 48.875C164.66 50 163.603 50.8854 162.301 51.5312C161.009 52.1771 159.53 52.5 157.863 52.5ZM182.309 52.5C180.236 52.5 178.402 51.974 176.809 50.9219C175.225 49.8698 173.986 48.4167 173.09 46.5625C172.194 44.6979 171.746 42.5469 171.746 40.1094C171.746 37.651 172.194 35.4896 173.09 33.625C173.986 31.75 175.225 30.2917 176.809 29.25C178.402 28.1979 180.236 27.6719 182.309 27.6719C184.382 27.6719 186.21 28.1979 187.793 29.25C189.376 30.3021 190.616 31.7604 191.512 33.625C192.418 35.4896 192.871 37.651 192.871 40.1094C192.871 42.5469 192.423 44.6979 191.527 46.5625C190.632 48.4167 189.387 49.8698 187.793 50.9219C186.21 51.974 184.382 52.5 182.309 52.5ZM182.309 49.9531C183.975 49.9531 185.387 49.5052 186.543 48.6094C187.699 47.7135 188.574 46.5208 189.168 45.0312C189.772 43.5417 190.074 41.901 190.074 40.1094C190.074 38.3177 189.772 36.6719 189.168 35.1719C188.574 33.6719 187.699 32.4687 186.543 31.5625C185.387 30.6562 183.975 30.2031 182.309 30.2031C180.652 30.2031 179.241 30.6562 178.074 31.5625C176.918 32.4687 176.038 33.6719 175.434 35.1719C174.84 36.6719 174.543 38.3177 174.543 40.1094C174.543 41.901 174.84 43.5417 175.434 45.0312C176.038 46.5208 176.918 47.7135 178.074 48.6094C179.23 49.5052 180.642 49.9531 182.309 49.9531ZM198.977 52V28H201.68V31.6875H201.93C202.409 30.4479 203.206 29.474 204.32 28.7656C205.445 28.0469 206.794 27.6875 208.367 27.6875C210.023 27.6875 211.383 28.0781 212.445 28.8594C213.518 29.6302 214.32 30.6927 214.852 32.0469H215.055C215.596 30.7135 216.477 29.6562 217.695 28.875C218.924 28.0833 220.414 27.6875 222.164 27.6875C224.393 27.6875 226.154 28.3906 227.445 29.7969C228.737 31.1927 229.383 33.2344 229.383 35.9219V52H226.602V35.9219C226.602 34.026 226.117 32.6042 225.148 31.6562C224.18 30.7083 222.904 30.2344 221.32 30.2344C219.487 30.2344 218.076 30.7969 217.086 31.9219C216.096 33.0469 215.602 34.474 215.602 36.2031V52H212.758V35.6719C212.758 34.0469 212.305 32.7344 211.398 31.7344C210.492 30.7344 209.216 30.2344 207.57 30.2344C206.466 30.2344 205.471 30.5052 204.586 31.0469C203.711 31.5885 203.018 32.3437 202.508 33.3125C202.008 34.2708 201.758 35.375 201.758 36.625V52H198.977Z" fill="black"/>
</svg>
